<svg fill="none" height="90" viewBox="0 0 110 90" width="110" xmlns="http://www.w3.org/2000/svg"><path d="m15 45c0-24.8528 20.1472-45 45-45h50v90h-50c-24.8528 0-45-20.1472-45-45z" fill="#88caf0"/><path d="m85.2562 40c-8.2144 0-14.7437 6.5293-14.7437 14.625 0 1.8956.362 3.7056 1.0202 5.3708h-3.1002v-19.7983h-9.1358v12.0185c-1.1519-6.9439-7.1679-12.216-14.5529-12.216-8.2144 0-14.7438 6.5293-14.7438 14.625s6.5294 14.625 14.7438 14.625c7.3784 0 13.401-5.2721 14.5463-12.216v12.0185h12.6243v-8.1681c2.3498 4.9496 7.4048 8.3656 13.3418 8.3656 8.2144 0 14.7438-6.5293 14.7438-14.625s-6.5294-14.625-14.7438-14.625zm-46.3244 20.2328c-3.0869 0-5.5289-2.5275-5.5289-5.6078s2.442-5.6078 5.5289-5.6078c3.087 0 5.5289 2.5275 5.5289 5.6078s-2.4419 5.6078-5.5289 5.6078zm40.5059 0c-3.087 0-5.5289-2.5275-5.5289-5.6078s2.4419-5.6078 5.5289-5.6078 5.5289 2.5275 5.5289 5.6078-2.4419 5.6078-5.5289 5.6078z" fill="#1c1e0d"/><g fill="#000"><path d="m36.9271 34.1738.7423-.9647c1.0191.6327 2.1075.2631 2.812-.6451.6731-.8707.7738-1.923-.1321-2.6183-.8304-.6326-1.579-.4196-2.9504.7391-1.2267 1.0336-2.4346 1.591-3.5984.7016-1.0946-.8331-1.0254-2.3802-.044-3.6518 1.1072-1.4406 2.5855-1.7726 3.9695-.8644l-.7234.9396c-.8682-.4823-1.6608-.2506-2.3276.6201-.5914.7642-.6606 1.5659-.151 1.9543.6354.4823 1.3588.119 2.6421-.9396 1.3777-1.1462 2.6862-1.4657 3.9192-.5261 1.384 1.0585 1.4281 2.8813.3083 4.3345-1.0694 1.3843-2.9378 1.948-4.4665.9145z"/><path d="m42.7398 28.3485-2.8686-3.4764.8933-.7266 2.7365 3.3135c.5473.664 1.2205.7391 1.8873.1942.6165-.5074.7926-1.3592.7172-2.2111l-2.7995-3.3824.8933-.7266 4.1646 5.036-.8933.7266-.541-.6577c-.0441.664-.3964 1.591-1.145 2.2049-1.082.8894-2.2018.7203-3.0448-.2944z"/><path d="m49.5214 25.7052-3.1832-5.7 1.0066-.5575.4151.7391c.1384-.6577.4844-1.3843 1.2079-1.7852.2076-.1127.3712-.1628.5096-.1628l.3019.9207c-.1069.0251-.1887.0627-.3837.1692-.6417.357-1.0191 1.0711-1.0066 1.9856l2.1389 3.8334z"/><path d="m54.1955 26.0434-2.8875-8.669 1.0946-.3633.2265.6827c.2327-.5011.7486-1.14 1.7111-1.4594 1.5287-.5074 3.2586.3006 3.9192 2.28.6605 1.9793-.1195 3.6142-1.7489 4.1528-.7989.2631-1.623.2193-2.2647-.119l1.0443 3.1319zm2.9693-7.172c-.5222-1.5597-1.6231-1.9355-2.6736-1.591-.9814.3257-1.5539 1.3405-1.2645 2.2174l.3963 1.1901c.2957.8769 1.3714 1.378 2.3528 1.0523 1.0443-.3445 1.7048-1.3028 1.1827-2.8688z"/><path d="m60.2599 21.5586-.8745-6.4642 1.145-.1504.1132.8394c.3712-.5637.9625-1.115 1.7803-1.2277.2328-.0313.4089-.0125.5348.0313l-.0567.9709c-.1069-.0125-.2013-.0125-.4215.0188-.7297.1002-1.3462.6264-1.6607 1.4845l.585 4.347z"/><path d="m64.393 12.7956c-.0063-.4322.3397-.7893.7674-.7955.4341-.0063.7927.3382.799.7704s-.3397.7893-.7675.7955c-.4278.0063-.7926-.3382-.7989-.7704zm.3711 8.2932-.1321-6.5206 1.1512-.025.1322 6.5205z"/><path d="m67.1672 18.9591 1.0821.1253c.0943.6827.4592 1.1838 1.4972 1.2966.692.0814 1.3525-.1754 1.4217-.7705.0692-.5825-.5033-.9082-1.7425-1.378-1.2519-.4698-1.8118-1.0711-1.6986-2.0858.107-.9458 1.1009-1.6474 2.4031-1.4971 1.3903.1566 2.2459.9772 2.2144 2.3239l-1.1323-.1315c-.0126-.7078-.4782-1.1338-1.1953-1.2152-.5096-.0564-1.1324.094-1.189.6138-.0566.4824.4467.8018 1.5853 1.2465 1.3274.5199 2.0131 1.0962 1.8936 2.1046-.1384 1.1902-1.2142 1.9857-2.6988 1.8228-1.5476-.1754-2.4597-1.0962-2.4346-2.4554z"/><path d="m73.6783 18.5332c.6291-1.9355 2.4597-2.7686 4.0953-2.2424 1.6671.5386 2.5541 2.1046 1.8999 4.0964l-.1384.4197-4.8566-1.5722c-.3523 1.2027.2076 2.1547 1.3274 2.518.9688.3132 1.774.0126 2.2395-.6577l1.0191.332c-.7863 1.2653-2.0634 1.8165-3.5983 1.3154-1.8936-.6138-2.617-2.2737-1.9879-4.2092zm5.127 1.0022c.2705-1.1212-.39-1.9355-1.3588-2.2487s-1.9376.0313-2.4534 1.0147z"/><path d="m81.6677 24.941 4.0387-5.13.9059.7078-.4781.6076c.7423-.119 1.4846.0188 2.1263.5136.6605.5136.8367 1.0523.7045 1.7476.8682-.0689 1.6545.1002 2.2962.595 1.0506.8206 1.0569 1.7664.4215 2.5682l-3.0322 3.8522-.9059-.7078 2.8183-3.5829c.4152-.5261.4026-1.0586-.1635-1.5033-.5159-.4009-1.1638-.4948-1.8747-.2881l-2.919 3.7081-.9059-.7078 2.7869-3.539c.4278-.545.4655-1.0774-.1195-1.5346-.497-.3884-1.2708-.3758-1.9817-.1691l-2.8183 3.5828-.9058-.7078z"/><path d="m91.7079 29.1314c1.6356-1.2151 3.6172-.8456 4.6426.5262 1.0506 1.4031.8619 3.182-.8241 4.441l-.3586.2631-3.0573-4.0777c-.9877.7829-1.0821 1.8728-.3775 2.8187.6102.8142 1.4406 1.0272 2.2144.7516l.6417.8581c-1.3777.5826-2.7365.2944-3.7053-.9959-1.189-1.591-.8179-3.3636.8178-4.5788zm3.6046 3.7708c.8682-.7579.8052-1.8039.195-2.6182s-1.5978-1.0899-2.5918-.5826z"/></g></svg>