<svg xmlns="http://www.w3.org/2000/svg" width="1200" height="1200" viewBox="0 0 1200 1200">
  <rect width="1200" height="1200" fill="#1c1c1e" />
  <path d="M900.00,600.00 L900.00,595.50 L899.99,591.00 L899.97,586.50 L899.94,582.01 L899.91,577.52 L899.87,573.04 L899.82,568.56 L899.76,564.09 L899.70,559.62 L899.63,555.17 L899.55,550.72 L899.46,546.29 L899.37,541.87 L899.27,537.46 L899.16,533.07 L899.04,528.69 L898.92,524.33 L898.79,519.98 L898.65,515.65 L898.50,511.34 L898.35,507.06 L898.19,502.79 L898.02,498.54 L897.84,494.32 L897.66,490.12 L897.47,485.94 L897.27,481.79 L897.06,477.67 L896.85,473.58 L896.63,469.51 L896.40,465.47 L896.17,461.47 L895.93,457.49 L895.68,453.55 L895.42,449.64 L895.15,445.76 L894.88,441.92 L894.60,438.11 L894.31,434.34 L894.02,430.61 L893.72,426.91 L893.41,423.26 L893.09,419.64 L892.77,416.06 L892.44,412.53 L892.10,409.04 L891.75,405.59 L891.40,402.18 L891.04,398.82 L890.67,395.51 L890.30,392.24 L889.92,389.02 L889.53,385.84 L889.13,382.71 L888.73,379.64 L888.32,376.61 L887.90,373.63 L887.47,370.70 L887.04,367.83 L886.60,365.00 L886.15,362.23 L885.70,359.51 L885.24,356.85 L884.77,354.24 L884.30,351.69 L883.81,349.19 L883.32,346.75 L882.83,344.37 L882.32,342.04 L881.81,339.77 L881.29,337.56 L880.77,335.41 L880.24,333.32 L879.70,331.29 L879.15,329.32 L878.60,327.41 L878.04,325.56 L877.47,323.77 L876.90,322.05 L876.32,320.39 L875.73,318.79 L875.14,317.25 L874.53,315.78 L873.93,314.37 L873.31,313.03 L872.69,311.75 L872.06,310.53 L871.43,309.39 L870.78,308.30 L870.13,307.28 L869.48,306.33 L868.82,305.44 L868.15,304.62 L867.47,303.87 L866.79,303.18 L866.10,302.56 L865.40,302.01 L864.70,301.52 L863.99,301.10 L863.27,300.75 L862.55,300.47 L861.82,300.25 L861.09,300.10 L860.35,300.02 L859.60,300.00 L858.84,300.06 L858.08,300.18 L857.31,300.36 L856.54,300.62 L855.76,300.94 L854.97,301.33 L854.18,301.79 L853.38,302.31 L852.57,302.90 L851.76,303.56 L850.94,304.28 L850.11,305.08 L849.28,305.93 L848.44,306.86 L847.60,307.85 L846.75,308.90 L845.89,310.02 L845.03,311.21 L844.16,312.46 L843.29,313.77 L842.41,315.15 L841.52,316.60 L840.63,318.11 L839.73,319.68 L838.83,321.31 L837.91,323.01 L837.00,324.77 L836.08,326.59 L835.15,328.47 L834.21,330.42 L833.27,332.42 L832.33,334.49 L831.37,336.61 L830.42,338.79 L829.45,341.04 L828.48,343.34 L827.51,345.70 L826.53,348.11 L825.54,350.58 L824.55,353.11 L823.55,355.70 L822.55,358.34 L821.54,361.03 L820.53,363.78 L819.51,366.58 L818.48,369.43 L817.45,372.34 L816.41,375.29 L815.37,378.30 L814.33,381.35 L813.27,384.46 L812.22,387.61 L811.15,390.82 L810.09,394.07 L809.01,397.36 L807.93,400.70 L806.85,404.09 L805.76,407.52 L804.67,410.99 L803.57,414.51 L802.46,418.06 L801.35,421.66 L800.24,425.30 L799.12,428.98 L797.99,432.69 L796.87,436.45 L795.73,440.24 L794.59,444.07 L793.45,447.93 L792.30,451.82 L791.15,455.75 L789.99,459.71 L788.82,463.71 L787.66,467.73 L786.48,471.79 L785.31,475.87 L784.12,479.98 L782.94,484.12 L781.75,488.28 L780.55,492.47 L779.35,496.68 L778.15,500.92 L776.94,505.18 L775.72,509.46 L774.50,513.76 L773.28,518.08 L772.06,522.41 L770.83,526.77 L769.59,531.14 L768.35,535.53 L767.11,539.93 L765.86,544.35 L764.61,548.77 L763.35,553.21 L762.09,557.66 L760.83,562.12 L759.56,566.59 L758.29,571.07 L757.01,575.55 L755.73,580.04 L754.45,584.53 L753.16,589.02 L751.87,593.52 L750.57,598.02 L749.27,602.52 L747.97,607.02 L746.66,611.52 L745.35,616.01 L744.04,620.51 L742.72,624.99 L741.40,629.47 L740.07,633.95 L738.75,638.42 L737.41,642.87 L736.08,647.32 L734.74,651.76 L733.40,656.19 L732.05,660.60 L730.70,665.00 L729.35,669.39 L728.00,673.76 L726.64,678.11 L725.28,682.45 L723.91,686.76 L722.55,691.06 L721.18,695.34 L719.80,699.60 L718.43,703.83 L717.05,708.04 L715.66,712.22 L714.28,716.39 L712.89,720.52 L711.50,724.63 L710.10,728.71 L708.71,732.76 L707.31,736.78 L705.91,740.77 L704.50,744.72 L703.09,748.65 L701.68,752.54 L700.27,756.40 L698.86,760.22 L697.44,764.01 L696.02,767.76 L694.60,771.47 L693.17,775.14 L691.75,778.78 L690.32,782.37 L688.88,785.92 L687.45,789.43 L686.01,792.90 L684.58,796.32 L683.14,799.70 L681.69,803.04 L680.25,806.33 L678.80,809.57 L677.36,812.77 L675.90,815.92 L674.45,819.02 L673.00,822.07 L671.54,825.07 L670.09,828.02 L668.63,830.92 L667.16,833.76 L665.70,836.56 L664.24,839.30 L662.77,841.99 L661.30,844.62 L659.83,847.20 L658.36,849.72 L656.89,852.18 L655.42,854.59 L653.94,856.94 L652.47,859.24 L650.99,861.47 L649.51,863.65 L648.03,865.77 L646.55,867.82 L645.07,869.82 L643.58,871.76 L642.10,873.63 L640.61,875.45 L639.13,877.20 L637.64,878.89 L636.15,880.52 L634.66,882.08 L633.17,883.58 L631.68,885.02 L630.19,886.39 L628.69,887.70 L627.20,888.94 L625.71,890.12 L624.21,891.23 L622.72,892.28 L621.22,893.26 L619.72,894.17 L618.23,895.02 L616.73,895.81 L615.23,896.52 L613.73,897.17 L612.24,897.76 L610.74,898.27 L609.24,898.72 L607.74,899.10 L606.24,899.42 L604.74,899.66 L603.24,899.84 L601.74,899.95 L600.24,900.00 L598.74,899.98 L597.24,899.89 L595.74,899.73 L594.24,899.50 L592.74,899.21 L591.24,898.85 L589.74,898.42 L588.24,897.93 L586.74,897.37 L585.24,896.74 L583.75,896.04 L582.25,895.28 L580.75,894.45 L579.26,893.56 L577.76,892.60 L576.26,891.57 L574.77,890.48 L573.27,889.32 L571.78,888.10 L570.29,886.81 L568.80,885.46 L567.30,884.04 L565.81,882.56 L564.32,881.02 L562.83,879.41 L561.35,877.74 L559.86,876.01 L558.37,874.22 L556.89,872.36 L555.40,870.45 L553.92,868.47 L552.44,866.43 L550.96,864.33 L549.48,862.17 L548.00,859.96 L546.53,857.68 L545.05,855.35 L543.58,852.96 L542.10,850.51 L540.63,848.00 L539.16,845.44 L537.70,842.83 L536.23,840.16 L534.76,837.44 L533.30,834.66 L531.84,831.83 L530.38,828.95 L528.92,826.01 L527.46,823.03 L526.01,819.99 L524.56,816.91 L523.11,813.78 L521.66,810.60 L520.21,807.37 L518.77,804.09 L517.32,800.77 L515.88,797.41 L514.44,794.00 L513.01,790.54 L511.57,787.04 L510.14,783.50 L508.71,779.92 L507.28,776.30 L505.86,772.64 L504.43,768.94 L503.01,765.21 L501.59,761.43 L500.18,757.62 L498.77,753.77 L497.36,749.89 L495.95,745.98 L494.54,742.03 L493.14,738.05 L491.74,734.04 L490.34,730.00 L488.95,725.93 L487.55,721.83 L486.16,717.71 L484.78,713.55 L483.39,709.38 L482.01,705.17 L480.64,700.95 L479.26,696.70 L477.89,692.43 L476.52,688.14 L475.16,683.82 L473.79,679.49 L472.43,675.15 L471.08,670.78 L469.73,666.40 L468.38,662.01 L467.03,657.60 L465.69,653.17 L464.35,648.74 L463.01,644.29 L461.68,639.84 L460.35,635.37 L459.02,630.90 L457.70,626.42 L456.38,621.94 L455.07,617.45 L453.76,612.95 L452.45,608.45 L451.14,603.96 L449.84,599.46 L448.55,594.96 L447.25,590.46 L445.96,585.96 L444.68,581.47 L443.40,576.98 L442.12,572.49 L440.85,568.02 L439.58,563.55 L438.31,559.08 L437.05,554.63 L435.79,550.19 L434.54,545.76 L433.29,541.34 L432.05,536.93 L430.80,532.54 L429.57,528.16 L428.34,523.80 L427.11,519.46 L425.88,515.13 L424.66,510.82 L423.45,506.54 L422.24,502.27 L421.03,498.03 L419.83,493.81 L418.63,489.61 L417.44,485.44 L416.25,481.29 L415.07,477.17 L413.89,473.08 L412.72,469.02 L411.55,464.99 L410.38,460.98 L409.22,457.01 L408.07,453.07 L406.92,449.17 L405.77,445.29 L404.63,441.45 L403.50,437.65 L402.36,433.89 L401.24,430.16 L400.12,426.47 L399.00,422.82 L397.89,419.21 L396.78,415.64 L395.68,412.11 L394.59,408.62 L393.50,405.18 L392.41,401.78 L391.33,398.42 L390.26,395.11 L389.19,391.85 L388.12,388.63 L387.06,385.46 L386.01,382.34 L384.96,379.27 L383.92,376.24 L382.88,373.27 L381.85,370.35 L380.82,367.48 L379.80,364.66 L378.78,361.90 L377.77,359.19 L376.77,356.53 L375.77,353.93 L374.77,351.38 L373.79,348.89 L372.80,346.46 L371.83,344.08 L370.86,341.76 L369.89,339.50 L368.93,337.30 L367.98,335.16 L367.03,333.07 L366.09,331.05 L365.15,329.09 L364.22,327.18 L363.30,325.34 L362.38,323.56 L361.46,321.85 L360.56,320.19 L359.66,318.60 L358.76,317.07 L357.87,315.61 L356.99,314.21 L356.11,312.87 L355.24,311.60 L354.38,310.39 L353.52,309.25 L352.67,308.17 L351.82,307.16 L350.98,306.22 L350.15,305.34 L349.32,304.53 L348.50,303.78 L347.69,303.10 L346.88,302.49 L346.08,301.95 L345.28,301.47 L344.49,301.06 L343.71,300.71 L342.93,300.44 L342.16,300.23 L341.40,300.09 L340.64,300.01 L339.89,300.01 L339.15,300.07 L338.41,300.19 L337.68,300.39 L336.95,300.65 L336.24,300.98 L335.53,301.38 L334.82,301.85 L334.12,302.38 L333.43,302.98 L332.75,303.64 L332.07,304.38 L331.40,305.18 L330.73,306.04 L330.07,306.97 L329.42,307.97 L328.78,309.03 L328.14,310.16 L327.51,311.36 L326.89,312.61 L326.27,313.94 L325.66,315.33 L325.05,316.78 L324.46,318.29 L323.87,319.87 L323.29,321.51 L322.71,323.22 L322.14,324.99 L321.58,326.81 L321.02,328.70 L320.47,330.66 L319.93,332.67 L319.40,334.74 L318.87,336.87 L318.35,339.06 L317.84,341.31 L317.33,343.62 L316.83,345.99 L316.34,348.41 L315.86,350.89 L315.38,353.42 L314.91,356.01 L314.45,358.66 L313.99,361.36 L313.54,364.11 L313.10,366.92 L312.66,369.78 L312.24,372.69 L311.82,375.65 L311.40,378.67 L311.00,381.73 L310.60,384.84 L310.21,388.00 L309.82,391.21 L309.44,394.46 L309.08,397.76 L308.71,401.11 L308.36,404.50 L308.01,407.94 L307.67,411.41 L307.34,414.93 L307.01,418.50 L306.69,422.10 L306.38,425.74 L306.08,429.43 L305.78,433.15 L305.49,436.91 L305.21,440.70 L304.93,444.53 L304.67,448.40 L304.41,452.30 L304.15,456.23 L303.91,460.20 L303.67,464.19 L303.44,468.22 L303.22,472.28 L303.00,476.36 L302.79,480.48 L302.59,484.62 L302.40,488.79 L302.21,492.98 L302.04,497.19 L301.87,501.43 L301.70,505.69 L301.55,509.98 L301.40,514.28 L301.26,518.60 L301.12,522.94 L301.00,527.30 L300.88,531.67 L300.77,536.06 L300.66,540.46 L300.57,544.88 L300.48,549.31 L300.40,553.75 L300.33,558.20 L300.26,562.66 L300.20,567.13 L300.15,571.61 L300.11,576.09 L300.07,580.58 L300.04,585.07 L300.02,589.57 L300.01,594.07 L300.00,598.57 L300.00,603.07 L300.01,607.57 L300.03,612.06 L300.05,616.56 L300.08,621.05 L300.12,625.54 L300.17,630.02 L300.22,634.49 L300.28,638.96 L300.35,643.41 L300.43,647.86 L300.51,652.30 L300.60,656.72 L300.70,661.14 L300.81,665.53 L300.92,669.92 L301.04,674.29 L301.17,678.64 L301.31,682.97 L301.45,687.29 L301.60,691.58 L301.76,695.86 L301.93,700.11 L302.10,704.34 L302.28,708.55 L302.47,712.73 L302.67,716.89 L302.87,721.02 L303.08,725.12 L303.30,729.20 L303.52,733.24 L303.76,737.26 L304.00,741.25 L304.24,745.20 L304.50,749.12 L304.76,753.01 L305.03,756.86 L305.31,760.68 L305.59,764.46 L305.89,768.21 L306.18,771.91 L306.49,775.58 L306.81,779.21 L307.13,782.80 L307.46,786.35 L307.79,789.85 L308.13,793.32 L308.49,796.74 L308.84,800.11 L309.21,803.44 L309.58,806.72 L309.96,809.96 L310.35,813.15 L310.74,816.30 L311.14,819.39 L311.55,822.43 L311.97,825.43 L312.39,828.37 L312.82,831.26 L313.26,834.10 L313.70,836.89 L314.15,839.63 L314.61,842.31 L315.08,844.93 L315.55,847.50 L316.03,850.02 L316.52,852.48 L317.01,854.88 L317.52,857.22 L318.02,859.51 L318.54,861.74 L319.06,863.91 L319.59,866.02 L320.13,868.07 L320.67,870.06 L321.22,871.99 L321.78,873.86 L322.35,875.66 L322.92,877.41 L323.50,879.09 L324.08,880.71 L324.67,882.26 L325.27,883.76 L325.88,885.19 L326.49,886.55 L327.11,887.85 L327.74,889.09 L328.37,890.26 L329.01,891.36 L329.66,892.40 L330.31,893.37 L330.97,894.28 L331.64,895.12 L332.31,895.90 L332.99,896.61 L333.68,897.25 L334.38,897.82 L335.08,898.33 L335.78,898.77 L336.50,899.14 L337.22,899.45 L337.94,899.69 L338.68,899.86 L339.42,899.96 L340.16,900.00 L340.92,899.97 L341.68,899.87 L342.44,899.70 L343.21,899.47 L343.99,899.17 L344.78,898.80 L345.57,898.37 L346.37,897.86 L347.17,897.29 L347.98,896.66 L348.80,895.95 L349.62,895.18 L350.45,894.35 L351.29,893.45 L352.13,892.48 L352.98,891.44 L353.83,890.34 L354.69,889.18 L355.56,887.95 L356.43,886.65 L357.31,885.29 L358.20,883.87 L359.09,882.38 L359.98,880.83 L360.89,879.22 L361.79,877.54 L362.71,875.80 L363.63,874.00 L364.56,872.13 L365.49,870.21 L366.43,868.22 L367.37,866.18 L368.32,864.07 L369.28,861.91 L370.24,859.68 L371.21,857.40 L372.18,855.06 L373.16,852.66 L374.14,850.21 L375.13,847.70 L376.13,845.13 L377.13,842.51 L378.14,839.83 L379.15,837.10 L380.17,834.32 L381.19,831.48 L382.22,828.60 L383.25,825.66 L384.29,822.66 L385.34,819.62 L386.39,816.53 L387.45,813.40 L388.51,810.21 L389.57,806.97 L390.65,803.69 L391.72,800.37 L392.80,797.00 L393.89,793.58 L394.98,790.12 L396.08,786.62 L397.18,783.07 L398.29,779.49 L399.41,775.86 L400.52,772.20 L401.65,768.49 L402.77,764.75 L403.91,760.97 L405.04,757.16 L406.19,753.31 L407.33,749.42 L408.49,745.50 L409.64,741.55 L410.81,737.57 L411.97,733.55 L413.14,729.51 L414.32,725.43 L415.50,721.33 L416.68,717.20 L417.87,713.05 L419.07,708.87 L420.27,704.66 L421.47,700.43 L422.68,696.18 L423.89,691.91 L425.11,687.62 L426.33,683.30 L427.55,678.97 L428.78,674.62 L430.02,670.25 L431.25,665.87 L432.50,661.47 L433.74,657.06 L434.99,652.64 L436.25,648.20 L437.51,643.75 L438.77,639.30 L440.04,634.83 L441.31,630.36 L442.58,625.88 L443.86,621.39 L445.14,616.90 L446.43,612.41 L447.72,607.91 L449.02,603.41 L450.31,598.91 L451.62,594.41 L452.92,589.91 L454.23,585.42 L455.54,580.92 L456.86,576.44 L458.18,571.95 L459.50,567.48 L460.83,563.01 L462.16,558.54 L463.50,554.09 L464.83,549.65 L466.17,545.22 L467.52,540.80 L468.87,536.40 L470.22,532.01 L471.57,527.63 L472.93,523.27 L474.29,518.93 L475.65,514.61 L477.02,510.30 L478.39,506.02 L479.76,501.76 L481.14,497.52 L482.51,493.30 L483.90,489.11 L485.28,484.94 L486.67,480.79 L488.06,476.68 L489.45,472.59 L490.85,468.53 L492.25,464.50 L493.65,460.50 L495.05,456.53 L496.46,452.60 L497.87,448.69 L499.28,444.83 L500.69,440.99 L502.11,437.19 L503.53,433.43 L504.95,429.71 L506.37,426.02 L507.80,422.38 L509.23,418.77 L510.66,415.21 L512.09,411.68 L513.53,408.20 L514.97,404.76 L516.40,401.37 L517.85,398.02 L519.29,394.71 L520.74,391.45 L522.18,388.24 L523.63,385.08 L525.08,381.96 L526.54,378.90 L527.99,375.88 L529.45,372.92 L530.91,370.00 L532.37,367.14 L533.83,364.33 L535.30,361.57 L536.76,358.86 L538.23,356.21 L539.70,353.62 L541.17,351.08 L542.64,348.60 L544.11,346.17 L545.59,343.80 L547.06,341.49 L548.54,339.23 L550.02,337.04 L551.50,334.90 L552.98,332.82 L554.46,330.81 L555.94,328.85 L557.43,326.96 L558.91,325.12 L560.40,323.35 L561.89,321.64 L563.37,320.00 L564.86,318.41 L566.35,316.89 L567.85,315.43 L569.34,314.04 L570.83,312.71 L572.32,311.45 L573.82,310.25 L575.31,309.12 L576.81,308.05 L578.30,307.05 L579.80,306.11 L581.30,305.24 L582.79,304.44 L584.29,303.70 L585.79,303.03 L587.29,302.42 L588.79,301.89 L590.29,301.42 L591.78,301.01 L593.28,300.68 L594.78,300.41 L596.28,300.21 L597.78,300.07 L599.28,300.01 L600.78,300.01 L602.28,300.08 L603.78,300.21 L605.28,300.42 L606.78,300.69 L608.28,301.03 L609.78,301.43 L611.28,301.91 L612.78,302.45 L614.28,303.05 L615.78,303.73 L617.27,304.47 L618.77,305.28 L620.27,306.15 L621.76,307.09 L623.26,308.10 L624.76,309.17 L626.25,310.30 L627.74,311.50 L629.24,312.77 L630.73,314.10 L632.22,315.50 L633.71,316.96 L635.20,318.48 L636.69,320.07 L638.18,321.72 L639.67,323.43 L641.15,325.20 L642.64,327.04 L644.12,328.94 L645.61,330.90 L647.09,332.92 L648.57,334.99 L650.05,337.13 L651.53,339.33 L653.00,341.59 L654.48,343.90 L655.95,346.28 L657.43,348.71 L658.90,351.19 L660.37,353.73 L661.84,356.33 L663.30,358.98 L664.77,361.69 L666.23,364.45 L667.70,367.26 L669.16,370.13 L670.61,373.05 L672.07,376.01 L673.53,379.03 L674.98,382.10 L676.43,385.22 L677.88,388.39 L679.33,391.60 L680.77,394.86 L682.22,398.17 L683.66,401.52 L685.10,404.91 L686.54,408.35 L687.97,411.84 L689.40,415.36 L690.83,418.93 L692.26,422.54 L693.69,426.19 L695.11,429.87 L696.53,433.60 L697.95,437.36 L699.37,441.16 L700.78,445.00 L702.20,448.87 L703.60,452.77 L705.01,456.71 L706.42,460.68 L707.82,464.68 L709.21,468.71 L710.61,472.77 L712.00,476.86 L713.39,480.98 L714.78,485.12 L716.17,489.29 L717.55,493.49 L718.93,497.70 L720.30,501.95 L721.67,506.21 L723.04,510.50 L724.41,514.80 L725.77,519.12 L727.13,523.47 L728.49,527.83 L729.84,532.20 L731.19,536.59 L732.54,541.00 L733.89,545.42 L735.23,549.85 L736.56,554.29 L737.90,558.74 L739.23,563.20 L740.56,567.67 L741.88,572.15 L743.20,576.63 L744.51,581.12 L745.83,585.62 L747.14,590.11 L748.44,594.61 L749.74,599.11 L751.04,603.61 L752.34,608.11 L753.63,612.61 L754.91,617.10 L756.19,621.59 L757.47,626.08 L758.75,630.56 L760.02,635.03 L761.29,639.50 L762.55,643.95 L763.81,648.40 L765.06,652.83 L766.31,657.26 L767.56,661.67 L768.80,666.07 L770.04,670.45 L771.27,674.81 L772.50,679.16 L773.73,683.49 L774.95,687.81 L776.16,692.10 L777.38,696.37 L778.58,700.62 L779.79,704.85 L780.98,709.05 L782.18,713.23 L783.37,717.39 L784.55,721.52 L785.73,725.62 L786.91,729.69 L788.08,733.73 L789.25,737.74 L790.41,741.73 L791.56,745.68 L792.72,749.59 L793.86,753.48 L795.01,757.33 L796.14,761.14 L797.28,764.92 L798.40,768.66 L799.53,772.36 L800.64,776.02 L801.76,779.65 L802.86,783.23 L803.97,786.77 L805.06,790.27 L806.16,793.73 L807.24,797.15 L808.33,800.52 L809.40,803.84 L810.47,807.12 L811.54,810.35 L812.60,813.54 L813.66,816.67 L814.71,819.76 L815.75,822.80 L816.79,825.79 L817.83,828.72 L818.85,831.61 L819.88,834.44 L820.90,837.23 L821.91,839.95 L822.91,842.63 L823.92,845.25 L824.91,847.81 L825.90,850.32 L826.88,852.77 L827.86,855.17 L828.84,857.50 L829.80,859.78 L830.76,862.00 L831.72,864.17 L832.67,866.27 L833.61,868.31 L834.55,870.30 L835.48,872.22 L836.41,874.08 L837.33,875.88 L838.25,877.61 L839.15,879.29 L840.06,880.90 L840.95,882.45 L841.84,883.93 L842.73,885.35 L843.61,886.71 L844.48,888.00 L845.35,889.23 L846.21,890.39 L847.06,891.49 L847.91,892.52 L848.75,893.49 L849.58,894.39 L850.41,895.22 L851.24,895.99 L852.05,896.69 L852.86,897.32 L853.67,897.89 L854.47,898.39 L855.26,898.82 L856.04,899.18 L856.82,899.48 L857.59,899.71 L858.36,899.88 L859.12,899.97 L859.87,900.00 L860.62,899.96 L861.36,899.85 L862.09,899.68 L862.82,899.44 L863.54,899.13 L864.25,898.75 L864.96,898.31 L865.66,897.80 L866.35,897.22 L867.04,896.58 L867.72,895.86 L868.39,895.09 L869.06,894.24 L869.72,893.33 L870.37,892.35 L871.02,891.31 L871.66,890.20 L872.29,889.03 L872.92,887.79 L873.54,886.49 L874.15,885.12 L874.75,883.69 L875.35,882.20 L875.94,880.64 L876.53,879.02 L877.11,877.33 L877.68,875.58 L878.24,873.77 L878.80,871.90 L879.35,869.97 L879.89,867.98 L880.43,865.93 L880.96,863.81 L881.48,861.64 L882.00,859.41 L882.51,857.12 L883.01,854.77 L883.50,852.37 L883.99,849.91 L884.47,847.39 L884.94,844.82 L885.41,842.19 L885.87,839.51 L886.32,836.77 L886.76,833.98 L887.20,831.14 L887.63,828.24 L888.05,825.30 L888.47,822.30 L888.87,819.25 L889.28,816.16 L889.67,813.01 L890.06,809.82 L890.44,806.58 L890.81,803.29 L891.17,799.96 L891.53,796.58 L891.88,793.16 L892.22,789.70 L892.56,786.19 L892.89,782.64 L893.21,779.05 L893.52,775.42 L893.83,771.75 L894.13,768.04 L894.42,764.30 L894.70,760.51 L894.98,756.69 L895.25,752.84 L895.51,748.95 L895.77,745.03 L896.01,741.07 L896.25,737.08 L896.49,733.07 L896.71,729.02 L896.93,724.94 L897.14,720.84 L897.34,716.70 L897.54,712.54 L897.73,708.36 L897.91,704.15 L898.08,699.92 L898.25,695.67 L898.40,691.39 L898.56,687.09 L898.70,682.78 L898.83,678.44 L898.96,674.09 L899.08,669.72 L899.20,665.34 L899.30,660.94 L899.40,656.53 L899.49,652.10 L899.58,647.66 L899.65,643.22 L899.72,638.76 L899.78,634.29 L899.83,629.82 L899.88,625.34 L899.92,620.85 L899.95,616.36 L899.97,611.86 L899.99,607.37 L900.00,602.87 L900.00,598.37 L899.99,593.87 L899.98,589.37 L899.96,584.87 L899.93,580.38 L899.89,575.89 L899.85,571.41 L899.80,566.93 L899.74,562.47 L899.67,558.01 L899.60,553.55 L899.52,549.11 L899.43,544.69 L899.33,540.27 L899.23,535.87 L899.12,531.48 L899.00,527.10 L898.87,522.75 L898.74,518.41 L898.60,514.09 L898.45,509.78 L898.29,505.50 L898.13,501.24 L897.96,497.01 L897.78,492.79 L897.59,488.60 L897.40,484.43 L897.20,480.30 L896.99,476.18 L896.77,472.10 L896.55,468.04 L896.32,464.02 L896.08,460.02 L895.84,456.06 L895.58,452.12 L895.32,448.23 L895.06,444.36 L894.78,440.53 L894.50,436.74 L894.21,432.98 L893.91,429.26 L893.61,425.58 L893.30,421.94 L892.98,418.34 L892.65,414.78 L892.32,411.26 L891.98,407.78 L891.63,404.35 L891.27,400.96 L890.91,397.62 L890.54,394.32 L890.16,391.06 L889.78,387.86 L889.38,384.70 L888.99,381.59 L888.58,378.53 L888.17,375.52 L887.74,372.56 L887.32,369.65 L886.88,366.79 L886.44,363.99 L885.99,361.24 L885.53,358.54 L885.07,355.90 L884.60,353.31 L884.12,350.78 L883.64,348.30 L883.14,345.88 L882.64,343.52 L882.14,341.21 L881.62,338.96 L881.10,336.78 L880.58,334.65 L880.04,332.58 L879.50,330.57 L878.95,328.62 L878.40,326.73 L877.83,324.91 L877.27,323.14 L876.69,321.44 L876.11,319.80 L875.52,318.22 L874.92,316.71 L874.31,315.26 L873.70,313.88 L873.09,312.56 L872.46,311.30 L871.83,310.11 L871.19,308.98 L870.55,307.92 L869.90,306.93 L869.24,306.00 L868.57,305.14 L867.90,304.34 L867.22,303.61 L866.54,302.95 L865.85,302.35 L865.15,301.82 L864.44,301.36 L863.73,300.97 L863.01,300.64 L862.29,300.38 L861.56,300.19 L860.82,300.06 L860.07,300.00 L859.32,300.01 L858.57,300.09 L857.80,300.24 L857.03,300.45 L856.26,300.73 L855.47,301.07 L854.68,301.49 L853.89,301.97 L853.08,302.52 L852.28,303.13 L851.46,303.81 L850.64,304.56 L849.81,305.38 L848.98,306.26 L848.14,307.21 L847.29,308.22 L846.44,309.30 L845.58,310.44 L844.72,311.65 L843.85,312.93 L842.97,314.27 L842.09,315.67 L841.20,317.14 L840.30,318.67 L839.40,320.26 L838.50,321.92 L837.58,323.64 L836.66,325.42 L835.74,327.27 L834.81,329.17 L833.87,331.14 L832.93,333.16 L831.98,335.25 L831.03,337.40 L830.07,339.60 L829.10,341.87 L828.13,344.19 L827.15,346.57 L826.17,349.00 L825.18,351.50 L824.19,354.05 L823.19,356.65 L822.18,359.31 L821.17,362.02 L820.16,364.79 L819.14,367.61 L818.11,370.48 L817.08,373.40 L816.04,376.38 L814.99,379.40 L813.95,382.48 L812.89,385.60 L811.83,388.77 L810.77,391.99 L809.70,395.26 L808.62,398.57 L807.54,401.93 L806.45,405.33 L805.36,408.77 L804.27,412.26 L803.17,415.79 L802.06,419.37 L800.95,422.98 L799.83,426.63 L798.71,430.32 L797.59,434.05 L796.45,437.82 L795.32,441.62 L794.18,445.46 L793.03,449.34 L791.88,453.25 L790.73,457.19 L789.57,461.16 L788.40,465.17 L787.23,469.20 L786.06,473.26 L784.88,477.36 L783.69,481.48 L782.51,485.62 L781.31,489.80 L780.12,494.00 L778.91,498.22 L777.71,502.46 L776.50,506.73 L775.28,511.01 L774.06,515.32 L772.84,519.65 L771.61,523.99 L770.38,528.35 L769.14,532.73 L767.90,537.13 L766.65,541.53 L765.41,545.95 L764.15,550.38 L762.89,554.83 L761.63,559.28 L760.37,563.74 L759.10,568.22 L757.82,572.69 L756.55,577.18 L755.26,581.67 L753.98,586.16 L752.69,590.66 L751.40,595.16 L750.10,599.66 L748.80,604.16 L747.49,608.65 L746.19,613.15 L744.87,617.65 L743.56,622.14 L742.24,626.62 L740.92,631.10 L739.59,635.57 L738.26,640.04 L736.93,644.49 L735.59,648.94 L734.25,653.37 L732.91,657.79 L731.56,662.20 L730.21,666.60 L728.86,670.98 L727.51,675.34 L726.15,679.69 L724.78,684.02 L723.42,688.33 L722.05,692.62 L720.68,696.89 L719.30,701.13 L717.92,705.36 L716.54,709.56 L715.16,713.74 L713.77,717.89 L712.38,722.01 L710.99,726.11 L709.60,730.18 L708.20,734.22 L706.80,738.23 L705.40,742.21 L703.99,746.15 L702.58,750.07 L701.17,753.95 L699.76,757.79 L698.34,761.60 L696.92,765.37 L695.50,769.11 L694.08,772.81 L692.65,776.46 L691.23,780.08 L689.80,783.66 L688.36,787.20 L686.93,790.70 L685.49,794.15 L684.05,797.56 L682.61,800.92 L681.17,804.24 L679.72,807.51 L678.28,810.74 L676.83,813.92 L675.38,817.05 L673.93,820.13 L672.47,823.16 L671.01,826.15 L669.56,829.08 L668.10,831.96 L666.63,834.78 L665.17,837.56 L663.71,840.28 L662.24,842.95 L660.77,845.56 L659.30,848.12 L657.83,850.62 L656.36,853.06 L654.88,855.45 L653.41,857.78 L651.93,860.06 L650.45,862.27 L648.97,864.42 L647.49,866.52 L646.01,868.56 L644.53,870.53 L643.05,872.45 L641.56,874.30 L640.07,876.09 L638.59,877.82 L637.10,879.49 L635.61,881.09 L634.12,882.63 L632.63,884.11 L631.14,885.52 L629.65,886.87 L628.15,888.15 L626.66,889.37 L625.16,890.53 L623.67,891.62 L622.17,892.64 L620.68,893.60 L619.18,894.49 L617.68,895.32 L616.19,896.07 L614.69,896.77 L613.19,897.39 L611.69,897.95 L610.19,898.44 L608.69,898.87 L607.19,899.22 L605.69,899.51 L604.19,899.74 L602.69,899.89 L601.19,899.98 L599.69,900.00 L598.19,899.95 L596.69,899.84 L595.19,899.65 L593.69,899.40 L592.20,899.09 L590.70,898.70 L589.20,898.25 L587.70,897.73 L586.20,897.15 L584.70,896.49 L583.20,895.77 L581.71,894.99 L580.21,894.14 L578.71,893.22 L577.22,892.23 L575.72,891.18 L574.23,890.07 L572.73,888.89 L571.24,887.64 L569.75,886.33 L568.25,884.95 L566.76,883.51 L565.27,882.01 L563.78,880.44 L562.29,878.82 L560.81,877.12 L559.32,875.37 L557.83,873.55 L556.35,871.67 L554.87,869.73 L553.38,867.73 L551.90,865.67 L550.42,863.55 L548.94,861.37 L547.47,859.14 L545.99,856.84 L544.52,854.49 L543.04,852.07 L541.57,849.61 L540.10,847.08 L538.63,844.50 L537.16,841.87 L535.70,839.18 L534.23,836.43 L532.77,833.64 L531.31,830.79 L529.85,827.89 L528.39,824.94 L526.94,821.93 L525.48,818.88 L524.03,815.78 L522.58,812.63 L521.13,809.43 L519.69,806.18 L518.24,802.89 L516.80,799.56 L515.36,796.17 L513.92,792.75 L512.49,789.28 L511.05,785.76 L509.62,782.21 L508.19,778.61 L506.76,774.98 L505.34,771.30 L503.92,767.59 L502.50,763.84 L501.08,760.05 L499.67,756.23 L498.25,752.37 L496.84,748.48 L495.44,744.55 L494.03,740.59 L492.63,736.60 L491.23,732.58 L489.83,728.53 L488.44,724.44 L487.05,720.34 L485.66,716.20 L484.28,712.04 L482.89,707.85 L481.51,703.64 L480.14,699.41 L478.76,695.15 L477.39,690.87 L476.03,686.57 L474.66,682.26 L473.30,677.92 L471.94,673.56 L470.59,669.19 L469.24,664.81 L467.89,660.41 L466.54,655.99 L465.20,651.57 L463.86,647.13 L462.53,642.68 L461.20,638.22 L459.87,633.75 L458.54,629.28 L457.22,624.79 L455.90,620.31 L454.59,615.82 L453.28,611.32 L451.97,606.82 L450.67,602.32 L449.37,597.82 L448.08,593.32 L446.78,588.82 L445.50,584.33 L444.21,579.84 L442.93,575.35 L441.66,570.87 L440.39,566.39 L439.12,561.93 L437.85,557.47 L436.59,553.02 L435.34,548.58 L434.09,544.15 L432.84,539.74 L431.59,535.33 L430.36,530.95 L429.12,526.58 L427.89,522.22 L426.66,517.88 L425.44,513.57 L424.22,509.27 L423.01,504.99 L421.80,500.73 L420.60,496.49 L419.40,492.28 L418.20,488.09 L417.01,483.93 L415.82,479.80 L414.64,475.69 L413.46,471.61 L412.29,467.55 L411.12,463.53 L409.96,459.54 L408.80,455.58 L407.65,451.65 L406.50,447.76 L405.36,443.90 L404.22,440.07 L403.08,436.28 L401.96,432.53 L400.83,428.81 L399.71,425.14 L398.60,421.50 L397.49,417.91 L396.38,414.35 L395.28,410.84 L394.19,407.36 L393.10,403.94 L392.02,400.55 L390.94,397.21 L389.87,393.92 L388.80,390.67 L387.74,387.47 L386.68,384.32 L385.63,381.22 L384.58,378.16 L383.54,375.16 L382.50,372.21 L381.47,369.30 L380.45,366.45 L379.43,363.65 L378.41,360.91 L377.41,358.22 L376.40,355.58 L375.41,353.00 L374.41,350.47 L373.43,348.00 L372.45,345.59 L371.47,343.23 L370.50,340.94 L369.54,338.70 L368.58,336.52 L367.63,334.39 L366.69,332.33 L365.75,330.33 L364.81,328.39 L363.88,326.51 L362.96,324.69 L362.05,322.93 L361.13,321.24 L360.23,319.61 L359.33,318.04 L358.44,316.53 L357.55,315.09 L356.67,313.71 L355.80,312.40 L354.93,311.15 L354.07,309.97 L353.21,308.85 L352.36,307.80 L351.52,306.81 L350.68,305.89 L349.85,305.04 L349.02,304.25 L348.21,303.53 L347.39,302.87 L346.59,302.29 L345.79,301.77 L344.99,301.31 L344.21,300.92 L343.43,300.61 L342.65,300.35 L341.89,300.17 L341.12,300.05 L340.37,300.00 L339.62,300.02 L338.88,300.11 L338.14,300.26 L337.42,300.48 L336.69,300.77 L335.98,301.12 L335.27,301.54 L334.57,302.03 L333.87,302.59 L333.18,303.21 L332.50,303.90 L331.82,304.66 L331.15,305.48 L330.49,306.37 L329.84,307.33 L329.19,308.35 L328.55,309.44 L327.91,310.59 L327.28,311.80 L326.66,313.09 L326.05,314.43 L325.44,315.85 L324.84,317.32 L324.24,318.86 L323.66,320.46 L323.08,322.13 L322.50,323.85 L321.94,325.64 L321.38,327.49 L320.82,329.41 L320.28,331.38 L319.74,333.41 L319.21,335.51 L318.68,337.66 L318.17,339.87 L317.65,342.14 L317.15,344.47 L316.66,346.86 L316.17,349.30 L315.68,351.80 L315.21,354.36 L314.74,356.97 L314.28,359.63 L313.83,362.35 L313.38,365.13 L312.94,367.95 L312.51,370.83 L312.08,373.76 L311.66,376.74 L311.25,379.77 L310.85,382.85 L310.45,385.98 L310.07,389.16 L309.68,392.38 L309.31,395.65 L308.94,398.97 L308.58,402.33 L308.23,405.74 L307.88,409.19 L307.55,412.69 L307.22,416.22 L306.89,419.80 L306.58,423.42 L306.27,427.08 L305.97,430.77 L305.67,434.51 L305.39,438.28 L305.11,442.09 L304.83,445.93 L304.57,449.81 L304.31,453.72 L304.06,457.67 L303.82,461.64 L303.59,465.65 L303.36,469.69 L303.14,473.76 L302.93,477.85 L302.72,481.98 L302.52,486.13 L302.33,490.30 L302.15,494.50 L301.97,498.73 L301.81,502.98 L301.65,507.25 L301.49,511.53 L301.35,515.84 L301.21,520.17 L301.08,524.52 L300.95,528.88 L300.84,533.26 L300.73,537.66 L300.63,542.07 L300.54,546.49 L300.45,550.92 L300.37,555.37 L300.30,559.82 L300.24,564.28 L300.18,568.76 L300.13,573.24 L300.09,577.72 L300.06,582.21 L300.03,586.70 L300.01,591.20 L300.00,595.70 L300.00,600.20 L300.00,604.70 L300.02,609.20 L300.03,613.70 L300.06,618.19 L300.10,622.68 L300.14,627.16 L300.19,631.64 L300.24,636.11 L300.31,640.58 L300.38,645.03 L300.46,649.47 L300.54,653.91 L300.64,658.33 L300.74,662.73 L300.85,667.13 L300.96,671.50 L301.09,675.87 L301.22,680.21 L301.36,684.54 L301.51,688.85 L301.66,693.13 L301.82,697.40 L301.99,701.65 L302.17,705.87 L302.35,710.07 L302.54,714.24 L302.74,718.39 L302.94,722.51 L303.16,726.60 L303.38,730.67 L303.61,734.71 L303.84,738.71 L304.09,742.69 L304.34,746.63 L304.59,750.54 L304.86,754.41 L305.13,758.25 L305.41,762.06 L305.70,765.83 L305.99,769.56 L306.30,773.25 L306.60,776.90 L306.92,780.52 L307.25,784.09 L307.58,787.63 L307.92,791.12 L308.26,794.56 L308.61,797.97 L308.97,801.32 L309.34,804.64 L309.72,807.91 L310.10,811.13 L310.49,814.30 L310.89,817.42 L311.29,820.50 L311.70,823.53 L312.12,826.50 L312.55,829.43 L312.98,832.30 L313.42,835.12 L313.87,837.89 L314.32,840.61 L314.78,843.27 L315.25,845.87 L315.73,848.42 L316.21,850.92 L316.70,853.36 L317.20,855.74 L317.70,858.06 L318.21,860.33 L318.73,862.53 L319.25,864.68 L319.79,866.77 L320.33,868.80 L320.87,870.77 L321.43,872.67 L321.99,874.52 L322.55,876.30 L323.13,878.02 L323.71,879.68 L324.30,881.28 L324.89,882.81 L325.49,884.28 L326.10,885.69 L326.72,887.03 L327.34,888.31 L327.97,889.52 L328.60,890.66 L329.25,891.75 L329.89,892.76 L330.55,893.71 L331.21,894.59 L331.88,895.41 L332.56,896.16 L333.24,896.85 L333.93,897.46 L334.63,898.01 L335.33,898.50 L336.04,898.91 L336.76,899.26 L337.48,899.54 L338.21,899.76 L338.94,899.91 L339.69,899.98 L340.44,900.00 L341.19,899.94 L341.95,899.82 L342.72,899.63 L343.50,899.37 L344.28,899.04 L345.06,898.65 L345.86,898.19 L346.66,897.66 L347.47,897.07 L348.28,896.41 L349.10,895.68 L349.92,894.89 L350.75,894.03 L351.59,893.10 L352.44,892.11 L353.29,891.05 L354.14,889.93 L355.01,888.74 L355.88,887.48 L356.75,886.17 L357.63,884.78 L358.52,883.34 L359.41,881.83 L360.31,880.25 L361.22,878.61 L362.13,876.91 L363.04,875.15 L363.97,873.33 L364.89,871.44 L365.83,869.50 L366.77,867.49 L367.72,865.42 L368.67,863.29 L369.63,861.11 L370.59,858.86 L371.56,856.56 L372.53,854.20 L373.52,851.78 L374.50,849.30 L375.49,846.77 L376.49,844.19 L377.50,841.54 L378.50,838.85 L379.52,836.10 L380.54,833.30 L381.56,830.44 L382.60,827.53 L383.63,824.58 L384.67,821.57 L385.72,818.51 L386.77,815.40 L387.83,812.24 L388.89,809.04 L389.96,805.79 L391.04,802.49 L392.11,799.15 L393.20,795.76 L394.29,792.33 L395.38,788.85 L396.48,785.34 L397.59,781.78 L398.70,778.18 L399.81,774.54 L400.93,770.86 L402.06,767.14 L403.18,763.38 L404.32,759.59 L405.46,755.76 L406.60,751.90 L407.75,748.00 L408.91,744.07 L410.06,740.11 L411.23,736.11 L412.40,732.09 L413.57,728.03 L414.75,723.95 L415.93,719.84 L417.12,715.70 L418.31,711.53 L419.50,707.34 L420.70,703.13 L421.91,698.89 L423.12,694.63 L424.33,690.35 L425.55,686.05 L426.77,681.73 L428.00,677.39 L429.23,673.04 L430.47,668.66 L431.70,664.28 L432.95,659.87 L434.20,655.46 L435.45,651.03 L436.71,646.59 L437.97,642.14 L439.23,637.68 L440.50,633.21 L441.77,628.73 L443.05,624.25 L444.33,619.76 L445.61,615.27 L446.90,610.78 L448.19,606.28 L449.49,601.78 L450.79,597.28 L452.09,592.78 L453.40,588.28 L454.71,583.79 L456.02,579.29 L457.34,574.81 L458.66,570.33 L459.99,565.85 L461.31,561.39 L462.65,556.93 L463.98,552.48 L465.32,548.04 L466.66,543.62 L468.01,539.20 L469.36,534.80 L470.71,530.42 L472.06,526.05 L473.42,521.70 L474.78,517.36 L476.15,513.04 L477.51,508.75 L478.89,504.47 L480.26,500.22 L481.64,495.98 L483.02,491.77 L484.40,487.59 L485.78,483.43 L487.17,479.30 L488.56,475.19 L489.96,471.11 L491.35,467.06 L492.75,463.05 L494.16,459.06 L495.56,455.10 L496.97,451.18 L498.38,447.29 L499.79,443.43 L501.21,439.61 L502.62,435.83 L504.04,432.08 L505.47,428.37 L506.89,424.70 L508.32,421.06 L509.75,417.47 L511.18,413.92 L512.61,410.41 L514.05,406.95 L515.49,403.52 L516.93,400.15 L518.37,396.81 L519.81,393.53 L521.26,390.28 L522.71,387.09 L524.16,383.94 L525.61,380.85 L527.07,377.80 L528.52,374.80 L529.98,371.85 L531.44,368.96 L532.90,366.11 L534.36,363.32 L535.83,360.58 L537.29,357.90 L538.76,355.27 L540.23,352.69 L541.70,350.17 L543.17,347.71 L544.65,345.30 L546.12,342.95 L547.60,340.66 L549.08,338.43 L550.55,336.26 L552.03,334.14 L553.52,332.09 L555.00,330.09 L556.48,328.16 L557.97,326.28 L559.45,324.47 L560.94,322.72 L562.43,321.04 L563.92,319.41 L565.40,317.85 L566.90,316.36 L568.39,314.92 L569.88,313.55 L571.37,312.25 L572.86,311.01 L574.36,309.83 L575.85,308.72 L577.35,307.68 L578.85,306.70 L580.34,305.79 L581.84,304.94 L583.34,304.16 L584.83,303.45 L586.33,302.80 L587.83,302.22 L589.33,301.71 L590.83,301.26 L592.33,300.88 L593.83,300.57 L595.33,300.33 L596.83,300.15 L598.33,300.04 L599.83,300.00 L601.33,300.03 L602.83,300.12 L604.33,300.28 L605.83,300.51 L607.33,300.81 L608.83,301.17 L610.33,301.60 L611.82,302.10 L613.32,302.66 L614.82,303.29 L616.32,303.99 L617.82,304.75 L619.31,305.59 L620.81,306.48 L622.31,307.45 L623.80,308.48 L625.30,309.57 L626.79,310.73 L628.29,311.96 L629.78,313.25 L631.27,314.60 L632.76,316.02 L634.25,317.50 L635.74,319.05 L637.23,320.66 L638.72,322.33 L640.21,324.07 L641.69,325.86 L643.18,327.72 L644.66,329.64 L646.14,331.62 L647.63,333.66 L649.11,335.76 L650.58,337.92 L652.06,340.14 L653.54,342.42 L655.01,344.76 L656.49,347.15 L657.96,349.60 L659.43,352.11 L660.90,354.67 L662.37,357.29 L663.84,359.96 L665.30,362.69 L666.76,365.47 L668.23,368.30 L669.69,371.18 L671.14,374.12 L672.60,377.10 L674.05,380.14 L675.51,383.23 L676.96,386.36 L678.41,389.55 L679.85,392.78 L681.30,396.05 L682.74,399.38 L684.18,402.74 L685.62,406.16 L687.06,409.61 L688.49,413.11 L689.92,416.65 L691.35,420.24 L692.78,423.86 L694.21,427.52 L695.63,431.22 L697.05,434.96 L698.47,438.74 L699.88,442.55 L701.30,446.40 L702.71,450.28 L704.12,454.20 L705.52,458.15 L706.92,462.13 L708.32,466.14 L709.72,470.18 L711.12,474.25 L712.51,478.35 L713.90,482.48 L715.28,486.63 L716.67,490.81 L718.05,495.01 L719.42,499.24 L720.80,503.49 L722.17,507.76 L723.54,512.06 L724.90,516.37 L726.27,520.70 L727.63,525.05 L728.98,529.41 L730.33,533.79 L731.68,538.19 L733.03,542.60 L734.37,547.02 L735.71,551.46 L737.05,555.90 L738.38,560.36 L739.71,564.83 L741.04,569.30 L742.36,573.78 L743.68,578.26 L744.99,582.75 L746.30,587.25 L747.61,591.75 L748.91,596.24 L750.21,600.74 L751.51,605.24 L752.80,609.74 L754.09,614.24 L755.38,618.73 L756.66,623.22 L757.94,627.70 L759.21,632.18 L760.48,636.65 L761.74,641.11 L763.01,645.57 L764.26,650.01 L765.52,654.44 L766.77,658.86 L768.01,663.27 L769.25,667.66 L770.49,672.03 L771.72,676.39 L772.95,680.74 L774.17,685.06 L775.39,689.37 L776.60,693.65 L777.81,697.92 L779.02,702.16 L780.22,706.38 L781.42,710.57 L782.61,714.74 L783.80,718.89 L784.98,723.01 L786.16,727.10 L787.33,731.16 L788.50,735.19 L789.67,739.19 L790.83,743.16 L791.98,747.10 L793.13,751.01 L794.28,754.88 L795.42,758.72 L796.56,762.52 L797.69,766.28 L798.81,770.01 L799.93,773.69 L801.05,777.34 L802.16,780.95 L803.26,784.52 L804.37,788.05 L805.46,791.53 L806.55,794.98 L807.64,798.37 L808.72,801.73 L809.79,805.04 L810.86,808.30 L811.93,811.51 L812.98,814.68 L814.04,817.80 L815.09,820.87 L816.13,823.89 L817.17,826.86 L818.20,829.78 L819.23,832.65 L820.25,835.46 L821.26,838.22 L822.27,840.93 L823.28,843.58 L824.28,846.18 L825.27,848.73 L826.26,851.22 L827.24,853.65 L828.22,856.02 L829.19,858.34 L830.15,860.60 L831.11,862.80 L832.07,864.94 L833.01,867.02 L833.95,869.04 L834.89,871.00 L835.82,872.90 L836.75,874.74 L837.66,876.51 L838.58,878.23 L839.48,879.88 L840.38,881.47 L841.28,882.99 L842.17,884.46 L843.05,885.85 L843.92,887.19 L844.79,888.46 L845.66,889.66 L846.52,890.80 L847.37,891.87 L848.21,892.88 L849.05,893.82 L849.89,894.70 L850.71,895.51 L851.53,896.25 L852.35,896.92 L853.16,897.53 L853.96,898.08 L854.75,898.55 L855.54,898.96 L856.32,899.30 L857.10,899.57 L857.87,899.78 L858.63,899.92 L859.39,899.99 L860.14,899.99 L860.89,899.93 L861.62,899.80 L862.35,899.60 L863.08,899.33 L863.80,899.00 L864.51,898.60 L865.21,898.13 L865.91,897.60 L866.60,896.99 L867.28,896.33 L867.96,895.59 L868.63,894.79 L869.30,893.92 L869.96,892.98 L870.61,891.98 L871.25,890.92 L871.89,889.79 L872.52,888.59 L873.14,887.33 L873.76,886.00 L874.37,884.61 L874.97,883.16 L875.57,881.64 L876.16,880.06 L876.74,878.41 L877.32,876.70 L877.88,874.93 L878.45,873.10 L879.00,871.21 L879.55,869.26 L880.09,867.24 L880.62,865.17 L881.15,863.03 L881.67,860.84 L882.18,858.59 L882.69,856.28 L883.19,853.91 L883.68,851.48 L884.16,849.00 L884.64,846.46 L885.11,843.87 L885.57,841.22 L886.03,838.52 L886.48,835.76 L886.92,832.95 L887.36,830.09 L887.78,827.18 L888.20,824.21 L888.62,821.20 L889.02,818.13 L889.42,815.02 L889.81,811.86 L890.19,808.65 L890.57,805.39 L890.94,802.09 L891.30,798.74 L891.66,795.35 L892.01,791.91 L892.35,788.43 L892.68,784.91 L893.00,781.34 L893.32,777.74 L893.63,774.09 L893.94,770.41 L894.23,766.69 L894.52,762.93 L894.80,759.13 L895.08,755.30 L895.35,751.43 L895.61,747.53 L895.86,743.59 L896.10,739.63 L896.34,735.63 L896.57,731.60 L896.79,727.54 L897.01,723.45 L897.21,719.34 L897.41,715.20 L897.61,711.03 L897.79,706.84 L897.97,702.62 L898.14,698.38 L898.30,694.12 L898.46,689.83 L898.61,685.53 L898.75,681.21 L898.88,676.87 L899.01,672.51 L899.13,668.13 L899.24,663.74 L899.34,659.34 L899.44,654.92 L899.52,650.49 L899.60,646.05 L899.68,641.60 L899.74,637.14 L899.80,632.67 L899.85,628.19 L899.90,623.71 L899.93,619.22 L899.96,614.73 L899.98,610.23 L899.99,605.73 L900.00,601.23 L900.00,596.73 L899.99,592.23 L899.97,587.74 L899.95,583.24 L899.92,578.75 L899.88,574.27 L899.83,569.78 L899.78,565.31 L899.71,560.85 L899.65,556.39 L899.57,551.94 L899.48,547.51 L899.39,543.08 L899.29,538.67 L899.19,534.27 L899.07,529.89 L898.95,525.52 L898.82,521.17 L898.69,516.84 L898.54,512.52 L898.39,508.23 L898.23,503.95 L898.07,499.70 L897.89,495.47 L897.71,491.27 L897.52,487.09 L897.33,482.93 L897.12,478.80 L896.91,474.70 L896.69,470.62 L896.47,466.58 L896.23,462.56 L895.99,458.58 L895.74,454.62 L895.49,450.70 L895.23,446.82 L894.96,442.97 L894.68,439.15 L894.39,435.37 L894.10,431.63 L893.80,427.92 L893.49,424.25 L893.18,420.63 L892.86,417.04 L892.53,413.50 L892.19,409.99 L891.85,406.53 L891.50,403.11 L891.14,399.74 L890.78,396.41 L890.40,393.13 L890.02,389.89 L889.64,386.71 L889.24,383.57 L888.84,380.47 L888.43,377.43 L888.01,374.44 L887.59,371.50 L887.16,368.61 L886.72,365.77 L886.28,362.99 L885.83,360.25 L885.37,357.58 L884.90,354.95 L884.43,352.38 L883.95,349.87 L883.46,347.41 L882.96,345.02 L882.46,342.67 L881.95,340.39 L881.44,338.16 L880.91,336.00 L880.38,333.89 L879.85,331.84 L879.30,329.85 L878.75,327.93 L878.19,326.06 L877.63,324.26 L877.06,322.52 L876.48,320.84 L875.89,319.22 L875.30,317.67 L874.70,316.18 L874.09,314.75 L873.48,313.39 L872.86,312.09 L872.23,310.86 L871.60,309.69 L870.96,308.59 L870.31,307.56 L869.66,306.58 L869.00,305.68 L868.33,304.84 L867.66,304.07 L866.98,303.36 L866.29,302.73 L865.59,302.15 L864.89,301.65 L864.19,301.21 L863.47,300.84 L862.75,300.54 L862.02,300.30 L861.29,300.13 L860.55,300.03 L859.80,300.00 L859.05,300.03 L858.29,300.14 L857.52,300.30 L856.75,300.54 L855.97,300.85 L855.19,301.22 L854.39,301.66 L853.60,302.16 L852.79,302.73 L851.98,303.37 L851.16,304.08 L850.34,304.85 L849.51,305.69 L848.67,306.60 L847.83,307.57 L846.98,308.61 L846.13,309.71 L845.27,310.88 L844.40,312.11 L843.53,313.41 L842.65,314.77 L841.77,316.20 L840.87,317.69 L839.98,319.24 L839.07,320.86 L838.16,322.54 L837.25,324.28 L836.33,326.08 L835.40,327.95 L834.47,329.88 L833.53,331.87 L832.59,333.91 L831.64,336.02 L830.68,338.19 L829.72,340.42 L828.75,342.70 L827.78,345.04 L826.80,347.44 L825.81,349.90 L824.82,352.41 L823.83,354.98 L822.82,357.61 L821.82,360.29 L820.80,363.02 L819.79,365.81 L818.76,368.64 L817.73,371.53 L816.70,374.48 L815.66,377.47 L814.61,380.51 L813.56,383.60 L812.51,386.75 L811.45,389.93 L810.38,393.17 L809.31,396.45 L808.23,399.78 L807.15,403.16 L806.06,406.57 L804.97,410.03 L803.87,413.54 L802.77,417.08 L801.66,420.67 L800.54,424.30 L799.43,427.97 L798.30,431.67 L797.18,435.42 L796.04,439.20 L794.90,443.01 L793.76,446.87 L792.61,450.75 L791.46,454.67 L790.30,458.63 L789.14,462.61 L787.98,466.63 L786.80,470.67 L785.63,474.75 L784.45,478.85 L783.26,482.98 L782.07,487.14 L780.88,491.32 L779.68,495.52 L778.48,499.75 L777.27,504.01 L776.06,508.28 L774.84,512.58 L773.62,516.89 L772.39,521.22 L771.16,525.57 L769.93,529.94 L768.69,534.32 L767.45,538.72 L766.20,543.13 L764.95,547.56 L763.70,552.00 L762.44,556.44 L761.17,560.90 L759.91,565.37 L758.64,569.84 L757.36,574.32 L756.08,578.81 L754.80,583.30 L753.51,587.79 L752.22,592.29 L750.93,596.79 L749.63,601.29 L748.33,605.79 L747.02,610.29 L745.71,614.78 L744.40,619.28 L743.08,623.76 L741.76,628.25 L740.44,632.72 L739.11,637.19 L737.78,641.65 L736.45,646.11 L735.11,650.55 L733.77,654.98 L732.42,659.39 L731.07,663.80 L729.72,668.19 L728.37,672.56 L727.01,676.92 L725.65,681.26 L724.29,685.58 L722.92,689.89 L721.55,694.17 L720.18,698.43 L718.80,702.67 L717.42,706.89 L716.04,711.08 L714.66,715.25 L713.27,719.39 L711.88,723.50 L710.49,727.59 L709.09,731.65 L707.69,735.68 L706.29,739.68 L704.89,743.64 L703.48,747.58 L702.07,751.48 L700.66,755.34 L699.24,759.18 L697.83,762.97 L696.41,766.73 L694.99,770.45 L693.56,774.14 L692.14,777.78 L690.71,781.39 L689.28,784.95 L687.84,788.47 L686.41,791.95 L684.97,795.39 L683.53,798.78 L682.09,802.13 L680.65,805.43 L679.20,808.69 L677.75,811.90 L676.30,815.06 L674.85,818.17 L673.40,821.24 L671.94,824.25 L670.48,827.21 L669.03,830.13 L667.57,832.99 L666.10,835.80 L664.64,838.55 L663.17,841.25 L661.71,843.90 L660.24,846.49 L658.77,849.03 L657.30,851.51 L655.82,853.94 L654.35,856.30 L652.87,858.61 L651.40,860.87 L649.92,863.06 L648.44,865.19 L646.96,867.27 L645.47,869.28 L643.99,871.23 L642.51,873.13 L641.02,874.96 L639.53,876.73 L638.05,878.43 L636.56,880.08 L635.07,881.66 L633.58,883.17 L632.09,884.63 L630.60,886.02 L629.10,887.34 L627.61,888.60 L626.12,889.80 L624.62,890.93 L623.13,892.00 L621.63,893.00 L620.13,893.93 L618.64,894.80 L617.14,895.60 L615.64,896.33 L614.14,897.00 L612.65,897.60 L611.15,898.14 L609.65,898.60 L608.15,899.00 L606.65,899.34 L605.15,899.60 L603.65,899.80 L602.15,899.93 L600.65,899.99 L599.15,899.99 L597.65,899.92 L596.15,899.78 L594.65,899.57 L593.15,899.30 L591.65,898.95 L590.15,898.55 L588.65,898.07 L587.15,897.53 L585.66,896.92 L584.16,896.24 L582.66,895.50 L581.16,894.69 L579.67,893.81 L578.17,892.87 L576.67,891.86 L575.18,890.78 L573.68,889.65 L572.19,888.44 L570.70,887.17 L569.20,885.84 L567.71,884.44 L566.22,882.98 L564.73,881.45 L563.24,879.86 L561.75,878.21 L560.27,876.49 L558.78,874.72 L557.30,872.88 L555.81,870.98 L554.33,869.02 L552.85,866.99 L551.37,864.91 L549.89,862.77 L548.41,860.57 L546.93,858.31 L545.46,855.99 L543.98,853.62 L542.51,851.19 L541.04,848.70 L539.57,846.15 L538.10,843.55 L536.63,840.90 L535.17,838.19 L533.70,835.43 L532.24,832.61 L530.78,829.74 L529.32,826.82 L527.86,823.85 L526.41,820.83 L524.96,817.76 L523.50,814.64 L522.05,811.47 L520.61,808.26 L519.16,805.00 L517.72,801.69 L516.28,798.33 L514.84,794.93 L513.40,791.49 L511.97,788.01 L510.53,784.48 L509.10,780.91 L507.67,777.30 L506.25,773.65 L504.82,769.96 L503.40,766.23 L501.98,762.47 L500.57,758.67 L499.15,754.83 L497.74,750.96 L496.33,747.05 L494.93,743.12 L493.52,739.14 L492.12,735.14 L490.72,731.11 L489.33,727.05 L487.94,722.96 L486.55,718.84 L485.16,714.69 L483.77,710.52 L482.39,706.33 L481.01,702.11 L479.64,697.86 L478.27,693.60 L476.90,689.31 L475.53,685.01 L474.17,680.68 L472.81,676.34 L471.45,671.98 L470.10,667.60 L468.75,663.21 L467.40,658.81 L466.05,654.39 L464.71,649.96 L463.38,645.51 L462.04,641.06 L460.71,636.60 L459.39,632.13 L458.06,627.65 L456.74,623.17 L455.43,618.68 L454.11,614.18 L452.81,609.69 L451.50,605.19 L450.20,600.69 L448.90,596.19 L447.61,591.69 L446.32,587.19 L445.03,582.70 L443.75,578.21 L442.47,573.72 L441.20,569.24 L439.92,564.77 L438.66,560.31 L437.40,555.85 L436.14,551.40 L434.88,546.97 L433.63,542.55 L432.39,538.14 L431.14,533.74 L429.91,529.36 L428.67,524.99 L427.44,520.64 L426.22,516.31 L425.00,512.00 L423.78,507.71 L422.57,503.44 L421.36,499.19 L420.16,494.96 L418.96,490.76 L417.77,486.58 L416.58,482.43 L415.39,478.30 L414.21,474.20 L413.04,470.13 L411.87,466.09 L410.70,462.08 L409.54,458.10 L408.38,454.15 L407.23,450.23 L406.09,446.35 L404.94,442.50 L403.81,438.69 L402.67,434.92 L401.55,431.18 L400.42,427.48 L399.31,423.81 L398.19,420.19 L397.09,416.61 L395.98,413.07 L394.89,409.57 L393.80,406.12 L392.71,402.70 L391.63,399.34 L390.55,396.01 L389.48,392.74 L388.41,389.51 L387.35,386.32 L386.30,383.19 L385.25,380.10 L384.20,377.07 L383.16,374.08 L382.13,371.15 L381.10,368.26 L380.08,365.43 L379.06,362.65 L378.05,359.93 L377.04,357.26 L376.04,354.64 L375.05,352.08 L374.06,349.57 L373.07,347.12 L372.09,344.73 L371.12,342.39 L370.15,340.12 L369.19,337.90 L368.24,335.74 L367.29,333.64 L366.34,331.60 L365.41,329.62 L364.47,327.70 L363.55,325.84 L362.63,324.04 L361.71,322.31 L360.81,320.64 L359.90,319.03 L359.01,317.48 L358.12,316.00 L357.23,314.58 L356.35,313.23 L355.48,311.94 L354.62,310.72 L353.76,309.56 L352.90,308.46 L352.05,307.43 L351.21,306.47 L350.38,305.58 L349.55,304.75 L348.73,303.98 L347.91,303.28 L347.10,302.65 L346.30,302.09 L345.50,301.59 L344.71,301.16 L343.92,300.80 L343.15,300.51 L342.37,300.28 L341.61,300.12 L340.85,300.03 L340.10,300.00 L339.35,300.04 L338.61,300.15 L337.88,300.33 L337.15,300.57 L336.43,300.89 L335.72,301.27 L335.01,301.71 L334.31,302.23 L333.62,302.81 L332.93,303.45 L332.25,304.17 L331.58,304.95 L330.91,305.80 L330.25,306.71 L329.60,307.69 L328.95,308.74 L328.31,309.85 L327.68,311.02 L327.06,312.26 L326.44,313.57 L325.82,314.94 L325.22,316.37 L324.62,317.87 L324.03,319.43 L323.44,321.06 L322.87,322.75 L322.30,324.50 L321.73,326.31 L321.17,328.18 L320.62,330.12 L320.08,332.11 L319.55,334.17 L319.02,336.28 L318.49,338.46 L317.98,340.69 L317.47,342.98 L316.97,345.33 L316.48,347.74 L315.99,350.20 L315.51,352.72 L315.04,355.30 L314.57,357.93 L314.11,360.61 L313.66,363.35 L313.22,366.15 L312.78,368.99 L312.35,371.89 L311.93,374.84 L311.52,377.83 L311.11,380.88 L310.71,383.98 L310.31,387.13 L309.93,390.32 L309.55,393.57 L309.18,396.85 L308.81,400.19 L308.45,403.57 L308.10,406.99 L307.76,410.46 L307.43,413.97 L307.10,417.52 L306.78,421.11 L306.46,424.74 L306.16,428.41 L305.86,432.12 L305.57,435.87 L305.28,439.66 L305.01,443.48 L304.74,447.33 L304.48,451.23 L304.22,455.15 L303.97,459.11 L303.74,463.09 L303.50,467.11 L303.28,471.16 L303.06,475.24 L302.85,479.35 L302.65,483.48 L302.45,487.64 L302.27,491.83 L302.08,496.04 L301.91,500.27 L301.75,504.52 L301.59,508.80 L301.44,513.10 L301.30,517.41 L301.16,521.75 L301.03,526.10 L300.91,530.47 L300.80,534.86 L300.69,539.26 L300.59,543.67 L300.50,548.10 L300.42,552.53 L300.35,556.98 L300.28,561.44 L300.22,565.91 L300.16,570.38 L300.12,574.86 L300.08,579.35 L300.05,583.84 L300.03,588.34 L300.01,592.83 L300.00,597.33 L300.00,601.83 L300.01,606.33 L300.02,610.83 L300.04,615.33 L300.07,619.82 L300.11,624.31 L300.15,628.79 L300.21,633.26 L300.27,637.73 L300.33,642.19 L300.41,646.64 L300.49,651.08 L300.58,655.51 L300.67,659.93 L300.78,664.33 L300.89,668.72 L301.01,673.09 L301.14,677.45 L301.27,681.78 L301.41,686.10 L301.56,690.41 L301.72,694.69 L301.88,698.95 L302.05,703.18 L302.23,707.40 L302.42,711.59 L302.61,715.75 L302.81,719.89 L303.02,724.00 L303.24,728.08 L303.46,732.14 L303.69,736.16 L303.93,740.16 L304.18,744.12 L304.43,748.05 L304.69,751.95 L304.96,755.81 L305.23,759.64 L305.51,763.43 L305.80,767.18 L306.10,770.90 L306.41,774.58 L306.72,778.22 L307.04,781.82 L307.36,785.38 L307.70,788.90 L308.04,792.37 L308.39,795.80 L308.74,799.19 L309.11,802.53 L309.48,805.83 L309.86,809.08 L310.24,812.28 L310.63,815.44 L311.03,818.55 L311.44,821.60 L311.85,824.61 L312.27,827.57 L312.70,830.48 L313.14,833.33 L313.58,836.13 L314.03,838.88 L314.49,841.58 L314.95,844.22 L315.42,846.80 L315.90,849.33 L316.39,851.81 L316.88,854.23 L317.38,856.59 L317.88,858.89 L318.40,861.13 L318.92,863.32 L319.45,865.45 L319.98,867.51 L320.52,869.52 L321.07,871.47 L321.63,873.35 L322.19,875.17 L322.76,876.94 L323.34,878.63 L323.92,880.27 L324.51,881.84 L325.11,883.35 L325.71,884.80 L326.32,886.18 L326.94,887.50 L327.57,888.75 L328.20,889.94 L328.84,891.06 L329.48,892.12 L330.13,893.11 L330.79,894.04 L331.46,894.90 L332.13,895.69 L332.81,896.42 L333.49,897.08 L334.18,897.67 L334.88,898.20 L335.59,898.66 L336.30,899.05 L337.02,899.37 L337.74,899.63 L338.48,899.82 L339.21,899.94 L339.96,900.00 L340.71,899.98 L341.47,899.90 L342.23,899.76 L343.00,899.54 L343.78,899.26 L344.56,898.91 L345.35,898.49 L346.15,898.01 L346.95,897.46 L347.76,896.84 L348.58,896.15 L349.40,895.40 L350.22,894.58 L351.06,893.70 L351.90,892.75 L352.74,891.73 L353.60,890.65 L354.46,889.50 L355.32,888.29 L356.19,887.01 L357.07,885.67 L357.95,884.27 L358.84,882.79 L359.74,881.26 L360.64,879.66 L361.55,878.00 L362.46,876.28 L363.38,874.50 L364.30,872.65 L365.23,870.74 L366.17,868.77 L367.11,866.74 L368.06,864.66 L369.02,862.51 L369.98,860.30 L370.94,858.03 L371.91,855.71 L372.89,853.33 L373.87,850.89 L374.86,848.39 L375.86,845.84 L376.86,843.23 L377.86,840.57 L378.87,837.86 L379.89,835.09 L380.91,832.27 L381.94,829.39 L382.97,826.47 L384.01,823.49 L385.05,820.46 L386.10,817.39 L387.16,814.26 L388.22,811.09 L389.28,807.87 L390.35,804.60 L391.43,801.28 L392.51,797.92 L393.59,794.52 L394.68,791.07 L395.78,787.58 L396.88,784.05 L397.99,780.48 L399.10,776.86 L400.22,773.21 L401.34,769.51 L402.46,765.78 L403.60,762.01 L404.73,758.21 L405.87,754.36 L407.02,750.49 L408.17,746.58 L409.33,742.64 L410.49,738.66 L411.65,734.66 L412.82,730.62 L414.00,726.55 L415.18,722.46 L416.36,718.34 L417.55,714.19 L418.74,710.02 L419.94,705.82 L421.14,701.60 L422.35,697.35 L423.56,693.08 L424.77,688.79 L425.99,684.49 L427.22,680.16 L428.44,675.81 L429.68,671.45 L430.91,667.07 L432.16,662.68 L433.40,658.27 L434.65,653.85 L435.90,649.42 L437.16,644.97 L438.42,640.52 L439.69,636.06 L440.96,631.59 L442.23,627.11 L443.51,622.62 L444.79,618.13 L446.08,613.64 L447.37,609.14 L448.66,604.64 L449.96,600.14 L451.26,595.64 L452.56,591.15 L453.87,586.65 L455.18,582.16 L456.50,577.67 L457.82,573.18 L459.14,568.70 L460.47,564.23 L461.80,559.77 L463.13,555.31 L464.47,550.87 L465.81,546.43 L467.15,542.01 L468.50,537.60 L469.85,533.21 L471.20,528.83 L472.55,524.47 L473.91,520.12 L475.28,515.79 L476.64,511.48 L478.01,507.19 L479.38,502.92 L480.76,498.68 L482.14,494.45 L483.52,490.25 L484.90,486.08 L486.29,481.93 L487.68,477.80 L489.07,473.71 L490.46,469.64 L491.86,465.60 L493.26,461.59 L494.67,457.62 L496.07,453.67 L497.48,449.76 L498.89,445.88 L500.30,442.04 L501.72,438.23 L503.14,434.46 L504.56,430.73 L505.98,427.03 L507.41,423.37 L508.84,419.76 L510.27,416.18 L511.70,412.64 L513.13,409.15 L514.57,405.70 L516.01,402.29 L517.45,398.93 L518.89,395.61 L520.34,392.34 L521.79,389.12 L523.24,385.94 L524.69,382.81 L526.14,379.73 L527.59,376.70 L529.05,373.72 L530.51,370.79 L531.97,367.92 L533.43,365.09 L534.89,362.32 L536.36,359.60 L537.83,356.94 L539.29,354.33 L540.76,351.77 L542.24,349.27 L543.71,346.83 L545.18,344.44 L546.66,342.12 L548.13,339.85 L549.61,337.63 L551.09,335.48 L552.57,333.39 L554.05,331.35 L555.54,329.38 L557.02,327.47 L558.51,325.62 L559.99,323.83 L561.48,322.10 L562.97,320.44 L564.46,318.84 L565.95,317.30 L567.44,315.83 L568.93,314.42 L570.42,313.07 L571.91,311.79 L573.41,310.57 L574.90,309.42 L576.40,308.34 L577.89,307.31 L579.39,306.36 L580.89,305.47 L582.38,304.65 L583.88,303.89 L585.38,303.20 L586.88,302.58 L588.38,302.03 L589.87,301.54 L591.37,301.12 L592.87,300.76 L594.37,300.47 L595.87,300.26 L597.37,300.10 L598.87,300.02 L600.37,300.00 L601.87,300.05 L603.37,300.17 L604.87,300.36 L606.37,300.61 L607.87,300.93 L609.37,301.32 L610.87,301.77 L612.37,302.29 L613.87,302.88 L615.37,303.54 L616.86,304.26 L618.36,305.05 L619.86,305.90 L621.35,306.83 L622.85,307.81 L624.35,308.87 L625.84,309.98 L627.33,311.17 L628.83,312.42 L630.32,313.73 L631.81,315.11 L633.30,316.55 L634.79,318.06 L636.28,319.63 L637.77,321.26 L639.26,322.95 L640.75,324.71 L642.23,326.53 L643.72,328.41 L645.20,330.35 L646.68,332.36 L648.16,334.42 L649.64,336.54 L651.12,338.72 L652.60,340.96 L654.07,343.26 L655.55,345.62 L657.02,348.03 L658.49,350.50 L659.97,353.03 L661.43,355.61 L662.90,358.25 L664.37,360.94 L665.83,363.69 L667.29,366.49 L668.76,369.34 L670.21,372.24 L671.67,375.20 L673.13,378.20 L674.58,381.26 L676.03,384.36 L677.48,387.51 L678.93,390.71 L680.38,393.96 L681.82,397.25 L683.26,400.59 L684.70,403.98 L686.14,407.41 L687.58,410.88 L689.01,414.39 L690.44,417.95 L691.87,421.55 L693.30,425.18 L694.72,428.86 L696.15,432.57 L697.56,436.33 L698.98,440.12 L700.40,443.94 L701.81,447.80 L703.22,451.70 L704.63,455.63 L706.03,459.59 L707.43,463.58 L708.83,467.60 L710.23,471.66 L711.62,475.74 L713.01,479.85 L714.40,483.98 L715.79,488.15 L717.17,492.33 L718.55,496.55 L719.92,500.78 L721.30,505.04 L722.67,509.32 L724.04,513.62 L725.40,517.94 L726.76,522.27 L728.12,526.63 L729.47,531.00 L730.82,535.39 L732.17,539.79 L733.52,544.20 L734.86,548.63 L736.20,553.07 L737.53,557.52 L738.86,561.98 L740.19,566.45 L741.52,570.92 L742.84,575.41 L744.15,579.89 L745.47,584.38 L746.78,588.88 L748.08,593.38 L749.39,597.88 L750.69,602.38 L751.98,606.88 L753.27,611.37 L754.56,615.87 L755.84,620.36 L757.12,624.85 L758.40,629.33 L759.67,633.81 L760.94,638.27 L762.20,642.73 L763.46,647.18 L764.72,651.62 L765.97,656.05 L767.22,660.46 L768.46,664.86 L769.70,669.25 L770.93,673.62 L772.17,677.97 L773.39,682.31 L774.61,686.63 L775.83,690.92 L777.04,695.20 L778.25,699.46 L779.46,703.69 L780.66,707.90 L781.85,712.09 L783.04,716.25 L784.23,720.39 L785.41,724.50 L786.59,728.58 L787.76,732.63 L788.93,736.65 L790.09,740.64 L791.25,744.60 L792.40,748.52 L793.55,752.42 L794.69,756.28 L795.83,760.10 L796.97,763.89 L798.10,767.64 L799.22,771.35 L800.34,775.02 L801.45,778.66 L802.56,782.25 L803.66,785.81 L804.76,789.32 L805.86,792.79 L806.95,796.21 L808.03,799.60 L809.11,802.93 L810.18,806.22 L811.25,809.47 L812.31,812.67 L813.37,815.82 L814.42,818.92 L815.47,821.97 L816.51,824.97 L817.54,827.92 L818.57,830.82 L819.60,833.67 L820.62,836.47 L821.63,839.21 L822.64,841.90 L823.64,844.53 L824.64,847.11 L825.63,849.64 L826.62,852.10 L827.60,854.52 L828.57,856.87 L829.54,859.16 L830.50,861.40 L831.46,863.58 L832.41,865.70 L833.36,867.76 L834.30,869.76 L835.23,871.70 L836.16,873.57 L837.08,875.39 L838.00,877.14 L838.91,878.84 L839.81,880.46 L840.71,882.03 L841.60,883.53 L842.49,884.97 L843.37,886.35 L844.24,887.66 L845.11,888.90 L845.97,890.08 L846.83,891.20 L847.68,892.24 L848.52,893.23 L849.36,894.15 L850.19,895.00 L851.01,895.78 L851.83,896.50 L852.64,897.15 L853.45,897.74 L854.25,898.26 L855.04,898.71 L855.83,899.09 L856.61,899.41 L857.38,899.66 L858.15,899.84 L858.91,899.95 L859.66,900.00 L860.41,899.98 L861.15,899.89 L861.89,899.73 L862.62,899.51 L863.34,899.22 L864.05,898.86 L864.76,898.44 L865.46,897.94 L866.16,897.39 L866.85,896.76 L867.53,896.07 L868.21,895.31 L868.87,894.48 L869.54,893.59 L870.19,892.63 L870.84,891.60 L871.48,890.52 L872.12,889.36 L872.75,888.14 L873.37,886.85 L873.98,885.50 L874.59,884.09 L875.19,882.61 L875.78,881.07 L876.37,879.47 L876.95,877.80 L877.52,876.07 L878.09,874.28 L878.65,872.42 L879.20,870.51 L879.75,868.53 L880.28,866.50 L880.82,864.40 L881.34,862.24 L881.86,860.03 L882.37,857.75 L882.87,855.42 L883.37,853.03 L883.86,850.59 L884.34,848.09 L884.81,845.53 L885.28,842.91 L885.74,840.25 L886.19,837.52 L886.64,834.75 L887.08,831.92 L887.51,829.04 L887.94,826.11 L888.35,823.13 L888.76,820.09 L889.17,817.01 L889.56,813.88 L889.95,810.70 L890.33,807.47 L890.71,804.20 L891.07,800.88 L891.43,797.51 L891.79,794.11 L892.13,790.65 L892.47,787.16 L892.80,783.62 L893.12,780.04 L893.44,776.42 L893.75,772.76 L894.05,769.06 L894.34,765.33 L894.63,761.55 L894.91,757.74 L895.18,753.90 L895.44,750.02 L895.70,746.10 L895.95,742.16 L896.19,738.18 L896.42,734.17 L896.65,730.13 L896.87,726.06 L897.08,721.96 L897.29,717.84 L897.49,713.69 L897.68,709.51 L897.86,705.31 L898.03,701.08 L898.20,696.83 L898.36,692.56 L898.51,688.27 L898.66,683.96 L898.80,679.63 L898.93,675.29 L899.05,670.92 L899.17,666.54 L899.27,662.15 L899.38,657.74 L899.47,653.32 L899.55,648.88 L899.63,644.44 L899.70,639.98 L899.77,635.52 L899.82,631.04 L899.87,626.57 L899.91,622.08 L899.94,617.59 L899.97,613.10 L899.99,608.60 L900.00,604.10 L900.00,599.60 L900.00,595.10 L899.98,590.60 L899.96,586.11 L899.94,581.61 L899.90,577.12 L899.86,572.64 L899.81,568.16 L899.75,563.69 L899.69,559.23 L899.62,554.77 L899.54,550.33 L899.45,545.90 L899.36,541.48 L899.26,537.07 L899.15,532.68 L899.03,528.30 L898.91,523.94 L898.77,519.60 L898.63,515.27 L898.49,510.96 L898.33,506.68 L898.17,502.41 L898.00,498.16 L897.83,493.94 L897.64,489.75 L897.45,485.57 L897.25,481.43 L897.05,477.31 L896.83,473.21 L896.61,469.15 L896.38,465.12 L896.15,461.11 L895.90,457.14 L895.65,453.20 L895.39,449.29 L895.13,445.42 L894.86,441.58 L894.58,437.77 L894.29,434.01 L893.99,430.28 L893.69,426.59 L893.38,422.93 L893.06,419.32 L892.74,415.75 L892.41,412.22 L892.07,408.73 L891.72,405.29 L891.37,401.88 L891.01,398.53 L890.64,395.22 L890.27,391.95 L889.88,388.73 L889.49,385.56 L889.10,382.44 L888.69,379.36 L888.28,376.34 L887.86,373.37 L887.44,370.44 L887.00,367.57 L886.56,364.75 L886.11,361.99 L885.66,359.28 L885.20,356.62 L884.73,354.01 L884.25,351.47 L883.77,348.97 L883.28,346.54 L882.78,344.16 L882.28,341.84 L881.77,339.57 L881.25,337.37 L880.72,335.22 L880.19,333.14 L879.65,331.11 L879.10,329.15 L878.55,327.24 L877.99,325.40 L877.42,323.62 L876.85,321.90 L876.27,320.24 L875.68,318.65 L875.08,317.12 L874.48,315.65 L873.87,314.25 L873.26,312.91 L872.63,311.64 L872.00,310.43 L871.37,309.29 L870.73,308.21 L870.08,307.20 L869.42,306.25 L868.76,305.37 L868.09,304.55 L867.41,303.81 L866.73,303.13 L866.04,302.51 L865.34,301.96 L864.64,301.48 L863.93,301.07 L863.21,300.72 L862.49,300.44 L861.76,300.23 L861.02,300.09 L860.28,300.01 L859.53,300.00 L858.77,300.06 L858.01,300.19 L857.24,300.38 L856.47,300.64 L855.69,300.97 L854.90,301.37 L854.11,301.83 L853.31,302.36 L852.50,302.96 L851.69,303.62 L850.87,304.35 L850.04,305.15 L849.21,306.01 L848.37,306.94 L847.53,307.94 L846.67,309.00 L845.82,310.12 L844.96,311.32 L844.09,312.57 L843.21,313.89 L842.33,315.28 L841.44,316.73 L840.55,318.24 L839.65,319.82 L838.74,321.46 L837.83,323.16 L836.92,324.93 L835.99,326.75 L835.06,328.64 L834.13,330.59 L833.19,332.60 L832.24,334.67 L831.29,336.80 L830.33,338.99 L829.37,341.24 L828.40,343.55 L827.42,345.91 L826.44,348.33 L825.45,350.81 L824.46,353.34 L823.46,355.93 L822.46,358.57 L821.45,361.27 L820.44,364.02 L819.42,366.83 L818.39,369.69 L817.36,372.60 L816.32,375.56 L815.28,378.57 L814.23,381.63 L813.18,384.74 L812.12,387.90 L811.06,391.10 L809.99,394.36 L808.92,397.66 L807.84,401.00 L806.75,404.39 L805.66,407.82 L804.57,411.30 L803.47,414.82 L802.36,418.38 L801.25,421.98 L800.14,425.63 L799.02,429.31 L797.89,433.03 L796.77,436.78 L795.63,440.58 L794.49,444.41 L793.35,448.27 L792.20,452.17 L791.04,456.10 L789.88,460.07 L788.72,464.06 L787.55,468.09 L786.38,472.15 L785.20,476.23 L784.02,480.35 L782.83,484.49 L781.64,488.65 L780.44,492.84 L779.24,497.06 L778.04,501.30 L776.83,505.56 L775.61,509.84 L774.40,514.14 L773.17,518.46 L771.95,522.80 L770.72,527.16 L769.48,531.53 L768.24,535.92 L767.00,540.32 L765.75,544.74 L764.50,549.17 L763.24,553.61 L761.98,558.06 L760.71,562.52 L759.45,566.99 L758.17,571.47 L756.90,575.95 L755.62,580.44 L754.33,584.93 L753.04,589.42 L751.75,593.92 L750.46,598.42 L749.16,602.92 L747.85,607.42 L746.55,611.92 L745.23,616.41 L743.92,620.90 L742.60,625.39 L741.28,629.87 L739.96,634.35 L738.63,638.81 L737.30,643.27 L735.96,647.72 L734.62,652.16 L733.28,656.58 L731.93,660.99 L730.58,665.39 L729.23,669.78 L727.88,674.15 L726.52,678.50 L725.16,682.83 L723.79,687.15 L722.42,691.44 L721.05,695.72 L719.68,699.97 L718.30,704.20 L716.92,708.41 L715.54,712.60 L714.15,716.75 L712.77,720.89 L711.37,724.99 L709.98,729.07 L708.58,733.11 L707.18,737.13 L705.78,741.12 L704.38,745.07 L702.97,749.00 L701.56,752.89 L700.15,756.74 L698.73,760.56 L697.31,764.34 L695.89,768.09 L694.47,771.80 L693.05,775.47 L691.62,779.10 L690.19,782.69 L688.76,786.23 L687.32,789.74 L685.89,793.21 L684.45,796.63 L683.01,800.00 L681.57,803.33 L680.12,806.62 L678.67,809.86 L677.23,813.05 L675.78,816.20 L674.32,819.29 L672.87,822.34 L671.41,825.33 L669.96,828.28 L668.50,831.17 L667.03,834.01 L665.57,836.80 L664.11,839.54 L662.64,842.22 L661.17,844.85 L659.70,847.42 L658.23,849.94 L656.76,852.40 L655.29,854.80 L653.81,857.15 L652.34,859.44 L650.86,861.67 L649.38,863.84 L647.90,865.95 L646.42,868.00 L644.94,870.00 L643.45,871.93 L641.97,873.80 L640.48,875.61 L639.00,877.35 L637.51,879.04 L636.02,880.66 L634.53,882.22 L633.04,883.71 L631.55,885.14 L630.06,886.51 L628.56,887.81 L627.07,889.05 L625.57,890.22 L624.08,891.33 L622.58,892.37 L621.09,893.34 L619.59,894.25 L618.09,895.10 L616.60,895.87 L615.10,896.58 L613.60,897.23 L612.10,897.80 L610.60,898.31 L609.10,898.76 L607.60,899.13 L606.11,899.44 L604.61,899.68 L603.11,899.86 L601.61,899.96 L600.11,900.00 L598.61,899.97 L597.11,899.87 L595.61,899.71 L594.11,899.48 L592.61,899.18 L591.11,898.81 L589.61,898.38 L588.11,897.88 L586.61,897.31 L585.11,896.68 L583.61,895.98 L582.12,895.21 L580.62,894.38 L579.12,893.48 L577.63,892.51 L576.13,891.48 L574.64,890.38 L573.14,889.22 L571.65,887.99 L570.16,886.69 L568.66,885.34 L567.17,883.92 L565.68,882.43 L564.19,880.88 L562.70,879.27 L561.21,877.59 L559.73,875.86 L558.24,874.06 L556.76,872.19 L555.27,870.27 L553.79,868.29 L552.31,866.24 L550.83,864.14 L549.35,861.98 L547.87,859.76 L546.40,857.48 L544.92,855.14 L543.45,852.74 L541.97,850.29 L540.50,847.78 L539.03,845.21 L537.57,842.59 L536.10,839.92 L534.63,837.19 L533.17,834.41 L531.71,831.58 L530.25,828.69 L528.79,825.75 L527.34,822.76 L525.88,819.72 L524.43,816.63 L522.98,813.50 L521.53,810.31 L520.08,807.08 L518.64,803.80 L517.19,800.47 L515.75,797.10 L514.32,793.69 L512.88,790.23 L511.44,786.73 L510.01,783.19 L508.58,779.60 L507.16,775.98 L505.73,772.32 L504.31,768.61 L502.89,764.87 L501.47,761.09 L500.05,757.28 L498.64,753.43 L497.23,749.55 L495.82,745.63 L494.42,741.68 L493.01,737.70 L491.61,733.68 L490.22,729.64 L488.82,725.57 L487.43,721.47 L486.04,717.34 L484.66,713.18 L483.27,709.00 L481.89,704.80 L480.51,700.57 L479.14,696.32 L477.77,692.05 L476.40,687.75 L475.03,683.44 L473.67,679.11 L472.31,674.76 L470.96,670.39 L469.61,666.01 L468.26,661.61 L466.91,657.20 L465.57,652.78 L464.23,648.34 L462.89,643.90 L461.56,639.44 L460.23,634.98 L458.91,630.50 L457.58,626.02 L456.27,621.54 L454.95,617.05 L453.64,612.55 L452.33,608.05 L451.03,603.56 L449.73,599.06 L448.43,594.56 L447.14,590.06 L445.85,585.56 L444.56,581.07 L443.28,576.58 L442.01,572.10 L440.73,567.62 L439.46,563.15 L438.20,558.69 L436.94,554.24 L435.68,549.79 L434.43,545.36 L433.18,540.94 L431.93,536.54 L430.69,532.15 L429.46,527.77 L428.23,523.41 L427.00,519.07 L425.78,514.75 L424.56,510.44 L423.34,506.16 L422.13,501.89 L420.93,497.65 L419.72,493.43 L418.53,489.24 L417.34,485.07 L416.15,480.93 L414.97,476.81 L413.79,472.72 L412.61,468.66 L411.44,464.63 L410.28,460.63 L409.12,456.66 L407.97,452.72 L406.82,448.82 L405.67,444.95 L404.53,441.12 L403.39,437.32 L402.26,433.55 L401.14,429.83 L400.02,426.14 L398.90,422.49 L397.79,418.89 L396.69,415.32 L395.59,411.79 L394.49,408.31 L393.40,404.87 L392.32,401.48 L391.24,398.12 L390.16,394.82 L389.09,391.56 L388.03,388.35 L386.97,385.18 L385.91,382.06 L384.87,379.00 L383.82,375.98 L382.79,373.01 L381.75,370.09 L380.73,367.23 L379.71,364.42 L378.69,361.66 L377.68,358.95 L376.68,356.30 L375.68,353.70 L374.69,351.16 L373.70,348.68 L372.72,346.25 L371.74,343.87 L370.77,341.56 L369.80,339.30 L368.85,337.11 L367.89,334.97 L366.95,332.89 L366.00,330.87 L365.07,328.91 L364.14,327.02 L363.21,325.18 L362.30,323.41 L361.38,321.70 L360.48,320.05 L359.58,318.46 L358.68,316.94 L357.79,315.48 L356.91,314.09 L356.04,312.76 L355.17,311.49 L354.30,310.29 L353.45,309.15 L352.59,308.08 L351.75,307.08 L350.91,306.14 L350.08,305.27 L349.25,304.46 L348.43,303.72 L347.62,303.05 L346.81,302.44 L346.01,301.90 L345.21,301.43 L344.42,301.02 L343.64,300.69 L342.86,300.42 L342.10,300.21 L341.33,300.08 L340.58,300.01 L339.83,300.01 L339.08,300.07 L338.35,300.21 L337.61,300.41 L336.89,300.68 L336.17,301.02 L335.46,301.42 L334.76,301.89 L334.06,302.43 L333.37,303.03 L332.69,303.71 L332.01,304.44 L331.34,305.25 L330.67,306.12 L330.02,307.06 L329.37,308.06 L328.72,309.13 L328.08,310.27 L327.45,311.46 L326.83,312.73 L326.21,314.06 L325.60,315.45 L325.00,316.91 L324.41,318.43 L323.82,320.02 L323.23,321.66 L322.66,323.37 L322.09,325.15 L321.53,326.98 L320.97,328.88 L320.43,330.83 L319.89,332.85 L319.35,334.93 L318.83,337.06 L318.31,339.26 L317.79,341.52 L317.29,343.83 L316.79,346.20 L316.30,348.63 L315.81,351.11 L315.34,353.65 L314.87,356.25 L314.41,358.90 L313.95,361.60 L313.50,364.36 L313.06,367.17 L312.63,370.04 L312.20,372.95 L311.78,375.92 L311.37,378.94 L310.96,382.00 L310.56,385.12 L310.17,388.28 L309.79,391.49 L309.41,394.75 L309.04,398.06 L308.68,401.41 L308.33,404.80 L307.98,408.24 L307.64,411.72 L307.31,415.25 L306.98,418.82 L306.66,422.42 L306.35,426.07 L306.05,429.76 L305.75,433.48 L305.46,437.24 L305.18,441.04 L304.91,444.87 L304.64,448.74 L304.38,452.65 L304.13,456.58 L303.89,460.55 L303.65,464.55 L303.42,468.58 L303.20,472.64 L302.98,476.73 L302.78,480.84 L302.58,484.99 L302.38,489.16 L302.20,493.35 L302.02,497.57 L301.85,501.81 L301.69,506.07 L301.53,510.36 L301.39,514.66 L301.25,518.98 L301.11,523.33 L300.99,527.69 L300.87,532.06 L300.76,536.45 L300.66,540.86 L300.56,545.27 L300.47,549.70 L300.39,554.15 L300.32,558.60 L300.25,563.06 L300.20,567.53 L300.15,572.01 L300.10,576.49 L300.07,580.98 L300.04,585.47 L300.02,589.97 L300.01,594.47 L300.00,598.97 L300.00,603.47 L300.01,607.97 L300.03,612.46 L300.05,616.96 L300.09,621.45 L300.12,625.93 L300.17,630.41 L300.23,634.89 L300.29,639.35 L300.36,643.81 L300.43,648.26 L300.52,652.69 L300.61,657.12 L300.71,661.53 L300.82,665.92 L300.93,670.31 L301.05,674.67 L301.18,679.02 L301.32,683.35 L301.46,687.67 L301.62,691.96 L301.78,696.23 L301.94,700.49 L302.12,704.71 L302.30,708.92 L302.49,713.10 L302.68,717.25 L302.89,721.38 L303.10,725.48 L303.32,729.56 L303.54,733.60 L303.78,737.62 L304.02,741.60 L304.27,745.55 L304.52,749.47 L304.79,753.35 L305.06,757.20 L305.33,761.02 L305.62,764.80 L305.91,768.54 L306.21,772.24 L306.52,775.91 L306.83,779.53 L307.16,783.12 L307.49,786.66 L307.82,790.16 L308.17,793.62 L308.52,797.04 L308.88,800.41 L309.24,803.73 L309.61,807.01 L309.99,810.25 L310.38,813.43 L310.78,816.57 L311.18,819.66 L311.59,822.70 L312.00,825.69 L312.43,828.63 L312.86,831.52 L313.30,834.35 L313.74,837.14 L314.20,839.87 L314.65,842.54 L315.12,845.16 L315.59,847.73 L316.08,850.24 L316.56,852.69 L317.06,855.09 L317.56,857.43 L318.07,859.71 L318.59,861.93 L319.11,864.10 L319.64,866.20 L320.18,868.25 L320.72,870.23 L321.27,872.16 L321.83,874.02 L322.40,875.82 L322.97,877.56 L323.55,879.24 L324.13,880.85 L324.73,882.40 L325.33,883.89 L325.93,885.31 L326.55,886.67 L327.17,887.96 L327.79,889.19 L328.43,890.36 L329.07,891.46 L329.72,892.49 L330.37,893.46 L331.03,894.36 L331.70,895.19 L332.37,895.96 L333.05,896.67 L333.74,897.30 L334.44,897.87 L335.14,898.37 L335.85,898.81 L336.56,899.17 L337.28,899.47 L338.01,899.71 L338.74,899.87 L339.48,899.97 L340.23,900.00 L340.98,899.96 L341.74,899.86 L342.51,899.69 L343.28,899.45 L344.06,899.14 L344.85,898.77 L345.64,898.32 L346.44,897.82 L347.24,897.24 L348.06,896.60 L348.87,895.89 L349.70,895.11 L350.53,894.27 L351.36,893.36 L352.20,892.39 L353.05,891.35 L353.91,890.24 L354.77,889.07 L355.64,887.83 L356.51,886.53 L357.39,885.17 L358.27,883.74 L359.17,882.25 L360.06,880.69 L360.97,879.07 L361.88,877.39 L362.79,875.64 L363.71,873.83 L364.64,871.97 L365.57,870.04 L366.51,868.04 L367.46,865.99 L368.41,863.88 L369.36,861.71 L370.33,859.48 L371.29,857.20 L372.27,854.85 L373.25,852.45 L374.23,849.99 L375.22,847.47 L376.22,844.90 L377.22,842.27 L378.23,839.59 L379.24,836.86 L380.26,834.07 L381.28,831.23 L382.31,828.34 L383.35,825.39 L384.39,822.40 L385.43,819.35 L386.48,816.26 L387.54,813.11 L388.60,809.92 L389.67,806.68 L390.74,803.40 L391.82,800.07 L392.90,796.69 L393.99,793.27 L395.08,789.81 L396.18,786.30 L397.28,782.76 L398.39,779.17 L399.50,775.54 L400.62,771.87 L401.75,768.16 L402.87,764.42 L404.01,760.63 L405.15,756.82 L406.29,752.96 L407.44,749.07 L408.59,745.15 L409.75,741.20 L410.91,737.21 L412.08,733.19 L413.25,729.15 L414.42,725.07 L415.60,720.97 L416.79,716.84 L417.98,712.68 L419.17,708.50 L420.37,704.29 L421.58,700.06 L422.79,695.80 L424.00,691.53 L425.21,687.23 L426.44,682.92 L427.66,678.58 L428.89,674.23 L430.13,669.86 L431.36,665.48 L432.61,661.08 L433.85,656.67 L435.11,652.24 L436.36,647.81 L437.62,643.36 L438.88,638.90 L440.15,634.44 L441.42,629.96 L442.70,625.48 L443.98,620.99 L445.26,616.50 L446.55,612.01 L447.84,607.51 L449.13,603.01 L450.43,598.51 L451.73,594.01 L453.04,589.51 L454.35,585.02 L455.66,580.53 L456.98,576.04 L458.30,571.55 L459.62,567.08 L460.95,562.61 L462.28,558.15 L463.61,553.70 L464.95,549.26 L466.29,544.83 L467.64,540.41 L468.99,536.01 L470.34,531.62 L471.69,527.24 L473.05,522.89 L474.41,518.55 L475.77,514.23 L477.14,509.92 L478.51,505.64 L479.88,501.38 L481.26,497.14 L482.64,492.93 L484.02,488.73 L485.40,484.57 L486.79,480.43 L488.18,476.31 L489.58,472.23 L490.97,468.17 L492.37,464.14 L493.77,460.15 L495.18,456.18 L496.58,452.25 L497.99,448.35 L499.40,444.48 L500.82,440.65 L502.24,436.86 L503.65,433.10 L505.08,429.38 L506.50,425.70 L507.93,422.06 L509.36,418.45 L510.79,414.89 L512.22,411.37 L513.66,407.89 L515.09,404.46 L516.53,401.07 L517.97,397.72 L519.42,394.42 L520.86,391.17 L522.31,387.96 L523.76,384.80 L525.21,381.69 L526.67,378.63 L528.12,375.62 L529.58,372.65 L531.04,369.74 L532.50,366.89 L533.96,364.08 L535.43,361.33 L536.89,358.63 L538.36,355.98 L539.83,353.39 L541.30,350.86 L542.77,348.38 L544.24,345.96 L545.72,343.59 L547.19,341.28 L548.67,339.04 L550.15,336.85 L551.63,334.71 L553.11,332.64 L554.59,330.63 L556.08,328.68 L557.56,326.79 L559.04,324.96 L560.53,323.20 L562.02,321.49 L563.51,319.85 L565.00,318.27 L566.49,316.76 L567.98,315.31 L569.47,313.92 L570.96,312.60 L572.46,311.34 L573.95,310.15 L575.44,309.02 L576.94,307.96 L578.44,306.96 L579.93,306.03 L581.43,305.17 L582.93,304.37 L584.42,303.64 L585.92,302.97 L587.42,302.37 L588.92,301.84 L590.42,301.38 L591.92,300.98 L593.42,300.65 L594.92,300.39 L596.42,300.19 L597.92,300.07 L599.42,300.01 L600.92,300.01 L602.42,300.09 L603.92,300.23 L605.42,300.44 L606.92,300.72 L608.42,301.06 L609.91,301.47 L611.41,301.95 L612.91,302.50 L614.41,303.11 L615.91,303.79 L617.41,304.54 L618.90,305.35 L620.40,306.23 L621.90,307.18 L623.39,308.19 L624.89,309.26 L626.38,310.41 L627.88,311.61 L629.37,312.89 L630.86,314.22 L632.35,315.62 L633.84,317.09 L635.33,318.62 L636.82,320.21 L638.31,321.87 L639.80,323.58 L641.29,325.36 L642.77,327.21 L644.25,329.11 L645.74,331.07 L647.22,333.10 L648.70,335.18 L650.18,337.33 L651.66,339.53 L653.13,341.79 L654.61,344.11 L656.08,346.49 L657.56,348.92 L659.03,351.42 L660.50,353.96 L661.97,356.56 L663.43,359.22 L664.90,361.93 L666.36,364.70 L667.83,367.52 L669.29,370.39 L670.74,373.31 L672.20,376.28 L673.66,379.30 L675.11,382.38 L676.56,385.50 L678.01,388.67 L679.46,391.89 L680.90,395.15 L682.35,398.46 L683.79,401.82 L685.23,405.22 L686.66,408.66 L688.10,412.15 L689.53,415.68 L690.96,419.25 L692.39,422.86 L693.82,426.51 L695.24,430.20 L696.66,433.93 L698.08,437.70 L699.50,441.50 L700.91,445.34 L702.32,449.21 L703.73,453.12 L705.14,457.06 L706.54,461.03 L707.94,465.04 L709.34,469.07 L710.73,473.13 L712.13,477.23 L713.52,481.34 L714.90,485.49 L716.29,489.66 L717.67,493.86 L719.05,498.08 L720.42,502.32 L721.80,506.59 L723.16,510.88 L724.53,515.18 L725.89,519.51 L727.25,523.85 L728.61,528.21 L729.96,532.59 L731.31,536.98 L732.66,541.39 L734.01,545.81 L735.35,550.24 L736.68,554.68 L738.02,559.14 L739.35,563.60 L740.67,568.07 L742.00,572.55 L743.32,577.03 L744.63,581.52 L745.94,586.02 L747.25,590.51 L748.56,595.01 L749.86,599.51 L751.16,604.01 L752.45,608.51 L753.74,613.01 L755.03,617.50 L756.31,621.99 L757.59,626.48 L758.86,630.96 L760.13,635.43 L761.40,639.89 L762.66,644.35 L763.92,648.79 L765.17,653.23 L766.42,657.65 L767.67,662.06 L768.91,666.45 L770.15,670.84 L771.38,675.20 L772.61,679.55 L773.84,683.88 L775.06,688.19 L776.27,692.48 L777.48,696.75 L778.69,701.00 L779.89,705.22 L781.09,709.43 L782.28,713.60 L783.47,717.76 L784.66,721.88 L785.84,725.98 L787.01,730.05 L788.18,734.09 L789.35,738.10 L790.51,742.08 L791.67,746.03 L792.82,749.94 L793.97,753.82 L795.11,757.67 L796.24,761.48 L797.38,765.25 L798.50,768.99 L799.63,772.69 L800.74,776.35 L801.86,779.97 L802.96,783.55 L804.06,787.09 L805.16,790.58 L806.25,794.04 L807.34,797.45 L808.42,800.81 L809.50,804.13 L810.57,807.41 L811.63,810.64 L812.69,813.82 L813.75,816.95 L814.80,820.03 L815.84,823.07 L816.88,826.05 L817.92,828.98 L818.95,831.86 L819.97,834.69 L820.99,837.47 L822.00,840.19 L823.00,842.86 L824.00,845.48 L825.00,848.04 L825.99,850.54 L826.97,852.99 L827.95,855.38 L828.92,857.71 L829.89,859.98 L830.85,862.20 L831.80,864.36 L832.75,866.45 L833.70,868.49 L834.63,870.47 L835.57,872.39 L836.49,874.24 L837.41,876.03 L838.33,877.77 L839.23,879.43 L840.14,881.04 L841.03,882.58 L841.92,884.06 L842.81,885.48 L843.68,886.83 L844.56,888.11 L845.42,889.34 L846.28,890.49 L847.14,891.58 L847.98,892.61 L848.82,893.57 L849.66,894.46 L850.49,895.29 L851.31,896.05 L852.13,896.75 L852.94,897.37 L853.74,897.93 L854.54,898.43 L855.33,898.85 L856.11,899.21 L856.89,899.51 L857.66,899.73 L858.43,899.89 L859.18,899.98 L859.94,900.00 L860.68,899.95 L861.42,899.84 L862.15,899.66 L862.88,899.41 L863.60,899.10 L864.31,898.72 L865.02,898.27 L865.72,897.75 L866.41,897.17 L867.10,896.52 L867.78,895.80 L868.45,895.01 L869.12,894.16 L869.78,893.25 L870.43,892.27 L871.07,891.22 L871.71,890.10 L872.35,888.92 L872.97,887.68 L873.59,886.37 L874.20,885.00 L874.81,883.56 L875.41,882.06 L876.00,880.50 L876.58,878.87 L877.16,877.18 L877.73,875.43 L878.29,873.61 L878.85,871.73 L879.40,869.80 L879.94,867.80 L880.48,865.74 L881.01,863.62 L881.53,861.45 L882.04,859.21 L882.55,856.91 L883.05,854.56 L883.55,852.15 L884.03,849.69 L884.51,847.16 L884.98,844.59 L885.45,841.95 L885.91,839.27 L886.36,836.52 L886.80,833.73 L887.24,830.88 L887.67,827.98 L888.09,825.03 L888.50,822.03 L888.91,818.98 L889.31,815.88 L889.70,812.73 L890.09,809.53 L890.47,806.29 L890.84,803.00 L891.20,799.66 L891.56,796.28 L891.91,792.86 L892.25,789.39 L892.59,785.88 L892.92,782.32 L893.24,778.73 L893.55,775.10 L893.86,771.42 L894.15,767.71 L894.44,763.96 L894.73,760.17 L895.00,756.35 L895.27,752.49 L895.54,748.60 L895.79,744.68 L896.04,740.72 L896.28,736.73 L896.51,732.71 L896.73,728.66 L896.95,724.58 L897.16,720.47 L897.36,716.33" fill="none" stroke="#dde8f0" stroke-width="0.5" stroke-linecap="round" stroke-linejoin="round" opacity="0.5" />
</svg>