<svg xmlns="http://www.w3.org/2000/svg" width="1200" height="1200" viewBox="0 0 1200 1200">
  <rect width="1200" height="1200" fill="#f0f0ec" />
  <path d="M900.00,600.00 L899.98,597.00 L899.93,594.00 L899.83,591.00 L899.70,588.01 L899.53,585.01 L899.33,582.02 L899.08,579.03 L898.80,576.04 L898.48,573.06 L898.13,570.09 L897.74,567.12 L897.31,564.15 L896.84,561.19 L896.34,558.24 L895.80,555.29 L895.22,552.36 L894.61,549.43 L893.96,546.51 L893.27,543.60 L892.55,540.70 L891.79,537.81 L891.00,534.93 L890.17,532.06 L889.31,529.20 L888.41,526.36 L887.47,523.53 L886.50,520.71 L885.50,517.90 L884.46,515.11 L883.38,512.34 L882.27,509.58 L881.13,506.84 L879.96,504.11 L878.75,501.40 L877.51,498.70 L876.23,496.03 L874.93,493.37 L873.59,490.73 L872.21,488.11 L870.81,485.50 L869.38,482.92 L867.91,480.36 L866.41,477.82 L864.88,475.30 L863.33,472.80 L861.74,470.32 L860.12,467.87 L858.47,465.44 L856.80,463.03 L855.09,460.64 L853.36,458.28 L851.60,455.95 L849.81,453.63 L847.99,451.35 L846.15,449.09 L844.28,446.85 L842.38,444.64 L840.46,442.46 L838.51,440.30 L836.54,438.17 L834.55,436.07 L832.53,434.00 L830.48,431.95 L828.41,429.94 L826.32,427.95 L824.21,425.99 L822.07,424.06 L819.92,422.16 L817.74,420.29 L815.54,418.45 L813.32,416.64 L811.08,414.87 L808.83,413.12 L806.55,411.40 L804.25,409.72 L801.94,408.07 L799.61,406.45 L797.26,404.86 L794.89,403.30 L792.51,401.78 L790.12,400.29 L787.70,398.84 L785.28,397.41 L782.84,396.02 L780.38,394.67 L777.91,393.34 L775.43,392.06 L772.94,390.80 L770.43,389.58 L767.92,388.40 L765.39,387.25 L762.85,386.13 L760.31,385.05 L757.75,384.00 L755.19,382.99 L752.61,382.01 L750.03,381.07 L747.44,380.17 L744.85,379.30 L742.25,378.46 L739.64,377.66 L737.03,376.90 L734.41,376.17 L731.79,375.48 L729.17,374.82 L726.54,374.20 L723.91,373.61 L721.28,373.06 L718.65,372.55 L716.01,372.07 L713.38,371.62 L710.74,371.22 L708.11,370.84 L705.47,370.51 L702.84,370.20 L700.21,369.94 L697.58,369.71 L694.96,369.51 L692.34,369.35 L689.72,369.23 L687.11,369.14 L684.50,369.08 L681.90,369.06 L679.30,369.07 L676.71,369.12 L674.13,369.21 L671.56,369.32 L668.99,369.47 L666.43,369.66 L663.89,369.88 L661.35,370.13 L658.82,370.42 L656.30,370.74 L653.79,371.09 L651.29,371.47 L648.81,371.89 L646.34,372.34 L643.88,372.82 L641.43,373.34 L639.00,373.89 L636.58,374.46 L634.18,375.07 L631.79,375.71 L629.42,376.38 L627.06,377.09 L624.72,377.82 L622.39,378.58 L620.09,379.37 L617.80,380.19 L615.53,381.04 L613.27,381.92 L611.04,382.83 L608.83,383.77 L606.63,384.73 L604.46,385.72 L602.30,386.74 L600.17,387.78 L598.06,388.86 L595.97,389.95 L593.90,391.08 L591.85,392.23 L589.83,393.40 L587.83,394.60 L585.85,395.82 L583.89,397.07 L581.96,398.34 L580.06,399.64 L578.18,400.95 L576.32,402.29 L574.49,403.66 L572.68,405.04 L570.90,406.44 L569.15,407.87 L567.42,409.31 L565.72,410.78 L564.05,412.27 L562.40,413.77 L560.78,415.29 L559.19,416.83 L557.63,418.39 L556.10,419.97 L554.59,421.56 L553.11,423.17 L551.66,424.80 L550.24,426.44 L548.85,428.10 L547.49,429.77 L546.16,431.45 L544.86,433.15 L543.58,434.87 L542.34,436.59 L541.13,438.33 L539.95,440.08 L538.80,441.84 L537.68,443.61 L536.59,445.39 L535.53,447.18 L534.51,448.98 L533.51,450.79 L532.55,452.61 L531.61,454.44 L530.71,456.27 L529.84,458.11 L529.00,459.96 L528.20,461.81 L527.42,463.67 L526.68,465.53 L525.97,467.40 L525.29,469.27 L524.64,471.15 L524.03,473.03 L523.44,474.91 L522.89,476.79 L522.37,478.67 L521.88,480.56 L521.42,482.44 L521.00,484.33 L520.61,486.21 L520.25,488.10 L519.92,489.98 L519.62,491.86 L519.35,493.74 L519.12,495.61 L518.92,497.49 L518.74,499.35 L518.60,501.22 L518.49,503.08 L518.42,504.93 L518.37,506.78 L518.35,508.62 L518.36,510.45 L518.41,512.28 L518.48,514.10 L518.59,515.91 L518.72,517.71 L518.89,519.50 L519.08,521.28 L519.30,523.06 L519.56,524.82 L519.84,526.57 L520.15,528.31 L520.49,530.04 L520.86,531.76 L521.26,533.46 L521.68,535.15 L522.13,536.83 L522.61,538.49 L523.12,540.14 L523.65,541.77 L524.21,543.39 L524.80,544.99 L525.42,546.57 L526.06,548.14 L526.72,549.70 L527.41,551.23 L528.13,552.75 L528.87,554.25 L529.63,555.73 L530.42,557.19 L531.23,558.63 L532.07,560.05 L532.93,561.46 L533.81,562.84 L534.72,564.20 L535.65,565.54 L536.59,566.86 L537.56,568.16 L538.56,569.44 L539.57,570.69 L540.60,571.92 L541.65,573.13 L542.72,574.31 L543.82,575.47 L544.93,576.61 L546.05,577.72 L547.20,578.81 L548.36,579.88 L549.54,580.92 L550.74,581.93 L551.96,582.92 L553.19,583.88 L554.43,584.82 L555.69,585.73 L556.97,586.61 L558.26,587.47 L559.56,588.30 L560.87,589.10 L562.20,589.88 L563.55,590.63 L564.90,591.35 L566.26,592.04 L567.64,592.71 L569.03,593.35 L570.42,593.96 L571.83,594.54 L573.25,595.09 L574.67,595.61 L576.10,596.10 L577.54,596.57 L578.99,597.01 L580.45,597.41 L581.91,597.79 L583.37,598.14 L584.85,598.46 L586.32,598.74 L587.81,599.00 L589.29,599.23 L590.78,599.43 L592.27,599.60 L593.77,599.74 L595.26,599.85 L596.76,599.93 L598.26,599.98 L599.76,600.00 L601.26,599.99 L602.76,599.95 L604.26,599.88 L605.76,599.78 L607.25,599.65 L608.74,599.49 L610.24,599.30 L611.72,599.08 L613.21,598.83 L614.68,598.55 L616.16,598.24 L617.63,597.90 L619.09,597.54 L620.55,597.14 L622.00,596.71 L623.44,596.26 L624.87,595.77 L626.30,595.26 L627.72,594.71 L629.13,594.14 L630.53,593.54 L631.92,592.92 L633.30,592.26 L634.67,591.57 L636.02,590.86 L637.37,590.12 L638.70,589.35 L640.02,588.56 L641.33,587.74 L642.62,586.89 L643.90,586.01 L645.17,585.11 L646.42,584.18 L647.65,583.23 L648.87,582.25 L650.08,581.24 L651.26,580.21 L652.43,579.16 L653.58,578.07 L654.72,576.97 L655.83,575.84 L656.93,574.69 L658.01,573.51 L659.07,572.31 L660.11,571.08 L661.12,569.84 L662.12,568.57 L663.10,567.28 L664.05,565.97 L664.99,564.63 L665.90,563.28 L666.79,561.90 L667.66,560.50 L668.50,559.09 L669.32,557.65 L670.12,556.19 L670.89,554.72 L671.64,553.23 L672.36,551.72 L673.06,550.19 L673.74,548.64 L674.38,547.08 L675.01,545.50 L675.60,543.90 L676.17,542.29 L676.71,540.66 L677.23,539.01 L677.72,537.36 L678.18,535.69 L678.61,534.00 L679.02,532.30 L679.40,530.59 L679.74,528.86 L680.06,527.13 L680.36,525.38 L680.62,523.62 L680.85,521.85 L681.05,520.07 L681.23,518.28 L681.37,516.48 L681.49,514.67 L681.57,512.86 L681.63,511.03 L681.65,509.20 L681.64,507.36 L681.60,505.52 L681.53,503.67 L681.44,501.81 L681.30,499.95 L681.14,498.08 L680.95,496.21 L680.72,494.34 L680.47,492.46 L680.18,490.58 L679.86,488.70 L679.51,486.81 L679.13,484.93 L678.71,483.04 L678.27,481.16 L677.79,479.27 L677.28,477.39 L676.74,475.51 L676.16,473.62 L675.56,471.75 L674.92,469.87 L674.25,468.00 L673.55,466.13 L672.82,464.26 L672.05,462.40 L671.26,460.55 L670.43,458.70 L669.57,456.86 L668.68,455.02 L667.75,453.19 L666.80,451.37 L665.81,449.56 L664.80,447.76 L663.75,445.96 L662.67,444.18 L661.56,442.40 L660.42,440.64 L659.25,438.88 L658.05,437.14 L656.81,435.41 L655.55,433.70 L654.26,431.99 L652.94,430.30 L651.59,428.63 L650.20,426.97 L648.79,425.32 L647.35,423.69 L645.88,422.08 L644.39,420.48 L642.86,418.89 L641.31,417.33 L639.72,415.78 L638.11,414.25 L636.48,412.74 L634.81,411.25 L633.12,409.78 L631.40,408.33 L629.66,406.90 L627.89,405.48 L626.09,404.09 L624.27,402.73 L622.42,401.38 L620.54,400.05 L618.65,398.75 L616.72,397.47 L614.78,396.22 L612.81,394.99 L610.81,393.78 L608.80,392.60 L606.76,391.44 L604.70,390.31 L602.61,389.20 L600.51,388.12 L598.38,387.07 L596.23,386.04 L594.06,385.04 L591.87,384.07 L589.67,383.12 L587.44,382.21 L585.19,381.32 L582.93,380.46 L580.64,379.63 L578.34,378.83 L576.02,378.06 L573.69,377.32 L571.34,376.60 L568.97,375.92 L566.58,375.27 L564.19,374.65 L561.77,374.07 L559.34,373.51 L556.90,372.99 L554.45,372.49 L551.98,372.03 L549.50,371.60 L547.01,371.21 L544.50,370.84 L541.99,370.51 L539.46,370.22 L536.92,369.95 L534.38,369.73 L531.82,369.53 L529.26,369.37 L526.69,369.24 L524.11,369.15 L521.52,369.09 L518.93,369.06 L516.33,369.07 L513.72,369.11 L511.11,369.19 L508.50,369.31 L505.88,369.46 L503.25,369.64 L500.63,369.86 L498.00,370.12 L495.37,370.41 L492.73,370.73 L490.10,371.09 L487.46,371.49 L484.83,371.92 L482.19,372.39 L479.56,372.89 L476.93,373.43 L474.30,374.01 L471.67,374.62 L469.04,375.26 L466.42,375.95 L463.80,376.66 L461.19,377.42 L458.58,378.20 L455.98,379.03 L453.38,379.89 L450.79,380.78 L448.21,381.71 L445.63,382.68 L443.07,383.68 L440.51,384.71 L437.96,385.78 L435.42,386.89 L432.89,388.03 L430.37,389.20 L427.86,390.41 L425.36,391.65 L422.88,392.93 L420.40,394.24 L417.94,395.59 L415.50,396.97 L413.07,398.38 L410.65,399.82 L408.25,401.30 L405.86,402.82 L403.49,404.36 L401.14,405.94 L398.80,407.55 L396.48,409.19 L394.18,410.86 L391.90,412.57 L389.63,414.31 L387.39,416.07 L385.16,417.87 L382.96,419.70 L380.77,421.56 L378.61,423.45 L376.47,425.37 L374.35,427.32 L372.25,429.30 L370.18,431.31 L368.12,433.34 L366.10,435.41 L364.09,437.50 L362.11,439.62 L360.16,441.77 L358.23,443.94 L356.32,446.14 L354.45,448.37 L352.59,450.62 L350.77,452.90 L348.97,455.21 L347.20,457.54 L345.46,459.89 L343.74,462.27 L342.06,464.67 L340.40,467.09 L338.78,469.54 L337.18,472.01 L335.61,474.50 L334.07,477.01 L332.56,479.55 L331.09,482.10 L329.64,484.68 L328.23,487.27 L326.85,489.89 L325.50,492.52 L324.18,495.18 L322.89,497.85 L321.64,500.54 L320.42,503.24 L319.24,505.96 L318.09,508.70 L316.97,511.46 L315.88,514.23 L314.83,517.01 L313.82,519.81 L312.83,522.63 L311.89,525.45 L310.98,528.29 L310.10,531.15 L309.26,534.01 L308.46,536.89 L307.69,539.78 L306.95,542.67 L306.26,545.58 L305.59,548.50 L304.97,551.42 L304.38,554.36 L303.83,557.30 L303.32,560.25 L302.84,563.21 L302.40,566.17 L301.99,569.14 L301.63,572.12 L301.30,575.09 L301.00,578.08 L300.75,581.07 L300.53,584.06 L300.35,587.05 L300.21,590.05 L300.10,593.05 L300.03,596.04 L300.00,599.04 L300.01,602.04 L300.05,605.04 L300.13,608.04 L300.25,611.04 L300.41,614.04 L300.60,617.03 L300.84,620.02 L301.11,623.00 L301.41,625.99 L301.75,628.97 L302.14,631.94 L302.55,634.91 L303.01,637.87 L303.50,640.82 L304.03,643.77 L304.59,646.71 L305.19,649.64 L305.83,652.56 L306.50,655.48 L307.22,658.38 L307.96,661.27 L308.74,664.16 L309.56,667.03 L310.41,669.89 L311.30,672.74 L312.23,675.57 L313.19,678.40 L314.18,681.20 L315.21,684.00 L316.27,686.78 L317.37,689.54 L318.50,692.29 L319.66,695.03 L320.86,697.74 L322.09,700.44 L323.36,703.12 L324.65,705.79 L325.98,708.43 L327.35,711.06 L328.74,713.67 L330.16,716.26 L331.62,718.83 L333.11,721.37 L334.63,723.90 L336.18,726.41 L337.75,728.89 L339.36,731.35 L341.00,733.79 L342.67,736.21 L344.36,738.60 L346.09,740.97 L347.84,743.31 L349.62,745.63 L351.43,747.93 L353.26,750.20 L355.12,752.44 L357.01,754.66 L358.92,756.85 L360.86,759.01 L362.83,761.15 L364.82,763.26 L366.83,765.34 L368.87,767.40 L370.93,769.42 L373.01,771.42 L375.11,773.39 L377.24,775.33 L379.39,777.24 L381.56,779.12 L383.76,780.97 L385.97,782.78 L388.20,784.57 L390.45,786.33 L392.72,788.05 L395.01,789.75 L397.32,791.41 L399.65,793.04 L401.99,794.64 L404.35,796.20 L406.73,797.74 L409.12,799.24 L411.53,800.70 L413.95,802.14 L416.39,803.54 L418.84,804.91 L421.30,806.24 L423.78,807.54 L426.27,808.80 L428.77,810.03 L431.28,811.23 L433.80,812.39 L436.34,813.52 L438.88,814.61 L441.43,815.67 L444.00,816.69 L446.57,817.68 L449.15,818.63 L451.73,819.55 L454.32,820.43 L456.92,821.28 L459.53,822.09 L462.14,822.86 L464.75,823.60 L467.37,824.31 L470.00,824.98 L472.62,825.61 L475.25,826.21 L477.88,826.77 L480.52,827.29 L483.15,827.78 L485.79,828.24 L488.42,828.66 L491.06,829.04 L493.69,829.39 L496.32,829.70 L498.95,829.98 L501.58,830.22 L504.21,830.43 L506.83,830.60 L509.45,830.74 L512.06,830.84 L514.67,830.91 L517.27,830.94 L519.87,830.93 L522.46,830.90 L525.05,830.82 L527.62,830.72 L530.19,830.58 L532.75,830.40 L535.30,830.20 L537.85,829.95 L540.38,829.68 L542.90,829.37 L545.41,829.03 L547.91,828.65 L550.40,828.24 L552.88,827.80 L555.34,827.33 L557.79,826.83 L560.23,826.29 L562.65,825.72 L565.06,825.12 L567.45,824.49 L569.83,823.83 L572.19,823.14 L574.54,822.42 L576.87,821.67 L579.18,820.88 L581.47,820.07 L583.75,819.23 L586.01,818.36 L588.25,817.46 L590.47,816.54 L592.67,815.58 L594.85,814.60 L597.01,813.59 L599.15,812.55 L601.27,811.49 L603.37,810.40 L605.45,809.28 L607.50,808.14 L609.53,806.98 L611.54,805.78 L613.52,804.57 L615.49,803.33 L617.42,802.07 L619.34,800.78 L621.23,799.47 L623.09,798.14 L624.93,796.78 L626.74,795.40 L628.53,794.01 L630.29,792.59 L632.03,791.15 L633.74,789.69 L635.42,788.21 L637.07,786.71 L638.70,785.19 L640.30,783.66 L641.87,782.10 L643.42,780.53 L644.93,778.95 L646.42,777.34 L647.88,775.72 L649.31,774.08 L650.71,772.43 L652.08,770.76 L653.42,769.08 L654.73,767.39 L656.01,765.68 L657.27,763.96 L658.49,762.23 L659.68,760.48 L660.84,758.72 L661.97,756.96 L663.07,755.18 L664.13,753.39 L665.17,751.59 L666.18,749.78 L667.15,747.97 L668.09,746.15 L669.00,744.31 L669.88,742.48 L670.73,740.63 L671.55,738.78 L672.33,736.92 L673.09,735.06 L673.81,733.19 L674.50,731.32 L675.16,729.45 L675.78,727.57 L676.38,725.69 L676.94,723.81 L677.47,721.93 L677.97,720.04 L678.43,718.16 L678.87,716.27 L679.27,714.39 L679.64,712.50 L679.98,710.62 L680.29,708.74 L680.56,706.86 L680.81,704.98 L681.02,703.11 L681.20,701.24 L681.36,699.38 L681.47,697.52 L681.56,695.66 L681.62,693.81 L681.65,691.97 L681.64,690.13 L681.61,688.30 L681.54,686.48 L681.45,684.67 L681.32,682.86 L681.17,681.07 L680.98,679.28 L680.77,677.51 L680.53,675.74 L680.25,673.98 L679.95,672.24 L679.62,670.51 L679.26,668.79 L678.87,667.08 L678.46,665.39 L678.01,663.71 L677.54,662.04 L677.05,660.39 L676.52,658.75 L675.97,657.13 L675.39,655.52 L674.78,653.93 L674.15,652.35 L673.49,650.80 L672.81,649.26 L672.10,647.73 L671.37,646.23 L670.61,644.74 L669.83,643.27 L669.03,641.83 L668.20,640.40 L667.35,638.99 L666.47,637.60 L665.57,636.23 L664.65,634.88 L663.71,633.56 L662.75,632.25 L661.76,630.97 L660.76,629.71 L659.73,628.47 L658.68,627.25 L657.62,626.06 L656.53,624.89 L655.43,623.75 L654.31,622.63 L653.17,621.53 L652.01,620.46 L650.83,619.41 L649.64,618.39 L648.43,617.39 L647.21,616.42 L645.97,615.48 L644.71,614.56 L643.44,613.67 L642.16,612.80 L640.86,611.96 L639.55,611.15 L638.22,610.36 L636.88,609.61 L635.53,608.88 L634.17,608.17 L632.80,607.50 L631.42,606.85 L630.02,606.24 L628.62,605.65 L627.21,605.09 L625.78,604.55 L624.35,604.05 L622.92,603.58 L621.47,603.13 L620.02,602.71 L618.56,602.33 L617.09,601.97 L615.62,601.64 L614.15,601.34 L612.67,601.08 L611.18,600.84 L609.69,600.63 L608.20,600.45 L606.71,600.30 L605.21,600.18 L603.72,600.09 L602.22,600.03 L600.72,600.00 L599.22,600.00 L597.72,600.03 L596.22,600.10 L594.72,600.19 L593.22,600.31 L591.73,600.46 L590.24,600.64 L588.75,600.85 L587.27,601.09 L585.79,601.36 L584.31,601.66 L582.84,601.99 L581.38,602.34 L579.92,602.73 L578.46,603.15 L577.02,603.60 L575.58,604.07 L574.15,604.58 L572.73,605.11 L571.32,605.67 L569.92,606.26 L568.52,606.88 L567.14,607.53 L565.77,608.20 L564.41,608.91 L563.06,609.64 L561.72,610.40 L560.40,611.18 L559.08,612.00 L557.79,612.84 L556.50,613.70 L555.23,614.60 L553.98,615.52 L552.74,616.46 L551.51,617.44 L550.31,618.43 L549.11,619.46 L547.94,620.51 L546.78,621.58 L545.64,622.68 L544.52,623.80 L543.42,624.94 L542.33,626.11 L541.27,627.31 L540.22,628.52 L539.20,629.76 L538.19,631.02 L537.21,632.31 L536.25,633.61 L535.31,634.94 L534.39,636.29 L533.49,637.66 L532.62,639.05 L531.77,640.46 L530.94,641.89 L530.13,643.34 L529.35,644.81 L528.60,646.30 L527.86,647.80 L527.16,649.32 L526.48,650.87 L525.82,652.42 L525.19,654.00 L524.59,655.59 L524.01,657.20 L523.46,658.82 L522.93,660.46 L522.43,662.11 L521.96,663.78 L521.52,665.46 L521.11,667.16 L520.72,668.86 L520.36,670.59 L520.03,672.32 L519.73,674.06 L519.46,675.82 L519.22,677.58 L519.01,679.36 L518.82,681.15 L518.67,682.94 L518.55,684.75 L518.45,686.56 L518.39,688.38 L518.36,690.21 L518.35,692.05 L518.38,693.89 L518.44,695.74 L518.53,697.60 L518.65,699.46 L518.80,701.32 L518.99,703.19 L519.20,705.07 L519.45,706.94 L519.72,708.82 L520.03,710.70 L520.37,712.59 L520.75,714.47 L521.15,716.36 L521.59,718.24 L522.05,720.13 L522.55,722.01 L523.09,723.89 L523.65,725.78 L524.25,727.66 L524.87,729.53 L525.53,731.41 L526.22,733.28 L526.95,735.14 L527.70,737.01 L528.49,738.86 L529.30,740.71 L530.15,742.56 L531.04,744.40 L531.95,746.23 L532.89,748.05 L533.87,749.86 L534.88,751.67 L535.91,753.47 L536.98,755.26 L538.08,757.03 L539.21,758.80 L540.38,760.56 L541.57,762.30 L542.79,764.04 L544.04,765.76 L545.33,767.46 L546.64,769.16 L547.98,770.84 L549.35,772.50 L550.75,774.16 L552.18,775.79 L553.64,777.41 L555.13,779.02 L556.65,780.60 L558.19,782.17 L559.77,783.73 L561.37,785.26 L563.00,786.78 L564.65,788.28 L566.34,789.75 L568.05,791.21 L569.78,792.65 L571.55,794.07 L573.34,795.47 L575.15,796.84 L576.99,798.20 L578.86,799.53 L580.75,800.84 L582.66,802.12 L584.60,803.38 L586.56,804.62 L588.55,805.84 L590.56,807.03 L592.59,808.19 L594.65,809.33 L596.72,810.45 L598.82,811.54 L600.94,812.60 L603.08,813.63 L605.24,814.64 L607.43,815.62 L609.63,816.58 L611.85,817.50 L614.09,818.40 L616.35,819.27 L618.63,820.11 L620.92,820.92 L623.24,821.70 L625.57,822.45 L627.91,823.17 L630.28,823.86 L632.65,824.52 L635.05,825.15 L637.46,825.75 L639.88,826.32 L642.32,826.85 L644.77,827.35 L647.23,827.83 L649.71,828.26 L652.20,828.67 L654.70,829.04 L657.21,829.38 L659.73,829.69 L662.27,829.96 L664.81,830.21 L667.36,830.41 L669.92,830.58 L672.49,830.72 L675.07,830.83 L677.65,830.90 L680.24,830.94 L682.84,830.94 L685.45,830.90 L688.06,830.84 L690.67,830.73 L693.29,830.59 L695.91,830.42 L698.54,830.21 L701.16,829.97 L703.79,829.69 L706.43,829.38 L709.06,829.03 L711.70,828.64 L714.33,828.22 L716.97,827.76 L719.60,827.27 L722.23,826.74 L724.87,826.18 L727.49,825.58 L730.12,824.95 L732.74,824.28 L735.36,823.57 L737.98,822.83 L740.59,822.05 L743.19,821.24 L745.79,820.39 L748.38,819.51 L750.97,818.59 L753.55,817.64 L756.12,816.65 L758.68,815.62 L761.23,814.56 L763.78,813.47 L766.31,812.34 L768.83,811.18 L771.34,809.98 L773.85,808.75 L776.33,807.48 L778.81,806.18 L781.27,804.85 L783.72,803.48 L786.16,802.08 L788.58,800.64 L790.99,799.17 L793.38,797.67 L795.75,796.14 L798.11,794.57 L800.46,792.97 L802.78,791.34 L805.09,789.67 L807.38,787.98 L809.65,786.25 L811.90,784.49 L814.13,782.70 L816.34,780.88 L818.53,779.03 L820.70,777.15 L822.85,775.24 L824.98,773.30 L827.08,771.33 L829.17,769.34 L831.23,767.31 L833.26,765.25 L835.27,763.17 L837.26,761.06 L839.22,758.92 L841.16,756.75 L843.07,754.56 L844.96,752.34 L846.82,750.10 L848.65,747.83 L850.46,745.53 L852.24,743.21 L853.99,740.86 L855.71,738.49 L857.41,736.10 L859.07,733.68 L860.71,731.24 L862.32,728.78 L863.89,726.30 L865.44,723.79 L866.96,721.26 L868.44,718.71 L869.90,716.14 L871.32,713.55 L872.72,710.95 L874.08,708.32 L875.40,705.67 L876.70,703.01 L877.96,700.32 L879.19,697.62 L880.39,694.90 L881.55,692.17 L882.68,689.42 L883.78,686.66 L884.84,683.87 L885.86,681.08 L886.86,678.27 L887.81,675.45 L888.74,672.61 L889.62,669.76 L890.48,666.90 L891.29,664.03 L892.07,661.15 L892.82,658.25 L893.53,655.35 L894.20,652.43 L894.83,649.51 L895.43,646.58 L896.00,643.64 L896.52,640.69 L897.01,637.73 L897.47,634.77 L897.88,631.81 L898.26,628.83 L898.60,625.85 L898.91,622.87 L899.17,619.89 L899.40,616.90 L899.60,613.90 L899.75,610.91 L899.87,607.91 L899.95,604.91 L899.99,601.91 L900.00,598.91 L899.97,595.91 L899.90,592.91 L899.79,589.91 L899.64,586.92 L899.46,583.92 L899.24,580.93 L898.98,577.95 L898.69,574.96 L898.36,571.98 L897.99,569.01 L897.58,566.04 L897.14,563.08 L896.66,560.12 L896.15,557.17 L895.59,554.23 L895.00,551.29 L894.38,548.37 L893.71,545.45 L893.02,542.54 L892.28,539.65 L891.51,536.76 L890.70,533.88 L889.86,531.02 L888.98,528.17 L888.07,525.33 L887.12,522.50 L886.14,519.69 L885.12,516.89 L884.07,514.11 L882.98,511.34 L881.86,508.58 L880.71,505.84 L879.52,503.12 L878.30,500.42 L877.05,497.73 L875.76,495.06 L874.44,492.41 L873.09,489.77 L871.71,487.16 L870.29,484.56 L868.85,481.99 L867.37,479.43 L865.86,476.90 L864.32,474.39 L862.75,471.90 L861.15,469.43 L859.52,466.98 L857.87,464.56 L856.18,462.16 L854.46,459.78 L852.72,457.43 L850.95,455.10 L849.15,452.80 L847.32,450.52 L845.47,448.27 L843.59,446.05 L841.69,443.85 L839.76,441.67 L837.80,439.53 L835.82,437.41 L833.82,435.32 L831.79,433.25 L829.73,431.22 L827.66,429.21 L825.56,427.23 L823.44,425.29 L821.29,423.37 L819.13,421.48 L816.94,419.62 L814.74,417.79 L812.51,415.99 L810.27,414.23 L808.00,412.49 L805.72,410.79 L803.41,409.12 L801.09,407.48 L798.76,405.87 L796.40,404.29 L794.03,402.75 L791.64,401.24 L789.24,399.76 L786.82,398.31 L784.39,396.90 L781.95,395.53 L779.49,394.18 L777.01,392.87 L774.53,391.60 L772.03,390.36 L769.52,389.15 L767.00,387.97 L764.47,386.84 L761.93,385.73 L759.38,384.66 L756.82,383.63 L754.25,382.63 L751.68,381.67 L749.09,380.74 L746.50,379.85 L743.91,378.99 L741.30,378.17 L738.69,377.38 L736.08,376.63 L733.46,375.91 L730.84,375.23 L728.21,374.59 L725.59,373.98 L722.96,373.41 L720.32,372.87 L717.69,372.37 L715.05,371.90 L712.42,371.47 L709.78,371.08 L707.15,370.72 L704.52,370.39 L701.89,370.10 L699.26,369.85 L696.63,369.63 L694.01,369.45 L691.39,369.30 L688.77,369.19 L686.16,369.11 L683.56,369.07 L680.96,369.06 L678.36,369.09 L675.78,369.15 L673.20,369.24 L670.63,369.37 L668.06,369.54 L665.51,369.73 L662.96,369.97 L660.43,370.23 L657.90,370.53 L655.39,370.86 L652.88,371.22 L650.39,371.62 L647.91,372.05 L645.44,372.51 L642.99,373.01 L640.55,373.53 L638.12,374.09 L635.71,374.68 L633.31,375.30 L630.93,375.95 L628.56,376.64 L626.21,377.35 L623.87,378.09 L621.55,378.86 L619.25,379.67 L616.97,380.50 L614.71,381.36 L612.46,382.25 L610.23,383.17 L608.03,384.11 L605.84,385.09 L603.67,386.09 L601.53,387.11 L599.40,388.17 L597.30,389.25 L595.21,390.36 L593.15,391.49 L591.11,392.65 L589.10,393.83 L587.10,395.04 L585.14,396.27 L583.19,397.53 L581.27,398.81 L579.37,400.11 L577.50,401.44 L575.65,402.79 L573.83,404.15 L572.04,405.55 L570.26,406.96 L568.52,408.39 L566.80,409.84 L565.11,411.32 L563.45,412.81 L561.81,414.32 L560.20,415.85 L558.62,417.40 L557.07,418.96 L555.55,420.55 L554.05,422.15 L552.58,423.76 L551.14,425.39 L549.73,427.04 L548.35,428.70 L547.00,430.38 L545.68,432.07 L544.39,433.77 L543.13,435.49 L541.90,437.22 L540.70,438.96 L539.53,440.72 L538.39,442.48 L537.28,444.25 L536.20,446.04 L535.16,447.83 L534.14,449.64 L533.16,451.45 L532.20,453.27 L531.28,455.10 L530.39,456.94 L529.53,458.78 L528.71,460.63 L527.91,462.49 L527.15,464.35 L526.42,466.21 L525.72,468.08 L525.05,469.95 L524.41,471.83 L523.81,473.71 L523.24,475.59 L522.70,477.47 L522.19,479.36 L521.71,481.24 L521.27,483.13 L520.85,485.01 L520.47,486.90 L520.12,488.78 L519.81,490.66 L519.52,492.54 L519.26,494.42 L519.04,496.29 L518.85,498.16 L518.69,500.03 L518.56,501.89 L518.46,503.75 L518.39,505.60 L518.36,507.44 L518.35,509.28 L518.38,511.11 L518.43,512.94 L518.52,514.75 L518.63,516.56 L518.78,518.36 L518.95,520.15 L519.16,521.93 L519.39,523.70 L519.66,525.46 L519.95,527.21 L520.27,528.94 L520.62,530.66 L521.00,532.38 L521.41,534.07 L521.84,535.76 L522.30,537.43 L522.79,539.09 L523.31,540.73 L523.85,542.36 L524.42,543.97 L525.02,545.57 L525.64,547.15 L526.29,548.71 L526.97,550.25 L527.67,551.78 L528.39,553.29 L529.14,554.79 L529.92,556.26 L530.71,557.71 L531.54,559.15 L532.38,560.57 L533.25,561.96 L534.14,563.34 L535.05,564.69 L535.99,566.02 L536.94,567.34 L537.92,568.63 L538.92,569.89 L539.94,571.14 L540.98,572.36 L542.04,573.56 L543.12,574.74 L544.22,575.89 L545.33,577.02 L546.47,578.12 L547.62,579.20 L548.79,580.26 L549.98,581.29 L551.18,582.29 L552.40,583.27 L553.64,584.22 L554.89,585.15 L556.15,586.05 L557.43,586.93 L558.73,587.78 L560.03,588.60 L561.36,589.39 L562.69,590.16 L564.04,590.89 L565.39,591.61 L566.76,592.29 L568.14,592.94 L569.53,593.57 L570.93,594.17 L572.34,594.74 L573.76,595.28 L575.19,595.79 L576.62,596.28 L578.07,596.73 L579.52,597.16 L580.98,597.55 L582.44,597.92 L583.91,598.26 L585.38,598.56 L586.86,598.84 L588.34,599.09 L589.83,599.31 L591.32,599.50 L592.81,599.66 L594.31,599.78 L595.81,599.88 L597.31,599.95 L598.81,599.99 L600.31,600.00 L601.81,599.98 L603.30,599.93 L604.80,599.85 L606.30,599.74 L607.79,599.59 L609.29,599.42 L610.78,599.22 L612.26,598.99 L613.74,598.73 L615.22,598.44 L616.69,598.12 L618.16,597.77 L619.62,597.39 L621.07,596.99 L622.52,596.55 L623.96,596.08 L625.39,595.59 L626.82,595.06 L628.23,594.51 L629.64,593.93 L631.03,593.32 L632.42,592.68 L633.80,592.01 L635.16,591.32 L636.51,590.60 L637.86,589.85 L639.18,589.07 L640.50,588.26 L641.80,587.43 L643.09,586.57 L644.36,585.69 L645.62,584.78 L646.87,583.84 L648.10,582.88 L649.31,581.89 L650.51,580.87 L651.69,579.83 L652.85,578.77 L654.00,577.68 L655.12,576.56 L656.23,575.42 L657.32,574.26 L658.39,573.08 L659.45,571.87 L660.48,570.63 L661.49,569.38 L662.48,568.10 L663.45,566.80 L664.40,565.48 L665.32,564.14 L666.23,562.78 L667.11,561.40 L667.97,559.99 L668.80,558.57 L669.61,557.12 L670.40,555.66 L671.17,554.18 L671.91,552.68 L672.62,551.16 L673.31,549.63 L673.97,548.07 L674.61,546.50 L675.22,544.92 L675.81,543.32 L676.37,541.70 L676.90,540.06 L677.41,538.41 L677.89,536.75 L678.34,535.07 L678.76,533.38 L679.16,531.68 L679.52,529.96 L679.86,528.24 L680.17,526.49 L680.45,524.74 L680.71,522.98 L680.93,521.21 L681.12,519.42 L681.28,517.63 L681.42,515.83 L681.52,514.02 L681.59,512.20 L681.64,510.37 L681.65,508.54 L681.63,506.69 L681.58,504.85 L681.50,502.99 L681.39,501.13 L681.25,499.27 L681.08,497.40 L680.87,495.53 L680.64,493.66 L680.37,491.78 L680.07,489.90 L679.74,488.01 L679.38,486.13 L678.98,484.25 L678.56,482.36 L678.10,480.47 L677.61,478.59 L677.09,476.71 L676.53,474.82 L675.95,472.94 L675.33,471.06 L674.68,469.19 L674.00,467.32 L673.29,465.45 L672.54,463.59 L671.77,461.73 L670.96,459.88 L670.12,458.03 L669.25,456.19 L668.35,454.36 L667.41,452.53 L666.45,450.71 L665.45,448.90 L664.42,447.10 L663.36,445.31 L662.27,443.53 L661.15,441.76 L660.00,440.00 L658.82,438.25 L657.60,436.51 L656.36,434.79 L655.09,433.08 L653.78,431.38 L652.45,429.69 L651.09,428.02 L649.70,426.37 L648.27,424.73 L646.82,423.10 L645.34,421.49 L643.84,419.90 L642.30,418.32 L640.74,416.77 L639.14,415.23 L637.52,413.70 L635.88,412.20 L634.20,410.71 L632.50,409.25 L630.77,407.81 L629.02,406.38 L627.24,404.98 L625.43,403.59 L623.60,402.23 L621.74,400.89 L619.86,399.58 L617.95,398.29 L616.02,397.02 L614.07,395.77 L612.09,394.55 L610.08,393.35 L608.06,392.17 L606.01,391.03 L603.94,389.90 L601.85,388.81 L599.74,387.74 L597.60,386.69 L595.45,385.68 L593.27,384.69 L591.08,383.72 L588.86,382.79 L586.63,381.88 L584.37,381.00 L582.10,380.16 L579.81,379.34 L577.50,378.55 L575.18,377.79 L572.84,377.05 L570.48,376.35 L568.11,375.68 L565.72,375.05 L563.31,374.44 L560.89,373.86 L558.46,373.32 L556.01,372.80 L553.55,372.32 L551.08,371.87 L548.60,371.46 L546.10,371.07 L543.59,370.72 L541.07,370.40 L538.54,370.12 L536.00,369.87 L533.45,369.65 L530.89,369.47 L528.33,369.32 L525.75,369.20 L523.17,369.12 L520.58,369.07 L517.99,369.06 L515.38,369.08 L512.78,369.14 L510.16,369.23 L507.55,369.36 L504.93,369.52 L502.30,369.72 L499.67,369.95 L497.04,370.22 L494.41,370.52 L491.78,370.86 L489.14,371.23 L486.51,371.64 L483.87,372.09 L481.24,372.57 L478.60,373.08 L475.97,373.64 L473.34,374.22 L470.72,374.85 L468.09,375.51 L465.47,376.20 L462.85,376.93 L460.24,377.70 L457.64,378.50 L455.04,379.33 L452.44,380.21 L449.85,381.11 L447.27,382.06 L444.70,383.03 L442.14,384.05 L439.58,385.10 L437.03,386.18 L434.50,387.30 L431.97,388.45 L429.45,389.64 L426.95,390.86 L424.46,392.11 L421.98,393.40 L419.51,394.73 L417.06,396.08 L414.61,397.47 L412.19,398.90 L409.78,400.36 L407.38,401.85 L405.00,403.37 L402.64,404.93 L400.29,406.52 L397.96,408.14 L395.65,409.79 L393.35,411.48 L391.07,413.20 L388.82,414.94 L386.58,416.72 L384.36,418.53 L382.16,420.37 L379.99,422.24 L377.83,424.15 L375.70,426.08 L373.58,428.04 L371.49,430.03 L369.43,432.04 L367.38,434.09 L365.37,436.16 L363.37,438.27 L361.40,440.40 L359.45,442.55 L357.53,444.74 L355.64,446.95 L353.77,449.19 L351.93,451.45 L350.11,453.74 L348.33,456.05 L346.57,458.39 L344.83,460.75 L343.13,463.13 L341.45,465.54 L339.81,467.98 L338.19,470.43 L336.61,472.91 L335.05,475.41 L333.52,477.93 L332.03,480.47 L330.56,483.04 L329.13,485.62 L327.72,488.22 L326.35,490.84 L325.02,493.48 L323.71,496.14 L322.44,498.82 L321.20,501.52 L319.99,504.23 L318.82,506.96 L317.68,509.70 L316.57,512.46 L315.50,515.24 L314.46,518.03 L313.46,520.83 L312.49,523.65 L311.55,526.48 L310.66,529.33 L309.79,532.19 L308.96,535.05 L308.17,537.93 L307.42,540.83 L306.70,543.73 L306.01,546.64 L305.36,549.56 L304.75,552.49 L304.18,555.43 L303.64,558.37 L303.14,561.32 L302.67,564.28 L302.25,567.25 L301.86,570.22 L301.50,573.20 L301.19,576.18 L300.91,579.16 L300.66,582.15 L300.46,585.14 L300.29,588.14 L300.16,591.14 L300.07,594.13 L300.02,597.13 L300.00,600.13 L300.02,603.13 L300.08,606.13 L300.17,609.13 L300.31,612.13 L300.48,615.12 L300.68,618.11 L300.93,621.10 L301.21,624.09 L301.53,627.07 L301.89,630.04 L302.28,633.02 L302.71,635.98 L303.18,638.94 L303.69,641.89 L304.23,644.84 L304.81,647.77 L305.42,650.70 L306.07,653.62 L306.76,656.53 L307.48,659.43 L308.24,662.32 L309.04,665.20 L309.87,668.07 L310.73,670.92 L311.63,673.77 L312.57,676.60 L313.54,679.42 L314.55,682.22 L315.59,685.01 L316.67,687.78 L317.78,690.54 L318.92,693.29 L320.09,696.01 L321.31,698.72 L322.55,701.42 L323.82,704.09 L325.13,706.75 L326.47,709.39 L327.85,712.01 L329.25,714.61 L330.69,717.19 L332.16,719.75 L333.66,722.29 L335.19,724.81 L336.74,727.31 L338.33,729.79 L339.95,732.24 L341.60,734.67 L343.28,737.08 L344.99,739.46 L346.72,741.82 L348.48,744.16 L350.27,746.47 L352.09,748.75 L353.94,751.01 L355.81,753.25 L357.70,755.46 L359.63,757.64 L361.57,759.79 L363.55,761.92 L365.54,764.02 L367.57,766.09 L369.61,768.14 L371.68,770.15 L373.77,772.14 L375.88,774.10 L378.02,776.02 L380.18,777.92 L382.36,779.79 L384.56,781.63 L386.78,783.44 L389.02,785.21 L391.28,786.96 L393.55,788.67 L395.85,790.36 L398.16,792.01 L400.50,793.62 L402.85,795.21 L405.21,796.76 L407.59,798.29 L409.99,799.77 L412.40,801.23 L414.83,802.65 L417.27,804.04 L419.73,805.39 L422.20,806.71 L424.68,808.00 L427.17,809.25 L429.68,810.47 L432.19,811.66 L434.72,812.80 L437.26,813.92 L439.81,815.00 L442.36,816.04 L444.93,817.05 L447.50,818.03 L450.08,818.97 L452.67,819.87 L455.27,820.74 L457.87,821.57 L460.47,822.37 L463.09,823.13 L465.70,823.86 L468.32,824.55 L470.95,825.21 L473.58,825.83 L476.21,826.41 L478.84,826.96 L481.47,827.48 L484.11,827.95 L486.74,828.40 L489.38,828.80 L492.01,829.17 L494.64,829.51 L497.28,829.81" fill="none" stroke="#333" stroke-width="1" stroke-linecap="round" stroke-linejoin="round" opacity="0.8" />
</svg>