<svg xmlns="http://www.w3.org/2000/svg" width="1200" height="1200" viewBox="0 0 1200 1200">
  <rect width="1200" height="1200" fill="#f0f0ec" />
  <path d="M975.00,600.00 L974.92,592.50 L974.66,585.01 L974.24,577.52 L973.65,570.04 L972.89,562.59 L971.97,555.15 L970.88,547.74 L969.62,540.36 L968.20,533.01 L966.61,525.70 L964.86,518.43 L962.95,511.21 L960.88,504.03 L958.64,496.91 L956.25,489.85 L953.71,482.85 L951.01,475.92 L948.16,469.05 L945.15,462.26 L942.00,455.54 L938.70,448.90 L935.26,442.35 L931.67,435.88 L927.95,429.51 L924.09,423.23 L920.09,417.04 L915.96,410.96 L911.71,404.98 L907.32,399.11 L902.81,393.34 L898.18,387.69 L893.44,382.16 L888.58,376.74 L883.61,371.44 L878.53,366.27 L873.34,361.22 L868.06,356.30 L862.67,351.51 L857.20,346.86 L851.63,342.33 L845.97,337.95 L840.23,333.70 L834.42,329.60 L828.52,325.63 L822.55,321.81 L816.52,318.13 L810.42,314.60 L804.25,311.22 L798.04,307.99 L791.76,304.90 L785.44,301.97 L779.08,299.19 L772.67,296.56 L766.23,294.08 L759.75,291.75 L753.24,289.58 L746.71,287.57 L740.16,285.70 L733.59,283.99 L727.00,282.44 L720.41,281.04 L713.81,279.79 L707.21,278.69 L700.61,277.75 L694.02,276.95 L687.44,276.31 L680.87,275.82 L674.32,275.48 L667.79,275.29 L661.29,275.24 L654.81,275.34 L648.37,275.59 L641.96,275.98 L635.60,276.50 L629.27,277.17 L622.99,277.98 L616.77,278.93 L610.59,280.00 L604.47,281.22 L598.42,282.56 L592.42,284.03 L586.49,285.62 L580.63,287.34 L574.84,289.19 L569.12,291.15 L563.48,293.22 L557.92,295.42 L552.44,297.72 L547.05,300.13 L541.74,302.65 L536.53,305.27 L531.40,307.99 L526.37,310.80 L521.43,313.72 L516.60,316.72 L511.86,319.81 L507.22,322.98 L502.69,326.24 L498.26,329.58 L493.94,332.99 L489.72,336.47 L485.61,340.02 L481.61,343.64 L477.73,347.32 L473.95,351.05 L470.29,354.85 L466.74,358.69 L463.31,362.58 L459.99,366.52 L456.78,370.50 L453.70,374.52 L450.72,378.57 L447.87,382.66 L445.12,386.77 L442.50,390.91 L439.99,395.07 L437.60,399.25 L435.32,403.44 L433.15,407.64 L431.10,411.85 L429.17,416.07 L427.35,420.29 L425.64,424.51 L424.04,428.72 L422.55,432.92 L421.17,437.12 L419.89,441.30 L418.73,445.46 L417.67,449.61 L416.71,453.73 L415.86,457.83 L415.11,461.90 L414.45,465.94 L413.90,469.94 L413.44,473.91 L413.07,477.85 L412.80,481.74 L412.61,485.59 L412.52,489.39 L412.51,493.14 L412.58,496.85 L412.73,500.51 L412.97,504.11 L413.28,507.65 L413.66,511.14 L414.12,514.57 L414.64,517.94 L415.23,521.25 L415.89,524.49 L416.61,527.67 L417.38,530.79 L418.22,533.83 L419.10,536.81 L420.04,539.72 L421.03,542.55 L422.06,545.32 L423.14,548.01 L424.25,550.63 L425.40,553.18 L426.59,555.65 L427.81,558.05 L429.05,560.38 L430.33,562.63 L431.62,564.81 L432.94,566.91 L434.27,568.94 L435.62,570.89 L436.98,572.77 L438.36,574.57 L439.73,576.31 L441.12,577.96 L442.50,579.55 L443.88,581.07 L445.26,582.51 L446.63,583.89 L448.00,585.19 L449.35,586.43 L450.69,587.60 L452.01,588.71 L453.32,589.75 L454.60,590.73 L455.86,591.65 L457.10,592.50 L458.31,593.30 L459.49,594.05 L460.64,594.73 L461.76,595.37 L462.84,595.95 L463.89,596.48 L464.89,596.97 L465.86,597.41 L466.78,597.80 L467.67,598.15 L468.50,598.47 L469.30,598.74 L470.04,598.99 L470.74,599.19 L471.38,599.37 L471.98,599.52 L472.52,599.65 L473.02,599.75 L473.45,599.83 L473.84,599.89 L474.17,599.93 L474.45,599.96 L474.67,599.98 L474.83,599.99 L474.94,600.00 L474.99,600.00 L474.99,600.00 L474.93,600.00 L474.82,600.01 L474.64,600.02 L474.42,600.04 L474.13,600.07 L473.80,600.12 L473.40,600.18 L472.96,600.26 L472.46,600.37 L471.91,600.49 L471.31,600.65 L470.65,600.83 L469.95,601.04 L469.20,601.29 L468.40,601.57 L467.56,601.89 L466.67,602.25 L465.74,602.65 L464.77,603.09 L463.76,603.58 L462.71,604.12 L461.63,604.71 L460.50,605.35 L459.35,606.04 L458.17,606.79 L456.95,607.60 L455.71,608.46 L454.45,609.39 L453.16,610.37 L451.85,611.42 L450.53,612.54 L449.19,613.72 L447.83,614.96 L446.47,616.28 L445.09,617.66 L443.72,619.11 L442.33,620.64 L440.95,622.23 L439.57,623.90 L438.19,625.64 L436.82,627.45 L435.46,629.34 L434.11,631.30 L432.78,633.34 L431.46,635.45 L430.17,637.64 L428.90,639.90 L427.66,642.23 L426.44,644.64 L425.26,647.12 L424.11,649.68 L423.00,652.31 L421.93,655.01 L420.91,657.79 L419.93,660.63 L418.99,663.55 L418.11,666.53 L417.29,669.59 L416.52,672.71 L415.81,675.90 L415.16,679.15 L414.57,682.46 L414.06,685.84 L413.61,689.28 L413.23,692.77 L412.93,696.33 L412.71,699.93 L412.57,703.59 L412.50,707.31 L412.52,711.07 L412.63,714.88 L412.83,718.73 L413.11,722.63 L413.49,726.57 L413.96,730.54 L414.53,734.55 L415.19,738.59 L415.96,742.67 L416.82,746.77 L417.79,750.89 L418.86,755.04 L420.04,759.21 L421.33,763.39 L422.72,767.58 L424.22,771.79 L425.84,776.00 L427.56,780.22 L429.40,784.44 L431.35,788.66 L433.41,792.87 L435.59,797.07 L437.88,801.26 L440.29,805.44 L442.81,809.59 L445.45,813.73 L448.21,817.84 L451.08,821.92 L454.06,825.97 L457.17,829.98 L460.38,833.96 L463.72,837.89 L467.17,841.78 L470.73,845.62 L474.40,849.40 L478.19,853.13 L482.09,856.80 L486.10,860.41 L490.22,863.96 L494.45,867.43 L498.79,870.83 L503.23,874.16 L507.78,877.41 L512.43,880.57 L517.18,883.65 L522.03,886.64 L526.97,889.54 L532.02,892.35 L537.15,895.06 L542.38,897.66 L547.70,900.17 L553.10,902.57 L558.59,904.86 L564.16,907.03 L569.81,909.10 L575.53,911.04 L581.33,912.87 L587.20,914.58 L593.14,916.16 L599.14,917.61 L605.21,918.94 L611.34,920.13 L617.52,921.20 L623.75,922.12 L630.04,922.91 L636.36,923.57 L642.74,924.08 L649.15,924.45 L655.59,924.68 L662.07,924.76 L668.58,924.70 L675.11,924.48 L681.66,924.13 L688.23,923.62 L694.82,922.96 L701.41,922.15 L708.01,921.19 L714.61,920.07 L721.21,918.80 L727.80,917.38 L734.38,915.81 L740.95,914.08 L747.50,912.20 L754.03,910.16 L760.53,907.97 L767.01,905.63 L773.45,903.13 L779.85,900.48 L786.21,897.68 L792.53,894.73 L798.79,891.63 L805.00,888.38 L811.16,884.98 L817.25,881.43 L823.28,877.74 L829.24,873.90 L835.12,869.91 L840.93,865.79 L846.66,861.53 L852.31,857.13 L857.86,852.59 L863.33,847.91 L868.70,843.11 L873.98,838.17 L879.15,833.11 L884.21,827.92 L889.17,822.61 L894.02,817.18 L898.75,811.63 L903.36,805.97 L907.86,800.19 L912.23,794.30 L916.47,788.31 L920.58,782.21 L924.56,776.02 L928.41,769.73 L932.12,763.34 L935.68,756.86 L939.11,750.30 L942.39,743.65 L945.52,736.93 L948.51,730.12 L951.34,723.25 L954.03,716.30 L956.55,709.30 L958.92,702.23 L961.13,695.10 L963.19,687.92 L965.08,680.69 L966.81,673.42 L968.38,666.10 L969.78,658.75 L971.02,651.36 L972.09,643.95 L972.99,636.51 L973.73,629.05 L974.30,621.58 L974.70,614.09 L974.93,606.59 L975.00,599.09 L974.89,591.59 L974.62,584.10 L974.18,576.61 L973.57,569.14 L972.79,561.69 L971.85,554.25 L970.73,546.85 L969.46,539.47 L968.01,532.12 L966.41,524.82 L964.64,517.56 L962.71,510.34 L960.61,503.17 L958.36,496.06 L955.95,489.00 L953.39,482.01 L950.67,475.08 L947.80,468.22 L944.78,461.44 L941.61,454.73 L938.29,448.11 L934.83,441.56 L931.23,435.11 L927.49,428.74 L923.61,422.47 L919.60,416.30 L915.45,410.23 L911.18,404.26 L906.78,398.40 L902.26,392.65 L897.62,387.02 L892.86,381.49 L887.98,376.09 L883.00,370.81 L877.91,365.65 L872.71,360.62 L867.41,355.72 L862.02,350.94 L856.53,346.30 L850.95,341.80 L845.28,337.43 L839.53,333.20 L833.71,329.11 L827.80,325.16 L821.83,321.36 L815.78,317.70 L809.67,314.19 L803.51,310.82 L797.28,307.61 L791.00,304.54 L784.68,301.63 L778.30,298.86 L771.89,296.25 L765.44,293.79 L758.96,291.48 L752.45,289.33 L745.92,287.33 L739.36,285.49 L732.79,283.80 L726.20,282.26 L719.61,280.88 L713.01,279.65 L706.41,278.57 L699.81,277.64 L693.22,276.87 L686.64,276.25 L680.08,275.77 L673.53,275.45 L667.00,275.28 L660.50,275.25 L654.03,275.36 L647.59,275.63 L641.19,276.03 L634.83,276.58 L628.51,277.26 L622.24,278.09 L616.02,279.05 L609.85,280.14 L603.74,281.37 L597.69,282.73 L591.70,284.21 L585.78,285.83 L579.92,287.56 L574.14,289.42 L568.43,291.39 L562.80,293.48 L557.25,295.69 L551.78,298.00 L546.40,300.43 L541.11,302.96 L535.90,305.59 L530.79,308.32 L525.77,311.15 L520.84,314.07 L516.02,317.09 L511.29,320.19 L506.67,323.37 L502.15,326.64 L497.73,329.98 L493.42,333.40 L489.22,336.89 L485.12,340.45 L481.14,344.08 L477.27,347.76 L473.50,351.51 L469.86,355.31 L466.32,359.16 L462.90,363.06 L459.60,367.00 L456.40,370.99 L453.33,375.01 L450.37,379.07 L447.53,383.15 L444.80,387.27 L442.19,391.41 L439.69,395.57 L437.31,399.75 L435.05,403.95 L432.90,408.15 L430.86,412.36 L428.94,416.58 L427.13,420.80 L425.44,425.02 L423.85,429.23 L422.37,433.43 L421.01,437.62 L419.75,441.80 L418.60,445.97 L417.55,450.11 L416.60,454.23 L415.76,458.32 L415.02,462.39 L414.38,466.42 L413.84,470.43 L413.39,474.39 L413.03,478.32 L412.77,482.20 L412.60,486.05 L412.51,489.85 L412.51,493.60 L412.59,497.30 L412.76,500.94 L413.00,504.54 L413.32,508.08 L413.71,511.56 L414.18,514.98 L414.71,518.35 L415.31,521.65 L415.97,524.88 L416.70,528.05 L417.48,531.16 L418.32,534.20 L419.22,537.16 L420.16,540.06 L421.15,542.89 L422.19,545.65 L423.27,548.33 L424.39,550.95 L425.54,553.48 L426.73,555.95 L427.96,558.34 L429.21,560.66 L430.48,562.90 L431.78,565.07 L433.10,567.16 L434.44,569.18 L435.79,571.12 L437.15,572.99 L438.52,574.79 L439.90,576.51 L441.28,578.16 L442.67,579.74 L444.05,581.25 L445.43,582.68 L446.80,584.05 L448.16,585.35 L449.51,586.58 L450.85,587.74 L452.17,588.84 L453.48,589.87 L454.76,590.84 L456.02,591.75 L457.25,592.60 L458.46,593.40 L459.63,594.13 L460.78,594.81 L461.89,595.44 L462.97,596.02 L464.01,596.54 L465.01,597.02 L465.97,597.46 L466.89,597.85 L467.77,598.19 L468.60,598.50 L469.39,598.78 L470.13,599.01 L470.82,599.22 L471.46,599.39 L472.05,599.54 L472.59,599.66 L473.07,599.76 L473.50,599.84 L473.88,599.89 L474.21,599.94 L474.48,599.97 L474.69,599.98 L474.85,599.99 L474.95,600.00 L475.00,600.00 L474.99,600.00 L474.92,600.00 L474.80,600.01 L474.62,600.02 L474.39,600.04 L474.10,600.08 L473.75,600.13 L473.35,600.19 L472.90,600.27 L472.40,600.38 L471.84,600.51 L471.23,600.67 L470.57,600.85 L469.86,601.07 L469.11,601.32 L468.31,601.60 L467.46,601.93 L466.56,602.29 L465.63,602.70 L464.65,603.15 L463.64,603.64 L462.58,604.19 L461.49,604.78 L460.37,605.43 L459.21,606.13 L458.02,606.88 L456.80,607.70 L455.56,608.57 L454.29,609.50 L453.00,610.50 L451.69,611.55 L450.37,612.67 L449.02,613.86 L447.67,615.12 L446.30,616.44 L444.93,617.83 L443.55,619.29 L442.16,620.83 L440.78,622.43 L439.40,624.11 L438.02,625.86 L436.65,627.68 L435.30,629.58 L433.95,631.55 L432.62,633.59 L431.31,635.71 L430.02,637.91 L428.75,640.18 L427.51,642.52 L426.30,644.94 L425.12,647.43 L423.98,649.99 L422.87,652.63 L421.81,655.34 L420.79,658.13 L419.81,660.98 L418.89,663.91 L418.01,666.90 L417.19,669.96 L416.43,673.09 L415.72,676.29 L415.08,679.54 L414.51,682.87 L414.00,686.25 L413.56,689.70 L413.19,693.20 L412.90,696.76 L412.69,700.37 L412.55,704.04 L412.50,707.76 L412.53,711.53 L412.65,715.34 L412.86,719.20 L413.15,723.10 L413.54,727.04 L414.02,731.02 L414.60,735.04 L415.28,739.08 L416.06,743.16 L416.94,747.26 L417.92,751.39 L419.00,755.54 L420.19,759.71 L421.49,763.90 L422.90,768.09 L424.41,772.30 L426.04,776.51 L427.78,780.73 L429.63,784.95 L431.59,789.17 L433.67,793.38 L435.86,797.58 L438.16,801.77 L440.59,805.94 L443.12,810.09 L445.78,814.23 L448.55,818.33 L451.43,822.41 L454.43,826.46 L457.55,830.46 L460.78,834.43 L464.13,838.36 L467.59,842.24 L471.17,846.08 L474.86,849.86 L478.66,853.58 L482.57,857.24 L486.60,860.85 L490.73,864.38 L494.97,867.85 L499.32,871.24 L503.78,874.56 L508.33,877.79 L513.00,880.95 L517.76,884.02 L522.62,887.00 L527.58,889.89 L532.63,892.68 L537.78,895.38 L543.02,897.97 L548.35,900.46 L553.76,902.85 L559.26,905.12 L564.84,907.29 L570.49,909.34 L576.23,911.27 L582.04,913.08 L587.92,914.77 L593.86,916.34 L599.88,917.78 L605.95,919.09 L612.08,920.27 L618.27,921.32 L624.51,922.23 L630.80,923.00 L637.13,923.64 L643.51,924.13 L649.93,924.48 L656.38,924.69 L662.86,924.76 L669.37,924.68 L675.90,924.45 L682.46,924.07 L689.03,923.55 L695.61,922.87 L702.21,922.04 L708.81,921.06 L715.41,919.93 L722.00,918.64 L728.60,917.20 L735.18,915.61 L741.74,913.86 L748.29,911.96 L754.82,909.90 L761.32,907.70 L767.79,905.34 L774.22,902.82 L780.62,900.15 L786.98,897.33 L793.29,894.36 L799.55,891.24 L805.75,887.97 L811.90,884.56 L817.98,880.99 L824.00,877.28 L829.95,873.42 L835.83,869.42 L841.63,865.28 L847.35,861.00 L852.98,856.58 L858.53,852.03 L863.99,847.34 L869.35,842.52 L874.61,837.57 L879.77,832.49 L884.82,827.29 L889.76,821.96 L894.60,816.52 L899.32,810.95 L903.91,805.27 L908.39,799.48 L912.75,793.58 L916.97,787.58 L921.07,781.47 L925.03,775.26 L928.86,768.96 L932.55,762.56 L936.11,756.07 L939.51,749.50 L942.78,742.84 L945.89,736.11 L948.86,729.30 L951.68,722.41 L954.34,715.46 L956.85,708.44 L959.20,701.37 L961.39,694.23 L963.43,687.05 L965.30,679.81 L967.01,672.53 L968.56,665.21 L969.94,657.86 L971.16,650.47 L972.21,643.05 L973.09,635.61 L973.81,628.15 L974.36,620.67 L974.74,613.18 L974.95,605.69 L975.00,598.19 L974.87,590.69 L974.58,583.19 L974.11,575.71 L973.48,568.24 L972.69,560.79 L971.72,553.36 L970.59,545.95 L969.29,538.58 L967.83,531.24 L966.20,523.94 L964.41,516.68 L962.46,509.47 L960.35,502.31 L958.08,495.20 L955.65,488.15 L953.07,481.17 L950.33,474.25 L947.44,467.40 L944.40,460.62 L941.22,453.93 L937.88,447.31 L934.41,440.78 L930.79,434.33 L927.03,427.98 L923.13,421.72 L919.10,415.56 L914.94,409.50 L910.66,403.55 L906.24,397.70 L901.70,391.97 L897.05,386.34 L892.27,380.83 L887.39,375.45 L882.39,370.18 L877.28,365.04 L872.07,360.02 L866.76,355.13 L861.36,350.37 L855.86,345.75 L850.27,341.26 L844.59,336.91 L838.83,332.70 L833.00,328.62 L827.08,324.69 L821.10,320.91 L815.05,317.27 L808.93,313.77 L802.75,310.43 L796.52,307.23 L790.24,304.18 L783.91,301.28 L777.53,298.54 L771.11,295.94 L764.66,293.50 L758.18,291.22 L751.66,289.08 L745.13,287.10 L738.57,285.28 L731.99,283.60 L725.41,282.08 L718.81,280.72 L712.21,279.51 L705.61,278.45 L699.02,277.54 L692.43,276.79 L685.85,276.18 L679.28,275.73 L672.74,275.42 L666.21,275.26 L659.72,275.25 L653.25,275.39 L646.82,275.67 L640.42,276.09 L634.06,276.65 L627.75,277.36 L621.48,278.20 L615.27,279.17 L609.11,280.29 L603.00,281.53 L596.96,282.90 L590.98,284.40 L585.06,286.03 L579.22,287.78 L573.45,289.65 L567.75,291.64 L562.13,293.74 L556.59,295.96 L551.13,298.29 L545.76,300.73 L540.47,303.27 L535.28,305.92 L530.18,308.66 L525.17,311.50 L520.25,314.43 L515.44,317.46 L510.73,320.57 L506.12,323.76 L501.61,327.04 L497.20,330.39 L492.91,333.82 L488.72,337.32 L484.63,340.89 L480.66,344.52 L476.80,348.21 L473.06,351.97 L469.42,355.77 L465.90,359.63 L462.50,363.53 L459.20,367.48 L456.03,371.47 L452.97,375.50 L450.02,379.56 L447.19,383.65 L444.48,387.77 L441.88,391.91 L439.40,396.08 L437.03,400.26 L434.78,404.45 L432.65,408.66 L430.63,412.87 L428.72,417.09 L426.92,421.31 L425.24,425.53 L423.67,429.74 L422.20,433.94 L420.85,438.13 L419.60,442.31 L418.46,446.47 L417.43,450.61 L416.50,454.72 L415.67,458.82 L414.94,462.88 L414.31,466.91 L413.78,470.91 L413.34,474.87 L413.00,478.79 L412.74,482.67 L412.58,486.51 L412.51,490.30 L412.52,494.05 L412.61,497.74 L412.78,501.38 L413.03,504.97 L413.36,508.50 L413.76,511.98 L414.24,515.39 L414.78,518.75 L415.39,522.04 L416.06,525.27 L416.79,528.43 L417.58,531.53 L418.43,534.56 L419.33,537.52 L420.28,540.41 L421.27,543.23 L422.32,545.98 L423.40,548.65 L424.53,551.26 L425.69,553.79 L426.88,556.24 L428.11,558.62 L429.36,560.93 L430.64,563.17 L431.94,565.32 L433.26,567.41 L434.60,569.42 L435.95,571.35 L437.32,573.21 L438.69,575.00 L440.07,576.71 L441.45,578.36 L442.83,579.92 L444.22,581.42 L445.59,582.85 L446.96,584.21 L448.33,585.50 L449.68,586.72 L451.01,587.88 L452.33,588.97 L453.63,589.99 L454.91,590.96 L456.17,591.86 L457.40,592.70 L458.60,593.49 L459.77,594.22 L460.92,594.89 L462.02,595.51 L463.10,596.08 L464.13,596.60 L465.13,597.08 L466.09,597.50 L467.00,597.89 L467.87,598.23 L468.70,598.54 L469.48,598.81 L470.21,599.04 L470.90,599.24 L471.53,599.41 L472.12,599.56 L472.65,599.67 L473.13,599.77 L473.55,599.84 L473.93,599.90 L474.24,599.94 L474.51,599.97 L474.71,599.99 L474.86,600.00 L474.96,600.00 L475.00,600.00 L474.98,600.00 L474.91,600.00 L474.78,600.01 L474.59,600.02 L474.35,600.05 L474.06,600.08 L473.71,600.13 L473.30,600.20 L472.84,600.29 L472.33,600.40 L471.77,600.53 L471.15,600.69 L470.49,600.88 L469.78,601.10 L469.01,601.35 L468.20,601.64 L467.35,601.97 L466.45,602.34 L465.51,602.75 L464.53,603.20 L463.51,603.71 L462.45,604.26 L461.36,604.86 L460.23,605.51 L459.07,606.22 L457.88,606.98 L456.66,607.80 L455.41,608.68 L454.14,609.62 L452.85,610.62 L451.54,611.69 L450.21,612.81 L448.86,614.01 L447.50,615.27 L446.14,616.60 L444.76,618.00 L443.38,619.47 L442.00,621.02 L440.61,622.63 L439.23,624.31 L437.86,626.07 L436.49,627.90 L435.13,629.81 L433.79,631.79 L432.46,633.84 L431.15,635.97 L429.86,638.18 L428.60,640.45 L427.36,642.81 L426.15,645.23 L424.98,647.74 L423.84,650.31 L422.74,652.96 L421.68,655.68 L420.67,658.47 L419.70,661.33 L418.78,664.26 L417.91,667.27 L417.10,670.34 L416.34,673.47 L415.64,676.68 L415.01,679.94 L414.44,683.27 L413.94,686.67 L413.51,690.12 L413.15,693.63 L412.87,697.19 L412.67,700.81 L412.54,704.49 L412.50,708.21 L412.54,711.99 L412.67,715.81 L412.89,719.67 L413.19,723.58 L413.59,727.52 L414.09,731.51 L414.68,735.53 L415.37,739.58 L416.16,743.66 L417.05,747.76 L418.04,751.89 L419.14,756.05 L420.34,760.22 L421.65,764.40 L423.07,768.60 L424.60,772.81 L426.24,777.02 L427.99,781.24 L429.86,785.46 L431.84,789.68 L433.93,793.89 L436.13,798.09 L438.45,802.27 L440.89,806.44 L443.44,810.60 L446.11,814.72 L448.89,818.83 L451.79,822.90 L454.80,826.94 L457.93,830.95 L461.18,834.91 L464.54,838.83 L468.02,842.71 L471.61,846.54 L475.31,850.31 L479.13,854.03 L483.05,857.68 L487.09,861.28 L491.24,864.80 L495.49,868.26 L499.85,871.64 L504.32,874.95 L508.89,878.18 L513.57,881.32 L518.34,884.38 L523.21,887.35 L528.18,890.23 L533.25,893.01 L538.41,895.70 L543.66,898.28 L549.00,900.76 L554.42,903.13 L559.93,905.39 L565.52,907.54 L571.18,909.58 L576.93,911.50 L582.75,913.29 L588.63,914.97 L594.59,916.52 L600.61,917.94 L606.69,919.24 L612.83,920.40 L619.02,921.43 L625.27,922.33 L631.56,923.09 L637.90,923.70 L644.28,924.18 L650.70,924.52 L657.16,924.71 L663.64,924.76 L670.16,924.66 L676.69,924.41 L683.25,924.02 L689.82,923.47 L696.41,922.78 L703.01,921.93 L709.60,920.93 L716.21,919.78 L722.80,918.47 L729.39,917.02 L735.97,915.40 L742.54,913.64 L749.08,911.72 L755.61,909.65 L762.10,907.42 L768.57,905.04 L775.00,902.51 L781.39,899.82 L787.74,896.98 L794.05,893.99 L800.30,890.86 L806.50,887.57 L812.64,884.13 L818.71,880.55 L824.73,876.82 L830.67,872.95 L836.54,868.93 L842.33,864.77 L848.04,860.48 L853.66,856.04 L859.20,851.47 L864.64,846.76 L869.99,841.93 L875.24,836.96 L880.38,831.87 L885.42,826.65 L890.36,821.31 L895.17,815.85 L899.88,810.27 L904.46,804.58 L908.93,798.77 L913.27,792.86 L917.48,786.84 L921.56,780.72 L925.51,774.50 L929.32,768.19 L932.99,761.78 L936.53,755.28 L939.92,748.70 L943.16,742.03 L946.26,735.29 L949.21,728.47 L952.01,721.57 L954.65,714.61 L957.14,707.59 L959.47,700.51 L961.65,693.37 L963.66,686.18 L965.51,678.94 L967.20,671.65 L968.73,664.33 L970.09,656.97 L971.29,649.57 L972.32,642.15 L973.19,634.71 L973.88,627.24 L974.41,619.77 L974.77,612.27 L974.97,604.78 L974.99,597.28 L974.84,589.78 L974.53,582.29 L974.05,574.80 L973.40,567.34 L972.58,559.89 L971.59,552.46 L970.44,545.06 L969.12,537.69 L967.64,530.35 L965.99,523.06 L964.18,515.80 L962.21,508.60 L960.08,501.44 L957.79,494.34 L955.35,487.30 L952.75,480.33 L949.99,473.42 L947.08,466.58 L944.03,459.81 L940.82,453.12 L937.47,446.51 L933.97,439.99 L930.34,433.56 L926.56,427.22 L922.65,420.97 L918.61,414.82 L914.43,408.78 L910.13,402.84 L905.70,397.00 L901.15,391.28 L896.48,385.67 L891.69,380.18 L886.79,374.80 L881.78,369.55 L876.66,364.42 L871.44,359.42 L866.12,354.55 L860.70,349.81 L855.19,345.20 L849.59,340.73 L843.90,336.39 L838.13,332.20 L832.28,328.14 L826.36,324.23 L820.37,320.46 L814.31,316.84 L808.19,313.36 L802.00,310.03 L795.77,306.85 L789.48,303.82 L783.14,300.94 L776.76,298.22 L770.34,295.64 L763.88,293.22 L757.39,290.95 L750.87,288.83 L744.33,286.87 L737.77,285.06 L731.20,283.41 L724.61,281.91 L718.01,280.56 L711.41,279.37 L704.81,278.33 L698.22,277.44 L691.63,276.70 L685.05,276.12 L678.49,275.68 L671.95,275.39 L665.43,275.26 L658.93,275.26 L652.47,275.42 L646.04,275.71 L639.65,276.15 L633.30,276.73 L626.99,277.45 L620.73,278.31 L614.52,279.30 L608.37,280.43 L602.27,281.69 L596.23,283.08 L590.26,284.59 L584.35,286.23 L578.52,288.00 L572.75,289.88 L567.06,291.89 L561.45,294.01 L555.92,296.24 L550.47,298.58 L545.11,301.03 L539.84,303.59 L534.66,306.24 L529.56,309.00 L524.57,311.85 L519.67,314.79 L514.87,317.83 L510.16,320.95 L505.56,324.16 L501.07,327.44 L496.68,330.80 L492.39,334.24 L488.22,337.75 L484.15,341.33 L480.19,344.97 L476.35,348.67 L472.61,352.42 L468.99,356.24 L465.48,360.10 L462.09,364.01 L458.81,367.96 L455.65,371.96 L452.60,375.99 L449.67,380.05 L446.86,384.15 L444.16,388.27 L441.58,392.42 L439.11,396.58 L436.76,400.77 L434.52,404.96 L432.40,409.17 L430.39,413.38 L428.49,417.60 L426.71,421.82 L425.04,426.04 L423.48,430.25 L422.03,434.45 L420.69,438.64 L419.46,442.81 L418.33,446.97 L417.31,451.11 L416.39,455.22 L415.58,459.31 L414.86,463.37 L414.24,467.39 L413.72,471.39 L413.29,475.34 L412.96,479.26 L412.72,483.14 L412.57,486.97 L412.50,490.76 L412.52,494.50 L412.63,498.18 L412.81,501.82 L413.07,505.40 L413.41,508.93 L413.82,512.39 L414.30,515.80 L414.85,519.15 L415.46,522.43 L416.14,525.66 L416.88,528.81 L417.68,531.90 L418.53,534.92 L419.44,537.87 L420.40,540.75 L421.40,543.56 L422.45,546.30 L423.54,548.97 L424.66,551.57 L425.83,554.09 L427.03,556.53 L428.26,558.91 L429.51,561.21 L430.79,563.43 L432.10,565.58 L433.42,567.65 L434.76,569.65 L436.12,571.58 L437.48,573.43 L438.86,575.21 L440.24,576.92 L441.62,578.55 L443.00,580.11 L444.38,581.60 L445.76,583.02 L447.13,584.37 L448.49,585.65 L449.84,586.86 L451.17,588.01 L452.49,589.09 L453.79,590.11 L455.06,591.07 L456.32,591.97 L457.54,592.80 L458.74,593.58 L459.91,594.30 L461.05,594.97 L462.16,595.58 L463.22,596.15 L464.26,596.66 L465.25,597.13 L466.20,597.55 L467.11,597.93 L467.98,598.27 L468.80,598.57 L469.57,598.84 L470.30,599.07 L470.98,599.26 L471.60,599.43 L472.18,599.57 L472.71,599.69 L473.18,599.78 L473.60,599.85 L473.97,599.91 L474.28,599.94 L474.53,599.97 L474.73,599.99 L474.88,600.00 L474.97,600.00 L475.00,600.00 L474.98,600.00 L474.90,600.00 L474.76,600.01 L474.57,600.03 L474.32,600.05 L474.02,600.09 L473.66,600.14 L473.25,600.21 L472.78,600.30 L472.27,600.41 L471.70,600.55 L471.08,600.71 L470.41,600.90 L469.69,601.13 L468.92,601.38 L468.10,601.68 L467.24,602.01 L466.34,602.39 L465.40,602.80 L464.41,603.26 L463.38,603.77 L462.32,604.33 L461.22,604.93 L460.09,605.59 L458.92,606.31 L457.73,607.08 L456.51,607.90 L455.26,608.79 L453.98,609.74 L452.69,610.75 L451.38,611.82 L450.04,612.96 L448.70,614.16 L447.34,615.43 L445.97,616.77 L444.59,618.18 L443.21,619.66 L441.83,621.21 L440.45,622.83 L439.07,624.52 L437.69,626.29 L436.32,628.13 L434.97,630.05 L433.63,632.03 L432.30,634.10 L430.99,636.24 L429.71,638.45 L428.45,640.74 L427.21,643.10 L426.01,645.53 L424.84,648.04 L423.71,650.63 L422.61,653.28 L421.56,656.01 L420.55,658.81 L419.58,661.68 L418.67,664.62 L417.81,667.63 L417.00,670.71 L416.25,673.86 L415.56,677.07 L414.94,680.34 L414.38,683.68 L413.89,687.08 L413.46,690.54 L413.12,694.06 L412.84,697.63 L412.65,701.26 L412.53,704.94 L412.50,708.67 L412.55,712.45 L412.69,716.27 L412.92,720.14 L413.24,724.05 L413.65,728.00 L414.15,731.99 L414.76,736.01 L415.46,740.07 L416.26,744.15 L417.16,748.26 L418.17,752.39 L419.28,756.55 L420.50,760.72 L421.82,764.91 L423.25,769.11 L424.80,773.32 L426.45,777.53 L428.21,781.75 L430.09,785.97 L432.08,790.19 L434.19,794.39 L436.41,798.59 L438.74,802.78 L441.19,806.95 L443.76,811.10 L446.44,815.22 L449.23,819.32 L452.15,823.39 L455.18,827.43 L458.32,831.43 L461.58,835.39 L464.96,839.31 L468.45,843.18 L472.05,847.00 L475.77,850.76 L479.60,854.47 L483.54,858.12 L487.59,861.71 L491.75,865.23 L496.01,868.67 L500.39,872.05 L504.87,875.35 L509.45,878.56 L514.14,881.70 L518.93,884.75 L523.81,887.71 L528.79,890.57 L533.87,893.34 L539.04,896.01 L544.30,898.58 L549.65,901.05 L555.08,903.41 L560.60,905.66 L566.20,907.80 L571.88,909.82 L577.63,911.72 L583.45,913.50 L589.35,915.16 L595.31,916.70 L601.34,918.11 L607.43,919.39 L613.57,920.53 L619.77,921.55 L626.03,922.43 L632.33,923.17 L638.67,923.77 L645.06,924.23 L651.48,924.55 L657.94,924.72 L664.43,924.75 L670.95,924.64 L677.49,924.37 L684.05,923.96 L690.62,923.39 L697.21,922.68 L703.80,921.82 L710.40,920.80 L717.00,919.63 L723.60,918.31 L730.19,916.83 L736.77,915.20 L743.33,913.41 L749.87,911.48 L756.39,909.38 L762.89,907.14 L769.35,904.74 L775.78,902.19 L782.16,899.49 L788.51,896.63 L794.81,893.62 L801.05,890.47 L807.24,887.16 L813.38,883.71 L819.45,880.11 L825.45,876.36 L831.38,872.47 L837.24,868.43 L843.02,864.26 L848.72,859.95 L854.33,855.49 L859.86,850.91 L865.29,846.19 L870.63,841.33 L875.86,836.35 L881.00,831.24 L886.03,826.01 L890.94,820.65 L895.75,815.18 L900.44,809.59 L905.01,803.88 L909.46,798.07 L913.78,792.14 L917.98,786.11 L922.04,779.98 L925.97,773.75 L929.77,767.42 L933.43,761.00 L936.94,754.49 L940.32,747.90 L943.54,741.22 L946.63,734.47 L949.56,727.64 L952.33,720.74 L954.96,713.77 L957.43,706.74 L959.74,699.65 L961.90,692.50 L963.89,685.30 L965.73,678.06 L967.40,670.77 L968.91,663.44 L970.25,656.07 L971.43,648.68 L972.44,641.25 L973.28,633.81 L973.96,626.34 L974.47,618.86 L974.81,611.37 L974.98,603.87 L974.98,596.37 L974.81,588.87 L974.48,581.38 L973.98,573.90 L973.31,566.43 L972.47,558.99 L971.46,551.56 L970.29,544.16 L968.95,536.80 L967.45,529.47 L965.78,522.18 L963.95,514.93 L961.97,507.73 L959.82,500.58 L957.51,493.49 L955.04,486.46 L952.42,479.49 L949.65,472.58 L946.72,465.75 L943.65,459.00 L940.42,452.32 L937.05,445.72 L933.54,439.21 L929.89,432.79 L926.10,426.46 L922.17,420.22 L918.11,414.09 L913.92,408.05 L909.60,402.12 L905.15,396.30 L900.59,390.59 L895.90,385.00 L891.10,379.52 L886.19,374.16 L881.16,368.92 L876.03,363.81 L870.80,358.82 L865.46,353.97 L860.04,349.24 L854.51,344.65 L848.90,340.20 L843.21,335.88 L837.43,331.70 L831.57,327.66 L825.64,323.76 L819.64,320.01 L813.57,316.41 L807.44,312.95 L801.25,309.64 L795.01,306.48 L788.71,303.46 L782.37,300.60 L775.98,297.90 L769.56,295.34 L763.10,292.94 L756.60,290.69 L750.08,288.59 L743.54,286.65 L736.98,284.86 L730.40,283.22 L723.81,281.74 L717.22,280.41 L710.62,279.24 L704.02,278.21 L697.42,277.34 L690.83,276.63 L684.26,276.06 L677.70,275.64 L671.16,275.37 L664.64,275.25 L658.15,275.27 L651.69,275.44 L645.26,275.76 L638.88,276.21 L632.53,276.81 L626.23,277.55 L619.97,278.42 L613.77,279.43 L607.62,280.57 L601.53,281.85 L595.51,283.25 L589.54,284.78 L583.64,286.44 L577.81,288.22 L572.06,290.12 L566.38,292.14 L560.78,294.27 L555.26,296.52 L549.82,298.87 L544.47,301.33 L539.21,303.90 L534.03,306.57 L528.95,309.34 L523.97,312.20 L519.08,315.16 L514.29,318.20 L509.60,321.33 L505.01,324.55 L500.53,327.84 L496.15,331.22 L491.88,334.66 L487.72,338.18 L483.66,341.76 L479.72,345.41 L475.89,349.12 L472.17,352.88 L468.56,356.70 L465.07,360.57 L461.69,364.48 L458.42,368.44 L455.28,372.44 L452.24,376.48 L449.33,380.55 L446.52,384.65 L443.84,388.77 L441.27,392.92 L438.82,397.09 L436.48,401.27 L434.26,405.47 L432.15,409.68 L430.15,413.89 L428.27,418.11 L426.50,422.33 L424.85,426.55 L423.30,430.75 L421.87,434.96 L420.54,439.14 L419.32,443.32 L418.20,447.47 L417.19,451.61 L416.29,455.72 L415.48,459.80 L414.78,463.86 L414.17,467.88 L413.66,471.87 L413.25,475.82 L412.93,479.73 L412.70,483.60 L412.56,487.43 L412.50,491.21 L412.53,494.94 L412.64,498.63 L412.84,502.26 L413.11,505.83 L413.45,509.35 L413.87,512.81 L414.36,516.21 L414.92,519.55 L415.54,522.83 L416.23,526.04 L416.98,529.19 L417.78,532.27 L418.64,535.28 L419.55,538.22 L420.51,541.10 L421.52,543.90 L422.58,546.63 L423.67,549.29 L424.80,551.88 L425.97,554.39 L427.17,556.83 L428.41,559.19 L429.67,561.48 L430.95,563.69 L432.26,565.83 L433.58,567.90 L434.93,569.89 L436.28,571.81 L437.65,573.65 L439.02,575.42 L440.40,577.12 L441.79,578.74 L443.17,580.29 L444.55,581.78 L445.93,583.19 L447.30,584.53 L448.65,585.80 L450.00,587.01 L451.33,588.15 L452.65,589.22 L453.94,590.23 L455.22,591.18 L456.47,592.07 L457.69,592.90 L458.89,593.67 L460.05,594.39 L461.19,595.05 L462.29,595.65 L463.35,596.21 L464.38,596.72 L465.37,597.18 L466.31,597.60 L467.22,597.98 L468.08,598.31 L468.89,598.61 L469.66,598.87 L470.38,599.09 L471.05,599.28 L471.68,599.45 L472.25,599.59 L472.77,599.70 L473.23,599.79 L473.65,599.86 L474.01,599.91 L474.31,599.95 L474.56,599.97 L474.75,599.99 L474.89,600.00 L474.97,600.00 L475.00,600.00 L474.97,600.00 L474.88,600.00 L474.74,600.01 L474.54,600.03 L474.29,600.05 L473.98,600.09 L473.61,600.15 L473.20,600.22 L472.72,600.31 L472.20,600.43 L471.62,600.56 L471.00,600.73 L470.32,600.93 L469.60,601.16 L468.82,601.42 L468.00,601.72 L467.14,602.06 L466.23,602.43 L465.28,602.86 L464.29,603.32 L463.26,603.83 L462.19,604.40 L461.09,605.01 L459.95,605.68 L458.78,606.40 L457.58,607.17 L456.36,608.01 L455.10,608.90 L453.83,609.86 L452.53,610.87 L451.22,611.95 L449.88,613.10 L448.53,614.31 L447.17,615.59 L445.80,616.94 L444.43,618.35 L443.05,619.84 L441.66,621.40 L440.28,623.03 L438.90,624.73 L437.53,626.51 L436.16,628.36 L434.81,630.28 L433.46,632.28 L432.14,634.35 L430.84,636.50 L429.55,638.72 L428.30,641.02 L427.07,643.39 L425.87,645.83 L424.70,648.35 L423.57,650.94 L422.48,653.61 L421.43,656.35 L420.43,659.16 L419.47,662.03 L418.56,664.98 L417.71,668.00 L416.91,671.09 L416.17,674.24 L415.48,677.46 L414.87,680.74 L414.31,684.09 L413.83,687.49 L413.42,690.96 L413.08,694.48 L412.82,698.06 L412.63,701.70 L412.52,705.38 L412.50,709.12 L412.56,712.91 L412.71,716.74 L412.95,720.61 L413.28,724.53 L413.70,728.48 L414.22,732.48 L414.84,736.50 L415.55,740.56 L416.36,744.65 L417.28,748.76 L418.30,752.90 L419.42,757.05 L420.65,761.23 L421.99,765.42 L423.43,769.62 L424.99,773.83 L426.66,778.04 L428.44,782.26 L430.33,786.48 L432.33,790.70 L434.45,794.90 L436.68,799.10 L439.03,803.28 L441.49,807.45 L444.07,811.60 L446.77,815.72 L449.58,819.82 L452.51,823.88 L455.55,827.91 L458.71,831.91 L461.98,835.87 L465.37,839.78 L468.88,843.64 L472.49,847.45 L476.22,851.21 L480.07,854.92 L484.02,858.56 L488.08,862.14 L492.26,865.65 L496.54,869.09 L500.93,872.45 L505.42,875.74 L510.01,878.95 L514.71,882.07 L519.51,885.11" fill="none" stroke="#333" stroke-width="1" stroke-linecap="round" stroke-linejoin="round" opacity="0.8" />
</svg>