<svg xmlns="http://www.w3.org/2000/svg" width="1200" height="1200" viewBox="0 0 1200 1200">
  <rect width="1200" height="1200" fill="#faf9f6" />
  <path d="M1090.00,600.00 L1086.98,640.19 L1078.01,679.39 L1063.32,716.65 L1043.31,751.08 L1018.52,781.83 L989.62,808.19 L957.38,829.55 L922.66,845.44 L886.40,855.53 L849.56,859.66 L813.14,857.82 L778.10,850.17 L745.39,837.03 L715.85,818.87 L690.29,796.27 L669.36,769.96 L653.61,740.77 L643.45,709.58 L639.11,677.36 L640.70,645.09 L648.12,613.73 L661.15,584.26 L679.41,557.58 L702.35,534.50 L729.32,515.77 L759.54,501.99 L792.16,493.63 L826.24,491.03 L860.82,494.36 L894.90,503.62 L927.53,518.67 L957.76,539.18 L984.73,564.70 L1007.65,594.64 L1025.84,628.28 L1038.75,664.79 L1045.99,703.28 L1047.29,742.80 L1042.57,782.36 L1031.89,820.99 L1015.48,857.72 L993.73,891.65 L967.16,921.94 L936.42,947.86 L902.30,968.79 L865.64,984.24 L827.38,993.89 L788.47,997.55 L749.92,995.21 L712.69,987.02 L677.72,973.26 L645.89,954.41 L617.98,931.04 L594.68,903.87 L576.53,873.72 L563.96,841.47 L557.22,808.09 L556.42,774.53 L561.49,741.80 L572.21,710.84 L588.21,682.57 L608.97,657.82 L633.82,637.33 L662.03,621.72 L692.71,611.48 L724.96,606.95 L757.81,608.31 L790.27,615.59 L821.37,628.63 L850.16,647.16 L875.79,670.71 L897.44,698.71 L914.44,730.44 L926.24,765.09 L932.40,801.77 L932.67,839.53 L926.95,877.40 L915.28,914.38 L897.88,949.52 L875.13,981.91 L847.54,1010.70 L815.76,1035.15 L780.55,1054.64 L742.77,1068.67 L703.33,1076.89 L663.20,1079.12 L623.38,1075.32 L584.83,1065.63 L548.49,1050.33 L515.26,1029.88 L485.92,1004.84 L461.16,975.93 L441.55,943.95 L427.52,909.79 L419.35,874.39 L417.13,838.73 L420.83,803.80 L430.24,770.56 L444.99,739.92 L464.57,712.73 L488.35,689.73 L515.57,671.56 L545.37,658.71 L576.85,651.53 L609.03,650.23 L640.94,654.84 L671.60,665.23 L700.06,681.12 L725.45,702.07 L746.97,727.50 L763.91,756.72 L775.72,788.93 L781.96,823.23 L782.36,858.69 L776.80,894.32 L765.32,929.15 L748.12,962.20 L725.57,992.57 L698.16,1019.40 L666.55,1041.95 L631.47,1059.57 L593.78,1071.77 L554.39,1078.19 L514.28,1078.61 L474.42,1073.01 L435.79,1061.50 L399.34,1044.36 L365.95,1022.02 L336.43,995.05 L311.49,964.15 L291.68,930.11 L277.46,893.82 L269.10,856.22 L266.74,818.29 L270.34,781.01 L279.70,745.36 L294.48,712.24 L314.17,682.51 L338.13,656.92 L365.64,636.13 L395.84,620.62 L427.82,610.79 L460.62,606.82 L493.25,608.77 L524.74,616.54 L554.14,629.84 L580.57,648.25 L603.22,671.21 L621.38,698.03 L634.47,727.92 L642.07,759.99 L643.86,793.30 L639.73,826.88 L629.70,859.75 L613.96,890.94 L592.87,919.52 L566.90,944.65 L536.70,965.57 L503.01,981.63 L466.66,992.32 L428.57,997.26 L389.70,996.24 L351.04,989.21 L313.55,976.28 L278.21,957.70 L245.88,933.91 L217.39,905.46 L193.45,873.03 L174.63,837.43 L161.40,799.52 L154.04,760.24 L152.70,720.58 L157.35,681.52 L167.81,644.02 L183.74,609.02 L204.66,577.36 L229.93,549.81 L258.83,527.03 L290.52,509.54 L324.08,497.71 L358.57,491.76 L392.99,491.77 L426.37,497.62 L457.75,509.07 L486.25,525.69 L511.05,546.94 L531.44,572.14 L546.82,600.50 L556.75,631.14 L560.92,663.13 L559.18,695.49 L551.56,727.25 L538.22,757.43 L519.52,785.12 L495.91,809.44 L468.03,829.64 L436.61,845.05 L402.49,855.16 L366.55,859.58 L329.78,858.08 L293.15,850.60 L257.63,837.23 L224.19,818.23 L193.72,794.00 L167.03,765.09 L144.85,732.18 L127.76,696.06 L116.24,657.59 L110.58,617.72 L110.95,577.41 L117.33,537.66 L129.54,499.43 L147.27,463.65 L170.03,431.19 L197.22,402.81 L228.10,379.19 L261.84,360.84 L297.54,348.18 L334.24,341.42 L370.97,340.64 L406.73,345.77 L440.58,356.54 L471.61,372.57 L499.01,393.30 L522.05,418.07 L540.13,446.10 L552.79,476.53 L559.71,508.41 L560.73,540.78 L555.85,572.66 L545.24,603.07 L529.23,631.09 L508.27,655.85 L482.99,676.58 L454.09,692.60 L422.42,703.39 L388.86,708.55 L354.38,707.84 L319.95,701.17 L286.57,688.64 L255.17,670.48 L226.67,647.10 L201.88,619.02 L181.54,586.91 L166.25,551.56 L156.47,513.82 L152.54,474.63 L154.61,434.97 L162.69,395.81 L176.62,358.13 L196.08,322.86 L220.61,290.87 L249.60,262.95 L282.34,239.76 L317.99,221.85 L355.67,209.62 L394.41,203.31 L433.24,203.02 L471.17,208.68 L507.24,220.03 L540.56,236.71 L570.28,258.18 L595.69,283.77 L616.16,312.72 L631.22,344.16 L640.55,377.16 L643.96,410.76 L641.45,443.98 L633.18,475.83 L619.44,505.39 L600.70,531.79 L577.56,554.23 L550.73,572.05 L521.02,584.70 L489.34,591.77 L456.64,593.02 L423.89,588.33 L392.07,577.80 L362.15,561.63 L335.03,540.22 L311.54,514.10 L292.42,483.92 L278.28,450.45 L269.59,414.54 L266.71,377.14 L269.80,339.20 L278.87,301.70 L293.79,265.64 L314.24,231.93 L339.77,201.46 L369.80,175.02 L403.60,153.28 L440.36,136.80 L479.19,125.99 L519.14,121.12 L559.22,122.27 L598.45,129.40 L635.87,142.28 L670.57,160.53 L701.72,183.63 L728.56,210.93 L750.49,241.67 L767.02,274.99 L777.79,309.97 L782.63,345.63 L781.52,381.00 L774.58,415.10 L762.12,446.99 L744.59,475.79 L722.57,500.72 L696.77,521.08 L667.99,536.33 L637.13,546.03 L605.14,549.92 L572.98,547.91 L541.66,540.03 L512.12,526.52 L485.27,507.73 L461.97,484.19 L442.93,456.54 L428.81,425.54 L420.07,392.04 L417.08,356.98 L420.02,321.30 L428.92,286.00 L443.64,252.05 L463.89,220.39 L489.23,191.91 L519.08,167.39 L552.74,147.53 L589.39,132.90 L628.15,123.90 L668.06,120.83 L708.16,123.79 L747.45,132.73 L784.97,147.44 L819.81,167.55 L851.12,192.57 L878.15,221.84 L900.28,254.60 L917.00,290.02 L927.96,327.16 L932.96,365.06 L931.97,402.75 L925.10,439.23 L912.65,473.58 L895.06,504.89 L872.88,532.39 L846.83,555.36 L817.71,573.24 L786.40,585.61 L753.84,592.17 L721.01,592.81 L688.90,587.58 L658.46,576.67 L630.62,560.44 L606.22,539.40 L586.01,514.18 L570.63,485.54 L560.57,454.32 L556.20,421.43 L557.72,387.85 L565.17,354.55 L578.44,322.50 L597.23,292.66 L621.12,265.92 L649.55,243.06 L681.80,224.79 L717.09,211.69 L754.53,204.19 L793.18,202.57 L832.06,206.96 L870.18,217.32 L906.58,233.46 L940.34,255.02 L970.61,281.50 L996.63,312.28 L1017.76,346.59 L1033.49,383.60 L1043.46,422.39 L1047.46,462.00 L1045.43,501.45 L1037.49,539.75 L1023.91,575.96 L1005.11,609.19 L981.67,638.63 L954.26,663.58 L923.69,683.45 L890.84,697.81 L856.64,706.36 L822.07,708.97 L788.11,705.66 L755.74,696.63 L725.86,682.22 L699.34,662.92 L676.94,639.37 L659.29,612.30 L646.92,582.55 L640.19,551.04 L639.32,518.72 L644.37,486.57 L655.23,455.58 L671.63,426.69 L693.15,400.79 L719.23,378.69 L749.19,361.10 L782.24,348.60 L817.49,341.64 L854.02,340.52 L890.83,345.38 L926.96,356.18 L961.43,372.75 L993.31,394.74 L1021.76,421.67 L1046.00,452.91 L1065.39,487.72 L1079.40,525.27 L1087.67,564.64 L1089.96,604.88 L1086.21,645.00 L1076.53,684.02 L1061.17,720.99 L1040.56,755.01 L1015.23,785.27 L985.88,811.05 L953.29,831.77 L918.33,846.97 L881.95,856.35 L845.11,859.75 L808.81,857.20 L774.01,848.87 L741.63,835.09 L712.54,816.35 L687.50,793.27 L667.17,766.57 L652.08,737.08 L642.61,705.72 L638.99,673.44 L641.29,641.22 L649.41,610.05 L663.09,580.87 L681.94,554.58 L705.41,531.99 L732.82,513.83 L763.38,500.68 L796.22,493.01 L830.41,491.12 L864.98,495.17 L898.95,505.14 L931.34,520.86 L961.22,542.01 L987.73,568.10 L1010.11,598.53 L1027.69,632.56 L1039.94,669.36 L1046.47,708.03 L1047.04,747.60 L1041.59,787.11 L1030.21,825.56 L1013.13,862.00 L990.76,895.53 L963.65,925.32 L932.46,950.67 L897.98,970.96 L861.08,985.73 L822.68,994.66 L783.77,997.59 L745.33,994.53 L708.32,985.64 L673.69,971.24 L642.29,951.81 L614.90,927.94 L592.20,900.37 L574.71,869.91 L562.83,837.48 L556.81,804.01 L556.72,770.51 L562.49,737.94 L573.88,707.26 L590.48,679.37 L611.77,655.10 L637.08,635.17 L665.62,620.19 L696.55,610.63 L728.92,606.80 L761.78,608.88 L794.12,616.86 L824.99,630.59 L853.45,649.75 L878.63,673.88 L899.76,702.36 L916.16,734.49 L927.29,769.43 L932.75,806.30 L932.30,844.13 L925.85,881.94 L913.47,918.75 L895.41,953.60 L872.04,985.60 L843.91,1013.90 L811.67,1037.78 L776.10,1056.63 L738.07,1069.98 L698.49,1077.48 L658.35,1078.98 L618.63,1074.46 L580.29,1064.07 L544.29,1048.12 L511.48,1027.08 L482.66,1001.54 L458.50,972.21 L439.55,939.91 L426.22,905.55 L418.76,870.07 L417.27,834.45 L421.67,799.67 L431.75,766.70 L447.11,736.43 L467.24,709.71 L491.48,687.27 L519.05,669.71 L549.11,657.53 L580.72,651.06 L612.93,650.48 L644.74,655.79 L675.18,666.87 L703.32,683.39 L728.28,704.92 L749.27,730.85 L765.62,760.48 L776.78,792.98 L782.33,827.48 L782.01,863.01 L775.72,898.60 L763.54,933.26 L745.67,966.04 L722.50,996.02 L694.55,1022.37 L662.47,1044.35 L627.03,1061.35 L589.09,1072.86 L549.56,1078.56 L509.42,1078.26 L469.66,1071.93 L431.24,1059.72 L395.12,1041.92 L362.16,1018.99 L333.16,991.51 L308.81,960.18 L289.66,925.82 L276.13,889.32 L268.50,851.63 L266.86,813.72 L271.17,776.59 L281.21,741.20 L296.61,708.45 L316.85,679.18 L341.29,654.14 L369.17,633.96 L399.63,619.13 L431.76,609.99 L464.59,606.74 L497.14,609.41 L528.43,617.86 L557.52,631.80 L583.53,650.80 L605.67,674.27 L623.24,701.50 L635.69,731.70 L642.60,763.97 L643.68,797.37 L638.83,830.92 L628.09,863.63 L611.69,894.55 L589.97,922.76 L563.46,947.42 L532.80,967.78 L498.74,983.22 L462.13,993.23 L423.89,997.46 L384.99,995.71 L346.42,987.96 L309.15,974.32 L274.12,955.09 L242.22,930.70 L214.24,901.73 L190.89,868.88 L172.73,832.94 L160.19,794.82 L153.56,755.44 L152.94,715.80 L158.31,676.88 L169.46,639.64 L186.02,604.99 L207.50,573.79 L233.25,546.79 L262.53,524.62 L294.50,507.80 L328.23,496.67 L362.76,491.45 L397.10,492.17 L430.29,498.72 L461.37,510.81 L489.46,528.03 L513.77,549.80 L533.58,575.42 L548.32,604.10 L557.57,634.95 L561.02,667.04 L558.57,699.39 L550.24,731.00 L536.24,760.93 L516.91,788.25 L492.75,812.12 L464.41,831.77 L432.61,846.57 L398.22,856.00 L362.13,859.72 L325.32,857.50 L288.77,849.29 L253.46,835.23 L220.33,815.56 L190.27,790.74 L164.09,761.31 L142.50,727.97 L126.07,691.51 L115.24,652.83 L110.31,612.85 L111.40,572.55 L118.50,532.93 L131.40,494.95 L149.77,459.53 L173.10,427.52 L200.77,399.69 L232.04,376.68 L266.07,359.00 L301.95,347.04 L338.70,341.01 L375.36,340.95 L410.94,346.78 L444.50,358.21 L475.13,374.84 L502.04,396.10 L524.51,421.31 L541.96,449.67 L553.94,480.33 L560.15,512.32 L560.45,544.69 L554.87,576.44 L543.59,606.61 L526.94,634.28 L505.43,658.59 L479.67,678.78 L450.39,694.19 L418.44,704.32 L384.72,708.78 L350.19,707.35 L315.84,699.97 L282.64,686.74 L251.55,667.92 L223.45,643.94 L199.17,615.33 L179.41,582.79 L164.76,547.10 L155.68,509.14 L152.47,469.84 L155.27,430.18 L164.07,391.15 L178.69,353.71 L198.79,318.80 L223.89,287.26 L253.38,259.88 L286.51,237.30 L322.46,220.06 L360.32,208.54 L399.13,202.96 L437.90,203.39 L475.65,209.75 L511.44,221.78 L544.36,239.07 L573.60,261.07 L598.44,287.11 L618.28,316.40 L632.66,348.08 L641.27,381.21 L643.97,414.82 L640.75,447.92 L631.80,479.55 L617.43,508.77 L598.12,534.73 L574.49,556.64 L547.27,573.87 L517.28,585.86 L485.42,592.24 L452.66,592.77 L419.97,587.37 L388.33,576.13 L358.70,559.31 L331.98,537.30 L308.98,510.65 L290.43,480.03 L276.93,446.22 L268.93,410.08 L266.76,372.56 L270.58,334.62 L280.37,297.25 L295.98,261.42 L317.07,228.06 L343.18,198.04 L373.70,172.13 L407.91,151.00 L444.97,135.18 L483.99,125.08 L524.00,120.94 L564.03,122.82 L603.09,130.66 L640.23,144.21 L674.54,163.08 L705.21,186.73 L731.49,214.49 L752.79,245.58 L768.63,279.15 L778.69,314.26 L782.81,349.94 L780.98,385.21 L773.36,419.09 L760.26,450.65 L742.15,479.03 L719.64,503.44 L693.43,523.21 L664.35,537.80 L633.30,546.81 L601.23,550.00 L569.13,547.26 L537.97,538.69 L508.71,524.52 L482.25,505.12 L459.42,481.05 L440.95,452.95 L427.45,421.60 L419.40,387.87 L417.12,352.67 L420.78,316.99 L430.39,281.80 L445.80,248.08 L466.70,216.76 L492.62,188.72 L522.97,164.73 L557.03,145.47 L593.99,131.50 L632.93,123.21 L672.92,120.87 L712.97,124.55 L752.10,134.20 L789.34,149.59 L823.80,170.33 L854.63,195.90 L881.10,225.63 L902.60,258.76 L918.64,294.44 L928.88,331.72 L933.16,369.65 L931.44,407.24 L923.89,443.52 L910.79,477.54 L892.60,508.44 L869.92,535.42 L843.46,557.80 L814.02,575.04 L782.50,586.71 L749.86,592.56 L717.07,592.49 L685.11,586.55 L654.94,574.98 L627.47,558.14 L603.54,536.56 L583.88,510.88 L569.12,481.88 L559.73,450.41 L556.07,417.39 L558.31,383.78 L566.47,350.58 L580.42,318.76 L599.86,289.25 L624.33,262.93 L653.26,240.59 L685.93,222.92 L721.53,210.48 L759.16,203.67 L797.89,202.78 L836.73,207.90 L874.69,218.97 L910.82,235.79 L944.20,257.98 L974.00,285.01 L999.46,316.25 L1019.96,350.94 L1035.01,388.22 L1044.27,427.16 L1047.53,466.80 L1044.78,506.16 L1036.14,544.26 L1021.90,580.16 L1002.51,612.97 L978.55,641.90 L950.72,666.26 L919.82,685.49 L886.75,699.16 L852.46,706.99 L817.91,708.88 L784.09,704.86 L751.97,695.16 L722.46,680.13 L696.40,660.29 L674.54,636.27 L657.50,608.83 L645.80,578.82 L639.77,547.15 L639.62,514.80 L645.38,482.74 L656.93,451.95 L673.97,423.38 L696.07,397.90 L722.66,376.31 L753.04,359.30 L786.40,347.46 L821.86,341.19 L858.47,340.79 L895.26,346.37 L931.24,357.88 L965.44,375.13 L996.95,397.75 L1024.93,425.23 L1048.61,456.95 L1067.38,492.14 L1080.71,529.96 L1088.26,569.48 L1089.82,609.76 L1085.35,649.80 L1074.97,688.62 L1058.95,725.28 L1037.73,758.88 L1011.88,788.64 L982.09,813.84 L949.17,833.91 L913.99,848.42 L877.50,857.08 L840.67,859.76 L804.50,856.49 L769.94,847.48 L737.92,833.08 L709.28,813.78 L684.78,790.21 L665.06,763.13 L650.63,733.37 L641.86,701.85 L638.95,669.52 L641.96,637.38 L650.77,606.40 L665.11,577.52 L684.55,551.63 L708.53,529.55 L736.36,511.96 L767.25,499.45 L800.30,492.47 L834.60,491.29 L869.15,496.06 L902.97,506.74 L935.10,523.14 L964.62,544.92 L990.67,571.57 L1012.50,602.47 L1029.46,636.88 L1041.04,673.96 L1046.86,712.79 L1046.70,752.41 L1040.53,791.83 L1028.43,830.09 L1010.69,866.22 L987.72,899.34 L960.08,928.64 L928.45,953.40 L893.63,973.04 L856.49,987.12 L817.98,995.33 L779.08,997.54 L740.76,993.76 L703.99,984.18 L669.70,969.15 L638.75,949.14 L611.90,924.79 L589.79,896.82 L572.97,866.07 L561.79,833.46 L556.48,799.94 L557.11,766.50 L563.58,734.11 L575.62,703.72 L592.82,676.23 L614.63,652.45 L640.37,633.09 L669.26,618.74 L700.41,609.85 L732.89,606.74 L765.74,609.53 L797.95,618.22 L828.58,632.63 L856.69,652.42 L881.42,677.10 L902.00,706.07 L917.79,738.58 L928.26,773.81 L933.01,810.84 L931.84,848.72 L924.66,886.46 L911.58,923.09 L892.85,957.64 L868.88,989.23 L840.21,1017.04 L807.53,1040.34 L771.61,1058.55 L733.34,1071.20 L693.65,1077.98 L653.50,1078.75 L613.90,1073.51 L575.80,1062.43 L540.13,1045.84 L507.77,1024.22 L479.48,998.17 L455.92,968.44 L437.64,935.85 L425.00,901.30 L418.26,865.74 L417.49,830.17 L422.59,795.57 L433.33,762.87 L449.30,733.00 L469.97,706.76 L494.65,684.87 L522.57,667.95 L552.87,656.44 L584.61,650.68 L616.82,650.81 L648.51,656.83 L678.72,668.58 L706.52,685.74 L731.04,707.83 L751.51,734.25 L767.26,764.27 L777.76,797.07 L782.60,831.74 L781.57,867.33 L774.56,902.86 L761.67,937.34 L743.14,969.83 L719.36,999.41 L690.87,1025.27 L658.35,1046.68 L622.56,1063.04 L584.37,1073.86 L544.72,1078.84 L504.57,1077.81 L464.92,1070.76 L426.73,1057.86 L390.95,1039.41 L358.43,1015.89 L329.95,987.90 L306.20,956.16 L287.71,921.50 L274.89,884.80 L267.98,847.03 L267.07,809.17 L272.09,772.20 L282.80,737.08 L298.81,704.70 L319.60,675.91 L344.50,651.43 L372.73,631.87 L403.45,617.71 L435.72,609.28 L468.56,606.75 L501.01,610.13 L532.08,619.26 L560.84,633.84 L586.43,653.41 L608.05,677.38 L625.03,705.01 L636.83,735.51 L643.04,767.97 L643.41,801.44 L637.84,834.94 L626.40,867.49 L609.33,898.13 L587.01,925.95 L559.96,950.13 L528.84,969.92 L494.42,984.73 L457.57,994.05 L419.20,997.57 L380.29,995.09 L341.82,986.62 L304.77,972.29 L270.07,952.41 L238.61,927.43 L211.16,897.95 L188.41,864.68 L170.91,828.43 L159.07,790.10 L153.16,750.64 L153.28,711.04 L159.36,672.27 L171.18,635.29 L188.37,601.02 L210.40,570.29 L236.62,543.84 L266.28,522.30 L298.50,506.14 L332.38,495.72 L366.94,491.22 L401.20,492.66 L434.18,499.89 L464.95,512.64 L492.62,530.44 L516.41,552.71 L535.64,578.74 L549.74,607.73 L558.30,638.79 L561.04,670.96 L557.87,703.27 L548.85,734.73 L534.17,764.39 L514.23,791.34 L489.53,814.73 L460.73,833.83 L428.57,848.00 L393.92,856.76 L357.70,859.77 L320.87,856.82 L284.41,847.90 L249.32,833.14 L216.51,812.83 L186.88,787.41 L161.22,757.47 L140.23,723.71 L124.45,686.93 L114.32,648.04 L110.12,607.97 L111.95,567.71 L119.76,528.23 L133.34,490.51 L152.34,455.46 L176.23,423.92 L204.38,396.64 L236.03,374.25 L270.33,357.25 L306.36,345.99 L343.16,340.68 L379.74,341.35 L415.13,347.87 L448.38,359.95 L478.60,377.17 L505.01,398.95 L526.90,424.59 L543.71,453.28 L555.00,484.14 L560.50,516.24 L560.08,548.58 L553.80,580.19 L541.85,610.11 L524.59,637.41 L502.53,661.26 L476.30,680.91 L446.65,695.71 L414.43,705.17 L380.57,708.92 L346.01,706.77 L311.74,698.67 L278.75,684.75 L247.98,665.29 L220.30,640.71 L196.53,611.59 L177.36,578.62 L163.36,542.61 L154.98,504.44 L152.49,465.04 L156.02,425.41 L165.53,386.52 L180.84,349.34 L201.57,314.79 L227.24,283.72 L257.21,256.88 L290.73,234.93 L326.96,218.36 L364.98,207.54 L403.84,202.69 L442.54,203.85 L480.10,210.91 L515.59,223.60 L548.11,241.49 L576.85,264.02 L601.11,290.50 L620.31,320.13 L634.01,352.03 L641.92,385.27 L643.89,418.87 L639.97,451.85 L630.34,483.23 L615.34,512.10 L595.48,537.61 L571.38,558.99 L543.77,575.61 L513.50,586.94 L481.49,592.62 L448.68,592.43 L416.07,586.32 L384.62,574.39 L355.30,556.91 L328.98,534.31 L306.49,507.14 L288.52,476.09 L275.66,441.95 L268.36,405.60 L266.91,367.97 L271.45,330.05 L281.95,292.81 L298.24,257.23 L319.97,224.23 L346.65,194.67 L377.66,169.30 L412.26,148.79 L449.60,133.65 L488.79,124.26 L528.86,120.84 L568.82,123.46 L607.70,132.00 L644.55,146.22 L678.46,165.70 L708.63,189.88 L734.34,218.09 L755.00,249.53 L770.16,283.34 L779.51,318.57 L782.91,354.25 L780.36,389.40 L772.06,423.05 L758.33,454.27 L739.65,482.21 L716.65,506.09 L690.04,525.26 L660.68,539.19 L629.46,547.51 L597.33,549.98 L565.29,546.53 L534.31,537.27 L505.34,522.44 L479.28,502.45 L456.94,477.85 L439.05,449.31 L426.18,417.63 L418.81,383.67 L417.24,348.36 L421.63,312.68 L431.95,277.62 L448.04,244.14 L469.58,213.18 L496.07,185.58 L526.91,162.14 L561.37,143.49 L598.61,130.19 L637.74,122.61 L677.79,120.99 L717.78,125.41 L756.72,135.77 L793.68,151.83 L827.74,173.18 L858.08,199.29 L883.98,229.47 L904.84,262.96 L920.19,298.88 L929.72,336.30 L933.27,374.24 L930.83,411.72 L922.59,447.77 L908.85,481.46 L890.09,511.92 L866.91,538.38 L840.04,560.17 L810.30,576.75 L778.60,587.73 L745.88,592.87 L713.14,592.08 L681.34,585.45 L651.46,573.21 L624.37,555.77 L600.92,533.65 L581.82,507.53 L567.69,478.19 L558.98,446.48 L556.02,413.33 L558.98,379.73 L567.86,346.64 L582.49,315.05 L602.56,285.88 L627.61,260.00 L657.03,238.19 L690.10,221.13 L725.99,209.35 L763.81,203.25 L802.60,203.08 L841.39,208.92 L879.18,220.71 L915.02,238.20 L948.01,261.00 L977.32,288.58 L1002.21,320.28 L1022.08,355.33 L1036.45,392.86 L1044.98,431.94 L1047.52,471.60 L1044.04,510.86 L1034.70,548.74 L1019.82,584.31 L999.84,616.69 L975.37,645.10 L947.13,668.87 L915.92,687.45 L882.65,700.42 L848.27,707.54 L813.76,708.70 L780.10,703.99 L748.25,693.62 L719.11,677.98 L693.52,657.59 L672.21,633.11 L655.80,605.32 L644.76,575.05 L639.44,543.25 L640.00,510.88 L646.47,478.93 L658.70,448.36 L676.38,420.11 L699.06,395.06 L726.15,373.99 L756.94,357.59 L790.60,346.40 L826.25,340.83 L862.93,341.15 L899.67,347.45 L935.49,359.67 L969.41,377.59 L1000.54,400.83 L1028.03,428.86 L1051.16,461.03 L1069.29,496.59 L1081.94,534.67 L1088.77,574.34 L1089.60,614.64 L1084.40,654.58 L1073.32,693.19 L1056.65,729.52 L1034.84,762.70 L1008.47,791.94 L978.26,816.55 L945.01,835.97 L909.62,849.78 L873.04,857.72 L836.24,859.68 L800.21,855.70 L765.91,846.02 L734.26,830.99 L706.08,811.14 L682.13,787.11 L663.02,759.65 L649.26,729.63 L641.19,697.96 L639.00,665.60 L642.72,633.55 L652.22,602.77 L667.20,574.21 L687.22,548.74 L711.71,527.17 L739.95,510.17 L771.15,498.31 L804.41,492.01 L838.78,491.55 L873.30,497.04 L906.97,508.43 L938.83,525.50 L967.97,547.89 L993.55,575.09 L1014.83,606.46 L1031.16,641.24 L1042.05,678.58 L1047.16,717.56 L1046.28,757.21 L1039.38,796.54 L1026.58,834.59 L1008.18,870.41 L984.61,903.11 L956.45,931.89 L924.39,956.06 L889.24,975.05 L851.89,988.43 L813.28,995.92 L774.39,997.39 L736.21,992.90 L699.69,982.65 L665.76,966.98 L635.27,946.41 L608.96,921.58 L587.47,893.23 L571.31,862.21 L560.83,829.44 L556.24,795.87 L557.59,762.51 L564.74,730.31 L577.43,700.22 L595.23,673.14 L617.55,649.86 L643.72,631.07 L672.92,617.37 L704.29,609.17 L736.87,606.76 L769.69,610.27 L801.76,619.67 L832.13,634.75 L859.87,655.15 L884.14,680.39 L904.18,709.83 L919.35,742.72 L929.14,778.21 L933.19,815.40 L931.29,853.31 L923.39,890.97 L909.61,927.40 L890.22,961.64 L865.65,992.81 L836.46,1020.11 L803.34,1042.83 L767.09,1060.38 L728.60,1072.34 L688.80,1078.40 L648.66,1078.43 L609.19,1072.47 L571.34,1060.70 L536.03,1043.48 L504.12,1021.29 L476.37,994.76 L453.42,964.63 L435.80,931.75 L423.87,897.03 L417.85,861.42 L417.80,825.92 L423.60,791.49 L435.00,759.09 L451.57,729.61 L472.75,703.86 L497.87,682.55 L526.13,666.26 L556.65,655.43 L588.50,650.38 L620.70,651.23 L652.27,657.95 L682.23,670.38 L709.68,688.16 L733.75,710.81 L753.68,737.71 L768.82,768.11 L778.65,801.18 L782.79,836.02 L781.04,871.65 L773.31,907.11 L759.72,941.40 L740.53,973.58 L716.15,1002.76 L687.14,1028.11 L654.17,1048.94 L618.05,1064.65 L579.63,1074.78 L539.87,1079.04 L499.73,1077.28 L460.20,1069.51 L422.26,1055.91 L386.82,1036.83 L354.75,1012.73 L326.82,984.25 L303.68,952.11 L285.86,917.15 L273.74,880.27 L267.55,842.44 L267.37,804.63 L273.09,767.83 L284.46,733.00 L301.09,701.01 L322.41,672.71 L347.75,648.79 L376.34,629.86 L407.29,616.38 L439.68,608.66 L472.53,606.85 L504.86,610.93 L535.70,620.74 L564.12,635.96 L589.27,656.09 L610.36,680.54 L626.74,708.57 L637.89,739.35 L643.40,771.98 L643.05,805.51 L636.76,838.95 L624.63,871.31 L606.90,901.66 L583.97,929.08 L556.40,952.77 L524.84,971.99 L490.08,986.15 L452.99,994.79 L414.50,997.59 L375.59,994.39 L337.25,985.19 L300.43,970.17 L266.08,949.65 L235.06,924.09 L208.14,894.11 L186.00,860.43 L169.17,823.88 L158.04,785.37 L152.85,745.84 L153.70,706.28 L160.49,667.68 L172.98,630.98 L190.79,597.10 L213.36,566.85 L240.04,540.96 L270.06,520.05 L302.53,504.57 L336.54,494.86 L371.12,491.08 L405.27,493.23 L438.04,501.15 L468.48,514.53 L495.72,532.90 L518.99,555.67 L537.63,582.11 L551.08,611.40 L558.94,642.64 L560.97,674.88 L557.09,707.14 L547.37,738.44 L532.03,767.82 L511.49,794.37 L486.25,817.28 L457.00,835.81 L424.49,849.36 L389.60,857.44 L353.25,859.73 L316.42,856.06 L280.08,846.42 L245.21,830.97 L212.74,810.01 L183.55,784.01 L158.42,753.57 L138.03,719.40 L122.92,682.32 L113.50,643.23 L110.02,603.09 L112.57,562.87 L121.10,523.56 L135.36,486.11 L154.98,451.44 L179.42,420.38 L208.04,393.66 L240.06,371.89 L274.62,355.58 L310.80,345.03 L347.62,340.45 L384.11,341.83 L419.28,349.04 L452.21,361.77 L482.02,379.58 L507.91,401.86 L529.21,427.91 L545.37,456.92 L555.98,487.98 L560.76,520.16 L559.63,552.46 L552.65,583.92 L540.03,613.57 L522.16,640.50 L499.56,663.88 L472.88,682.97 L442.87,697.15 L410.41,705.93 L376.40,708.98 L341.83,706.10 L307.67,697.29 L274.89,682.69 L244.45,662.58 L217.20,637.42 L193.95,607.79 L175.38,574.41 L162.04,538.09 L154.36,499.71 L152.59,460.24 L156.85,420.64 L167.08,381.91 L183.07,345.00 L204.43,310.83 L230.65,280.23 L261.09,253.96 L294.99,232.63 L331.48,216.74 L369.66,206.64 L408.55,202.51 L447.16,204.40 L484.53,212.16 L519.70,225.50 L551.80,243.98 L580.04,267.03 L603.72,293.93 L622.27,323.89 L635.28,356.00 L642.47,389.34 L643.73,422.92 L639.10,455.75 L628.80,486.87 L613.19,515.38 L592.78,540.43 L568.21,561.26 L540.23,577.27 L509.70,587.93 L477.54,592.91 L444.70,592.00 L412.18,585.18 L380.94,572.56 L351.94,554.44 L326.05,531.26 L304.06,503.58 L286.68,472.11 L274.47,437.65 L267.86,401.09 L267.14,363.38 L272.40,325.49 L283.62,288.40 L300.59,253.08 L322.95,220.46 L350.19,191.36 L381.67,166.55 L416.65,146.67 L454.27,132.20 L493.61,123.53 L533.72,120.84 L573.61,124.18 L612.29,133.43 L648.82,148.31 L682.33,168.39 L711.99,193.09 L737.12,221.74 L757.14,253.51 L771.61,287.54 L780.24,322.88 L782.91,358.55 L779.66,393.57 L770.68,426.98 L756.32,457.84 L737.09,485.33 L713.60,508.67 L686.62,527.23 L656.98,540.51 L625.60,548.12 L593.43,549.88 L561.47,545.72 L530.68,535.76 L502.02,520.28 L476.36,499.70 L454.53,474.59 L437.21,445.63 L424.99,413.62 L418.31,379.45 L417.46,344.05 L422.56,308.39 L433.60,273.47 L450.37,240.25 L472.53,209.64 L499.58,182.51 L530.90,159.61 L565.74,141.59 L603.26,128.96 L642.55,122.09 L682.65,121.20 L722.56,126.35 L761.32,137.41 L797.97,154.14 L831.62,176.10 L861.46,202.74 L886.78,233.37 L906.99,267.20 L921.66,303.35 L930.47,340.88 L933.29,378.82 L930.14,416.18 L921.21,451.99 L906.83,485.34 L887.50,515.35 L863.84,541.28 L836.57,562.46 L806.55,578.39 L774.67,588.67 L741.90,593.09 L709.22,591.58 L677.61,584.26 L648.01,571.37 L621.33,553.33 L598.37,530.69 L579.84,504.14 L566.34,474.46 L558.31,442.53 L556.07,409.27 L559.74,375.68 L569.33,342.72 L584.64,311.37 L605.34,282.56 L630.95,257.13 L660.85,235.87 L694.31,219.41 L730.48,208.30 L768.47,202.91 L807.32,203.47 L846.03,210.04 L883.64,222.53 L919.18,240.68 L951.77,264.09 L980.58,292.21 L1004.89,324.36 L1024.12,359.76 L1037.79,397.52 L1045.61,436.72 L1047.41,476.39 L1043.22,515.53 L1033.19,553.18 L1017.66,588.41 L997.11,620.35 L972.14,648.24 L943.49,671.41 L911.99,689.32 L878.53,701.59 L844.08,707.99 L809.62,708.44 L776.13,703.03 L744.56,692.00 L715.81,675.75 L690.70,654.83 L669.95,629.91 L654.17,601.77 L643.81,571.27 L639.19,539.35 L640.47,506.98 L647.65,475.14 L660.56,444.80 L678.87,416.90 L702.12,392.29 L729.70,371.75 L760.87,355.95 L794.83,345.42 L830.65,340.55 L867.40,341.59 L904.08,348.61 L939.71,361.54 L973.34,380.13 L1004.07,403.97 L1031.08,432.55 L1053.63,465.17 L1071.12,501.08 L1083.08,539.40 L1089.19,579.20 L1089.29,619.51 L1083.37,659.34 L1071.59,697.72 L1054.27,733.72 L1031.88,766.46 L1005.00,795.18 L974.38,819.19 L940.83,837.95 L905.24,851.06 L868.58,858.28 L831.82,859.51 L795.95,854.83 L761.93,844.48 L730.65,828.84 L702.94,808.44 L679.55,783.95 L661.07,756.14 L647.98,725.87 L640.61,694.06 L639.14,661.69 L643.57,629.74 L653.75,599.18 L669.36,570.95 L689.96,545.91 L714.94,524.85 L743.59,508.45 L775.08,497.24 L808.52,491.64 L842.97,491.90 L877.43,498.11 L910.94,510.20 L942.52,527.93 L971.27,550.94 L996.37,578.68 L1017.08,610.51 L1032.77,645.64 L1042.98,683.23 L1047.37,722.34 L1045.76,762.00 L1038.14,801.23 L1024.65,839.06 L1005.59,874.55 L981.43,906.81 L952.76,935.07 L920.28,958.64 L884.82,976.98 L847.26,989.65 L808.57,996.42 L769.71,997.17 L731.68,991.96 L695.43,981.03 L661.88,964.74 L631.85,943.62 L606.09,918.32 L585.22,889.60 L569.73,858.32 L559.96,825.40 L556.09,791.81 L558.15,758.53 L565.99,726.54 L579.32,696.77 L597.70,670.11 L620.53,647.33 L647.11,629.14 L676.62,616.07 L708.18,608.56 L740.84,606.87 L773.63,611.10 L805.55,621.19 L835.65,636.94 L863.01,657.96 L886.80,683.75 L906.29,713.64 L920.83,746.89 L929.94,782.64 L933.28,819.97 L930.65,857.90 L922.03,895.46 L907.55,931.67 L887.51,965.59 L862.35,996.34 L832.64,1023.11 L799.10,1045.24 L762.54,1062.13 L723.83,1073.39 L683.94,1078.72 L643.83,1078.03 L604.50,1071.35 L566.91,1058.90 L531.97,1041.05 L500.53,1018.29 L473.32,991.29 L451.00,960.78 L434.05,927.63 L422.83,892.75 L417.53,857.10 L418.19,821.68 L424.69,787.45 L436.74,755.35 L453.90,726.28 L475.60,701.04 L501.14,680.30 L529.72,664.65 L560.45,654.51 L592.40,650.16 L624.57,651.73 L655.99,659.16 L685.70,672.26 L712.79,690.66 L736.39,713.85 L755.77,741.22 L770.30,771.99 L779.46,805.32 L782.90,840.31 L780.42,875.97 L771.97,911.34 L757.69,945.42 L737.85,977.29 L712.87,1006.04 L683.34,1030.89 L649.95,1051.13 L613.50,1066.18 L574.87,1075.61 L535.01,1079.15 L494.90,1076.65 L455.51,1068.17 L417.82,1053.89 L382.75,1034.17 L351.14,1009.51 L323.75,980.54 L301.23,948.01 L284.08,912.77 L272.67,875.73 L267.21,837.84 L267.75,800.11 L274.17,763.50 L286.21,728.96 L303.43,697.38 L325.27,669.57 L351.05,646.23 L379.97,627.94 L411.15,615.14 L443.65,608.13 L476.49,607.03 L508.69,611.82 L539.29,622.31 L567.36,638.14 L592.05,658.83 L612.60,683.76 L628.38,712.16 L638.86,743.22 L643.67,776.01 L642.60,809.58 L635.60,842.94 L622.78,875.11 L604.39,905.15 L580.87,932.16 L552.77,955.34 L520.78,973.98 L485.70,987.50 L448.39,995.44 L409.80,997.52 L370.90,993.59 L332.69,983.68 L296.13,967.97 L262.13,946.81 L231.57,920.68 L205.20,890.22 L183.67,856.15 L167.51,819.31 L157.09,780.62 L152.64,741.04 L154.21,701.54 L161.70,663.12 L174.86,626.72 L193.28,593.23 L216.39,563.47 L243.51,538.16 L273.87,517.88 L306.59,503.09 L340.72,494.09 L375.29,491.02 L409.33,493.88 L441.86,502.49 L471.96,516.50 L498.76,535.44 L521.51,558.69 L539.54,585.52 L552.33,615.09 L559.50,646.51 L560.82,678.80 L556.22,711.00 L545.80,742.11 L529.82,771.20 L508.67,797.36 L482.91,819.77 L453.22,837.73 L420.38,850.63 L385.26,858.03 L348.80,859.60 L311.97,855.21 L275.76,844.86 L241.13,828.72 L209.02,807.12 L180.28,780.55 L155.69,749.62 L135.91,715.05 L121.47,677.68 L112.76,638.41 L110.01,598.21 L113.29,558.05 L122.53,518.91 L137.46,481.75 L157.69,447.47 L182.68,416.90 L211.75,390.75 L244.12,369.62 L278.93,353.99 L315.24,344.16 L352.07,340.30 L388.45,342.40 L423.40,350.30 L456.00,363.67 L485.37,382.05 L510.74,404.83 L531.45,431.28 L546.96,460.58 L556.87,491.83 L560.94,524.08 L559.10,556.33 L551.42,587.62 L538.14,616.99 L519.67,643.53 L496.54,666.43 L469.41,684.95 L439.06,698.50 L406.36,706.61 L372.23,708.95 L337.65,705.35 L303.61,695.83 L271.07,680.54 L240.96,659.79 L214.16,634.06 L191.44,603.94 L173.48,570.16 L160.80,533.54 L153.83,494.98 L152.79,455.44 L157.78,415.89 L168.72,377.33 L185.37,340.70 L207.35,306.92 L234.12,276.81 L265.03,251.10 L299.28,230.41 L336.03,215.20 L374.35,205.82 L413.25,202.42 L451.77,205.03 L488.92,213.48 L523.76,227.47 L555.44,246.54 L583.16,270.09 L606.24,297.41 L624.15,327.67 L636.46,359.99 L642.94,393.41 L643.48,426.95 L638.15,459.62 L627.19,490.48 L610.96,518.61 L590.01,543.18 L564.99,563.47 L536.66,578.85 L505.88,588.84 L473.58,593.11 L440.73,591.49 L408.31,583.96 L377.30,570.66 L348.62,551.90 L323.16,528.13 L301.70,499.96 L284.92,468.08 L273.37,433.32 L267.46,396.57 L267.45,358.78 L273.45,320.94 L285.38,284.01 L303.02,248.98 L326.00,216.73 L353.78,188.12 L385.73,163.87 L421.08,144.62 L458.95,130.84 L498.44,122.88 L538.58,120.92 L578.37,124.99 L616.84,134.94 L653.06,150.47 L686.13,171.14 L715.29,196.36 L739.82,225.43 L759.19,257.53 L772.96,291.77 L780.88,327.20 L782.83,362.84 L778.87,397.72 L769.22,430.86 L754.24,461.36 L734.46,488.38 L710.51,511.18 L683.16,529.13 L653.26,541.73 L621.73,548.65 L589.54,549.69 L557.66,544.82 L527.08,534.18 L498.74,518.06 L473.50,496.89 L452.18,471.28 L435.45,441.90 L423.88,409.59 L417.89,375.21 L417.76,339.73 L423.58,304.11 L435.33,269.34 L452.77,236.39 L475.55,206.16 L503.16,179.50 L534.94,157.16 L570.16,139.77 L607.94,127.82 L647.38,121.67 L687.50,121.51 L727.33,127.37 L765.88,139.14 L802.22,156.53 L835.45,179.08 L864.78,206.24 L889.51,237.31 L909.07,271.46 L923.04,307.83 L931.13,345.47 L933.22,383.39 L929.36,420.61 L919.75,456.18 L904.75,489.16 L884.86,518.72 L860.71,544.11 L833.07,564.68 L802.77,579.94 L770.74,589.52 L737.92,593.22 L705.32,591.00 L673.90,582.99 L644.61,569.45 L618.34,550.82 L595.88,527.67 L577.93,500.70 L565.07,470.70 L557.73,438.55 L556.20,405.21 L560.59,371.64 L570.88,338.82 L586.86,307.73 L608.19,279.28 L634.35,254.32 L664.72,233.61 L698.55,217.78 L735.00,207.34 L773.15,202.66 L812.03,203.94 L850.66,211.24 L888.07,224.43 L923.30,243.25 L955.47,267.26 L983.77,295.90 L1007.50,328.49 L1026.08,364.22 L1039.05,402.21 L1046.15,441.52 L1047.22,481.17 L1042.31,520.19 L1031.60,557.59 L1015.43,592.47 L994.31,623.96 L968.86,651.30 L939.81,673.86 L908.02,691.11 L874.40,702.68 L839.89,708.36 L805.50,708.10 L772.19,701.98 L740.91,690.30 L712.56,673.46 L687.94,652.02 L667.77,626.66 L652.62,598.19 L642.94,567.47 L639.03,535.44 L641.03,503.08 L648.91,471.37 L662.49,441.28 L681.43,413.73 L705.24,389.57 L733.29,369.57 L764.85,354.38 L799.08,344.52 L835.07,340.36 L871.86,342.12 L908.46,349.87 L943.90,363.49 L977.23,382.74 L1007.55,407.19 L1034.06,436.29 L1056.02,469.36 L1072.87,505.61 L1084.14,544.15 L1089.53,584.07 L1088.89,624.37 L1082.25,664.08 L1069.78,702.22 L1051.82,737.87 L1028.85,770.17 L1001.48,798.34 L970.46,821.74 L936.61,839.84 L900.85,852.25 L864.12,858.74 L827.42,859.25 L791.72,853.87 L757.98,842.86 L727.09,826.61 L699.87,805.68 L677.04,780.75 L659.19,752.59 L646.78,722.08 L640.12,690.15 L639.36,657.78 L644.50,625.95 L655.36,595.62 L671.60,567.73 L692.76,543.14 L718.23,522.61 L747.26,506.81 L779.04,496.26 L812.66,491.36 L847.16,492.33 L881.56,499.26 L914.88,512.05 L946.16,530.45 L974.52,554.06 L999.12,582.33 L1019.25,614.60 L1034.31,650.08 L1043.83,687.90 L1047.50,727.13 L1045.16,766.79 L1036.81,805.90 L1022.63,843.50 L1002.93,878.64 L978.19,910.46 L949.02,938.18 L916.13,961.15 L880.37,978.82 L842.62,990.79 L803.86,996.83 L765.05,996.85 L727.18,990.94 L691.21,979.33 L658.04,962.43 L628.49,940.77 L603.29,915.01 L583.05,885.93 L568.24,854.40 L559.18,821.35 L556.03,787.75 L558.79,754.57 L567.32,722.80 L581.29,693.36 L600.24,667.13 L623.56,644.88 L650.54,627.27 L680.35,614.86 L712.10,608.04 L744.82,607.07 L777.55,612.01 L809.30,622.80 L839.12,639.21 L866.09,660.84 L889.40,687.16 L908.32,717.50 L922.23,751.10 L930.66,787.09 L933.28,824.54 L929.93,862.49 L920.59,899.93 L905.42,935.92 L884.73,969.50 L858.98,999.80 L828.77,1026.05 L794.82,1047.57 L757.95,1063.80 L719.05,1074.35 L679.08,1078.96 L639.01,1077.54 L599.84,1070.15 L562.52,1057.02 L527.96,1038.54 L497.00,1015.24 L470.35,987.77 L448.65,956.90 L432.38,923.48 L421.87,888.46 L417.29,852.79 L418.67,817.45 L425.86,783.43 L438.55,751.66 L456.29,723.01 L478.50,698.27 L504.45,678.13 L533.34,663.12 L564.27,653.67 L596.30,650.04 L628.43,652.32 L659.70,660.45 L689.14,674.21 L715.84,693.22 L738.98,716.96 L757.80,744.77 L771.70,775.90 L780.18,809.49 L782.92,844.60 L779.71,880.28 L770.55,915.55 L755.58,949.41 L735.09,980.95 L709.53,1009.27 L679.50,1033.59 L645.69,1053.23 L608.93,1067.63 L570.10,1076.36 L530.15,1079.17 L490.07,1075.94 L450.84,1066.74 L413.42,1051.78 L378.72,1031.43 L347.59,1006.22 L320.76,976.78 L298.86,943.88 L282.39,908.36 L271.69,871.17 L266.96,833.25 L268.22,795.60 L275.34,759.19 L288.02,724.96 L305.84,693.80 L328.20,666.49 L354.40,643.74 L383.64,626.09 L415.03,613.98 L447.62,607.68 L480.44,607.30 L512.50,612.79 L542.83,623.95 L570.54,640.40 L594.77,661.64 L614.78,687.02 L629.94,715.80 L639.75,747.11 L643.86,780.05 L642.07,813.64 L634.36,846.91 L620.84,878.88 L601.81,908.59 L577.71,935.19 L549.10,957.85 L516.69,975.90 L481.28,988.76 L443.77,996.01 L405.09,997.36 L366.23,992.71 L328.16,982.08 L291.86,965.69 L258.24,943.90 L228.14,917.22 L202.32,886.27 L181.42,851.82 L165.94,814.71 L156.23,775.86 L152.51,736.23 L154.80,696.82 L163.00,658.59 L176.82,622.49 L195.83,589.42 L219.47,560.16 L247.03,535.43 L277.72,515.79 L310.66,501.69 L344.90,493.40 L379.46,491.06 L413.37,494.62 L445.65,503.90 L475.39,518.54 L501.74,538.04 L523.95,561.76 L541.37,588.97 L553.50,618.82 L559.97,650.39 L560.58,682.72 L555.27,714.84 L544.16,745.76 L527.52,774.53 L505.79,800.28 L479.52,822.19 L449.40,839.57 L416.24,851.83 L380.91,858.53 L344.35,859.39 L307.54,854.27 L271.47,843.21 L237.10,826.39 L205.35,804.16 L177.07,777.03 L153.03,745.61 L133.87,710.66 L120.11,673.01 L112.10,633.58 L110.08,593.33 L114.10,553.24 L124.04,514.29 L139.63,477.43 L160.47,443.56 L185.99,413.49 L215.51,387.91 L248.22,367.43 L283.26,352.49 L319.68,343.37 L356.52,340.24 L392.78,343.05 L427.49,351.63 L459.74,365.64 L488.67,384.58 L513.51,407.85 L533.61,434.69 L548.46,464.28 L557.67,495.70 L561.03,528.00 L558.48,560.19 L550.10,591.29 L536.18,620.37 L517.11,646.51 L493.45,668.91 L465.89,686.87 L435.21,699.78 L402.28,707.20 L368.05,708.83 L333.49,704.52 L299.57,694.28 L267.28,678.31 L237.53,656.93 L211.18,630.63 L189.00,600.03 L171.65,565.86 L159.65,528.96 L153.38,490.23 L153.07,450.63 L158.79,411.16 L170.44,372.78 L187.76,336.45 L210.35,303.07 L237.66,273.45 L269.01,248.32 L303.61,228.27 L340.60,213.75 L379.04,205.09 L417.95,202.42 L456.35,205.74 L493.27,214.89 L527.78,229.52 L559.02,249.16 L586.21,273.21 L608.69,300.93 L625.94,331.49 L637.56,364.00 L643.32,397.48 L643.14,430.96 L637.12,463.47 L625.49,494.04 L608.67,521.79 L587.19,545.88 L561.72,565.60 L533.05,580.35 L502.04,589.67 L469.62,593.23 L436.77,590.89 L404.47,582.65 L373.69,568.67 L345.36,549.28 L320.34,524.95 L299.41,496.28 L283.23,464.01 L272.35,428.96 L267.14,392.04 L267.86,354.19 L274.58,316.40 L287.21,279.66 L305.52,244.91 L329.11,213.06 L357.44,184.94 L389.84,161.27 L425.54,142.65 L463.66,129.56 L503.28,122.32 L543.43,121.10 L583.11,125.88 L621.36,136.53 L657.24,152.71 L689.89,173.96 L718.51,199.69 L742.45,229.17 L761.16,261.58 L774.24,296.01 L781.43,331.52 L782.66,367.12 L778.00,401.84 L767.68,434.71 L752.09,464.83 L731.77,491.38 L707.37,513.62 L679.66,530.95 L649.51,542.88 L617.85,549.09 L585.64,549.41 L553.87,543.83 L523.52,532.51 L495.50,515.75 L470.70,494.02 L449.90,467.91 L433.77,438.13 L422.85,405.52 L417.56,370.96 L418.14,335.40 L424.69,299.84 L437.14,265.24 L455.25,232.57 L478.65,202.73 L506.79,176.56 L539.04,154.78 L574.61,138.02 L612.64,126.76 L652.22,121.33 L692.36,121.90 L732.08,128.49 L770.42,140.95 L806.42,158.99 L839.22,182.14 L868.02,209.81 L892.16,241.29 L911.07,275.76 L924.33,312.34 L931.70,350.06 L933.07,387.95 L928.50,425.02 L918.21,460.32 L902.59,492.93 L882.15,522.03 L857.54,546.86 L829.53,566.82 L798.97,581.40 L766.79,590.28 L733.95,593.27 L701.44,590.34 L670.23,581.63 L641.26,567.46 L615.40,548.25 L593.45,524.60 L576.09,497.21 L563.88,466.90 L557.23,434.56 L556.41,401.14 L561.53,367.61 L572.52,334.95 L589.17,304.13 L611.11,276.06 L637.82,251.58 L668.65,231.42 L702.84,216.22 L739.54,206.46 L777.83,202.49 L816.73,204.50 L855.27,212.52 L892.46,226.41 L927.37,245.88 L959.12,270.49 L986.90,299.65 L1010.03,332.66 L1027.95,368.71 L1040.23,406.91 L1046.60,446.32 L1046.94,485.95 L1041.32,524.82 L1029.92,561.96 L1013.13,596.47 L991.45,627.50 L965.52,654.30 L936.10,676.24 L904.03,692.82 L870.25,703.69 L835.71,708.65 L801.39,707.66 L768.28,700.86 L737.31,688.53 L709.37,671.09 L685.25,649.14 L665.66,623.37 L651.15,594.57 L642.16,563.64 L638.96,531.52 L641.67,499.19 L650.26,467.62 L664.51,437.79 L684.07,410.61 L708.42,386.92 L736.94,367.47 L768.87,352.90 L803.36,343.71 L839.50,340.26 L876.31,342.74 L912.83,351.21 L948.07,365.53 L981.08,385.43 L1010.98,410.48 L1036.97,440.10 L1058.34,473.59 L1074.54,510.16 L1085.11,548.93 L1089.77,588.94 L1088.41,629.23 L1081.05,668.80 L1067.89,706.68 L1049.30,741.97 L1025.76,773.81 L997.91,801.44 L966.50,824.22 L932.37,841.65 L896.43,853.35 L859.66,859.12 L823.03,858.91 L787.52,852.83 L754.07,841.16 L723.59,824.31 L696.86,802.86 L674.60,777.50 L657.39,749.01 L645.66,718.28 L639.71,686.24 L639.67,653.88 L645.51,622.18 L657.04,592.10 L673.91,564.57 L695.63,540.42 L721.56,520.43 L750.98,505.24 L783.03,495.36 L816.80,491.16 L851.34,492.86 L885.66,500.50 L918.79,513.98 L949.77,533.04 L977.71,557.24 L1001.81,586.04 L1021.35,618.73 L1035.76,654.54 L1044.59,692.59 L1047.54,731.92 L1044.46,771.57 L1035.40,810.55 L1020.53,847.90 L1000.20,882.68 L974.89,914.04 L945.22,941.23 L911.94,963.58 L875.89,980.57 L837.97,991.84 L799.14,997.15 L760.40,996.45 L722.71,989.83 L687.03,977.56 L654.26,960.05 L625.20,937.86 L600.57,911.65 L580.97,882.23 L566.83,850.47 L558.48,817.30 L556.05,783.69 L559.53,750.63 L568.73,719.10 L583.33,690.00 L602.84,664.21 L626.64,642.49 L654.01,625.49 L684.11,613.73 L716.02,607.61 L748.80,607.35 L781.47,613.01 L813.03,624.50 L842.55,641.56 L869.13,663.79 L891.94,690.63 L910.28,721.41 L923.55,755.35 L931.29,791.56 L933.19,829.13 L929.11,867.06 L919.06,904.38 L903.20,940.12 L881.87,973.35 L855.55,1003.21 L824.85,1028.92 L790.50,1049.82 L753.33,1065.39 L714.25,1075.23 L674.22,1079.11 L634.21,1076.96 L595.21,1068.86 L558.18,1055.06 L524.01,1035.97 L493.53,1012.12 L467.45,984.20 L446.39,952.97 L430.80,919.31 L421.00,884.16 L417.14,848.47 L419.24,813.25 L427.11,779.45 L440.44,748.01 L458.76,719.80 L481.46,695.58 L507.81,676.03 L536.99,661.68 L568.11,652.92 L600.20,650.00 L632.28,652.99 L663.38,661.82 L692.53,676.24 L718.85,695.85 L741.50,720.12 L759.76,748.38 L773.02,779.85 L780.83,813.67 L782.85,848.91 L778.92,884.59 L769.05,919.74 L753.39,953.37 L732.26,984.56 L706.12,1012.44 L675.59,1036.23 L641.38,1055.26 L604.32,1068.99 L565.31,1077.02 L525.29,1079.10 L485.26,1075.14 L446.20,1065.23 L409.06,1049.60 L374.75,1028.63 L344.10,1002.87 L317.83,972.96 L296.57,939.70 L280.78,903.94 L270.80,866.60 L266.79,828.66 L268.77,791.11 L276.58,754.92 L289.92,721.01 L308.31,690.28 L331.18,663.49 L357.79,641.32 L387.34,624.32 L418.93,612.90 L451.60,607.32 L484.38,607.65 L516.28,613.84 L546.34,625.66 L573.67,642.73 L597.43,664.50 L616.88,690.34 L631.42,719.47 L640.55,751.03 L643.96,784.10 L641.45,817.71 L633.03,850.87 L618.83,882.61 L599.16,911.99 L574.47,938.15 L545.36,960.30 L512.55,977.74 L476.84,989.95 L439.13,996.49 L400.38,997.12 L361.56,991.74 L323.66,980.40 L287.63,963.34 L254.39,940.92 L224.78,913.68 L199.52,882.27 L179.25,847.45 L164.45,810.08 L155.46,771.09 L152.46,731.44 L155.48,692.11 L164.38,654.09 L178.86,618.31 L198.46,585.66 L222.61,556.91 L250.60,532.77 L281.61,513.78 L314.75,500.37 L349.08,492.80 L383.62,491.18 L417.38,495.45 L449.40,505.40 L478.78,520.65 L504.66,540.70 L526.33,564.88 L543.13,592.46 L554.59,622.56 L560.36,654.28 L560.25,686.64 L554.23,718.66 L542.43,749.37 L525.15,777.83 L502.84,803.15 L476.06,824.55 L445.53,841.33 L412.06,852.94 L376.53,858.95 L339.89,859.09 L303.12,853.25 L267.20,841.47 L233.10,823.98 L201.73,801.13 L173.93,773.44 L150.44,741.56 L131.91,706.23 L118.82,668.32 L111.54,628.74 L110.25,588.45 L114.99,548.45 L125.63,509.70 L141.89,473.16 L163.32,439.71 L189.37,410.14 L219.31,385.16 L252.35,365.32 L287.61,351.07 L324.14,342.68 L360.95,340.26 L397.08,343.79 L431.54,353.04 L463.43,367.68 L491.90,387.18 L516.20,410.92 L535.70,438.14 L549.88,468.00 L558.40,499.58 L561.04,531.92 L557.77,564.03 L548.71,594.94 L534.13,623.70 L514.48,649.43 L490.31,671.34 L462.33,688.71 L431.33,700.98 L398.19,707.71 L363.87,708.62 L329.33,703.59 L295.56,692.65 L263.53,676.00 L234.14,654.00 L208.26,627.14 L186.64,596.07 L169.91,561.52 L158.58,524.35 L153.02,485.46 L153.44,445.83 L159.88,406.43 L172.24,368.25 L190.22,332.24 L213.41,299.27 L241.25,270.16 L273.04,245.61 L307.98,226.21 L345.20,212.39 L383.74,204.44 L422.64,202.51 L460.92,206.55 L497.59,216.37 L531.75,231.64 L562.54,251.85 L589.19,276.39 L611.07,304.49 L627.65,335.34 L638.57,368.01 L643.61,401.55 L642.72,434.97 L636.00,467.29 L623.72,497.57 L606.30,524.91 L584.30,548.51 L558.40,567.66 L529.40,581.78 L498.17,590.41 L465.65,593.26 L432.81,590.21 L400.64,581.26 L370.11,566.60 L342.14,546.59 L317.58,521.70 L297.19,492.55 L281.63,459.90 L271.41,424.58 L266.91,387.49 L268.35,349.59 L275.79,311.88 L289.13,275.33 L308.11,240.89 L332.30,209.45 L361.16,181.83 L394.00,158.74 L430.04,140.77 L468.40,128.37 L508.13,121.85 L548.27,121.36 L587.83,126.86 L625.85,138.20 L661.38,155.02 L693.58,176.85 L721.67,203.07 L745.00,232.95 L763.05,265.65 L775.42,300.27 L781.90,335.84 L782.41,371.39 L777.05,405.93 L766.07,438.52 L749.87,468.25 L729.02,494.31 L704.17,515.99 L676.12,532.68 L645.74,543.94 L613.96,549.44 L581.76,549.05 L550.11,542.77 L519.98,530.77 L492.31,513.38 L467.96,491.08 L447.69,464.49 L432.16,434.32 L421.91,401.42 L417.32,366.69 L418.62,331.08 L425.89,295.58 L439.04,261.16 L457.81,228.79 L481.81,199.35 L510.49,173.68 L543.18,152.48 L579.10,136.36 L617.37,125.79 L657.06,121.07 L697.21,122.38 L736.81,129.69 L774.91,142.85 L810.57,161.53 L842.93,185.26 L871.21,213.43 L894.73,245.32 L912.98,280.10 L925.54,316.86 L932.19,354.65 L932.83,392.50 L927.55,429.40 L916.60,464.43 L900.36,496.66 L879.38,525.27 L854.31,549.55 L825.95,568.87 L795.14,582.78 L762.83,590.96 L729.98,593.22 L697.57,589.59 L666.59,580.20 L637.95,565.39 L612.52,545.61 L591.10,521.47 L574.33,493.69 L562.77,463.08 L556.82,430.56 L556.71,397.07 L562.55,363.59 L574.24,331.11 L591.55,300.57 L614.10,272.89 L641.34,248.90 L672.62,229.31 L707.17,214.74 L744.11,205.67 L782.52,202.42 L821.43,205.16 L859.86,213.90 L896.83,228.48 L931.40,248.60 L962.70,273.79 L989.96,303.45 L1012.49,336.88 L1029.74,373.24 L1041.32,411.63 L1046.96,451.12 L1046.58,490.71 L1040.24,529.42 L1028.17,566.30 L1010.75,600.43 L988.52,630.98 L962.13,657.22 L932.34,678.54 L900.02,694.44 L866.09,704.60 L831.53,708.84 L797.30,707.14 L764.40,699.66 L733.75,686.68 L706.23,668.67 L682.63,646.21 L663.62,620.03 L649.76,590.92 L641.46,559.80 L638.97,527.60 L642.40,495.31 L651.69,463.90 L666.60,434.34 L686.77,407.54 L711.66,384.32 L740.64,365.44 L772.92,351.49 L807.66,342.98 L843.93,340.24 L880.77,343.45 L917.18,352.63 L952.20,367.65 L984.88,388.20 L1014.35,413.83 L1039.81,443.96 L1060.59,477.87 L1076.12,514.76 L1085.99,553.72 L1089.93,593.82 L1087.83,634.07 L1079.76,673.49 L1065.93,711.11 L1046.70,746.02 L1022.60,777.39 L994.28,804.47 L962.50,826.63 L928.10,843.38 L892.01,854.37 L855.20,859.42 L818.65,858.48 L783.34,851.71 L750.21,839.39 L720.14,821.95 L693.92,799.99 L672.24,774.20 L655.67,745.39 L644.63,714.45 L639.39,682.33 L640.07,649.99 L646.61,618.44 L658.81,588.62 L676.29,561.45 L698.56,537.77 L724.95,518.33 L754.73,503.75 L787.04,494.54 L820.96,491.05 L855.53,493.46 L889.75,501.82 L922.67,516.00 L953.33,535.70 L980.85,560.49 L1004.43,589.80 L1023.38,622.92 L1037.13,659.05 L1045.26,697.30 L1047.48,736.72 L1043.68,776.34 L1033.91,815.18 L1018.35,852.26 L997.39,886.67 L971.51,917.57 L941.37,944.20 L907.71,965.93 L871.38,982.25 L833.30,992.80 L794.43,997.38 L755.76,995.96 L718.27,988.64 L682.90,975.71 L650.53,957.60 L621.97,934.88 L597.92,908.25 L578.96,878.50 L565.51,846.51 L557.87,813.23 L556.16,779.64 L560.34,746.72 L570.22,715.43 L585.44,686.69 L605.50,661.35 L629.78,640.17 L657.52,623.78 L687.89,612.69 L719.96,607.27 L752.78,607.72 L785.36,614.09 L816.73,626.27 L845.94,643.98 L872.10,666.80 L894.41,694.16 L912.16,725.37 L924.79,759.62 L931.83,796.06 L933.02,833.72 L928.21,871.63 L917.44,908.81 L900.90,944.30 L878.94,977.16 L852.06,1006.55 L820.87,1031.71 L786.14,1052.00 L748.69,1066.89 L709.44,1076.02 L669.35,1079.17 L629.42,1076.29 L590.61,1067.48 L553.88,1053.02 L520.11,1033.32 L490.13,1008.95 L464.63,980.58 L444.20,949.01 L429.30,915.12 L420.21,879.85 L417.08,844.17 L419.89,809.06 L428.44,775.50 L442.40,744.41 L461.28,716.64 L484.46,692.96 L511.21,674.01 L540.67,660.31 L571.96,652.25 L604.10,650.05 L636.11,653.75 L667.03,663.27 L695.88,678.34 L721.80,698.55 L743.95,723.34 L761.64,752.03 L774.26,783.84 L781.38,817.88 L782.69,853.22 L778.04,888.89 L767.45,923.91 L751.11,957.29 L729.35,988.13 L702.65,1015.55 L671.63,1038.80 L637.03,1057.21 L599.69,1070.27 L560.50,1077.59 L520.43,1078.94 L480.47,1074.26 L441.59,1063.64 L404.74,1047.33 L370.83,1025.76 L340.67,999.45 L314.99,969.10 L294.36,935.49 L279.26,899.48 L270.00,862.02 L266.72,824.08 L269.41,786.64 L277.91,750.67 L291.88,717.11 L310.86,686.81 L334.21,660.55 L361.23,638.98 L391.08,622.64 L422.84,611.91 L455.58,607.04 L488.30,608.09 L520.03,614.98 L549.81,627.46 L576.75,645.12 L600.02,667.43 L618.91,693.71 L632.82,723.18 L641.27,754.97 L643.97,788.16 L640.75,821.76 L631.61,854.80 L616.73,886.31 L596.43,915.35 L571.17,941.06 L541.57,962.67 L508.36,979.51 L472.36,991.05 L434.48,996.89 L395.67,996.79 L356.91,990.68 L319.18,978.63 L283.44,960.90 L250.60,937.87 L221.48,910.09 L196.80,878.23 L177.16,843.05 L163.05,805.43 L154.78,766.31 L152.51,726.64 L156.25,687.42 L165.84,649.62 L180.97,614.18 L201.15,581.96 L225.81,553.74 L254.20,530.19 L285.52,511.86 L318.86,499.14 L353.27,492.29 L387.76,491.38 L421.36,496.36 L453.11,506.97 L482.11,522.83 L507.52,543.42 L528.63,568.06 L544.81,595.98 L555.60,626.33 L560.66,658.18 L559.83,690.55 L553.10,722.47 L540.63,752.95 L522.71,781.07 L499.82,805.96 L472.55,826.84 L441.62,843.02 L407.85,853.97 L372.14,859.28 L335.43,858.70 L298.71,852.13 L262.96,839.65 L229.14,821.49 L198.16,798.03 L170.84,769.80 L147.93,737.45 L130.03,701.77 L117.63,663.60 L111.06,623.88 L110.50,583.57 L115.97,543.67 L127.30,505.15 L144.22,468.93 L166.24,435.91 L192.80,406.86 L223.16,382.47 L256.52,363.29 L291.98,349.74 L328.60,342.06 L365.38,340.38 L401.35,344.61 L435.55,354.54 L467.07,369.79 L495.08,389.84 L518.83,414.05 L537.70,441.63 L551.22,471.75 L559.03,503.47 L560.96,535.83 L556.98,567.85 L547.23,598.55 L532.01,626.99 L511.78,652.30 L487.11,673.69 L458.72,690.47 L427.41,702.09 L394.08,708.13 L359.68,708.33 L325.18,702.58 L291.57,690.93 L259.81,673.62 L230.81,651.00 L205.41,623.60 L184.34,592.06 L168.24,557.15 L157.60,519.72 L152.75,480.69 L153.90,441.03 L161.07,401.73 L174.12,363.76 L192.76,328.07 L216.55,295.53 L244.90,266.94 L277.11,242.98 L312.38,224.23 L349.81,211.11 L388.45,203.89 L427.33,202.68 L465.46,207.43 L501.88,217.94 L535.67,233.83 L565.99,254.60 L592.10,279.61 L613.36,308.10 L629.28,339.22 L639.50,372.04 L643.82,405.62 L642.22,438.96 L634.81,471.08 L621.88,501.05 L603.87,527.98 L581.36,551.08 L555.04,569.65 L525.72,583.12 L494.28,591.07 L461.67,593.21 L428.87,589.43 L396.84,579.78 L366.57,564.46 L338.97,543.82 L314.87,518.38 L295.04,488.78 L280.10,455.75 L270.55,420.16 L266.77,382.93 L268.93,345.00 L277.10,307.38 L291.14,271.03 L310.77,236.90 L335.56,205.89 L364.94,178.78 L398.21,156.28 L434.58,138.96 L473.15,127.27 L512.99,121.47 L553.11,121.71 L592.53,127.93 L630.29,139.95 L665.47,157.41 L697.21,179.80 L724.76,206.51 L747.48,236.78 L764.85,269.76 L776.52,304.54 L782.28,340.16 L782.07,375.64 L776.01,410.00 L764.37,442.28 L747.59,471.61 L726.21,497.18 L700.93,518.28 L672.56,534.34 L641.95,544.91 L610.07,549.71 L577.88,548.60 L546.36,541.61 L516.49,528.94 L489.18,510.93 L465.27,488.08 L445.55,461.01 L430.63,430.47 L421.04,397.30 L417.16,362.41 L419.18,326.76 L427.17,291.34 L441.01,257.12 L460.45,225.05 L485.04,196.03 L514.25,170.86 L547.37,150.25 L583.62,134.78 L622.11,124.90 L661.91,120.91 L702.05,122.94 L741.52,130.98 L779.37,144.82 L814.68,164.14 L846.58,188.44 L874.32,217.11 L897.23,249.39 L914.81,284.46 L926.66,321.40 L932.58,359.25 L932.50,397.03 L926.52,433.76 L914.91,468.49 L898.06,500.33 L876.55,528.45 L851.04,552.16 L822.33,570.85 L791.30,584.08 L758.87,591.55 L726.02,593.10 L693.73,588.75 L662.98,578.69 L634.68,563.25 L609.71,542.91 L588.81,518.29 L572.65,490.12 L561.75,459.23 L556.49,426.54 L557.10,393.00 L563.65,359.59 L576.04,327.29 L594.01,297.06 L617.16,269.78 L644.93,246.28 L676.65,227.27 L711.53,213.34 L748.70,204.96 L787.22,202.43 L826.13,205.90 L864.43,215.35 L901.15,230.63 L935.38,251.39 L966.23,277.15 L992.95,307.31 L1014.86,341.14 L1031.45,377.79 L1042.32,416.37 L1047.24,455.92 L1046.13,495.46 L1039.08,534.00 L1026.34,570.59 L1008.31,604.33 L985.53,634.40 L958.69,660.08 L928.55,680.76 L895.98,695.98 L861.92,705.43 L827.35,708.95 L793.23,706.54 L760.56,698.37 L730.24,684.76 L703.16,666.17 L680.07,643.23 L661.66,616.64 L648.45,587.25 L640.84,555.94 L639.07,523.68 L643.22,491.44 L653.20,460.21 L668.77,430.94 L689.54,404.53 L714.97,381.80 L744.38,363.47 L777.01,350.16 L811.99,342.34 L848.38,340.31 L885.21,344.24 L921.51,354.14 L956.29,369.85 L988.63,391.04 L1017.65,417.25 L1042.59,447.87 L1062.76,482.19 L1077.62,519.38 L1086.78,558.53 L1090.00,598.70 L1087.17,638.90 L1078.39,678.15 L1063.88,715.49 L1044.03,750.02 L1019.39,780.91 L990.61,807.42 L958.46,828.95 L923.80,845.02 L887.58,855.30 L850.75,859.62 L814.30,857.97 L779.20,850.51 L746.39,837.54 L716.75,819.52 L691.04,797.06 L669.96,770.86 L654.04,741.74 L643.69,710.61 L639.16,678.41 L640.55,646.12 L647.79,614.72 L660.65,585.17 L678.74,558.38 L701.54,535.18 L728.39,516.30 L758.52,502.35 L791.08,493.81 L825.13,491.03 L859.71,494.16 L893.83,503.23 L926.52,518.09 L956.84,538.44 L983.92,563.81 L1006.98,593.62 L1025.33,627.15 L1038.42,663.58 L1045.85,702.02 L1047.35,741.52 L1042.82,781.10 L1032.33,819.77 L1016.10,856.58 L994.51,890.61 L968.08,921.03 L937.47,947.10 L903.44,968.20 L866.85,983.84 L828.62,993.67 L789.73,997.53 L751.15,995.38 L713.86,987.37 L678.80,973.79 L646.86,955.09 L618.81,931.85 L595.35,904.80 L577.03,874.73 L564.27,842.53 L557.35,809.17 L556.35,775.60 L561.24,742.83 L571.78,711.80 L587.62,683.43 L608.23,658.55 L632.97,637.92 L661.08,622.14 L691.70,611.73 L723.91,607.01 L756.75,608.18 L789.24,615.26 L820.40,628.13 L849.28,646.48 L875.02,669.88 L896.81,697.74 L913.97,729.36 L925.94,763.94 L932.29,800.57 L932.76,838.31 L927.22,876.19 L915.74,913.21 L898.53,948.43 L875.94,980.92 L848.50,1009.84 L816.84,1034.44 L781.73,1054.09 L744.02,1068.31 L704.61,1076.72 L664.50,1079.14 L624.64,1075.53 L586.04,1066.03 L549.62,1050.91 L516.27,1030.61 L486.79,1005.71 L461.88,976.91 L442.10,945.02 L427.89,910.91 L419.52,875.53 L417.11,839.87 L420.62,804.90 L429.85,771.59 L444.43,740.86 L463.87,713.54 L487.53,690.40 L514.64,672.06 L544.38,659.03 L575.82,651.67 L608.00,650.18 L639.93,654.60 L670.64,664.81 L699.19,680.53 L724.69,701.32 L746.34,726.62 L763.44,755.73 L775.43,787.85 L781.85,822.10 L782.44,857.54 L777.07,893.18 L765.78,928.05 L748.76,961.18 L726.37,991.64 L699.11,1018.60 L667.62,1041.30 L632.64,1059.09 L595.02,1071.47 L555.68,1078.07 L515.57,1078.69 L475.69,1073.29 L437.00,1061.96 L400.47,1044.99 L366.97,1022.81 L337.32,995.98 L312.21,965.19 L292.23,931.24 L277.83,895.01 L269.28,857.44 L266.73,819.50 L270.13,782.19 L279.32,746.47 L293.92,713.25 L313.46,683.40 L337.30,657.68 L364.71,636.71 L394.83,621.04 L426.77,611.01 L459.56,606.85 L492.21,608.62 L523.75,616.20 L553.24,629.33 L579.78,647.58 L602.55,670.41 L620.87,697.12 L634.14,726.92 L641.91,758.93 L643.90,792.22 L639.95,825.81 L630.11,858.71 L614.55,889.97 L593.62,918.65 L567.81,943.91 L537.73,964.97 L504.14,981.20 L467.86,992.06 L429.81,997.19 L390.95,996.37 L352.27,989.53 L314.73,976.78 L279.30,958.39 L246.86,934.75 L218.24,906.44 L194.14,874.13 L175.15,838.61 L161.73,800.76 L154.18,761.52 L152.65,721.85 L157.11,682.76 L167.39,645.19 L183.15,610.09 L203.91,578.32 L229.06,550.63 L257.85,527.68 L289.47,510.01 L322.98,498.00 L357.45,491.86 L391.89,491.68 L425.32,497.35 L456.78,508.62 L485.39,525.08 L510.32,546.20 L530.86,571.28 L546.41,599.54 L556.52,630.12 L560.88,662.09 L559.33,694.46 L551.89,726.25 L538.74,756.50 L520.20,784.27 L496.74,808.72 L468.99,829.06 L437.67,844.64 L403.62,854.92 L367.73,859.53 L330.97,858.22 L294.31,850.94 L258.75,837.75 L225.22,818.92 L194.64,794.85 L167.82,766.09 L145.48,733.30 L128.23,697.26 L116.52,658.86 L110.67,619.01 L110.84,578.71 L117.03,538.92 L129.06,500.62 L146.62,464.75 L169.23,432.17 L196.28,403.65 L227.05,379.87 L260.72,361.35 L296.37,348.49 L333.06,341.54 L369.79,340.58 L405.60,345.51 L439.53,356.11 L470.67,371.97 L498.19,392.57 L521.38,417.22 L539.63,445.16 L552.47,475.52 L559.58,507.37 L560.79,539.75 L556.10,571.65 L545.67,602.13 L529.82,630.24 L509.02,655.11 L483.86,675.98 L455.07,692.16 L423.47,703.13 L389.96,708.47 L355.49,707.95 L321.05,701.48 L287.61,689.13 L256.14,671.15 L227.53,647.93 L202.61,619.99 L182.12,588.00 L166.65,552.74 L156.70,515.06 L152.57,475.91 L154.45,436.24 L162.34,397.05 L176.08,359.31 L195.37,323.95 L219.75,291.84 L248.61,263.78 L281.24,240.43 L316.81,222.34 L354.44,209.92 L393.16,203.42 L432.00,202.94 L469.97,208.40 L506.12,219.58 L539.54,236.10 L569.39,257.42 L594.94,282.89 L615.58,311.74 L630.82,343.12 L640.34,376.09 L643.94,409.68 L641.62,442.93 L633.53,474.84 L619.96,504.49 L601.38,530.99 L578.37,553.58 L551.64,571.56 L522.01,584.38 L490.38,591.64 L457.70,593.07 L424.93,588.58 L393.07,578.22 L363.07,562.24 L335.85,540.99 L312.23,515.01 L292.96,484.95 L278.65,451.57 L269.79,415.73 L266.71,378.35 L269.60,340.41 L278.49,302.89 L293.22,266.77 L313.50,232.97 L338.88,202.38 L368.77,175.80 L402.46,153.90 L439.14,137.24 L477.92,126.25 L517.85,121.18 L557.94,122.14 L597.21,129.08 L634.70,141.78 L669.51,159.86 L700.78,182.82 L727.77,210.00 L749.87,240.64 L766.57,273.89 L777.54,308.82 L782.57,344.48 L781.64,379.88 L774.89,414.03 L762.61,446.01 L745.23,474.92 L723.34,499.99 L697.65,520.51 L668.95,535.92 L638.15,545.81 L606.17,549.89 L574.01,548.06 L542.64,540.38 L513.03,527.04 L486.09,508.41 L462.65,485.01 L443.47,457.48 L429.18,426.58 L420.27,393.15 L417.08,358.12 L419.83,322.45 L428.54,287.12 L443.07,253.11 L463.16,221.36 L488.34,192.77 L518.06,168.11 L551.61,148.09 L588.17,133.28 L626.88,124.10 L666.77,120.83 L706.88,123.60 L746.21,132.35 L783.80,146.88 L818.74,166.83 L850.17,191.69 L877.36,220.84 L899.65,253.50 L916.55,288.84 L927.70,325.95 L932.89,363.84 L932.09,401.55 L925.41,438.09 L913.14,472.51 L895.70,503.94 L873.66,531.57 L847.72,554.70 L818.68,572.75 L787.43,585.30 L754.89,592.05 L722.06,592.88 L689.91,587.83 L659.41,577.10 L631.47,561.04 L606.95,540.14 L586.59,515.05 L571.04,486.51 L560.81,455.35 L556.25,422.51 L557.58,388.93 L564.84,355.60 L577.92,323.50 L596.54,293.58 L620.28,266.72 L648.57,243.73 L680.71,225.30 L715.92,212.03 L753.31,204.34 L791.93,202.53 L830.81,206.72 L868.98,216.90 L905.45,232.86 L939.30,254.25 L969.70,280.58 L995.86,311.23 L1017.16,345.44 L1033.08,382.38 L1043.23,421.13 L1047.42,460.73 L1045.58,500.19 L1037.83,538.55 L1024.43,574.84 L1005.79,608.18 L982.49,637.75 L955.20,662.85 L924.72,682.90 L891.92,697.44 L857.75,706.18 L823.18,708.97 L789.19,705.85 L756.74,697.00 L726.78,682.76 L700.14,663.62 L677.59,640.19 L659.78,613.22 L647.23,583.54 L640.32,552.07 L639.26,519.76 L644.12,487.59 L654.79,456.55 L671.02,427.57 L692.38,401.56 L718.33,379.33 L748.18,361.59 L781.14,348.92 L816.33,341.78 L852.83,340.47 L889.65,345.13 L925.82,355.74 L960.35,372.13 L992.33,393.95 L1020.90,420.73 L1045.29,451.84 L1064.85,486.55 L1079.04,524.03 L1087.49,563.36 L1089.98,603.58 L1086.42,643.72 L1076.93,682.79 L1061.75,719.84 L1041.30,753.97 L1016.11,784.36 L986.88,810.30 L954.38,831.19 L919.48,846.57 L883.13,856.14 L846.30,859.74 L809.96,857.37 L775.09,849.22 L742.62,835.62 L713.41,817.03 L688.23,794.07 L667.75,767.47 L652.48,738.06 L642.83,706.75 L639.01,674.48 L641.12,642.25 L649.06,611.03 L662.57,581.77 L681.26,555.37 L704.59,532.65 L731.88,514.34 L762.35,501.02 L795.14,493.17 L829.30,491.09 L863.88,494.94 L897.88,504.73 L930.33,520.27 L960.30,541.25 L986.94,567.19 L1009.46,597.49 L1027.20,631.42 L1039.63,668.14 L1046.35,706.76 L1047.12,746.33 L1041.86,785.85 L1030.66,824.35 L1013.76,860.86 L991.56,894.50 L964.59,924.43 L933.52,949.93 L899.13,970.39 L862.29,985.34 L823.93,994.46 L785.02,997.59 L746.55,994.72 L709.48,986.01 L674.76,971.79 L643.24,952.50 L615.71,928.77 L592.85,901.30 L575.18,870.93 L563.12,838.54 L556.91,805.10 L556.63,771.58 L562.22,738.96 L573.43,708.21 L589.87,680.22 L611.02,655.82 L636.21,635.74 L664.66,620.59 L695.53,610.85 L727.87,606.83 L760.72,608.72 L793.10,616.51 L824.03,630.06 L852.58,649.06 L877.88,673.03 L899.15,701.39 L915.71,733.41 L927.02,768.28 L932.67,805.09 L932.41,842.90 L926.15,880.73 L913.96,917.59 L896.07,952.52 L872.87,984.62 L844.88,1013.06 L812.76,1037.09 L777.29,1056.11 L739.32,1069.64 L699.78,1077.33 L659.64,1079.02 L619.89,1074.69 L581.50,1064.49 L545.40,1048.72 L512.48,1027.83 L483.52,1002.42 L459.20,973.20 L440.08,940.99 L426.56,906.68 L418.91,871.22 L417.22,835.58 L421.44,800.77 L431.34,767.72 L446.54,737.36 L466.52,710.51 L490.64,687.91 L518.12,670.20 L548.11,657.84 L579.69,651.18 L611.89,650.40 L643.73,655.53 L674.23,666.42 L702.46,682.78 L727.53,704.15 L748.66,729.95 L765.18,759.47 L776.51,791.90 L782.24,826.35 L782.11,861.86 L776.02,897.46 L764.02,932.17 L746.33,965.02 L723.32,995.11 L695.51,1021.59 L663.56,1043.72 L628.21,1060.88 L590.34,1072.58 L550.85,1078.47 L510.71,1078.36 L470.92,1072.23 L432.45,1060.20 L396.24,1042.58 L363.16,1019.80 L334.02,992.45 L309.51,961.24 L290.19,926.96 L276.48,890.52 L268.65,852.85 L266.82,814.94 L270.94,777.77 L280.80,742.30 L296.04,709.45 L316.13,680.06 L340.45,654.87 L368.23,634.53 L398.62,619.52 L430.71,610.19 L463.54,606.75 L496.11,609.23 L527.45,617.50 L556.62,631.27 L582.75,650.12 L605.02,673.45 L622.75,700.58 L635.38,730.69 L642.46,762.91 L643.74,796.29 L639.08,829.84 L628.53,862.60 L612.30,893.59 L590.75,921.91 L564.38,946.69 L533.84,967.20 L499.88,982.80 L463.33,992.99 L425.14,997.41 L386.24,995.86 L347.65,988.30 L310.32,974.85 L275.20,955.79 L243.18,931.56 L215.07,902.73 L191.56,869.99 L173.23,834.14 L160.50,796.07 L153.68,756.72 L152.87,717.07 L158.05,678.11 L169.01,640.80 L185.41,606.06 L206.74,574.73 L232.36,547.59 L261.55,525.26 L293.44,508.25 L327.12,496.94 L361.64,491.52 L396.01,492.05 L429.25,498.42 L460.41,510.34 L488.62,527.40 L513.05,549.03 L533.02,574.54 L547.93,603.14 L557.36,633.94 L561.01,666.00 L558.74,698.35 L550.60,730.01 L536.77,760.01 L517.61,787.42 L493.60,811.41 L465.38,831.21 L433.68,846.17 L399.35,855.79 L363.31,859.69 L326.51,857.66 L289.93,849.65 L254.57,835.77 L221.35,816.28 L191.18,791.61 L164.87,762.32 L143.12,729.09 L126.51,692.73 L115.50,654.10 L110.37,614.14 L111.27,573.85 L118.18,534.19 L130.90,496.14 L149.10,460.62 L172.28,428.49 L199.82,400.51 L230.99,377.34 L264.94,359.49 L300.77,347.33 L337.52,341.11 L374.20,340.86 L409.83,346.50 L443.46,357.76 L474.20,374.23 L501.24,395.35 L523.86,420.44 L541.48,448.72 L553.64,479.31 L560.04,511.28 L560.53,543.65 L555.14,575.44 L544.03,605.67 L527.56,633.44 L506.19,657.87 L480.55,678.20 L451.38,693.78 L419.50,704.08 L385.82,708.72 L351.31,707.48 L316.93,700.30 L283.68,687.25 L252.51,668.61 L224.30,644.78 L199.88,616.32 L179.97,583.89 L165.15,548.29 L155.88,510.38 L152.48,471.11 L155.09,431.45 L163.70,392.39 L178.13,354.88 L198.06,319.87 L223.01,288.22 L252.37,260.69 L285.40,237.95 L321.27,220.53 L359.08,208.82 L397.87,203.04 L436.66,203.29 L474.46,209.46 L510.33,221.31 L543.36,238.43 L572.72,260.29 L597.71,286.22 L617.72,315.42 L632.29,347.04 L641.09,380.14 L643.97,413.74 L640.95,446.88 L632.17,478.56 L617.97,507.88 L598.82,533.95 L575.31,556.01 L548.19,573.39 L518.28,585.56 L486.47,592.12 L453.72,592.84 L421.01,587.63 L389.32,576.58 L359.62,559.94 L332.79,538.09 L309.66,511.57 L290.95,481.07 L277.28,447.34 L269.10,411.27 L266.74,373.78 L270.36,335.83 L279.96,298.43 L295.39,262.53 L316.31,229.08 L342.27,198.94 L372.66,172.89 L406.76,151.60 L443.74,135.61 L482.71,125.32 L522.71,120.97 L562.75,122.67 L601.86,130.32 L639.07,143.69 L673.49,162.39 L704.28,185.90 L730.72,213.54 L752.19,244.54 L768.21,278.04 L778.46,313.12 L782.77,348.80 L781.13,384.09 L773.69,418.03 L760.77,449.68 L742.81,478.17 L720.42,502.72 L694.32,522.65 L665.32,537.42 L634.32,546.61 L602.27,549.99 L570.15,547.44 L538.95,539.06 L509.61,525.06 L483.05,505.82 L460.09,481.89 L441.47,453.91 L427.81,422.65 L419.57,388.98 L417.10,353.82 L420.57,318.13 L429.99,282.91 L445.22,249.13 L465.94,217.72 L491.71,189.56 L521.93,165.43 L555.89,146.01 L592.76,131.86 L631.66,123.39 L671.63,120.85 L711.69,124.34 L750.87,133.80 L788.18,149.01 L822.74,169.59 L853.70,195.01 L880.32,224.62 L901.99,257.65 L918.21,293.26 L928.65,330.51 L933.11,368.43 L931.59,406.05 L924.22,442.38 L911.29,476.49 L893.26,507.50 L870.71,534.62 L844.36,557.16 L815.00,574.57 L783.54,586.43 L750.92,592.47 L718.11,592.58 L686.11,586.83 L655.87,575.43 L628.31,558.76 L604.25,537.32 L584.44,511.76 L569.51,482.86 L559.95,451.45 L556.10,418.46 L558.14,384.86 L566.12,351.63 L579.89,319.75 L599.15,290.15 L623.47,263.72 L652.27,241.24 L684.83,223.41 L720.35,210.79 L757.93,203.80 L796.64,202.71 L835.49,207.64 L873.50,218.53 L909.70,235.16 L943.18,257.18 L973.10,284.07 L998.71,315.19 L1019.38,349.78 L1034.62,386.99 L1044.06,425.89 L1047.52,465.53 L1044.96,504.91 L1036.50,543.07 L1022.44,579.05 L1003.21,611.97 L979.38,641.04 L951.67,665.56 L920.86,684.96 L887.84,698.81 L853.57,706.83 L819.01,708.91 L785.16,705.08 L752.97,695.56 L723.36,680.69 L697.18,660.99 L675.17,637.10 L657.97,609.76 L646.09,579.81 L639.87,548.19 L639.53,515.84 L645.10,483.76 L656.47,452.91 L673.34,424.25 L695.29,398.66 L721.75,376.93 L752.01,359.77 L785.29,347.75 L820.70,341.30 L857.29,340.71 L894.08,346.10 L930.10,357.42 L964.37,374.49 L995.99,396.94 L1024.09,424.28 L1047.93,455.87 L1066.86,490.96 L1080.37,528.71 L1088.11,568.20 L1089.87,608.46 L1085.59,648.52 L1075.39,687.40 L1059.55,724.14 L1038.49,757.86 L1012.78,787.75 L983.10,813.11 L950.27,833.35 L915.15,848.04 L878.68,856.89 L841.85,859.76 L805.64,856.69 L771.02,847.86 L738.90,833.62 L710.14,814.47 L685.49,791.03 L665.61,764.05 L651.01,734.36 L642.05,702.88 L638.95,670.56 L641.77,638.40 L650.40,607.36 L664.57,578.40 L683.85,552.41 L707.70,530.19 L735.41,512.45 L766.21,499.77 L799.22,492.60 L833.48,491.24 L868.04,495.81 L901.90,506.31 L934.10,522.53 L963.72,544.14 L989.90,570.64 L1011.87,601.42 L1029.00,635.73 L1040.75,672.73 L1046.76,711.52 L1046.80,751.13 L1040.82,790.58 L1028.91,828.89 L1011.35,865.10 L988.53,898.33 L961.03,927.76 L929.52,952.68 L894.79,972.50 L857.71,986.76 L819.23,995.16 L780.32,997.56 L741.97,993.97 L705.14,984.58 L670.76,969.71 L639.68,949.86 L612.69,925.63 L590.43,897.77 L573.42,867.10 L562.06,834.53 L556.56,801.03 L557.00,767.56 L563.28,735.12 L575.15,704.66 L592.19,677.06 L613.86,653.15 L639.49,633.63 L668.29,619.12 L699.38,610.05 L731.84,606.75 L764.68,609.35 L796.94,617.85 L827.63,632.08 L855.83,651.70 L880.68,676.24 L901.41,705.08 L917.36,737.49 L928.01,772.64 L932.95,809.63 L931.97,847.50 L924.99,885.26 L912.09,921.94 L893.54,956.57 L869.72,988.27 L841.20,1016.21 L808.63,1039.67 L772.81,1058.05 L734.60,1070.88 L694.94,1077.86 L654.79,1078.82 L615.15,1073.77 L576.99,1062.87 L541.23,1046.45 L508.75,1024.98 L480.32,999.07 L456.60,969.45 L438.14,936.93 L425.32,902.43 L418.39,866.89 L417.42,831.31 L422.34,796.66 L432.90,763.89 L448.71,733.91 L469.24,707.54 L493.80,685.50 L521.63,668.41 L551.87,656.72 L583.58,650.77 L615.78,650.71 L647.51,656.55 L677.78,668.12 L705.67,685.11 L730.31,707.05 L750.92,733.34 L766.83,763.26 L777.50,795.98 L782.54,830.61 L781.69,866.18 L774.88,901.73 L762.17,936.26 L743.82,968.82 L720.20,998.52 L691.86,1024.51 L659.45,1046.07 L623.75,1062.60 L585.63,1073.61 L546.01,1078.78 L505.86,1077.94 L466.18,1071.08 L427.93,1058.36 L392.05,1040.09 L359.41,1016.72 L330.80,988.87 L306.89,957.24 L288.22,922.65 L275.21,886.00 L268.11,848.26 L267.01,810.38 L271.84,773.37 L282.37,738.17 L298.22,705.69 L318.86,676.77 L343.64,652.14 L371.78,632.42 L402.43,618.08 L434.66,609.46 L467.51,606.74 L499.98,609.93 L531.11,618.88 L559.96,633.29 L585.66,652.71 L607.42,676.54 L624.56,704.08 L636.54,734.50 L642.93,766.90 L643.49,800.36 L638.11,833.87 L626.86,866.46 L609.97,897.18 L587.80,925.11 L560.90,949.41 L529.90,969.36 L495.57,984.33 L458.78,993.84 L420.45,997.55 L381.54,995.27 L343.04,986.98 L305.93,972.84 L271.14,953.13 L239.56,928.31 L211.97,898.96 L189.06,865.80 L171.38,829.63 L159.36,791.36 L153.26,751.92 L153.18,712.30 L159.07,673.49 L170.71,636.44 L187.74,602.07 L209.62,571.21 L235.72,544.62 L265.28,522.91 L297.44,506.57 L331.27,495.97 L365.83,491.27 L400.11,492.52 L433.15,499.57 L464.00,512.14 L491.79,529.79 L515.72,551.93 L535.10,577.86 L549.37,606.76 L558.11,637.77 L561.05,669.92 L558.07,702.24 L549.23,733.75 L534.73,763.48 L514.95,790.52 L490.40,814.04 L461.71,833.29 L429.65,847.63 L395.06,856.57 L358.88,859.76 L322.05,857.01 L285.57,848.28 L250.41,833.70 L217.52,813.56 L187.78,788.30 L161.98,758.49 L140.82,724.84 L124.87,688.15 L114.56,649.31 L110.16,609.27 L111.79,568.99 L119.41,529.48 L132.82,491.69 L151.65,456.54 L175.39,424.87 L203.42,397.44 L234.97,374.88 L269.20,357.71 L305.19,346.26 L341.98,340.76 L378.58,341.23 L414.02,347.57 L447.35,359.48 L477.69,376.55 L504.23,398.19 L526.27,423.71 L543.25,452.32 L554.73,483.13 L560.41,515.19 L560.19,547.55 L554.09,579.20 L542.32,609.18 L525.22,636.58 L503.30,660.56 L477.20,680.35 L447.65,695.31 L415.50,704.95 L381.67,708.89 L347.12,706.93 L312.83,699.03 L279.78,685.29 L248.92,666.00 L221.13,641.57 L197.22,612.59 L177.89,579.73 L163.72,543.81 L155.15,505.69 L152.47,466.32 L155.81,426.68 L165.14,387.75 L180.26,350.50 L200.83,315.85 L226.34,284.65 L256.19,257.67 L289.61,235.55 L325.76,218.80 L363.74,207.80 L402.58,202.75 L441.30,203.72 L478.92,210.60 L514.49,223.11 L547.12,240.84 L575.99,263.23 L600.41,289.59 L619.78,319.14 L633.66,350.98 L641.75,384.19 L643.92,417.80 L640.19,450.81 L630.73,482.25 L615.91,511.22 L596.19,536.85 L572.21,558.37 L544.70,575.15 L514.51,586.66 L482.53,592.52 L449.74,592.53 L417.10,586.60 L385.61,574.86 L356.20,557.56 L329.78,535.11 L307.15,508.08 L289.02,477.14 L275.99,443.09 L268.50,406.79 L266.86,369.19 L271.21,331.26 L281.52,293.99 L297.63,258.34 L319.19,225.24 L345.72,195.56 L376.60,170.05 L411.10,149.37 L448.37,134.05 L487.51,124.47 L527.57,120.86 L567.55,123.28 L606.48,131.64 L643.40,145.68 L677.43,164.99 L707.73,189.04 L733.59,217.13 L754.42,248.48 L769.76,282.22 L779.30,317.42 L782.89,353.11 L780.54,388.29 L772.41,422.00 L758.85,453.32 L740.32,481.37 L717.45,505.39 L690.95,524.72 L661.66,538.83 L630.48,547.33 L598.37,549.99 L566.31,546.74 L535.28,537.66 L506.23,523.00 L480.06,503.17 L457.60,478.70 L439.55,450.29 L426.51,418.69 L418.96,384.79 L417.20,349.51 L421.39,313.83 L431.53,278.73 L447.44,245.19 L468.80,214.12 L495.14,186.41 L525.86,162.82 L560.21,144.01 L597.38,130.53 L636.46,122.76 L676.49,120.95 L716.50,125.17 L755.50,135.34 L792.53,151.22 L826.69,172.42 L857.17,198.38 L883.22,228.45 L904.25,261.84 L919.79,297.70 L929.51,335.08 L933.25,373.02 L931.00,410.53 L922.94,446.65 L909.37,480.42 L890.76,511.00 L867.71,537.60 L840.95,559.55 L811.29,576.31 L779.64,587.47 L746.94,592.79 L714.18,592.20 L682.34,585.75 L652.38,573.69 L625.19,556.40 L601.61,534.43 L582.36,508.43 L568.06,479.17 L559.17,447.53 L556.03,414.41 L558.80,380.80 L567.48,347.69 L581.93,316.03 L601.84,286.77 L626.73,260.77 L656.02,238.83 L688.98,221.60 L724.80,209.64 L762.57,203.35 L801.35,202.99 L840.15,208.64 L877.99,220.24 L913.91,237.55 L947.01,260.19 L976.44,287.63 L1001.49,319.21 L1021.52,354.16 L1036.07,391.62 L1044.80,430.67 L1047.53,470.33 L1044.24,509.61 L1035.09,547.55 L1020.38,583.21 L1000.56,615.71 L976.22,644.26 L948.09,668.19 L916.96,686.93 L883.74,700.09 L849.38,707.40 L814.86,708.76 L781.16,704.23 L749.23,694.04 L719.99,678.56 L694.28,658.31 L672.82,633.96 L656.24,606.25 L645.03,576.06 L639.52,544.29 L639.89,511.92 L646.18,479.94 L658.22,449.31 L675.73,420.98 L698.26,395.81 L725.22,374.60 L755.90,358.04 L789.48,346.67 L825.08,340.92 L861.75,341.04 L898.50,347.15 L934.36,359.19 L968.36,376.93 L999.59,400.00 L1027.21,427.89 L1050.49,459.94 L1068.79,495.40 L1081.62,533.41 L1088.65,573.05 L1089.67,613.34 L1084.66,653.31 L1073.77,691.97 L1057.27,728.40 L1035.61,761.69 L1009.38,791.07 L979.28,815.84 L946.12,835.43 L910.79,849.43 L874.23,857.56 L837.42,859.71 L801.35,855.92 L766.98,846.42 L735.22,831.55 L706.92,811.85 L682.82,787.94 L663.56,760.58 L649.62,730.63 L641.36,698.99 L638.98,666.64 L642.51,634.57 L651.83,603.73 L666.64,575.09 L686.51,549.51 L710.86,527.79 L738.99,510.63 L770.11,498.60 L803.31,492.12 L837.67,491.47 L872.19,496.77 L905.91,507.97 L937.84,524.86 L967.09,547.09 L992.79,574.15 L1014.22,605.40 L1030.72,640.08 L1041.79,677.35 L1047.09,716.29 L1046.40,755.93 L1039.69,795.29 L1027.08,833.40 L1008.86,869.30 L985.44,902.11 L957.42,931.03 L925.47,955.36 L890.41,974.53 L853.11,988.09 L814.53,995.77 L775.63,997.44 L737.41,993.14 L700.83,983.06 L666.81,967.56 L636.19,947.14 L609.73,922.44 L588.08,894.19 L571.74,863.24 L561.08,830.51 L556.30,796.96 L557.45,763.57 L564.43,731.32 L576.94,701.15 L594.58,673.96 L616.77,650.54 L642.82,631.60 L671.95,617.72 L703.25,609.34 L735.81,606.75 L768.64,610.07 L800.75,619.27 L831.19,634.18 L859.03,654.42 L883.42,679.51 L903.61,708.83 L918.94,741.62 L928.91,777.04 L933.15,814.19 L931.44,852.09 L923.74,889.77 L910.14,926.25 L890.93,960.58 L866.51,991.87 L837.46,1019.30 L804.46,1042.17 L768.30,1059.90 L729.86,1072.04 L690.09,1078.30 L649.95,1078.53 L610.44,1072.75 L572.52,1061.17 L537.11,1044.11 L505.08,1022.07 L477.19,995.67 L454.08,965.65 L436.28,932.84 L424.16,898.17 L417.95,862.57 L417.71,827.05 L423.32,792.57 L434.55,760.09 L450.96,730.51 L472.01,704.63 L497.01,683.16 L525.18,666.70 L555.65,655.69 L587.47,650.45 L619.67,651.11 L651.27,657.65 L681.30,669.90 L708.84,687.51 L733.03,710.01 L753.11,736.78 L768.41,767.09 L778.42,800.09 L782.75,834.88 L781.19,870.50 L773.65,905.98 L760.25,940.32 L741.23,972.59 L717.01,1001.87 L688.14,1027.37 L655.29,1048.35 L619.25,1064.23 L580.89,1074.55 L541.16,1079.00 L501.02,1077.43 L461.46,1069.85 L423.44,1056.44 L387.91,1037.52 L355.72,1013.58 L327.64,985.23 L304.34,953.19 L286.34,918.31 L274.04,881.48 L267.66,843.66 L267.28,805.84 L272.81,768.99 L284.01,734.08 L300.47,701.99 L321.65,673.55 L346.88,649.49 L375.37,630.39 L406.27,616.73 L438.62,608.82 L471.48,606.81 L503.84,610.71 L534.74,620.34 L563.26,635.39 L588.52,655.37 L609.75,679.69 L626.30,707.62 L637.61,738.33 L643.31,770.92 L643.15,804.43 L637.06,837.88 L625.11,870.30 L607.56,900.72 L584.79,928.26 L557.35,952.07 L525.91,971.45 L491.24,985.78 L454.21,994.60 L415.75,997.59 L376.84,994.58 L338.46,985.58 L301.58,970.74 L267.14,950.39 L236.00,924.98 L208.94,895.14 L186.63,861.56 L169.62,825.10 L158.30,786.63 L152.93,747.12 L153.58,707.55 L160.18,668.90 L172.50,632.12 L190.14,598.13 L212.57,567.76 L239.13,541.72 L269.05,520.64 L301.46,504.98 L335.44,495.08 L370.01,491.11 L404.19,493.07 L437.01,500.81 L467.54,514.02 L494.90,532.24 L518.32,554.88 L537.11,581.21 L550.73,610.42 L558.78,641.62 L561.00,673.84 L557.31,706.11 L547.77,737.46 L532.61,766.91 L512.22,793.57 L487.13,816.61 L457.99,835.29 L425.58,849.00 L390.75,857.27 L354.44,859.75 L317.60,856.27 L281.23,846.82 L246.30,831.55 L213.74,810.77 L184.43,784.92 L159.16,754.61 L138.61,720.55 L123.32,683.55 L113.71,644.51 L110.04,604.39 L112.40,564.15 L120.73,524.80 L134.82,487.28 L154.27,452.50 L178.57,421.31 L207.06,394.44 L238.98,372.51 L273.48,356.01 L309.62,345.28 L346.44,340.50 L382.95,341.69 L418.18,348.72 L451.20,361.28 L481.11,378.93 L507.14,401.08 L528.61,427.02 L544.94,455.95 L555.73,486.96 L560.70,519.11 L559.76,551.43 L552.96,582.93 L540.52,612.65 L522.82,639.68 L500.35,663.19 L473.79,682.43 L443.88,696.77 L411.48,705.73 L377.51,708.97 L342.94,706.29 L308.75,697.67 L275.92,683.24 L245.38,663.30 L218.02,638.30 L194.63,608.81 L175.90,575.54 L162.38,539.29 L154.51,500.97 L152.56,461.52 L156.62,421.91 L166.66,383.13 L182.47,346.15 L203.66,311.88 L229.74,281.15 L260.06,254.73 L293.85,233.23 L330.28,217.16 L368.42,206.87 L407.30,202.55 L445.93,204.24 L483.35,211.82 L518.61,224.99 L550.83,243.31 L579.20,266.22 L603.03,293.01 L621.76,322.88 L634.95,354.95 L642.33,388.26 L643.78,421.84 L639.34,454.71 L629.22,485.91 L613.77,514.51 L593.50,539.68 L569.05,560.67 L541.18,576.83 L510.72,587.67 L478.59,592.84 L445.76,592.12 L413.21,585.49 L381.92,573.06 L352.83,555.11 L326.82,532.08 L304.70,504.53 L287.16,473.17 L274.78,438.80 L267.99,402.29 L267.07,364.60 L272.14,326.70 L283.17,289.57 L299.96,254.18 L322.15,221.45 L349.24,192.23 L380.60,167.28 L415.48,147.22 L453.02,132.58 L492.33,123.71 L532.43,120.83 L572.34,123.98 L611.07,133.04 L647.69,147.74 L681.31,167.66 L711.11,192.23 L736.39,220.76 L756.58,252.45 L771.23,286.42 L780.05,321.73 L782.92,357.41 L779.85,392.47 L771.05,425.94 L756.86,456.90 L737.77,484.50 L714.42,507.99 L687.54,526.72 L657.97,540.16 L626.63,547.97 L594.47,549.91 L562.48,545.94 L531.64,536.17 L502.90,520.86 L477.13,500.44 L455.16,475.46 L437.69,446.62 L425.30,414.69 L418.43,380.57 L417.39,345.19 L422.31,309.53 L433.15,274.57 L449.74,241.28 L471.74,210.58 L498.64,183.32 L529.83,160.28 L564.57,142.09 L602.02,129.28 L641.27,122.22 L681.35,121.14 L721.29,126.09 L760.10,136.97 L796.83,153.52 L830.59,175.32 L860.57,201.81 L886.04,232.33 L906.43,266.07 L921.28,302.16 L930.28,339.66 L933.29,377.60 L930.33,415.00 L921.58,450.87 L907.38,484.31 L888.20,514.45 L864.66,540.52 L837.50,561.86 L807.55,577.96 L775.72,588.43 L742.96,593.04 L710.26,591.72 L678.60,584.58 L648.92,571.86 L622.13,553.98 L599.04,531.48 L580.36,505.05 L566.69,475.45 L558.48,443.58 L556.05,410.35 L559.53,376.75 L568.93,343.76 L584.06,312.34 L604.59,283.43 L630.06,257.89 L659.83,236.48 L693.18,219.86 L729.29,208.57 L767.23,202.99 L806.06,203.35 L844.80,209.73 L882.46,222.04 L918.08,240.01 L950.78,263.26 L979.72,291.24 L1004.19,323.27 L1023.58,358.58 L1037.44,396.28 L1045.45,435.45 L1047.45,475.12 L1043.44,514.29 L1033.60,552.01 L1018.24,587.33 L997.84,619.39 L973.01,647.41 L944.46,670.74 L913.03,688.83 L879.63,701.29 L845.20,707.88 L810.72,708.52 L777.18,703.29" fill="none" stroke="#1a1a2e" stroke-width="0.6" stroke-linecap="round" stroke-linejoin="round" opacity="0.8" />
</svg>