<svg xmlns="http://www.w3.org/2000/svg" width="1200" height="1200" viewBox="0 0 1200 1200">
  <rect width="1200" height="1200" fill="#f0f0ec" />
  <path d="M950.00,600.00 L949.91,592.50 L949.64,585.01 L949.19,577.52 L948.56,570.05 L947.75,562.60 L946.77,555.17 L945.60,547.77 L944.26,540.40 L942.75,533.07 L941.05,525.78 L939.19,518.54 L937.15,511.35 L934.95,504.22 L932.57,497.14 L930.03,490.13 L927.32,483.19 L924.44,476.32 L921.41,469.53 L918.22,462.82 L914.87,456.20 L911.36,449.66 L907.71,443.22 L903.90,436.88 L899.95,430.64 L895.85,424.50 L891.62,418.47 L887.25,412.55 L882.74,406.75 L878.10,401.07 L873.33,395.51 L868.44,390.07 L863.43,384.77 L858.30,379.59 L853.05,374.55 L847.70,369.64 L842.24,364.88 L836.68,360.26 L831.02,355.78 L825.27,351.45 L819.42,347.27 L813.49,343.23 L807.48,339.36 L801.39,335.64 L795.22,332.07 L788.99,328.66 L782.70,325.41 L776.34,322.33 L769.92,319.40 L763.46,316.64 L756.95,314.05 L750.39,311.62 L743.80,309.35 L737.18,307.25 L730.52,305.32 L723.84,303.56 L717.14,301.96 L710.43,300.54 L703.71,299.28 L696.97,298.18 L690.24,297.26 L683.51,296.50 L676.79,295.91 L670.08,295.48 L663.38,295.21 L656.71,295.12 L650.06,295.18 L643.43,295.40 L636.85,295.79 L630.30,296.33 L623.79,297.03 L617.32,297.89 L610.91,298.90 L604.55,300.06 L598.25,301.38 L592.01,302.84 L585.83,304.44 L579.73,306.19 L573.70,308.08 L567.74,310.11 L561.86,312.27 L556.07,314.57 L550.36,317.00 L544.74,319.55 L539.22,322.23 L533.79,325.03 L528.46,327.95 L523.24,330.99 L518.11,334.13 L513.10,337.39 L508.19,340.75 L503.40,344.21 L498.72,347.77 L494.15,351.42 L489.71,355.17 L485.39,359.00 L481.19,362.92 L477.11,366.91 L473.16,370.98 L469.34,375.12 L465.65,379.33 L462.09,383.61 L458.66,387.94 L455.36,392.33 L452.19,396.77 L449.16,401.26 L446.27,405.80 L443.51,410.37 L440.89,414.98 L438.40,419.62 L436.05,424.29 L433.84,428.98 L431.77,433.69 L429.83,438.42 L428.02,443.16 L426.36,447.90 L424.83,452.65 L423.43,457.40 L422.17,462.15 L421.04,466.88 L420.05,471.61 L419.18,476.32 L418.45,481.01 L417.84,485.67 L417.36,490.31 L417.01,494.92 L416.78,499.49 L416.68,504.03 L416.69,508.52 L416.82,512.97 L417.07,517.37 L417.44,521.72 L417.92,526.02 L418.50,530.26 L419.20,534.44 L420.00,538.56 L420.90,542.61 L421.91,546.59 L423.01,550.50 L424.20,554.33 L425.49,558.09 L426.87,561.78 L428.33,565.38 L429.88,568.89 L431.50,572.32 L433.20,575.67 L434.98,578.92 L436.82,582.09 L438.73,585.16 L440.71,588.13 L442.75,591.01 L444.84,593.80 L446.98,596.49 L449.18,599.07 L451.42,601.56 L453.71,603.94 L456.03,606.23 L458.39,608.41 L460.78,610.49 L463.20,612.46 L465.65,614.33 L468.11,616.10 L470.60,617.76 L473.10,619.32 L475.60,620.77 L478.12,622.12 L480.64,623.37 L483.16,624.51 L485.68,625.56 L488.19,626.50 L490.69,627.34 L493.17,628.07 L495.64,628.72 L498.09,629.26 L500.51,629.70 L502.91,630.06 L505.28,630.31 L507.61,630.48 L509.91,630.55 L512.17,630.54 L514.39,630.44 L516.56,630.25 L518.69,629.98 L520.76,629.63 L522.78,629.20 L524.75,628.70 L526.65,628.12 L528.50,627.47 L530.28,626.75 L532.00,625.96 L533.65,625.11 L535.23,624.19 L536.74,623.22 L538.17,622.19 L539.53,621.11 L540.82,619.98 L542.02,618.81 L543.15,617.59 L544.19,616.32 L545.15,615.02 L546.03,613.69 L546.82,612.32 L547.52,610.93 L548.14,609.51 L548.67,608.07 L549.11,606.61 L549.47,605.14 L549.73,603.65 L549.91,602.16 L549.99,600.66 L549.99,599.16 L549.89,597.66 L549.71,596.17 L549.43,594.68 L549.07,593.21 L548.61,591.76 L548.07,590.32 L547.44,588.90 L546.73,587.51 L545.93,586.15 L545.04,584.82 L544.07,583.52 L543.02,582.26 L541.88,581.05 L540.67,579.88 L539.37,578.75 L538.00,577.68 L536.56,576.66 L535.04,575.69 L533.45,574.79 L531.80,573.94 L530.07,573.16 L528.28,572.45 L526.43,571.81 L524.51,571.24 L522.54,570.74 L520.51,570.32 L518.43,569.98 L516.30,569.72 L514.12,569.54 L511.90,569.45 L509.64,569.45 L507.33,569.54 L504.99,569.71 L502.62,569.98 L500.22,570.34 L497.79,570.80 L495.34,571.36 L492.87,572.01 L490.38,572.76 L487.88,573.61 L485.37,574.56 L482.86,575.62 L480.34,576.78 L477.82,578.03 L475.30,579.40 L472.79,580.86 L470.30,582.43 L467.81,584.11 L465.35,585.89 L462.91,587.77 L460.49,589.76 L458.10,591.85 L455.75,594.04 L453.43,596.34 L451.15,598.74 L448.91,601.24 L446.72,603.83 L444.58,606.53 L442.50,609.33 L440.47,612.22 L438.50,615.21 L436.60,618.29 L434.76,621.47 L432.99,624.73 L431.30,628.09 L429.68,631.53 L428.15,635.06 L426.70,638.67 L425.33,642.36 L424.05,646.13 L422.87,649.97 L421.78,653.89 L420.79,657.88 L419.90,661.94 L419.11,666.06 L418.43,670.25 L417.85,674.50 L417.39,678.80 L417.04,683.16 L416.80,687.57 L416.68,692.02 L416.68,696.52 L416.80,701.06 L417.05,705.64 L417.41,710.25 L417.91,714.89 L418.53,719.56 L419.28,724.25 L420.16,728.96 L421.17,733.69 L422.32,738.43 L423.59,743.17 L425.01,747.92 L426.55,752.67 L428.24,757.42 L430.05,762.15 L432.01,766.88 L434.10,771.59 L436.33,776.28 L438.70,780.94 L441.20,785.58 L443.84,790.19 L446.61,794.75 L449.52,799.28 L452.57,803.77 L455.75,808.20 L459.06,812.59 L462.51,816.91 L466.09,821.18 L469.80,825.38 L473.63,829.52 L477.60,833.58 L481.69,837.56 L485.90,841.47 L490.24,845.29 L494.70,849.02 L499.28,852.67 L503.97,856.21 L508.78,859.66 L513.70,863.01 L518.73,866.25 L523.86,869.39 L529.10,872.41 L534.44,875.31 L539.88,878.10 L545.42,880.76 L551.05,883.30 L556.77,885.71 L562.57,888.00 L568.46,890.14 L574.42,892.16 L580.46,894.03 L586.58,895.76 L592.76,897.35 L599.01,898.79 L605.32,900.09 L611.68,901.23 L618.10,902.22 L624.57,903.06 L631.09,903.74 L637.64,904.27 L644.23,904.63 L650.86,904.84 L657.51,904.88 L664.19,904.76 L670.89,904.48 L677.60,904.03 L684.33,903.42 L691.06,902.64 L697.79,901.69 L704.52,900.58 L711.24,899.30 L717.96,897.85 L724.65,896.23 L731.33,894.45 L737.98,892.50 L744.60,890.38 L751.19,888.10 L757.74,885.65 L764.24,883.03 L770.70,880.25 L777.11,877.31 L783.46,874.20 L789.75,870.93 L795.97,867.51 L802.13,863.92 L808.21,860.18 L814.21,856.29 L820.13,852.24 L825.97,848.04 L831.71,843.69 L837.36,839.19 L842.91,834.55 L848.35,829.77 L853.69,824.85 L858.92,819.79 L864.04,814.60 L869.04,809.28 L873.91,803.83 L878.67,798.25 L883.29,792.55 L887.78,786.74 L892.14,780.81 L896.36,774.76 L900.44,768.61 L904.37,762.36 L908.16,756.00 L911.80,749.55 L915.28,743.00 L918.61,736.37 L921.79,729.65 L924.80,722.85 L927.65,715.97 L930.34,709.02 L932.87,702.00 L935.22,694.92 L937.41,687.78 L939.42,680.58 L941.27,673.34 L942.94,666.04 L944.43,658.71 L945.75,651.34 L946.90,643.93 L947.86,636.50 L948.65,629.05 L949.25,621.57 L949.68,614.09 L949.93,606.59 L950.00,599.09 L949.89,591.59 L949.60,584.10 L949.12,576.62 L948.47,569.15 L947.64,561.70 L946.64,554.27 L945.45,546.88 L944.09,539.51 L942.55,532.19 L940.84,524.91 L938.95,517.67 L936.90,510.49 L934.67,503.36 L932.27,496.29 L929.71,489.29 L926.98,482.36 L924.09,475.50 L921.03,468.72 L917.82,462.02 L914.45,455.40 L910.93,448.88 L907.25,442.45 L903.43,436.12 L899.46,429.89 L895.35,423.76 L891.10,417.75 L886.71,411.85 L882.18,406.06 L877.53,400.39 L872.75,394.84 L867.84,389.42 L862.81,384.13 L857.67,378.97 L852.41,373.95 L847.05,369.06 L841.57,364.31 L836.00,359.71 L830.33,355.25 L824.56,350.93 L818.71,346.77 L812.77,342.76 L806.75,338.90 L800.65,335.20 L794.47,331.65 L788.23,328.26 L781.93,325.03 L775.56,321.97 L769.15,319.06 L762.67,316.32 L756.16,313.75 L749.60,311.33 L743.00,309.09 L736.37,307.01 L729.72,305.10 L723.03,303.36 L716.33,301.78 L709.62,300.38 L702.89,299.14 L696.16,298.06 L689.43,297.16 L682.70,296.42 L675.98,295.84 L669.27,295.44 L662.57,295.19 L655.90,295.11 L649.25,295.20 L642.64,295.44 L636.05,295.85 L629.51,296.41 L623.00,297.13 L616.55,298.00 L610.14,299.03 L603.79,300.21 L597.49,301.54 L591.26,303.02 L585.09,304.65 L578.99,306.41 L572.97,308.32 L567.02,310.36 L561.16,312.54 L555.37,314.86 L549.68,317.30 L544.07,319.87 L538.56,322.56 L533.14,325.38 L527.83,328.31 L522.61,331.36 L517.50,334.52 L512.50,337.79 L507.60,341.16 L502.82,344.64 L498.16,348.21 L493.61,351.87 L489.18,355.63 L484.87,359.47 L480.69,363.39 L476.63,367.40 L472.69,371.48 L468.89,375.63 L465.21,379.85 L461.66,384.13 L458.25,388.47 L454.97,392.87 L451.82,397.31 L448.81,401.81 L445.93,406.35 L443.19,410.93 L440.58,415.54 L438.11,420.18 L435.78,424.86 L433.58,429.55 L431.52,434.26 L429.60,438.99 L427.82,443.73 L426.17,448.48 L424.65,453.23 L423.27,457.98 L422.03,462.72 L420.91,467.46 L419.93,472.18 L419.09,476.89 L418.37,481.57 L417.78,486.23 L417.31,490.87 L416.98,495.47 L416.76,500.04 L416.67,504.57 L416.70,509.06 L416.85,513.51 L417.11,517.90 L417.49,522.25 L417.98,526.54 L418.58,530.77 L419.29,534.94 L420.10,539.05 L421.02,543.09 L422.04,547.07 L423.15,550.97 L424.36,554.79 L425.65,558.54 L427.04,562.22 L428.51,565.81 L430.07,569.31 L431.70,572.73 L433.41,576.07 L435.20,579.31 L437.05,582.46 L438.97,585.52 L440.95,588.49 L443.00,591.36 L445.10,594.13 L447.25,596.80 L449.45,599.38 L451.70,601.85 L453.99,604.23 L456.31,606.50 L458.68,608.67 L461.07,610.73 L463.50,612.69 L465.94,614.55 L468.41,616.31 L470.90,617.95 L473.40,619.50 L475.91,620.94 L478.43,622.28 L480.95,623.51 L483.47,624.65 L485.98,625.68 L488.49,626.60 L490.99,627.43 L493.47,628.16 L495.94,628.79 L498.38,629.32 L500.81,629.75 L503.20,630.09 L505.56,630.34 L507.89,630.49 L510.19,630.56 L512.44,630.53 L514.65,630.42 L516.82,630.22 L518.94,629.95 L521.01,629.59 L523.02,629.15 L524.98,628.63 L526.88,628.04 L528.72,627.38 L530.49,626.65 L532.20,625.86 L533.84,625.00 L535.42,624.08 L536.92,623.10 L538.34,622.07 L539.69,620.98 L540.97,619.84 L542.16,618.66 L543.28,617.43 L544.31,616.17 L545.26,614.86 L546.13,613.52 L546.91,612.16 L547.60,610.76 L548.21,609.34 L548.73,607.89 L549.16,606.43 L549.50,604.96 L549.76,603.47 L549.92,601.98 L550.00,600.48 L549.98,598.98 L549.87,597.48 L549.68,595.99 L549.39,594.51 L549.02,593.04 L548.55,591.58 L548.00,590.15 L547.36,588.73 L546.63,587.34 L545.82,585.99 L544.93,584.66 L543.95,583.37 L542.88,582.12 L541.74,580.90 L540.51,579.74 L539.21,578.62 L537.83,577.55 L536.38,576.54 L534.85,575.58 L533.26,574.68 L531.59,573.84 L529.86,573.07 L528.06,572.37 L526.20,571.73 L524.28,571.17 L522.30,570.68 L520.26,570.27 L518.18,569.94 L516.04,569.69 L513.86,569.53 L511.63,569.45 L509.36,569.46 L507.05,569.55 L504.71,569.74 L502.33,570.02 L499.93,570.39 L497.50,570.86 L495.04,571.43 L492.57,572.09 L490.08,572.86 L487.58,573.72 L485.07,574.69 L482.55,575.75 L480.03,576.92 L477.51,578.19 L475.00,579.57 L472.49,581.05 L469.99,582.63 L467.51,584.32 L465.05,586.11 L462.61,588.01 L460.20,590.01 L457.82,592.11 L455.46,594.31 L453.15,596.62 L450.87,599.03 L448.64,601.54 L446.46,604.16 L444.33,606.87 L442.25,609.67 L440.23,612.58 L438.27,615.58 L436.37,618.67 L434.54,621.86 L432.78,625.13 L431.10,628.50 L429.49,631.95 L427.97,635.49 L426.53,639.11 L425.17,642.81 L423.91,646.59 L422.73,650.44 L421.66,654.37 L420.68,658.37 L419.80,662.43 L419.02,666.57 L418.35,670.76 L417.79,675.01 L417.34,679.32 L417.00,683.69 L416.78,688.10 L416.68,692.56 L416.69,697.07 L416.82,701.61 L417.08,706.19 L417.47,710.81 L417.98,715.46 L418.61,720.13 L419.38,724.82 L420.27,729.53 L421.30,734.26 L422.46,739.00 L423.76,743.75 L425.19,748.50 L426.75,753.24 L428.45,757.99 L430.28,762.73 L432.26,767.45 L434.36,772.16 L436.61,776.84 L438.99,781.51 L441.51,786.14 L444.17,790.74 L446.96,795.30 L449.89,799.83 L452.95,804.31 L456.14,808.74 L459.47,813.11 L462.94,817.43 L466.53,821.69 L470.25,825.89 L474.11,830.01 L478.09,834.06 L482.19,838.04 L486.42,841.93 L490.78,845.75 L495.25,849.47 L499.84,853.10 L504.55,856.64 L509.37,860.07 L514.30,863.41 L519.34,866.64 L524.49,869.76 L529.74,872.76 L535.10,875.66 L540.55,878.43 L546.10,881.08 L551.73,883.60 L557.46,886.00 L563.28,888.26 L569.17,890.39 L575.15,892.39 L581.20,894.25 L587.32,895.96 L593.51,897.53 L599.77,898.96 L606.08,900.23 L612.46,901.36 L618.88,902.33 L625.36,903.15 L631.88,903.81 L638.44,904.32 L645.03,904.67 L651.66,904.85 L658.32,904.88 L665.00,904.74 L671.70,904.43 L678.41,903.97 L685.14,903.33 L691.87,902.53 L698.60,901.57 L705.33,900.43 L712.06,899.13 L718.77,897.66 L725.46,896.03 L732.13,894.22 L738.78,892.25 L745.40,890.11 L751.98,887.81 L758.53,885.34 L765.03,882.70 L771.48,879.90 L777.88,876.94 L784.22,873.81 L790.51,870.53 L796.72,867.08 L802.87,863.48 L808.94,859.72 L814.93,855.80 L820.84,851.74 L826.67,847.52 L832.40,843.15 L838.03,838.64 L843.57,833.98 L849.01,829.18 L854.33,824.24 L859.55,819.17 L864.65,813.96 L869.63,808.62 L874.50,803.16 L879.23,797.57 L883.84,791.86 L888.32,786.03 L892.66,780.08 L896.86,774.03 L900.92,767.86 L904.84,761.59 L908.61,755.23 L912.23,748.76 L915.69,742.21 L919.00,735.56 L922.16,728.83 L925.15,722.02 L927.99,715.13 L930.66,708.18 L933.16,701.15 L935.50,694.06 L937.66,686.91 L939.66,679.71 L941.48,672.46 L943.13,665.16 L944.60,657.82 L945.90,650.44 L947.02,643.04 L947.97,635.60 L948.73,628.14 L949.32,620.67 L949.72,613.18 L949.95,605.68 L949.99,598.19 L949.86,590.69 L949.55,583.19 L949.05,575.71 L948.38,568.25 L947.53,560.80 L946.50,553.38 L945.29,545.98 L943.91,538.63 L942.35,531.30 L940.62,524.03 L938.71,516.80 L936.63,509.62 L934.39,502.50 L931.97,495.44 L929.39,488.45 L926.64,481.52 L923.72,474.67 L920.65,467.90 L917.42,461.21 L914.03,454.61 L910.49,448.10 L906.80,441.68 L902.96,435.36 L898.97,429.14 L894.84,423.03 L890.57,417.03 L886.17,411.14 L881.63,405.37 L876.96,399.71 L872.16,394.18 L867.24,388.78 L862.20,383.50 L857.04,378.36 L851.77,373.35 L846.39,368.48 L840.90,363.75 L835.32,359.16 L829.64,354.72 L823.86,350.42 L817.99,346.28 L812.04,342.28 L806.01,338.44 L799.90,334.76 L793.72,331.23 L787.47,327.86 L781.16,324.65 L774.79,321.61 L768.37,318.72 L761.89,316.00 L755.37,313.44 L748.80,311.05 L742.20,308.83 L735.57,306.77 L728.91,304.88 L722.22,303.16 L715.52,301.60 L708.80,300.22 L702.08,299.00 L695.35,297.94 L688.61,297.06 L681.88,296.34 L675.16,295.79 L668.46,295.40 L661.76,295.18 L655.09,295.12 L648.45,295.22 L641.84,295.48 L635.26,295.91 L628.72,296.49 L622.22,297.23 L615.77,298.12 L609.37,299.17 L603.02,300.37 L596.73,301.72 L590.51,303.21 L584.35,304.85 L578.26,306.63 L572.25,308.56 L566.31,310.62 L560.45,312.82 L554.68,315.15 L548.99,317.60 L543.40,320.19 L537.90,322.90 L532.49,325.73 L527.19,328.68 L521.99,331.74 L516.89,334.91 L511.90,338.19 L507.02,341.58 L502.25,345.06 L497.60,348.65 L493.07,352.32 L488.65,356.09 L484.36,359.94 L480.19,363.87 L476.15,367.89 L472.23,371.98 L468.44,376.14 L464.77,380.36 L461.24,384.65 L457.85,389.00 L454.58,393.40 L451.45,397.86 L448.45,402.36 L445.59,406.90 L442.86,411.48 L440.27,416.10 L437.82,420.75 L435.51,425.42 L433.33,430.12 L431.28,434.84 L429.38,439.57 L427.61,444.31 L425.98,449.05 L424.48,453.80 L423.11,458.55 L421.89,463.29 L420.79,468.03 L419.82,472.75 L418.99,477.45 L418.29,482.14 L417.71,486.80 L417.27,491.43 L416.94,496.03 L416.74,500.59 L416.67,505.12 L416.71,509.60 L416.87,514.04 L417.15,518.43 L417.54,522.77 L418.05,527.05 L418.66,531.28 L419.38,535.44 L420.21,539.54 L421.14,543.58 L422.16,547.54 L423.29,551.43 L424.51,555.25 L425.82,558.99 L427.21,562.65 L428.70,566.23 L430.26,569.73 L431.91,573.14 L433.63,576.46 L435.42,579.70 L437.28,582.84 L439.21,585.89 L441.20,588.84 L443.25,591.70 L445.35,594.46 L447.51,597.12 L449.72,599.68 L451.97,602.15 L454.26,604.51 L456.60,606.77 L458.97,608.92 L461.36,610.97 L463.79,612.92 L466.24,614.77 L468.71,616.51 L471.20,618.15 L473.70,619.68 L476.21,621.11 L478.73,622.43 L481.25,623.66 L483.77,624.78 L486.28,625.79 L488.79,626.71 L491.29,627.52 L493.77,628.24 L496.23,628.86 L498.68,629.38 L501.10,629.80 L503.49,630.13 L505.85,630.36 L508.17,630.51 L510.46,630.56 L512.71,630.52 L514.92,630.40 L517.08,630.19 L519.19,629.91 L521.25,629.54 L523.26,629.09 L525.21,628.57 L527.11,627.97 L528.94,627.30 L530.70,626.56 L532.40,625.76 L534.04,624.89 L535.60,623.96 L537.09,622.98 L538.51,621.94 L539.85,620.85 L541.12,619.70 L542.30,618.51 L543.41,617.28 L544.43,616.01 L545.37,614.70 L546.23,613.36 L547.00,611.99 L547.68,610.59 L548.28,609.16 L548.79,607.72 L549.21,606.25 L549.54,604.78 L549.78,603.29 L549.94,601.80 L550.00,600.30 L549.97,598.80 L549.85,597.30 L549.65,595.81 L549.35,594.33 L548.96,592.86 L548.49,591.41 L547.93,589.97 L547.28,588.56 L546.54,587.18 L545.72,585.82 L544.81,584.50 L543.82,583.21 L542.75,581.97 L541.59,580.76 L540.36,579.60 L539.05,578.49 L537.66,577.43 L536.20,576.42 L534.66,575.47 L533.06,574.58 L531.38,573.75 L529.64,572.98 L527.84,572.29 L525.97,571.66 L524.04,571.11 L522.05,570.63 L520.01,570.23 L517.92,569.91 L515.78,569.67 L513.59,569.51 L511.36,569.45 L509.08,569.46 L506.77,569.57 L504.42,569.77 L502.04,570.06 L499.64,570.45 L497.20,570.93 L494.75,571.51 L492.27,572.18 L489.78,572.96 L487.28,573.83 L484.76,574.81 L482.25,575.89 L479.73,577.07 L477.21,578.35 L474.69,579.74 L472.19,581.23 L469.69,582.83 L467.22,584.53 L464.76,586.33 L462.32,588.24 L459.91,590.25 L457.53,592.37 L455.18,594.59 L452.87,596.91 L450.60,599.33 L448.38,601.85 L446.20,604.48 L444.07,607.20 L442.00,610.02 L439.99,612.94 L438.03,615.95 L436.14,619.05 L434.32,622.25 L432.58,625.54 L430.90,628.91 L429.31,632.37 L427.79,635.92 L426.36,639.55 L425.01,643.26 L423.76,647.05 L422.60,650.91 L421.53,654.85 L420.56,658.86 L419.70,662.93 L418.93,667.07 L418.28,671.27 L417.73,675.53 L417.29,679.85 L416.97,684.22 L416.76,688.64 L416.67,693.11 L416.70,697.62 L416.85,702.17 L417.12,706.75 L417.52,711.37 L418.05,716.02 L418.70,720.69 L419.48,725.39 L420.39,730.10 L421.44,734.83 L422.61,739.57 L423.92,744.32 L425.37,749.07 L426.95,753.82 L428.66,758.56 L430.52,763.30 L432.50,768.02 L434.63,772.72 L436.89,777.41 L439.29,782.07 L441.82,786.70 L444.50,791.29 L447.30,795.85 L450.25,800.37 L453.33,804.84 L456.54,809.27 L459.89,813.64 L463.36,817.95 L466.97,822.20 L470.71,826.39 L474.58,830.51 L478.58,834.55 L482.70,838.51 L486.94,842.40 L491.31,846.20 L495.80,849.91 L500.40,853.53 L505.12,857.06 L509.96,860.48 L514.90,863.81 L519.96,867.02 L525.12,870.13 L530.39,873.12 L535.75,876.00 L541.21,878.75 L546.77,881.39 L552.42,883.90 L558.16,886.28 L563.99,888.53 L569.89,890.64 L575.88,892.62 L581.94,894.46 L588.07,896.16 L594.27,897.71 L600.53,899.12 L606.85,900.38 L613.23,901.48 L619.66,902.44 L626.14,903.24 L632.67,903.88 L639.23,904.37 L645.83,904.70 L652.47,904.86 L659.13,904.87 L665.81,904.71 L672.51,904.39 L679.23,903.90 L685.95,903.25 L692.69,902.43 L699.42,901.44 L706.15,900.29 L712.87,898.96 L719.58,897.48 L726.27,895.82 L732.94,893.99 L739.58,892.00 L746.20,889.84 L752.78,887.52 L759.32,885.03 L765.81,882.37 L772.26,879.55 L778.65,876.57 L784.99,873.43 L791.26,870.12 L797.47,866.65 L803.61,863.03 L809.67,859.25 L815.65,855.32 L821.55,851.23 L827.36,847.00 L833.08,842.61 L838.71,838.08 L844.23,833.41 L849.66,828.59 L854.97,823.64 L860.17,818.55 L865.26,813.32 L870.23,807.97 L875.08,802.49 L879.80,796.88 L884.39,791.16 L888.85,785.31 L893.17,779.35 L897.36,773.29 L901.40,767.11 L905.30,760.83 L909.05,754.45 L912.65,747.97 L916.10,741.41 L919.39,734.75 L922.53,728.01 L925.51,721.19 L928.32,714.30 L930.97,707.33 L933.45,700.30 L935.77,693.20 L937.91,686.04 L939.89,678.83 L941.69,671.58 L943.32,664.27 L944.77,656.93 L946.05,649.55 L947.15,642.14 L948.07,634.70 L948.81,627.24 L949.37,619.76 L949.76,612.27 L949.96,604.78 L949.99,597.28 L949.83,589.78 L949.50,582.29 L948.98,574.81 L948.29,567.34 L947.42,559.90 L946.37,552.48 L945.14,545.09 L943.73,537.74 L942.15,530.42 L940.40,523.15 L938.47,515.93 L936.37,508.76 L934.10,501.64 L931.67,494.59 L929.06,487.61 L926.29,480.69 L923.36,473.85 L920.27,467.09 L917.02,460.41 L913.61,453.82 L910.05,447.32 L906.34,440.91 L902.48,434.60 L898.48,428.40 L894.33,422.30 L890.05,416.31 L885.62,410.43 L881.07,404.67 L876.38,399.04 L871.57,393.52 L866.63,388.13 L861.58,382.87 L856.41,377.74 L851.12,372.75 L845.73,367.90 L840.23,363.18 L834.64,358.61 L828.94,354.19 L823.15,349.91 L817.28,345.79 L811.32,341.81 L805.28,337.99 L799.16,334.32 L792.97,330.81 L786.71,327.46 L780.39,324.28 L774.02,321.25 L767.58,318.38 L761.10,315.68 L754.57,313.15 L748.01,310.78 L741.40,308.57 L734.76,306.53 L728.10,304.66 L721.41,302.96 L714.71,301.43 L707.99,300.06 L701.26,298.86 L694.53,297.83 L687.80,296.96 L681.07,296.26 L674.35,295.73 L667.64,295.36 L660.96,295.16 L654.29,295.12 L647.65,295.24 L641.04,295.53 L634.46,295.97 L627.93,296.57 L621.44,297.33 L614.99,298.24 L608.60,299.31 L602.26,300.52 L595.98,301.89 L589.76,303.40 L583.61,305.06 L577.53,306.86 L571.52,308.80 L565.60,310.88 L559.75,313.09 L553.99,315.44 L548.31,317.91 L542.73,320.51 L537.24,323.24 L531.85,326.08 L526.55,329.04 L521.36,332.12 L516.28,335.30 L511.30,338.60 L506.44,341.99 L501.68,345.49 L497.05,349.08 L492.53,352.77 L488.13,356.55 L483.85,360.41 L479.69,364.36 L475.66,368.38 L471.76,372.48 L467.99,376.64 L464.34,380.88 L460.83,385.17 L457.44,389.53 L454.19,393.94 L451.08,398.40 L448.10,402.90 L445.25,407.45 L442.54,412.04 L439.97,416.66 L437.53,421.31 L435.24,425.99 L433.07,430.69 L431.05,435.41 L429.16,440.14 L427.40,444.88 L425.79,449.63 L424.31,454.38 L422.96,459.13 L421.75,463.87 L420.67,468.60 L419.72,473.32 L418.90,478.02 L418.21,482.70 L417.65,487.36 L417.22,491.99 L416.91,496.58 L416.73,501.14 L416.67,505.66 L416.72,510.14 L416.90,514.57 L417.19,518.96 L417.60,523.29 L418.12,527.57 L418.74,531.78 L419.48,535.94 L420.32,540.03 L421.26,544.06 L422.30,548.02 L423.43,551.90 L424.66,555.71 L425.98,559.44 L427.39,563.09 L428.88,566.66 L430.46,570.15 L432.11,573.55 L433.84,576.86 L435.64,580.08 L437.51,583.21 L439.44,586.25 L441.44,589.19 L443.50,592.04 L445.61,594.79 L447.78,597.44 L449.99,599.99 L452.25,602.44 L454.55,604.79 L456.88,607.03 L459.25,609.18 L461.66,611.22 L464.09,613.15 L466.54,614.99 L469.01,616.71 L471.50,618.34 L474.00,619.86 L476.52,621.27 L479.03,622.59 L481.56,623.80 L484.07,624.90 L486.59,625.91 L489.10,626.81 L491.59,627.62 L494.07,628.32 L496.53,628.92 L498.97,629.43 L501.39,629.84 L503.77,630.16 L506.13,630.38 L508.45,630.52 L510.74,630.56 L512.98,630.51 L515.18,630.38 L517.34,630.16 L519.45,629.87 L521.50,629.49 L523.50,629.03 L525.45,628.50 L527.33,627.89 L529.15,627.21 L530.91,626.47 L532.61,625.66 L534.23,624.78 L535.79,623.85 L537.27,622.86 L538.68,621.81 L540.01,620.71 L541.26,619.56 L542.44,618.37 L543.54,617.13 L544.55,615.86 L545.48,614.54 L546.32,613.20 L547.08,611.82 L547.76,610.42 L548.34,608.99 L548.84,607.54 L549.25,606.08 L549.57,604.60 L549.81,603.11 L549.95,601.61 L550.00,600.11 L549.96,598.62 L549.83,597.12 L549.62,595.63 L549.31,594.15 L548.91,592.68 L548.43,591.23 L547.85,589.80 L547.19,588.39 L546.45,587.01 L545.61,585.66 L544.70,584.34 L543.70,583.06 L542.61,581.82 L541.45,580.62 L540.21,579.46 L538.89,578.36 L537.49,577.30 L536.02,576.30 L534.47,575.36 L532.86,574.47 L531.18,573.65 L529.43,572.90 L527.61,572.21 L525.74,571.59 L523.80,571.05 L521.81,570.58 L519.76,570.19 L517.66,569.88 L515.52,569.65 L513.32,569.50 L511.08,569.44 L508.81,569.47 L506.49,569.59 L504.14,569.80 L501.75,570.10 L499.34,570.50 L496.91,570.99 L494.45,571.58 L491.97,572.27 L489.48,573.06 L486.97,573.95 L484.46,574.94 L481.94,576.03 L479.42,577.22 L476.90,578.52 L474.39,579.92 L471.88,581.42 L469.39,583.03 L466.92,584.74 L464.46,586.56 L462.03,588.48 L459.62,590.51 L457.24,592.63 L454.90,594.86 L452.60,597.20 L450.33,599.63 L448.11,602.17 L445.94,604.80 L443.82,607.54 L441.75,610.37 L439.75,613.30 L437.80,616.32 L435.92,619.43 L434.11,622.64 L432.37,625.94 L430.70,629.33 L429.12,632.80 L427.61,636.36 L426.19,640.00 L424.86,643.72 L423.61,647.51 L422.46,651.38 L421.41,655.33 L420.45,659.34 L419.60,663.43 L418.85,667.57 L418.21,671.78 L417.67,676.05 L417.25,680.37 L416.94,684.75 L416.74,689.18 L416.67,693.65 L416.71,698.16 L416.88,702.72 L417.16,707.31 L417.58,711.93 L418.12,716.58 L418.79,721.26 L419.58,725.96 L420.51,730.68 L421.57,735.41 L422.76,740.15 L424.09,744.89 L425.55,749.64 L427.15,754.39 L428.88,759.14 L430.75,763.87 L432.75,768.59 L434.90,773.29 L437.17,777.97 L439.59,782.63 L442.14,787.26 L444.83,791.85 L447.65,796.40 L450.61,800.92 L453.71,805.38 L456.94,809.80 L460.30,814.16 L463.79,818.47 L467.42,822.71 L471.17,826.89 L475.06,831.00 L479.07,835.03 L483.20,838.99 L487.46,842.86 L491.85,846.66 L496.35,850.36 L500.97,853.97 L505.70,857.48 L510.55,860.89 L515.51,864.20 L520.58,867.40 L525.75,870.50 L531.03,873.47 L536.41,876.34 L541.88,879.08 L547.45,881.70 L553.11,884.19 L558.86,886.56 L564.70,888.79 L570.61,890.89 L576.61,892.85 L582.67,894.67 L588.81,896.35 L595.02,897.89 L601.29,899.28 L607.62,900.52 L614.01,901.61 L620.45,902.54 L626.93,903.32 L633.46,903.95 L640.03,904.42 L646.64,904.72 L653.27,904.87 L659.93,904.86 L666.62,904.68 L673.32,904.34 L680.04,903.83 L686.77,903.16 L693.50,902.32 L700.23,901.31 L706.96,900.13 L713.68,898.79 L720.39,897.28 L727.08,895.61 L733.75,893.76 L740.39,891.75 L747.00,889.57 L753.57,887.23 L760.11,884.72 L766.59,882.04 L773.03,879.20 L779.42,876.20 L785.75,873.03 L792.02,869.71 L798.22,866.22 L804.34,862.58 L810.40,858.79 L816.37,854.83 L822.26,850.73 L828.06,846.48 L833.77,842.07 L839.38,837.52 L844.90,832.83 L850.30,828.00 L855.61,823.03 L860.79,817.92 L865.87,812.68 L870.82,807.31 L875.65,801.82 L880.36,796.20 L884.94,790.46 L889.38,784.60 L893.69,778.63 L897.85,772.54 L901.88,766.35 L905.76,760.06 L909.50,753.67 L913.08,747.18 L916.51,740.61 L919.78,733.94 L922.90,727.19 L925.85,720.36 L928.65,713.46 L931.28,706.48 L933.74,699.44 L936.04,692.34 L938.16,685.17 L940.11,677.96 L941.89,670.69 L943.50,663.39 L944.93,656.04 L946.19,648.65 L947.27,641.24 L948.17,633.80 L948.89,626.34 L949.43,618.86 L949.79,611.37 L949.98,603.87 L949.98,596.37 L949.80,588.87 L949.44,581.38 L948.91,573.90 L948.19,566.44 L947.30,559.00 L946.23,551.58 L944.98,544.20 L943.55,536.85 L941.95,529.54 L940.17,522.27 L938.23,515.06 L936.11,507.89 L933.82,500.79 L931.36,493.74 L928.74,486.77 L925.95,479.86 L923.00,473.03 L919.89,466.28 L916.62,459.61 L913.19,453.03 L909.61,446.54 L905.88,440.14 L902.01,433.85 L897.99,427.65 L893.82,421.57 L889.52,415.59 L885.08,409.73 L880.51,403.99 L875.81,398.36 L870.98,392.86 L866.03,387.49 L860.96,382.24 L855.77,377.13 L850.48,372.16 L845.07,367.32 L839.56,362.62 L833.95,358.07 L828.25,353.66 L822.45,349.41 L816.56,345.30 L810.59,341.34 L804.54,337.54 L798.41,333.89 L792.22,330.40 L785.95,327.07 L779.63,323.90 L773.24,320.89 L766.80,318.05 L760.31,315.37 L753.78,312.85 L747.21,310.50 L740.60,308.32 L733.96,306.30 L727.29,304.45 L720.60,302.77 L713.90,301.25 L707.18,299.91 L700.45,298.73 L693.72,297.71 L686.98,296.87 L680.26,296.19 L673.54,295.68 L666.83,295.33 L660.15,295.15 L653.48,295.13 L646.85,295.27 L640.24,295.57 L633.67,296.03 L627.14,296.65 L620.65,297.43 L614.21,298.36 L607.83,299.44 L601.49,300.68 L595.22,302.06 L589.01,303.59 L582.87,305.27 L576.80,307.09 L570.80,309.04 L564.89,311.14 L559.05,313.37 L553.30,315.73 L547.63,318.22 L542.06,320.83 L536.58,323.57 L531.20,326.43 L525.92,329.41 L520.74,332.50 L515.67,335.70 L510.71,339.00 L505.86,342.41 L501.12,345.92 L496.49,349.53 L491.99,353.22 L487.60,357.01 L483.34,360.88 L479.20,364.84 L475.19,368.87 L471.30,372.98 L467.54,377.15 L463.91,381.39 L460.41,385.70 L457.04,390.06 L453.81,394.47 L450.71,398.94 L447.75,403.45 L444.92,408.01 L442.23,412.60 L439.67,417.22 L437.25,421.88 L434.97,426.56 L432.82,431.26 L430.81,435.98 L428.94,440.71 L427.20,445.45 L425.60,450.20 L424.14,454.95 L422.80,459.70 L421.61,464.44 L420.54,469.17 L419.61,473.89 L418.81,478.59 L418.14,483.27 L417.59,487.92 L417.18,492.54 L416.88,497.13 L416.71,501.69 L416.67,506.21 L416.74,510.68 L416.93,515.11 L417.24,519.49 L417.66,523.81 L418.19,528.08 L418.83,532.29 L419.57,536.44 L420.42,540.53 L421.38,544.54 L422.43,548.49 L423.58,552.36 L424.82,556.16 L426.15,559.89 L427.57,563.53 L429.07,567.09 L430.65,570.56 L432.31,573.95 L434.05,577.25 L435.86,580.46 L437.74,583.58 L439.68,586.61 L441.69,589.54 L443.75,592.37 L445.87,595.11 L448.04,597.75 L450.26,600.29 L452.52,602.73 L454.83,605.06 L457.17,607.30 L459.54,609.43 L461.95,611.46 L464.38,613.38 L466.84,615.20 L469.31,616.92 L471.80,618.53 L474.31,620.04 L476.82,621.44 L479.34,622.74 L481.86,623.94 L484.38,625.03 L486.89,626.02 L489.40,626.91 L491.89,627.71 L494.37,628.40 L496.83,628.99 L499.27,629.49 L501.68,629.89 L504.06,630.19 L506.41,630.41 L508.73,630.53 L511.01,630.56 L513.25,630.50 L515.45,630.36 L517.60,630.13 L519.70,629.82 L521.75,629.44 L523.74,628.97 L525.68,628.43 L527.55,627.81 L529.37,627.13 L531.12,626.37 L532.81,625.55 L534.42,624.67 L535.97,623.73 L537.44,622.73 L538.84,621.68 L540.17,620.57 L541.41,619.42 L542.58,618.22 L543.66,616.98 L544.67,615.70 L545.59,614.38 L546.42,613.03 L547.17,611.65 L547.83,610.24 L548.41,608.81 L548.90,607.37 L549.30,605.90 L549.61,604.42 L549.83,602.93 L549.96,601.43 L550.00,599.93 L549.95,598.43 L549.81,596.94 L549.58,595.45 L549.27,593.97 L548.86,592.51 L548.36,591.06 L547.78,589.63 L547.11,588.23 L546.35,586.85 L545.51,585.50 L544.58,584.19 L543.57,582.91 L542.48,581.67 L541.30,580.48 L540.05,579.33 L538.72,578.23 L537.31,577.18 L535.83,576.18 L534.28,575.25 L532.66,574.37 L530.97,573.56 L529.21,572.81 L527.39,572.13 L525.51,571.52 L523.56,570.99 L521.57,570.53 L519.51,570.15 L517.41,569.84 L515.25,569.62 L513.05,569.49 L510.81,569.44 L508.53,569.48 L506.21,569.61 L503.85,569.83 L501.46,570.15 L499.05,570.55 L496.61,571.06 L494.15,571.66 L491.67,572.36 L489.18,573.16 L486.67,574.06 L484.16,575.06 L481.64,576.17 L479.12,577.37 L476.60,578.68 L474.09,580.09 L471.58,581.61 L469.09,583.23 L466.62,584.96 L464.16,586.79 L461.73,588.72 L459.33,590.76 L456.96,592.90 L454.62,595.14 L452.32,597.49 L450.06,599.93 L447.85,602.48 L445.68,605.13 L443.57,607.87 L441.51,610.72 L439.51,613.66 L437.57,616.69 L435.70,619.82 L433.89,623.04 L432.16,626.35 L430.51,629.74 L428.93,633.23 L427.44,636.79 L426.03,640.44 L424.70,644.17 L423.47,647.98 L422.33,651.86 L421.29,655.81 L420.35,659.84 L419.50,663.93 L418.77,668.08 L418.14,672.30 L417.61,676.57 L417.20,680.90 L416.91,685.28 L416.73,689.72 L416.67,694.19 L416.72,698.71 L416.90,703.27 L417.21,707.87 L417.64,712.49 L418.19,717.15 L418.88,721.83 L419.69,726.53 L420.63,731.25 L421.71,735.98 L422.92,740.72 L424.26,745.47 L425.74,750.22 L427.35,754.97 L429.10,759.71 L430.98,764.44 L433.01,769.16 L435.16,773.86 L437.46,778.54 L439.89,783.19 L442.46,787.81 L445.16,792.40 L448.00,796.95 L450.98,801.46 L454.09,805.92 L457.34,810.33 L460.72,814.69 L464.23,818.99 L467.87,823.22 L471.64,827.39 L475.54,831.49 L479.56,835.52 L483.71,839.46 L487.99,843.33" fill="none" stroke="#333" stroke-width="1" stroke-linecap="round" stroke-linejoin="round" opacity="0.8" />
</svg>