<svg xmlns="http://www.w3.org/2000/svg" width="1200" height="1200" viewBox="0 0 1200 1200">
  <rect width="1200" height="1200" fill="#1c1c1e" />
  <path d="M600.00,450.00 L611.25,450.12 L622.49,450.47 L633.71,451.06 L644.91,451.89 L656.07,452.95 L667.19,454.24 L678.26,455.76 L689.27,457.52 L700.21,459.50 L711.07,461.71 L721.85,464.15 L732.54,466.81 L743.12,469.68 L753.60,472.78 L763.96,476.08 L774.19,479.60 L784.29,483.33 L794.25,487.25 L804.06,491.38 L813.72,495.70 L823.22,500.21 L832.54,504.91 L841.69,509.79 L850.66,514.84 L859.43,520.07 L868.01,525.46 L876.39,531.02 L884.56,536.72 L892.51,542.58 L900.24,548.58 L907.75,554.72 L915.02,560.99 L922.06,567.39 L928.86,573.90 L935.41,580.53 L941.71,587.26 L947.75,594.09 L953.53,601.01 L959.06,608.01 L964.31,615.09 L969.29,622.24 L974.00,629.46 L978.43,636.73 L982.58,644.05 L986.45,651.40 L990.04,658.79 L993.34,666.21 L996.35,673.64 L999.07,681.09 L1001.49,688.53 L1003.63,695.97 L1005.47,703.40 L1007.02,710.80 L1008.28,718.18 L1009.24,725.52 L1009.91,732.82 L1010.28,740.06 L1010.37,747.24 L1010.15,754.36 L1009.65,761.40 L1008.86,768.36 L1007.78,775.23 L1006.42,782.00 L1004.77,788.67 L1002.84,795.23 L1000.64,801.67 L998.15,807.98 L995.39,814.16 L992.37,820.20 L989.08,826.09 L985.52,831.83 L981.71,837.41 L977.64,842.82 L973.32,848.06 L968.76,853.13 L963.96,858.01 L958.92,862.70 L953.65,867.19 L948.16,871.48 L942.44,875.57 L936.52,879.45 L930.38,883.11 L924.05,886.55 L917.51,889.76 L910.79,892.74 L903.89,895.49 L896.80,898.00 L889.55,900.27 L882.14,902.30 L874.57,904.07 L866.86,905.60 L859.00,906.87 L851.01,907.88 L842.89,908.64 L834.65,909.13 L826.30,909.36 L817.85,909.32 L809.31,909.02 L800.67,908.45 L791.96,907.61 L783.17,906.50 L774.33,905.12 L765.42,903.47 L756.47,901.55 L747.48,899.36 L738.45,896.90 L729.41,894.17 L720.34,891.17 L711.27,887.91 L702.21,884.38 L693.15,880.58 L684.10,876.53 L675.09,872.21 L666.10,867.64 L657.16,862.81 L648.26,857.73 L639.42,852.40 L630.65,846.82 L621.95,841.00 L613.32,834.95 L604.78,828.66 L596.34,822.14 L588.00,815.39 L579.76,808.42 L571.64,801.24 L563.65,793.84 L555.78,786.24 L548.05,778.44 L540.46,770.44 L533.01,762.25 L525.73,753.88 L518.60,745.33 L511.64,736.61 L504.85,727.73 L498.23,718.69 L491.80,709.50 L485.56,700.16 L479.51,690.68 L473.66,681.08 L468.01,671.35 L462.56,661.51 L457.33,651.56 L452.31,641.51 L447.51,631.36 L442.93,621.14 L438.57,610.83 L434.44,600.46 L430.55,590.03 L426.88,579.54 L423.45,569.01 L420.26,558.45 L417.31,547.86 L414.60,537.24 L412.13,526.62 L409.91,516.00 L407.93,505.38 L406.19,494.78 L404.71,484.20 L403.46,473.65 L402.47,463.14 L401.72,452.68 L401.22,442.28 L400.96,431.94 L400.95,421.68 L401.18,411.50 L401.65,401.40 L402.36,391.41 L403.31,381.52 L404.49,371.75 L405.91,362.10 L407.56,352.58 L409.44,343.19 L411.54,333.96 L413.86,324.87 L416.41,315.95 L419.17,307.19 L422.14,298.61 L425.32,290.21 L428.70,282.00 L432.28,273.98 L436.05,266.17 L440.02,258.56 L444.16,251.17 L448.49,244.00 L452.99,237.05 L457.66,230.34 L462.50,223.87 L467.49,217.63 L472.63,211.65 L477.92,205.92 L483.34,200.44 L488.90,195.23 L494.58,190.29 L500.39,185.61 L506.31,181.21 L512.33,177.09 L518.45,173.25 L524.67,169.70 L530.97,166.43 L537.34,163.45 L543.79,160.76 L550.30,158.37 L556.87,156.28 L563.49,154.48 L570.14,152.99 L576.83,151.80 L583.55,150.90 L590.29,150.31 L597.03,150.03 L603.78,150.05 L610.53,150.37 L617.26,151.00 L623.98,151.92 L630.66,153.15 L637.32,154.69 L643.93,156.52 L650.49,158.65 L656.99,161.07 L663.43,163.79 L669.80,166.81 L676.09,170.11 L682.29,173.70 L688.40,177.58 L694.42,181.73 L700.32,186.17 L706.11,190.87 L711.78,195.85 L717.32,201.09 L722.73,206.60 L728.00,212.36 L733.12,218.37 L738.10,224.64 L742.91,231.14 L747.56,237.88 L752.04,244.85 L756.35,252.05 L760.47,259.47 L764.41,267.10 L768.17,274.94 L771.72,282.98 L775.08,291.22 L778.23,299.64 L781.18,308.24 L783.91,317.02 L786.43,325.96 L788.73,335.07 L790.80,344.32 L792.65,353.72 L794.28,363.26 L795.67,372.93 L796.82,382.71 L797.74,392.61 L798.42,402.62 L798.86,412.72 L799.06,422.92 L799.02,433.19 L798.73,443.53 L798.20,453.94 L797.42,464.41 L796.40,474.92 L795.13,485.48 L793.61,496.06 L791.85,506.66 L789.84,517.28 L787.58,527.91 L785.09,538.53 L782.35,549.14 L779.37,559.73 L776.15,570.29 L772.69,580.81 L769.00,591.29 L765.07,601.72 L760.91,612.08 L756.53,622.38 L751.92,632.60 L747.09,642.73 L742.05,652.77 L736.79,662.71 L731.32,672.53 L725.64,682.25 L719.77,691.84 L713.69,701.30 L707.43,710.62 L700.98,719.79 L694.34,728.81 L687.53,737.68 L680.55,746.38 L673.40,754.90 L666.09,763.25 L658.63,771.42 L651.02,779.39 L643.28,787.17 L635.39,794.75 L627.38,802.12 L619.25,809.28 L611.00,816.22 L602.64,822.94 L594.19,829.43 L585.64,835.69 L577.01,841.72 L568.29,847.51 L559.51,853.05 L550.66,858.35 L541.76,863.40 L532.81,868.20 L523.82,872.74 L514.80,877.03 L505.76,881.05 L496.70,884.82 L487.63,888.32 L478.56,891.55 L469.50,894.51 L460.45,897.21 L451.43,899.64 L442.45,901.80 L433.50,903.68 L424.60,905.30 L415.76,906.65 L406.98,907.72 L398.28,908.53 L389.65,909.07 L381.12,909.34 L372.68,909.34 L364.35,909.08 L356.12,908.56 L348.02,907.77 L340.04,906.73 L332.20,905.43 L324.50,903.87 L316.95,902.06 L309.56,900.01 L302.33,897.71 L295.27,895.17 L288.39,892.39 L281.69,889.38 L275.18,886.14 L268.86,882.68 L262.75,878.99 L256.85,875.09 L251.17,870.98 L245.70,866.66 L240.46,862.14 L235.45,857.43 L230.67,852.53 L226.14,847.44 L221.85,842.18 L217.82,836.74 L214.03,831.14 L210.51,825.38 L207.25,819.47 L204.26,813.42 L201.53,807.22 L199.08,800.89 L196.91,794.44 L195.01,787.87 L193.40,781.19 L192.07,774.41 L191.03,767.52 L190.27,760.55 L189.80,753.50 L189.63,746.38 L189.75,739.19 L190.16,731.94 L190.86,724.63 L191.86,717.29 L193.15,709.91 L194.73,702.50 L196.61,695.07 L198.78,687.63 L201.25,680.19 L204.00,672.74 L207.05,665.31 L210.38,657.90 L214.00,650.51 L217.91,643.16 L222.09,635.85 L226.56,628.58 L231.30,621.38 L236.31,614.23 L241.60,607.16 L247.15,600.16 L252.97,593.26 L259.04,586.44 L265.37,579.72 L271.95,573.11 L278.78,566.61 L285.84,560.23 L293.15,553.97 L300.68,547.85 L308.44,541.87 L316.42,536.03 L324.61,530.34 L333.02,524.80 L341.62,519.43 L350.42,514.22 L359.41,509.19 L368.58,504.33 L377.92,499.66 L387.44,495.17 L397.12,490.87 L406.95,486.77 L416.92,482.86 L427.04,479.17 L437.29,475.67 L447.66,472.39 L458.15,469.32 L468.75,466.47 L479.45,463.84 L490.24,461.44 L501.11,459.25 L512.06,457.30 L523.08,455.57 L534.15,454.07 L545.28,452.81 L556.44,451.78 L567.65,450.98 L578.87,450.42 L590.11,450.09 L601.36,450.00 L612.61,450.15 L623.85,450.53 L635.07,451.15 L646.26,452.00 L657.42,453.09 L668.53,454.41 L679.59,455.96 L690.59,457.75 L701.53,459.76 L712.38,462.00 L723.15,464.46 L733.82,467.14 L744.39,470.05 L754.86,473.17 L765.20,476.50 L775.42,480.04 L785.50,483.79 L795.45,487.74 L805.24,491.89 L814.88,496.24 L824.35,500.77 L833.66,505.49 L842.79,510.39 L851.73,515.47 L860.48,520.71 L869.04,526.13 L877.39,531.70 L885.53,537.43 L893.46,543.30 L901.16,549.32 L908.64,555.47 L915.89,561.76 L922.90,568.17 L929.66,574.70 L936.18,581.34 L942.45,588.08 L948.46,594.92 L954.22,601.85 L959.70,608.86 L964.93,615.95 L969.87,623.11 L974.55,630.34 L978.95,637.61 L983.07,644.93 L986.90,652.30 L990.45,659.69 L993.71,667.11 L996.69,674.54 L999.37,681.99 L1001.77,689.43 L1003.87,696.87 L1005.68,704.30 L1007.19,711.70 L1008.41,719.07 L1009.34,726.40 L1009.97,733.69 L1010.31,740.93 L1010.36,748.11 L1010.11,755.22 L1009.57,762.25 L1008.75,769.20 L1007.63,776.06 L1006.24,782.82 L1004.55,789.47 L1002.59,796.01 L1000.35,802.44 L997.83,808.73 L995.04,814.90 L991.98,820.92 L988.66,826.79 L985.07,832.51 L981.23,838.07 L977.13,843.47 L972.79,848.69 L968.19,853.73 L963.36,858.59 L958.30,863.25 L953.00,867.72 L947.48,871.99 L941.74,876.05 L935.79,879.90 L929.63,883.53 L923.27,886.95 L916.71,890.13 L909.96,893.09 L903.04,895.81 L895.94,898.29 L888.67,900.53 L881.23,902.52 L873.65,904.27 L865.91,905.76 L858.04,907.00 L850.03,907.99 L841.90,908.71 L833.65,909.17 L825.29,909.37 L816.82,909.30 L808.27,908.96 L799.62,908.36 L790.90,907.49 L782.11,906.35 L773.25,904.93 L764.34,903.25 L755.38,901.30 L746.39,899.08 L737.36,896.58 L728.31,893.82 L719.25,890.79 L710.18,887.49 L701.11,883.93 L692.05,880.10 L683.01,876.02 L674.00,871.67 L665.02,867.06 L656.08,862.21 L647.19,857.09 L638.36,851.73 L629.59,846.13 L620.90,840.28 L612.28,834.20 L603.76,827.88 L595.33,821.33 L587.00,814.56 L578.77,807.56 L570.67,800.35 L562.69,792.93 L554.84,785.31 L547.12,777.48 L539.55,769.46 L532.12,761.25 L524.86,752.86 L517.75,744.29 L510.81,735.55 L504.04,726.64 L497.45,717.58 L491.04,708.37 L484.82,699.02 L478.79,689.53 L472.96,679.91 L467.34,670.17 L461.92,660.31 L456.71,650.35 L451.72,640.28 L446.94,630.13 L442.39,619.89 L438.06,609.58 L433.96,599.20 L430.09,588.76 L426.45,578.27 L423.05,567.74 L419.89,557.17 L416.97,546.57 L414.29,535.96 L411.85,525.34 L409.65,514.71 L407.70,504.10 L406.00,493.50 L404.54,482.92 L403.33,472.38 L402.37,461.87 L401.65,451.42 L401.17,441.02 L400.95,430.70 L400.96,420.44 L401.22,410.27 L401.72,400.19 L402.46,390.21 L403.44,380.33 L404.65,370.58 L406.10,360.94 L407.77,351.44 L409.68,342.07 L411.81,332.85 L414.16,323.78 L416.73,314.88 L419.52,306.14 L422.51,297.58 L425.71,289.21 L429.12,281.02 L432.72,273.03 L436.52,265.24 L440.51,257.65 L444.68,250.29 L449.03,243.15 L453.55,236.23 L458.24,229.54 L463.09,223.10 L468.10,216.90 L473.26,210.94 L478.57,205.24 L484.01,199.80 L489.58,194.62 L495.28,189.71 L501.10,185.07 L507.03,180.70 L513.06,176.61 L519.20,172.81 L525.42,169.29 L531.73,166.05 L538.12,163.11 L544.58,160.46 L551.09,158.10 L557.67,156.05 L564.29,154.29 L570.95,152.83 L577.65,151.67 L584.37,150.82 L591.10,150.26 L597.85,150.02 L604.60,150.07 L611.34,150.43 L618.08,151.09 L624.79,152.06 L631.47,153.32 L638.12,154.89 L644.72,156.76 L651.28,158.93 L657.77,161.39 L664.21,164.14 L670.57,167.19 L676.85,170.53 L683.04,174.16 L689.14,178.06 L695.14,182.25 L701.03,186.72 L706.80,191.46 L712.46,196.47 L717.98,201.75 L723.38,207.28 L728.63,213.07 L733.73,219.12 L738.69,225.41 L743.48,231.94 L748.11,238.71 L752.57,245.71 L756.86,252.94 L760.96,260.38 L764.88,268.04 L768.61,275.90 L772.14,283.97 L775.47,292.22 L778.60,300.67 L781.52,309.29 L784.23,318.09 L786.72,327.06 L788.99,336.18 L791.04,345.45 L792.86,354.87 L794.46,364.42 L795.82,374.10 L796.95,383.90 L797.84,393.82 L798.49,403.84 L798.90,413.95 L799.07,424.15 L799.00,434.44 L798.68,444.79 L798.12,455.21 L797.31,465.68 L796.26,476.20 L794.96,486.75 L793.41,497.34 L791.62,507.95 L789.58,518.57 L787.29,529.19 L784.77,539.81 L782.00,550.42 L778.99,561.01 L775.74,571.56 L772.25,582.08 L768.53,592.56 L764.58,602.98 L760.40,613.33 L755.98,623.62 L751.35,633.83 L746.50,643.95 L741.42,653.98 L736.14,663.90 L730.64,673.72 L724.94,683.41 L719.04,692.99 L712.95,702.43 L706.66,711.73 L700.18,720.89 L693.53,729.89 L686.69,738.74 L679.69,747.42 L672.53,755.92 L665.20,764.25 L657.72,772.39 L650.09,780.34 L642.33,788.10 L634.43,795.65 L626.40,803.00 L618.25,810.13 L609.99,817.04 L601.63,823.73 L593.16,830.20 L584.60,836.43 L575.96,842.43 L567.23,848.19 L558.44,853.71 L549.59,858.98 L540.68,864.00 L531.73,868.77 L522.73,873.28 L513.71,877.53 L504.66,881.52 L495.60,885.25 L486.53,888.72 L477.46,891.92 L468.40,894.85 L459.36,897.52 L450.34,899.91 L441.36,902.04 L432.42,903.89 L423.53,905.48 L414.69,906.79 L405.92,907.84 L397.23,908.61 L388.62,909.12 L380.09,909.35 L371.67,909.33 L363.34,909.03 L355.14,908.48 L347.05,907.66 L339.09,906.58 L331.26,905.25 L323.58,903.67 L316.05,901.83 L308.68,899.74 L301.47,897.42 L294.43,894.85 L287.57,892.04 L280.89,889.00 L274.40,885.73 L268.11,882.24 L262.03,878.53 L256.15,874.60 L250.49,870.46 L245.05,866.12 L239.84,861.58 L234.86,856.84 L230.11,851.92 L225.61,846.81 L221.35,841.53 L217.35,836.07 L213.59,830.45 L210.10,824.68 L206.87,818.75 L203.91,812.68 L201.22,806.46 L198.81,800.12 L196.66,793.65 L194.80,787.07 L193.22,780.38 L191.93,773.58 L190.92,766.69 L190.20,759.71 L189.77,752.64 L189.63,745.51 L189.78,738.31 L190.23,731.05 L190.96,723.75 L192.00,716.40 L193.32,709.01 L194.94,701.60 L196.86,694.17 L199.07,686.73 L201.57,679.29 L204.36,671.84 L207.44,664.41 L210.80,657.00 L214.46,649.62 L218.40,642.27 L222.62,634.97 L227.12,627.71 L231.89,620.51 L236.94,613.37 L242.26,606.31 L247.84,599.32 L253.69,592.43 L259.79,585.62 L266.15,578.91 L272.76,572.32 L279.62,565.83 L286.71,559.46 L294.05,553.23 L301.61,547.12 L309.39,541.15 L317.40,535.33 L325.62,529.66 L334.05,524.14 L342.67,518.79 L351.50,513.60 L360.51,508.59 L369.70,503.76 L379.07,499.10 L388.60,494.64 L398.30,490.36 L408.15,486.28 L418.14,482.41 L428.28,478.73 L438.54,475.27 L448.93,472.01 L459.43,468.97 L470.04,466.14 L480.75,463.54 L491.55,461.16 L502.43,459.00 L513.39,457.07 L524.41,455.37 L535.50,453.91 L546.63,452.67 L557.80,451.67 L569.00,450.90 L580.23,450.36 L591.47,450.07 L602.72,450.01 L613.97,450.18 L625.21,450.59 L636.42,451.24 L647.61,452.12 L658.77,453.24 L669.87,454.59 L680.93,456.17 L691.92,457.98 L702.84,460.02 L713.69,462.28 L724.45,464.77 L735.11,467.48 L745.67,470.41 L756.11,473.56 L766.44,476.92 L776.65,480.48 L786.71,484.26 L796.64,488.23 L806.41,492.41 L816.03,496.77 L825.49,501.33 L834.77,506.07 L843.88,510.99 L852.80,516.09 L861.53,521.36 L870.06,526.79 L878.38,532.38 L886.50,538.13 L894.40,544.02 L902.08,550.06 L909.53,556.23 L916.75,562.53 L923.73,568.95 L930.47,575.49 L936.96,582.15 L943.19,588.90 L949.17,595.75 L954.89,602.69 L960.35,609.72 L965.54,616.82 L970.45,623.98 L975.10,631.21 L979.46,638.50 L983.54,645.82 L987.35,653.19 L990.86,660.59 L994.09,668.01 L997.03,675.44 L999.68,682.89 L1002.04,690.33 L1004.10,697.77 L1005.88,705.19 L1007.36,712.59 L1008.54,719.96 L1009.43,727.29 L1010.03,734.57 L1010.33,741.80 L1010.34,748.97 L1010.06,756.07 L1009.49,763.09 L1008.63,770.03 L1007.48,776.88 L1006.05,783.63 L1004.33,790.27 L1002.33,796.80 L1000.06,803.21 L997.51,809.49 L994.69,815.63 L991.60,821.64 L988.24,827.49 L984.62,833.19 L980.75,838.73 L976.62,844.11 L972.24,849.31 L967.62,854.33 L962.76,859.16 L957.67,863.80 L952.34,868.25 L946.80,872.49 L941.03,876.53 L935.05,880.35 L928.87,883.96 L922.48,887.34 L915.90,890.50 L909.14,893.43 L902.19,896.12 L895.07,898.57 L887.78,900.78 L880.32,902.75 L872.72,904.46 L864.97,905.93 L857.08,907.14 L849.05,908.09 L840.91,908.78 L832.64,909.21 L824.27,909.37 L815.79,909.27 L807.23,908.91 L798.57,908.27 L789.84,907.36 L781.04,906.19 L772.18,904.75 L763.26,903.03 L754.30,901.04 L745.30,898.79 L736.27,896.26 L727.21,893.47 L718.15,890.41 L709.08,887.08 L700.01,883.48 L690.96,879.62 L681.92,875.50 L672.91,871.13 L663.93,866.49 L655.00,861.60 L646.12,856.46 L637.29,851.07 L628.54,845.44 L619.85,839.56 L611.25,833.45 L602.73,827.10 L594.31,820.52 L586.00,813.72 L577.79,806.70 L569.70,799.47 L561.73,792.02 L553.90,784.37 L546.20,776.52 L538.64,768.48 L531.24,760.24 L523.99,751.83 L516.90,743.24 L509.98,734.48 L503.23,725.56 L496.66,716.48 L490.28,707.25 L484.08,697.88 L478.08,688.37 L472.27,678.74 L466.67,668.98 L461.28,659.11 L456.10,649.13 L451.13,639.06 L446.38,628.90 L441.85,618.65 L437.55,608.33 L433.48,597.94 L429.64,587.49 L426.03,577.00 L422.66,566.46 L419.52,555.89 L416.63,545.29 L413.98,534.67 L411.57,524.05 L409.40,513.43 L407.49,502.81 L405.81,492.22 L404.38,481.64 L403.20,471.10 L402.27,460.61 L401.58,450.16 L401.13,439.77 L400.93,429.45 L400.98,419.21 L401.27,409.05 L401.80,398.98 L402.56,389.01 L403.57,379.15 L404.81,369.40 L406.29,359.78 L407.99,350.29 L409.92,340.95 L412.08,331.74 L414.46,322.70 L417.06,313.81 L419.87,305.10 L422.89,296.56 L426.12,288.20 L429.55,280.04 L433.17,272.07 L436.99,264.31 L441.00,256.75 L445.20,249.41 L449.57,242.30 L454.11,235.41 L458.82,228.75 L463.69,222.33 L468.72,216.16 L473.90,210.24 L479.22,204.57 L484.67,199.16 L490.26,194.01 L495.98,189.13 L501.81,184.52 L507.75,180.19 L513.80,176.14 L519.95,172.37 L526.18,168.88 L532.50,165.68 L538.90,162.77 L545.36,160.16 L551.89,157.84 L558.47,155.82 L565.09,154.10 L571.76,152.67 L578.46,151.55 L585.18,150.73 L591.92,150.22 L598.67,150.01 L605.42,150.10 L612.16,150.49 L618.89,151.19 L625.60,152.19 L632.28,153.50 L638.92,155.10 L645.52,157.01 L652.07,159.21 L658.56,161.71 L664.98,164.50 L671.33,167.58 L677.60,170.95 L683.78,174.61 L689.87,178.56 L695.85,182.78 L701.73,187.28 L707.49,192.05 L713.13,197.09 L718.64,202.40 L724.02,207.97 L729.25,213.79 L734.34,219.87 L739.28,226.19 L744.05,232.75 L748.66,239.55 L753.10,246.57 L757.36,253.83 L761.44,261.30 L765.34,268.98 L769.04,276.87 L772.55,284.96 L775.86,293.24 L778.96,301.70 L781.86,310.35 L784.54,319.17 L787.01,328.15 L789.25,337.29 L791.27,346.58 L793.07,356.02 L794.63,365.59 L795.97,375.28 L797.07,385.10 L797.93,395.03 L798.55,405.06 L798.94,415.18 L799.08,425.39 L798.97,435.69 L798.63,446.05 L798.04,456.47 L797.20,466.95 L796.11,477.47 L794.78,488.03 L793.21,498.62 L791.38,509.23 L789.31,519.85 L787.00,530.48 L784.45,541.10 L781.65,551.70 L778.61,562.29 L775.33,572.84 L771.82,583.35 L768.07,593.82 L764.08,604.23 L759.87,614.58 L755.44,624.86 L750.77,635.06 L745.89,645.17 L740.79,655.18 L735.48,665.09 L729.96,674.90 L724.24,684.58 L718.32,694.14 L712.19,703.56 L705.88,712.85 L699.39,721.99 L692.71,730.97 L685.86,739.80 L678.83,748.46 L671.65,756.94 L664.30,765.25 L656.81,773.36 L649.16,781.29 L641.38,789.02 L633.46,796.55 L625.42,803.87 L617.26,810.98 L608.99,817.86 L600.61,824.53 L592.13,830.97 L583.56,837.17 L574.90,843.14 L566.17,848.87 L557.38,854.36 L548.52,859.60 L539.60,864.59 L530.64,869.32 L521.64,873.81 L512.62,878.03 L503.57,881.99 L494.50,885.69 L485.43,889.12 L476.37,892.29 L467.31,895.19 L458.27,897.82 L449.26,900.19 L440.28,902.28 L431.34,904.10 L422.46,905.65 L413.63,906.93 L404.87,907.94 L396.18,908.69 L387.58,909.16 L379.07,909.37 L370.65,909.30 L362.35,908.98 L354.15,908.39 L346.08,907.54 L338.13,906.44 L330.33,905.07 L322.66,903.46 L315.15,901.59 L307.80,899.48 L300.61,897.12 L293.59,894.52 L286.75,891.69 L280.09,888.62 L273.63,885.32 L267.37,881.80 L261.31,878.07 L255.46,874.11 L249.82,869.95 L244.41,865.58 L239.22,861.02 L234.27,856.26 L229.55,851.31 L225.08,846.18 L220.85,840.88 L216.88,835.40 L213.16,829.76 L209.70,823.97 L206.50,818.02 L203.57,811.93 L200.92,805.70 L198.53,799.34 L196.42,792.86 L194.60,786.27 L193.05,779.56 L191.79,772.75 L190.82,765.85 L190.13,758.86 L189.74,751.79 L189.63,744.64 L189.82,737.44 L190.30,730.17 L191.07,722.86 L192.14,715.51 L193.50,708.12 L195.16,700.70 L197.11,693.27 L199.35,685.83 L201.89,678.38 L204.71,670.94 L207.83,663.52 L211.23,656.11 L214.92,648.73 L218.89,641.39 L223.15,634.08 L227.68,626.83 L232.49,619.64 L237.57,612.51 L242.92,605.46 L248.53,598.49 L254.41,591.60 L260.55,584.80 L266.94,578.11 L273.58,571.52 L280.46,565.05 L287.59,558.70 L294.95,552.48 L302.54,546.39 L310.35,540.44 L318.38,534.64 L326.63,528.98 L335.08,523.49 L343.73,518.15 L352.58,512.99 L361.61,508.00 L370.82,503.18 L380.21,498.55 L389.77,494.11 L399.48,489.86 L409.35,485.80 L419.36,481.95 L429.51,478.30 L439.79,474.86 L450.19,471.63 L460.71,468.62 L471.33,465.82 L482.05,463.24 L492.86,460.89 L503.75,458.76 L514.72,456.86 L525.75,455.18 L536.84,453.74 L547.98,452.54 L559.15,451.56 L570.36,450.82 L581.59,450.32 L592.83,450.05 L604.08,450.02 L615.33,450.22 L626.56,450.66 L637.78,451.33 L648.96,452.24 L660.11,453.39 L671.21,454.77 L682.26,456.38 L693.25,458.21 L704.16,460.28 L714.99,462.57 L725.74,465.09 L736.39,467.83 L746.94,470.78 L757.37,473.95 L767.68,477.34 L777.87,480.93 L787.92,484.73 L797.83,488.73 L807.59,492.92 L817.19,497.32 L826.62,501.89 L835.88,506.66 L844.97,511.60 L853.86,516.72 L862.57,522.01 L871.08,527.46 L879.38,533.07 L887.47,538.83 L895.34,544.74 L902.99,550.80 L910.42,556.98 L917.61,563.30 L924.56,569.74 L931.26,576.29 L937.72,582.96 L943.93,589.73 L949.88,596.59 L955.57,603.54 L960.99,610.57 L966.15,617.68 L971.03,624.86 L975.64,632.09 L979.97,639.38 L984.02,646.71 L987.79,654.08 L991.27,661.48 L994.46,668.91 L997.37,676.34 L999.98,683.79 L1002.30,691.23 L1004.33,698.67 L1006.07,706.09 L1007.51,713.48 L1008.66,720.85 L1009.52,728.17 L1010.08,735.45 L1010.35,742.67 L1010.32,749.83 L1010.01,756.92 L1009.40,763.94 L1008.50,770.87 L1007.32,777.70 L1005.85,784.44 L1004.10,791.07 L1002.07,797.58 L999.77,803.97 L997.18,810.24 L994.33,816.37 L991.20,822.35 L987.82,828.19 L984.17,833.87 L980.26,839.39 L976.10,844.75 L971.70,849.92 L967.05,854.92 L962.16,859.73 L957.03,864.35 L951.68,868.77 L946.11,872.99 L940.32,877.00 L934.31,880.80 L928.11,884.38 L921.70,887.74 L915.09,890.87 L908.31,893.77 L901.34,896.43 L894.19,898.85 L886.88,901.04 L879.41,902.97 L871.79,904.66 L864.02,906.09 L856.11,907.27 L848.07,908.19 L839.91,908.84 L831.63,909.24 L823.25,909.37 L814.76,909.24 L806.18,908.84 L797.52,908.17 L788.78,907.24 L779.97,906.03 L771.10,904.55 L762.18,902.80 L753.21,900.79 L744.20,898.50 L735.17,895.94 L726.12,893.11 L717.05,890.02 L707.98,886.66 L698.92,883.03 L689.86,879.14 L680.83,874.99 L671.82,870.58 L662.85,865.91 L653.92,860.99 L645.05,855.82 L636.23,850.40 L627.48,844.74 L618.81,838.83 L610.21,832.69 L601.71,826.32 L593.30,819.71 L585.00,812.89 L576.80,805.84 L568.73,798.58 L560.78,791.11 L552.96,783.43 L545.28,775.56 L537.74,767.49 L530.35,759.24 L523.12,750.80 L516.05,742.19 L509.15,733.41 L502.43,724.47 L495.88,715.37 L489.52,706.12 L483.34,696.73 L477.36,687.21 L471.58,677.56 L466.01,667.79 L460.64,657.91 L455.48,647.92 L450.54,637.84 L445.82,627.66 L441.32,617.41 L437.05,607.08 L433.00,596.68 L429.19,586.23 L425.61,575.73 L422.27,565.18 L419.16,554.61 L416.30,544.01 L413.67,533.39 L411.29,522.77 L409.16,512.14 L407.27,501.53 L405.63,490.93 L404.23,480.37 L403.08,469.83 L402.17,459.34 L401.51,448.90 L401.10,438.52 L400.93,428.21 L401.00,417.97 L401.32,407.82 L401.88,397.76 L402.67,387.81 L403.71,377.96 L404.98,368.23 L406.48,358.63 L408.21,349.16 L410.17,339.82 L412.36,330.64 L414.76,321.61 L417.38,312.75 L420.22,304.06 L423.27,295.54 L426.52,287.21 L429.97,279.07 L433.63,271.12 L437.47,263.38 L441.50,255.85 L445.71,248.54 L450.11,241.45 L454.67,234.59 L459.40,227.96 L464.29,221.58 L469.34,215.43 L474.53,209.54 L479.87,203.90 L485.34,198.52 L490.95,193.41 L496.68,188.56 L502.52,183.99 L508.48,179.69 L514.54,175.67 L520.70,171.93 L526.94,168.48 L533.27,165.31 L539.68,162.44 L546.15,159.86 L552.68,157.58 L559.27,155.59 L565.90,153.91 L572.57,152.52 L579.27,151.44 L585.99,150.65 L592.73,150.18 L599.48,150.00 L606.23,150.13 L612.97,150.56 L619.70,151.30 L626.41,152.34 L633.08,153.68 L639.72,155.32 L646.31,157.26 L652.86,159.49 L659.34,162.03 L665.75,164.85 L672.09,167.97 L678.35,171.38 L684.52,175.08 L690.60,179.05 L696.57,183.31 L702.43,187.84 L708.18,192.65 L713.81,197.72 L719.30,203.06 L724.66,208.66 L729.88,214.51 L734.95,220.62 L739.86,226.97 L744.62,233.56 L749.21,240.39 L753.62,247.44 L757.87,254.72 L761.93,262.22 L765.80,269.92 L769.48,277.84 L772.96,285.95 L776.25,294.25 L779.33,302.74 L782.19,311.41 L784.85,320.25 L787.29,329.25 L789.51,338.41 L791.50,347.72 L793.27,357.17 L794.81,366.75 L796.11,376.46 L797.18,386.29 L798.02,396.23 L798.61,406.28 L798.97,416.41 L799.08,426.63 L798.95,436.94 L798.57,447.31 L797.95,457.74 L797.08,468.22 L795.97,478.75 L794.60,489.31 L793.00,499.91 L791.15,510.52 L789.05,521.14 L786.71,531.76 L784.12,542.38 L781.29,552.98 L778.22,563.56 L774.92,574.11 L771.37,584.62 L767.60,595.08 L763.59,605.49 L759.35,615.83 L754.88,626.10 L750.20,636.28 L745.29,646.38 L740.16,656.39 L734.83,666.29 L729.28,676.07 L723.53,685.74 L717.58,695.29 L711.44,704.69 L705.11,713.96 L698.59,723.08 L691.89,732.05 L685.02,740.85 L677.97,749.49 L670.77,757.96 L663.40,766.24 L655.89,774.33 L648.23,782.24 L640.43,789.94 L632.50,797.45 L624.44,804.74 L616.27,811.82 L607.98,818.68 L599.59,825.32 L591.10,831.73 L582.52,837.91 L573.85,843.85 L565.11,849.55 L556.31,855.01 L547.44,860.22 L538.52,865.17 L529.56,869.88 L520.55,874.33 L511.52,878.52 L502.47,882.45 L493.41,886.12 L484.34,889.52 L475.27,892.66 L466.21,895.52 L457.18,898.12 L448.17,900.45 L439.19,902.51 L430.26,904.30 L421.38,905.82 L412.57,907.07 L403.81,908.05 L395.14,908.76 L386.55,909.20 L378.04,909.37 L369.64,909.28 L361.35,908.92 L353.17,908.30 L345.11,907.42 L337.18,906.29 L329.39,904.89 L321.75,903.24 L314.25,901.35 L306.92,899.20 L299.75,896.82 L292.75,894.19 L285.93,891.33 L279.30,888.23 L272.86,884.91 L266.62,881.36 L260.59,877.60 L254.76,873.62 L249.16,869.43 L243.77,865.04 L238.61,860.45 L233.69,855.67 L229.00,850.70 L224.56,845.55 L220.36,840.22 L216.41,834.73 L212.73,829.07 L209.30,823.26 L206.13,817.29 L203.24,811.18 L200.61,804.94 L198.26,798.57 L196.19,792.07 L194.39,785.46 L192.88,778.74 L191.66,771.92 L190.72,765.00 L190.07,758.00 L189.71,750.92 L189.64,743.77 L189.86,736.56 L190.38,729.29 L191.19,721.97 L192.29,714.61 L193.69,707.22 L195.38,699.81 L197.37,692.37 L199.64,684.93 L202.21,677.48 L205.08,670.04 L208.23,662.62 L211.66,655.21 L215.39,647.84 L219.39,640.50 L223.68,633.20 L228.25,625.96 L233.09,618.78 L238.20,611.66 L243.58,604.61 L249.23,597.65 L255.14,590.77 L261.31,583.99 L267.73,577.31 L274.40,570.74 L281.31,564.28 L288.47,557.94 L295.85,551.74 L303.47,545.66 L311.31,539.73 L319.37,533.94 L327.64,528.31 L336.11,522.83 L344.79,517.52 L353.66,512.37 L362.71,507.40 L371.95,502.61 L381.36,498.00 L390.93,493.58 L400.67,489.36 L410.55,485.33 L420.58,481.50 L430.75,477.87 L441.04,474.46 L451.46,471.25 L461.99,468.27 L472.62,465.49 L483.35,462.94 L494.18,460.62 L505.08,458.52 L516.05,456.64 L527.09,455.00 L538.18,453.59 L549.33,452.41 L560.51,451.46 L571.72,450.75 L582.95,450.27 L594.19,450.03 L605.44,450.03 L616.69,450.26 L627.92,450.73 L639.13,451.43 L650.31,452.37 L661.46,453.54 L672.55,454.95 L683.59,456.59 L694.57,458.45 L705.48,460.55 L716.30,462.87 L727.03,465.41 L737.67,468.17 L748.20,471.15 L758.62,474.35 L768.92,477.76 L779.09,481.38 L789.13,485.20 L799.02,489.23 L808.76,493.45 L818.34,497.86 L827.75,502.46 L836.99,507.25 L846.05,512.21 L854.93,517.35 L863.61,522.66 L872.09,528.13 L880.37,533.76 L888.43,539.54 L896.28,545.47 L903.90,551.54 L911.30,557.74 L918.46,564.07 L925.38,570.53 L932.06,577.09 L938.49,583.77 L944.66,590.55 L950.58,597.42 L956.24,604.39 L961.63,611.43 L966.75,618.55 L971.60,625.73 L976.18,632.97 L980.47,640.26 L984.49,647.60 L988.22,654.98 L991.67,662.38 L994.83,669.81 L997.70,677.24 L1000.28,684.69 L1002.56,692.13 L1004.56,699.57 L1006.26,706.98 L1007.67,714.38 L1008.78,721.74 L1009.60,729.06 L1010.13,736.33 L1010.36,743.54 L1010.30,750.70 L1009.95,757.78 L1009.31,764.78 L1008.38,771.70 L1007.16,778.52 L1005.66,785.25 L1003.87,791.86 L1001.81,798.36 L999.47,804.74 L996.85,810.99 L993.96,817.10 L990.81,823.07 L987.39,828.89 L983.71,834.55 L979.77,840.05 L975.58,845.38 L971.15,850.54 L966.47,855.51 L961.55,860.30 L956.40,864.90 L951.02,869.29 L945.42,873.49 L939.60,877.47 L933.57,881.25 L927.34,884.80 L920.91,888.13 L914.28,891.23 L907.47,894.10 L900.48,896.74 L893.32,899.13 L885.99,901.28 L878.50,903.19 L870.86,904.84 L863.07,906.24 L855.15,907.39 L847.09,908.28 L838.92,908.91 L830.63,909.27 L822.23,909.37 L813.73,909.21 L805.14,908.78 L796.47,908.08 L787.72,907.11 L778.90,905.87 L770.02,904.36 L761.09,902.57 L752.12,900.52 L743.11,898.20 L734.08,895.61 L725.02,892.75 L715.96,889.62 L706.89,886.23 L697.82,882.57 L688.77,878.65 L679.74,874.47 L670.73,870.03 L661.77,865.33 L652.85,860.38 L643.98,855.18 L635.17,849.73 L626.43,844.04 L617.76,838.10 L609.18,831.93 L600.69,825.53 L592.29,818.90 L584.00,812.05 L575.82,804.97 L567.76,797.68 L559.82,790.19 L552.02,782.49 L544.36,774.59 L536.84,766.50 L529.47,758.22 L522.26,749.77 L515.21,741.14 L508.33,732.34 L501.62,723.37 L495.10,714.26 L488.76,704.99 L482.61,695.59 L476.65,686.05 L470.90,676.39 L465.35,666.60 L460.00,656.71 L454.87,646.71 L449.96,636.61 L445.26,626.42 L440.79,616.16 L436.55,605.82 L432.53,595.42 L428.74,584.96 L425.19,574.45 L421.88,563.90 L418.80,553.32 L415.97,542.72 L413.37,532.10 L411.02,521.48 L408.92,510.86 L407.06,500.25 L405.44,489.65 L404.07,479.09 L402.95,468.56 L402.08,458.07 L401.45,447.64 L401.06,437.27 L400.92,426.96 L401.03,416.74 L401.37,406.60 L401.96,396.55 L402.79,386.61 L403.85,376.78 L405.15,367.06 L406.68,357.47 L408.44,348.02 L410.42,338.71 L412.64,329.54 L415.07,320.53 L417.72,311.69 L420.58,303.02 L423.65,294.52 L426.93,286.21 L430.41,278.09 L434.08,270.17 L437.95,262.46 L442.00,254.96 L446.24,247.67 L450.65,240.61 L455.23,233.78 L459.98,227.18 L464.89,220.82 L469.96,214.71 L475.17,208.84 L480.52,203.24 L486.02,197.89 L491.64,192.81 L497.38,187.99 L503.24,183.45 L509.21,179.19 L515.28,175.20 L521.45,171.50 L527.70,168.08 L534.04,164.95 L540.46,162.11 L546.94,159.57 L553.47,157.32 L560.07,155.37 L566.70,153.72 L573.38,152.37 L580.08,151.33 L586.81,150.58 L593.55,150.14 L600.30,150.00 L607.05,150.17 L613.79,150.63 L620.51,151.41 L627.22,152.48 L633.89,153.86 L640.52,155.53 L647.11,157.51 L653.64,159.78 L660.12,162.35 L666.52,165.22 L672.85,168.37 L679.10,171.81 L685.26,175.54 L691.33,179.55 L697.29,183.84 L703.14,188.41 L708.87,193.25 L714.48,198.35 L719.96,203.72 L725.30,209.35 L730.50,215.24 L735.55,221.37 L740.45,227.75 L745.18,234.37 L749.75,241.23 L754.15,248.31 L758.37,255.61 L762.40,263.14 L766.25,270.87 L769.91,278.81 L773.37,286.94 L776.63,295.27 L779.68,303.78 L782.53,312.47 L785.16,321.33 L787.57,330.35 L789.76,339.53 L791.73,348.85 L793.47,358.32 L794.98,367.92 L796.25,377.65 L797.30,387.49 L798.10,397.44 L798.67,407.50 L798.99,417.64 L799.07,427.88 L798.91,438.19 L798.51,448.56 L797.86,459.00 L796.96,469.49 L795.81,480.03 L794.42,490.59 L792.79,501.19 L790.91,511.80 L788.78,522.42 L786.41,533.05 L783.79,543.66 L780.93,554.27 L777.84,564.84 L774.50,575.39 L770.93,585.89 L767.12,596.34 L763.09,606.74 L758.82,617.07 L754.33,627.33 L749.61,637.51 L744.68,647.60 L739.53,657.59 L734.17,667.48 L728.60,677.25 L722.82,686.90 L716.85,696.43 L710.69,705.82 L704.33,715.07 L697.79,724.18 L691.07,733.12 L684.17,741.91 L677.11,750.53 L669.88,758.97 L662.50,767.23 L654.97,775.30 L647.29,783.18 L639.48,790.86 L631.53,798.34 L623.46,805.61 L615.27,812.66 L606.97,819.50 L598.56,826.11 L590.06,832.49 L581.47,838.64 L572.80,844.55 L564.05,850.22 L555.24,855.65 L546.36,860.83 L537.44,865.76 L528.47,870.43 L519.46,874.85 L510.43,879.01 L501.37,882.91 L492.31,886.54 L483.24,889.91 L474.17,893.02 L465.12,895.85 L456.09,898.42 L447.08,900.72 L438.11,902.74 L429.19,904.50 L420.31,905.99 L411.50,907.20 L402.76,908.15 L394.09,908.83 L385.51,909.23 L377.02,909.37 L368.63,909.25 L360.35,908.86 L352.19,908.21 L344.14,907.30 L336.23,906.13 L328.46,904.71 L320.83,903.03 L313.36,901.10 L306.04,898.93 L298.89,896.51 L291.92,893.86 L285.12,890.96 L278.51,887.84 L272.10,884.49 L265.88,880.92 L259.87,877.13 L254.07,873.12 L248.49,868.91 L243.13,864.50 L238.00,859.88 L233.11,855.08 L228.45,850.09 L224.03,844.92 L219.87,839.57 L215.95,834.05 L212.30,828.38 L208.90,822.54 L205.77,816.56 L202.91,810.44 L200.31,804.18 L198.00,797.79 L195.96,791.28 L194.20,784.65 L192.72,777.92 L191.53,771.09 L190.62,764.16 L190.01,757.15 L189.68,750.06 L189.65,742.91 L189.91,735.68 L190.46,728.41 L191.30,721.08 L192.44,713.72 L193.88,706.33 L195.61,698.91 L197.63,691.47 L199.94,684.03 L202.55,676.58 L205.44,669.15 L208.63,661.72 L212.10,654.32 L215.86,646.95 L219.90,639.61 L224.22,632.33 L228.82,625.09 L233.69,617.91 L238.84,610.80 L244.25,603.76 L249.93,596.81 L255.87,589.94 L262.07,583.17 L268.52,576.51 L275.22,569.95 L282.17,563.51 L289.35,557.19 L296.76,550.99 L304.41,544.94 L312.27,539.02 L320.36,533.25 L328.65,527.64 L337.15,522.18 L345.85,516.89 L354.74,511.76 L363.82,506.81 L373.08,502.05 L382.51,497.46 L392.10,493.06 L401.85,488.86 L411.76,484.85 L421.80,481.05 L431.99,477.45 L442.30,474.06 L452.73,470.88 L463.27,467.92 L473.92,465.17 L484.66,462.65 L495.49,460.35 L506.40,458.28 L517.38,456.43 L528.43,454.81 L539.53,453.43 L550.68,452.28 L561.86,451.36 L573.07,450.68 L584.31,450.23 L595.56,450.02 L606.80,450.04 L618.05,450.30 L629.28,450.80 L640.49,451.53 L651.67,452.50 L662.80,453.70 L673.89,455.13 L684.93,456.80 L695.89,458.69 L706.79,460.81 L717.60,463.16 L728.33,465.73 L738.95,468.52 L749.47,471.53 L759.88,474.75 L770.16,478.19 L780.32,481.83 L790.33,485.68 L800.20,489.73 L809.92,493.97 L819.48,498.41 L828.88,503.03 L838.10,507.84 L847.14,512.82 L855.99,517.98 L864.65,523.31 L873.10,528.80 L881.36,534.45 L889.39,540.25 L897.21,546.20 L904.81,552.28 L912.18,558.50 L919.31,564.85 L926.20,571.31 L932.85,577.90 L939.25,584.59 L945.39,591.38 L951.28,598.26 L956.91,605.23 L962.26,612.29 L967.35,619.41 L972.17,626.60 L976.71,633.85 L980.98,641.15 L984.96,648.49 L988.65,655.87 L992.07,663.28 L995.19,670.71 L998.03,678.15 L1000.57,685.59 L1002.82,693.03 L1004.78,700.47 L1006.45,707.88 L1007.82,715.27 L1008.90,722.62 L1009.68,729.94 L1010.17,737.20 L1010.37,744.41 L1010.27,751.56 L1009.89,758.63 L1009.21,765.62 L1008.24,772.53 L1006.99,779.34 L1005.46,786.05 L1003.64,792.65 L1001.54,799.14 L999.17,805.50 L996.52,811.73 L993.60,817.83 L990.41,823.78 L986.96,829.58 L983.25,835.22 L979.28,840.70 L975.06,846.01 L970.59,851.15 L965.89,856.10 L960.94,860.87 L955.76,865.44 L950.36,869.81 L944.73,873.98 L938.88,877.94 L932.83,881.69 L926.57,885.21 L920.12,888.52 L913.47,891.59 L906.64,894.43 L899.62,897.04 L892.44,899.40 L885.09,901.53 L877.58,903.40 L869.92,905.03 L862.12,906.40 L854.18,907.51 L846.11,908.37 L837.92,908.96 L829.62,909.30 L821.20,909.37 L812.70,909.17 L804.10,908.71 L795.41,907.97 L786.65,906.97 L777.83,905.70 L768.95,904.15 L760.01,902.34 L751.03,900.26 L742.02,897.90 L732.98,895.28 L723.93,892.39 L714.86,889.23 L705.79,885.80 L696.72,882.11 L687.67,878.16 L678.65,873.95 L669.65,869.47 L660.69,864.74 L651.77,859.76 L642.91,854.53 L634.11,849.05 L625.37,843.33 L616.72,837.37 L608.15,831.17 L599.66,824.74 L591.28,818.08 L583.00,811.20 L574.84,804.10 L566.79,796.79 L558.87,789.27 L551.09,781.54 L543.44,773.62 L535.94,765.51 L528.59,757.21 L521.39,748.73 L514.37,740.08 L507.51,731.26 L500.83,722.28 L494.32,713.15 L488.01,703.86 L481.88,694.44 L475.95,684.89 L470.22,675.21 L464.69,665.41 L459.37,655.50 L454.27,645.49 L449.38,635.38 L444.71,625.19 L440.27,614.91 L436.05,604.57 L432.06,594.16 L428.30,583.69 L424.78,573.18 L421.49,562.63 L418.45,552.04 L415.64,541.44 L413.08,530.82 L410.76,520.20 L408.68,509.57 L406.85,498.96 L405.26,488.37 L403.93,477.81 L402.83,467.29 L401.99,456.81 L401.39,446.38 L401.03,436.02 L400.92,425.72 L401.06,415.51 L401.43,405.38 L402.05,395.35 L402.90,385.42 L403.99,375.60 L405.32,365.90 L406.88,356.32 L408.67,346.89 L410.68,337.59 L412.92,328.44 L415.38,319.45 L418.05,310.63 L420.94,301.98 L424.04,293.51 L427.34,285.22 L430.84,277.12 L434.54,269.23 L438.43,261.54 L442.50,254.06 L446.76,246.80 L451.19,239.77 L455.80,232.96 L460.57,226.39 L465.50,220.07 L470.58,213.98 L475.81,208.15 L481.18,202.58 L486.69,197.26 L492.32,192.21 L498.08,187.43 L503.96,182.92 L509.94,178.69 L516.02,174.74 L522.20,171.07 L528.47,167.69 L534.81,164.59 L541.24,161.79 L547.72,159.28 L554.27,157.07 L560.87,155.16 L567.51,153.54 L574.19,152.23 L580.90,151.22 L587.62,150.51 L594.37,150.11 L601.12,150.00 L607.86,150.21 L614.60,150.71 L621.33,151.52 L628.02,152.63 L634.69,154.04 L641.32,155.76 L647.90,157.77 L654.43,160.08 L660.90,162.68 L667.29,165.58 L673.62,168.77 L679.85,172.25 L686.00,176.01 L692.05,180.06 L698.00,184.38 L703.84,188.98 L709.55,193.85 L715.15,198.99 L720.61,204.39 L725.94,210.05 L731.12,215.97 L736.15,222.13 L741.03,228.54 L745.74,235.19 L750.29,242.07 L754.67,249.18 L758.87,256.51 L762.88,264.06 L766.71,271.82 L770.34,279.78 L773.78,287.94 L777.01,296.29 L780.04,304.82 L782.86,313.53 L785.46,322.41 L787.85,331.45 L790.01,340.65 L791.95,349.99 L793.66,359.48 L795.14,369.09 L796.39,378.83 L797.41,388.69 L798.18,398.65 L798.72,408.72 L799.01,418.88 L799.07,429.12 L798.88,439.44 L798.44,449.82 L797.76,460.27 L796.83,470.76 L795.66,481.30 L794.24,491.87 L792.57,502.47 L790.66,513.09 L788.50,523.71 L786.10,534.33 L783.46,544.95 L780.57,555.55 L777.45,566.12 L774.08,576.66 L770.48,587.16 L766.65,597.61 L762.58,608.00 L758.29,618.32 L753.77,628.57 L749.03,638.74 L744.07,648.81 L738.89,658.79 L733.50,668.66 L727.91,678.42 L722.11,688.06 L716.12,697.57 L709.93,706.95 L703.55,716.18 L696.98,725.27 L690.24,734.20 L683.33,742.96 L676.24,751.56 L669.00,759.98 L661.60,768.21 L654.05,776.26 L646.35,784.12 L638.52,791.78 L630.56,799.23 L622.47,806.47 L614.27,813.50 L605.96,820.31 L597.54,826.89 L589.03,833.25 L580.43,839.37 L571.74,845.25 L562.99,850.89 L554.17,856.29 L545.29,861.44 L536.35,866.34 L527.38,870.98 L518.37,875.37 L509.33,879.50 L500.28,883.36 L491.21,886.96 L482.14,890.30 L473.08,893.37 L464.03,896.18 L454.99,898.71 L445.99,900.98 L437.03,902.97 L428.11,904.69 L419.24,906.15 L410.44,907.33 L401.71,908.24 L393.05,908.89 L384.48,909.26 L376.00,909.37 L367.63,909.22 L359.36,908.80 L351.21,908.11 L343.18,907.17 L335.28,905.97 L327.53,904.52 L319.92,902.81 L312.46,900.85 L305.17,898.65 L298.04,896.20 L291.08,893.52 L284.31,890.60 L277.73,887.45 L271.33,884.07 L265.14,880.47 L259.16,876.66 L253.39,872.63 L247.83,868.39 L242.50,863.95 L237.40,859.31 L232.53,854.48 L227.90,849.47 L223.52,844.28 L219.38,838.91 L215.50,833.37 L211.87,827.68 L208.51,821.83 L205.41,815.83 L202.58,809.69 L200.02,803.41 L197.73,797.01 L195.73,790.48 L194.00,783.84 L192.56,777.10 L191.40,770.25 L190.53,763.32 L189.95,756.30 L189.66,749.20 L189.66,742.03 L189.96,734.81 L190.55,727.52 L191.43,720.20 L192.60,712.83 L194.07,705.43 L195.83,698.01 L197.89,690.57 L200.24,683.13 L202.88,675.68 L205.81,668.25 L209.03,660.83 L212.54,653.43 L216.33,646.06 L220.40,638.73 L224.76,631.45 L229.39,624.22 L234.30,617.05 L239.48,609.95 L244.93,602.92 L250.64,595.97 L256.61,589.12 L262.84,582.36 L269.32,575.71 L276.05,569.16 L283.02,562.73 L290.23,556.43 L297.68,550.25 L305.35,544.21 L313.24,538.32 L321.35,532.57 L329.67,526.97 L338.20,521.53 L346.92,516.26 L355.83,511.16 L364.93,506.23 L374.21,501.48 L383.66,496.92 L393.27,492.54 L403.04,488.36 L412.97,484.38 L423.03,480.60 L433.23,477.03 L443.55,473.66 L454.00,470.51 L464.55,467.57 L475.21,464.86 L485.96,462.36 L496.81,460.09 L507.73,458.04 L518.72,456.22 L529.77,454.63 L540.88,453.28 L552.03,452.15 L563.22,451.27 L574.43,450.61 L585.67,450.19 L596.92,450.01 L608.17,450.06 L619.41,450.35 L630.64,450.88 L641.84,451.64 L653.01,452.63 L664.15,453.86 L675.23,455.32 L686.26,457.02 L697.22,458.94 L708.10,461.09 L718.90,463.46 L729.62,466.06 L740.23,468.87 L750.74,471.91 L761.13,475.16 L771.40,478.62 L781.53,482.28 L791.53,486.16 L801.39,490.23 L811.09,494.50 L820.63,498.96 L830.00,503.60 L839.20,508.43 L848.22,513.44 L857.05,518.62 L865.68,523.97 L874.11,529.48 L882.34,535.14 L890.35,540.96 L898.15,546.92 L905.71,553.03 L913.05,559.26 L920.16,565.62 L927.02,572.10 L933.64,578.70 L940.01,585.40 L946.12,592.21 L951.98,599.10 L957.57,606.08 L962.89,613.14 L967.95,620.28 L972.74,627.48 L977.24,634.73 L981.47,642.04 L985.42,649.38 L989.08,656.77 L992.46,664.18 L995.55,671.60 L998.35,679.05 L1000.86,686.49 L1003.07,693.93 L1005.00,701.36 L1006.63,708.78 L1007.97,716.16 L1009.01,723.51 L1009.76,730.82 L1010.21,738.08 L1010.37,745.28 L1010.24,752.42 L1009.82,759.48 L1009.11,766.46 L1008.11,773.36 L1006.82,780.16 L1005.25,786.86 L1003.40,793.44 L1001.27,799.91 L998.86,806.26 L996.18,812.48 L993.22,818.56 L990.01,824.49 L986.52,830.27 L982.78,835.90 L978.78,841.36 L974.53,846.65 L970.04,851.76 L965.30,856.69 L960.33,861.43 L955.12,865.98 L949.69,870.33 L944.03,874.47 L938.16,878.41 L932.08,882.13 L925.80,885.62 L919.32,888.90 L912.65,891.95 L905.80,894.76 L898.76,897.34 L891.56,899.67 L884.19,901.77 L876.66,903.61 L868.99,905.20 L861.17,906.55 L853.21,907.63 L845.13,908.45 L836.92,909.02 L828.60,909.32 L820.18,909.36 L811.66,909.13 L803.05,908.63 L794.36,907.87 L785.59,906.83 L776.76,905.52 L767.87,903.95 L758.93,902.10 L749.94,899.99 L740.93,897.60 L731.89,894.94 L722.83,892.02 L713.76,888.83 L704.69,885.37 L695.63,881.65 L686.58,877.66 L677.56,873.42 L668.56,868.91 L659.60,864.16 L650.70,859.14 L641.84,853.88 L633.05,848.37 L624.32,842.62 L615.68,836.63 L607.11,830.40 L598.64,823.95 L590.27,817.26 L582.01,810.35 L573.86,803.23 L565.83,795.89 L557.92,788.34 L550.15,780.60 L542.52,772.65 L535.04,764.52 L527.71,756.19 L520.54,747.69 L513.53,739.02 L506.69,730.18 L500.03,721.18 L493.55,712.03 L487.25,702.73 L481.15,693.29 L475.24,683.72 L469.54,674.03 L464.04,664.22 L458.74,654.30 L453.66,644.27 L448.80,634.15 L444.16,623.95 L439.74,613.66 L435.55,603.31 L431.59,592.89 L427.86,582.42 L424.37,571.90 L421.11,561.35 L418.09,550.76 L415.32,540.15 L412.78,529.53 L410.49,518.91 L408.45,508.29 L406.64,497.68 L405.09,487.09 L403.78,476.54 L402.72,466.02 L401.90,455.54 L401.33,445.12 L401.01,434.77 L400.93,424.48 L401.09,414.28 L401.49,404.16 L402.14,394.14 L403.02,384.22 L404.14,374.42 L405.50,364.73 L407.08,355.17 L408.90,345.75 L410.94,336.47 L413.20,327.35 L415.69,318.38 L418.39,309.57 L421.30,300.94 L424.42,292.49 L427.75,284.23 L431.28,276.16 L435.00,268.29 L438.91,260.62 L443.01,253.17 L447.29,245.94 L451.74,238.93 L456.37,232.16 L461.16,225.62 L466.10,219.32 L471.21,213.26 L476.45,207.46 L481.84,201.92 L487.36,196.64 L493.01,191.62 L498.79,186.87 L504.67,182.39 L510.67,178.19 L516.76,174.28 L522.95,170.64 L529.23,167.30 L535.59,164.24 L542.02,161.47 L548.51,159.00 L555.07,156.82 L561.67,154.95 L568.32,153.37 L575.00,152.09 L581.71,151.12 L588.44,150.45 L595.18,150.08 L601.93,150.01 L608.68,150.25 L615.42,150.79 L622.14,151.64 L628.83,152.79 L635.50,154.24 L642.12,155.99 L648.69,158.03 L655.22,160.38 L661.67,163.02 L668.06,165.95 L674.37,169.18 L680.60,172.69 L686.74,176.49 L692.78,180.57 L698.71,184.92 L704.53,189.56 L710.24,194.46 L715.82,199.63 L721.26,205.06 L726.57,210.75 L731.73,216.70 L736.75,222.89 L741.61,229.33 L746.30,236.01 L750.83,242.92 L755.18,250.06 L759.36,257.41 L763.35,264.99 L767.16,272.77 L770.77,280.76 L774.18,288.94 L777.39,297.31 L780.39,305.87 L783.18,314.60 L785.76,323.50 L788.12,332.56 L790.26,341.77 L792.17,351.13 L793.85,360.63 L795.31,370.26 L796.53,380.02 L797.51,389.89 L798.26,399.87 L798.77,409.94 L799.03,420.11 L799.06,430.36 L798.84,440.69 L798.37,451.08 L797.66,461.54 L796.70,472.04 L795.50,482.58 L794.05,493.16 L792.35,503.76 L790.41,514.37 L788.23,525.00 L785.80,535.62 L783.12,546.23 L780.21,556.83 L777.05,567.40 L773.66,577.93 L770.03,588.42 L766.17,598.87 L762.08,609.25 L757.75,619.56 L753.21,629.80 L748.44,639.96 L743.45,650.03 L738.25,659.99 L732.84,669.85 L727.22,679.60 L721.40,689.22 L715.38,698.72 L709.16,708.07 L702.76,717.29 L696.18,726.36 L689.41,735.26 L682.48,744.01 L675.38,752.58 L668.11,760.98 L660.69,769.20 L653.12,777.23 L645.41,785.06 L637.57,792.69 L629.59,800.12 L621.49,807.34 L613.27,814.34 L604.94,821.12 L596.52,827.67 L587.99,834.00 L579.38,840.09 L570.69,845.95 L561.92,851.56 L553.10,856.93 L544.21,862.04 L535.27,866.91 L526.29,871.53 L517.28,875.88 L508.24,879.98 L499.18,883.81 L490.11,887.38 L481.04,890.69 L471.98,893.73 L462.93,896.50 L453.90,899.00 L444.91,901.23 L435.95,903.19 L427.03,904.88 L418.18,906.31 L409.38,907.46 L400.66,908.34 L392.01,908.95 L383.45,909.29 L374.98,909.37 L366.62,909.18 L358.37,908.73 L350.23,908.01 L342.22,907.04 L334.34,905.81 L326.60,904.32 L319.01,902.58 L311.57,900.60 L304.29,898.37 L297.19,895.89 L290.26,893.18 L283.50,890.23 L276.94,887.05 L270.58,883.65 L264.41,880.02 L258.45,876.18 L252.70,872.12 L247.17,867.86 L241.87,863.40 L236.80,858.74 L231.96,853.89 L227.36,848.85 L223.00,843.64 L218.90,838.25 L215.05,832.69 L211.45,826.98 L208.12,821.11 L205.05,815.09 L202.25,808.93 L199.73,802.64 L197.48,796.22 L195.50,789.68 L193.81,783.03 L192.41,776.28 L191.28,769.42 L190.45,762.47 L189.90,755.44 L189.65,748.34 L189.68,741.16 L190.01,733.93 L190.64,726.64 L191.55,719.31 L192.76,711.94 L194.27,704.53 L196.07,697.11 L198.16,689.67 L200.54,682.23 L203.22,674.78 L206.19,667.35 L209.44,659.93 L212.98,652.53 L216.81,645.17 L220.92,637.85 L225.30,630.57 L229.97,623.35 L234.91,616.18 L240.12,609.09 L245.60,602.07 L251.35,595.14 L257.35,588.30 L263.61,581.55 L270.12,574.91 L276.88,568.38 L283.88,561.96 L291.12,555.67 L298.59,549.52 L306.29,543.49 L314.21,537.61 L322.35,531.88 L330.69,526.30 L339.24,520.88 L347.99,515.63 L356.92,510.55 L366.05,505.64 L375.34,500.92 L384.81,496.38 L394.45,492.03 L404.24,487.87 L414.18,483.91 L424.26,480.16 L434.47,476.61 L444.81,473.27 L455.27,470.14 L465.84,467.23 L476.51,464.54 L487.27,462.07 L498.12,459.83 L509.05,457.81 L520.05,456.02 L531.11,454.46 L542.22,453.13 L553.38,452.03 L564.57,451.17 L575.79,450.55 L587.03,450.16 L598.28,450.00 L609.53,450.08 L620.77,450.40 L631.99,450.96 L643.20,451.75 L654.36,452.77 L665.49,454.03 L676.57,455.52 L687.59,457.24 L698.54,459.19 L709.41,461.36 L720.21,463.76 L730.91,466.39 L741.51,469.23 L752.00,472.29 L762.38,475.56 L772.63,479.05 L782.75,482.74 L792.73,486.64 L802.57,490.73 L812.25,495.03 L821.77,499.51 L831.12,504.18 L840.30,509.03 L849.30,514.06 L858.10,519.26 L866.71,524.63 L875.12,530.16 L883.32,535.84 L891.31,541.68 L899.07,547.66 L906.61,553.77 L913.93,560.02 L921.00,566.40 L927.83,572.90 L934.42,579.51 L940.76,586.22 L946.84,593.03 L952.67,599.94 L958.23,606.93 L963.52,614.00 L968.55,621.15 L973.30,628.35 L977.77,635.61 L981.96,642.92 L985.88,650.27 L989.51,657.66 L992.85,665.07 L995.90,672.50 L998.67,679.95 L1001.14,687.39 L1003.32,694.83 L1005.21,702.26 L1006.81,709.67 L1008.11,717.05 L1009.11,724.40 L1009.83,731.70 L1010.25,738.95 L1010.37,746.15 L1010.21,753.27 L1009.75,760.33 L1009.00,767.30 L1007.97,774.19 L1006.65,780.97 L1005.04,787.66 L1003.16,794.23 L1000.99,800.69 L998.55,807.02 L995.83,813.22 L992.85,819.28 L989.60,825.20 L986.08,830.96 L982.31,836.57 L978.28,842.00 L974.00,847.27 L969.48,852.36 L964.71,857.27 L959.71,861.99 L954.47,866.52 L949.01,870.84 L943.33,874.96 L937.44,878.87 L931.34,882.56 L925.03,886.03 L918.53,889.28 L911.83,892.30 L904.95,895.08 L897.90,897.63 L890.68,899.94 L883.29,902.00 L875.74,903.82 L868.05,905.38 L860.21,906.69 L852.24,907.74 L844.14,908.54 L835.92,909.07 L827.59,909.34 L819.15,909.34 L810.62,909.08 L802.00,908.55 L793.30,907.75 L784.52,906.69 L775.68,905.35 L766.79,903.74 L757.84,901.86 L748.86,899.71 L739.84,897.29 L730.79,894.60 L721.73,891.65 L712.66,888.42 L703.59,884.93 L694.53,881.18 L685.49,877.16 L676.47,872.89 L667.48,868.35 L658.52,863.56 L649.62,858.52 L640.77,853.23 L631.99,847.69 L623.27,841.91 L614.64,835.89 L606.09,829.64 L597.63,823.15 L589.27,816.44 L581.02,809.50 L572.88,802.35 L564.86,794.99 L556.98,787.42 L549.22,779.65 L541.61,771.68 L534.14,763.52 L526.83,755.18 L519.68,746.65 L512.69,737.96 L505.88,729.10 L499.23,720.08 L492.78,710.91 L486.51,701.60 L480.43,692.14 L474.54,682.56 L468.86,672.85 L463.38,663.02 L458.12,653.09 L453.06,643.05 L448.23,632.92 L443.61,622.71 L439.22,612.42 L435.06,602.05 L431.13,591.63 L427.43,581.15 L423.96,570.63 L420.73,560.07 L417.75,549.48 L415.00,538.87 L412.49,528.25 L410.23,517.63 L408.21,507.01 L406.44,496.40 L404.92,485.82 L403.64,475.26 L402.61,464.75 L401.82,454.28 L401.28,443.87 L400.98,433.52 L400.93,423.24 L401.13,413.05 L401.56,402.94 L402.23,392.93 L403.14,383.03 L404.29,373.24 L405.68,363.57 L407.29,354.03 L409.13,344.62 L411.20,335.36 L413.49,326.25 L416.00,317.30 L418.73,308.52 L421.67,299.91 L424.82,291.48 L428.17,283.24 L431.72,275.20 L435.46,267.35 L439.40,259.71 L443.52,252.29 L447.82,245.08 L452.29,238.10 L456.94,231.35 L461.75,224.84 L466.71,218.57 L471.83,212.55 L477.10,206.78 L482.50,201.27 L488.04,196.01 L493.71,191.03 L499.49,186.31 L505.39,181.87 L511.40,177.71 L517.51,173.82 L523.71,170.22 L530.00,166.91 L536.36,163.89 L542.80,161.16 L549.30,158.72 L555.86,156.58 L562.47,154.74 L569.12,153.20 L575.81,151.96 L582.52,151.02 L589.25,150.39 L596.00,150.05 L602.75,150.03 L609.50,150.30 L616.23,150.88 L622.95,151.76 L629.64,152.95 L636.30,154.43 L642.92,156.22 L649.49,158.30 L656.00,160.68 L662.45,163.36 L668.83,166.33 L675.13,169.59 L681.35,173.13 L687.48,176.96 L693.50,181.08 L699.42,185.47 L705.23,190.13 L710.92,195.07 L716.48,200.27 L721.91,205.74 L727.20,211.46 L732.35,217.44 L737.34,223.66 L742.18,230.13 L746.86,236.83 L751.37,243.77 L755.70,250.93 L759.85,258.32 L763.82,265.92 L767.60,273.73 L771.19,281.74 L774.58,289.94 L777.76,298.34 L780.74,306.91 L783.51,315.66 L786.06,324.58 L788.39,333.66 L790.50,342.90 L792.39,352.27 L794.04,361.79 L795.47,371.44 L796.66,381.21 L797.62,391.09 L798.33,401.08 L798.81,411.17 L799.05,421.35 L799.04,431.61 L798.79,441.95 L798.30,452.35 L797.56,462.80 L796.57,473.31 L795.34,483.86 L793.86,494.44 L792.13,505.04 L790.16,515.66 L787.95,526.28 L785.49,536.90 L782.78,547.51 L779.84,558.11 L776.65,568.67 L773.23,579.20 L769.58,589.69 L765.69,600.13 L761.56,610.50 L757.22,620.81 L752.64,631.04 L747.85,641.18 L742.83,651.24 L737.61,661.19 L732.17,671.04 L726.53,680.77 L720.68,690.38 L714.64,699.86 L708.40,709.20 L701.98,718.40 L695.37,727.44 L688.58,736.33 L681.63,745.06 L674.51,753.61 L667.22,761.99 L659.79,770.18 L652.20,778.18 L644.47,785.99 L636.61,793.60 L628.61,801.00 L620.50,808.19 L612.27,815.17 L603.93,821.92 L595.49,828.45 L586.95,834.75 L578.33,840.81 L569.63,846.64 L560.86,852.22 L552.02,857.56 L543.13,862.65 L534.19,867.48 L525.20,872.07 L516.19,876.39 L507.14,880.46 L498.09,884.26 L489.02,887.80 L479.95,891.07 L470.89,894.08 L461.84,896.81 L452.81,899.28 L443.82,901.48 L434.87,903.41 L425.96,905.07 L417.11,906.46 L408.32,907.58 L399.61,908.43 L390.97,909.00 L382.42,909.32 L373.97,909.36 L365.61,909.14 L357.37,908.66 L349.25,907.91 L341.26,906.90 L333.39,905.64 L325.67,904.13 L318.10,902.36 L310.68,900.34 L303.43,898.08 L296.34,895.58 L289.43,892.83 L282.70,889.86 L276.16,886.65 L269.82,883.22 L263.68,879.57 L257.74,875.70 L252.02,871.62 L246.52,867.33 L241.25,862.85 L236.20,858.16 L231.39,853.29 L226.82,848.23 L222.49,842.99 L218.42,837.59 L214.60,832.01 L211.03,826.28 L207.73,820.39 L204.70,814.35 L201.93,808.18 L199.44,801.87 L197.22,795.44 L195.29,788.89 L193.63,782.22 L192.26,775.45 L191.17,768.58 L190.37,761.63 L189.86,754.59 L189.64,747.47 L189.71,740.29 L190.07,733.05 L190.73,725.76 L191.68,718.42 L192.93,711.04 L194.47,703.64 L196.31,696.21 L198.43,688.77 L200.85,681.33 L203.56,673.88 L206.56,666.45 L209.85,659.03 L213.43,651.64 L217.29,644.28 L221.43,636.96 L225.85,629.69 L230.55,622.48 L235.53,615.32 L240.77,608.24 L246.28,601.23 L252.06,594.31 L258.09,587.48 L264.38,580.74 L270.93,574.11 L277.72,567.60 L284.75,561.20 L292.01,554.92 L299.51,548.78 L307.24,542.77 L315.18,536.91 L323.35,531.20 L331.72,525.64 L340.29,520.24 L349.06,515.01 L358.02,509.95 L367.16,505.06 L376.48,500.36 L385.97,495.84 L395.62,491.51 L405.43,487.38 L415.39,483.45 L425.48,479.72 L435.71,476.19 L446.07,472.88 L456.54,469.78 L467.12,466.90 L477.80,464.23 L488.58,461.79 L499.44,459.57 L510.38,457.58 L521.39,455.82 L532.45,454.29 L543.57,452.98 L554.73,451.92 L565.93,451.09 L577.15,450.49 L588.39,450.13 L599.64,450.00 L610.89,450.11 L622.13,450.46 L633.35,451.04 L644.55,451.86 L655.71,452.91 L666.83,454.19 L677.90,455.71 L688.91,457.46 L699.86,459.44 L710.72,461.64 L721.51,464.07 L732.19,466.72 L742.78,469.59 L753.26,472.68 L763.62,475.98 L773.86,479.49 L783.97,483.20 L793.93,487.12 L803.75,491.24 L813.41,495.56 L822.91,500.06 L832.24,504.75 L841.40,509.63 L850.37,514.68 L859.15,519.90 L867.74,525.29 L876.12,530.83 L884.30,536.54 L892.26,542.39 L900.00,548.39 L907.51,554.52 L914.79,560.79 L921.84,567.18 L928.64,573.69 L935.20,580.31 L941.51,587.04 L947.56,593.87 L953.35,600.78 L958.88,607.78 L964.14,614.86 L969.13,622.01 L973.85,629.23 L978.29,636.49 L982.45,643.81 L986.33,651.17 L989.93,658.56 L993.23,665.97 L996.25,673.40 L998.98,680.85 L1001.42,688.29 L1003.57,695.73 L1005.42,703.16 L1006.98,710.57 L1008.24,717.94 L1009.22,725.28 L1009.89,732.58 L1010.28,739.83 L1010.37,747.01 L1010.17,754.13 L1009.67,761.18 L1008.89,768.14 L1007.82,775.01 L1006.47,781.79 L1004.83,788.46 L1002.91,795.02 L1000.71,801.46 L998.24,807.78 L995.49,813.96 L992.47,820.00 L989.19,825.90 L985.64,831.65 L981.84,837.23 L977.78,842.65 L973.47,847.90 L968.91,852.97 L964.12,857.85 L959.09,862.55 L953.83,867.05 L948.34,871.35 L942.63,875.44 L936.71,879.33 L930.58,882.99 L924.25,886.44 L917.73,889.66 L911.01,892.65 L904.11,895.41 L897.04,897.92 L889.79,900.20 L882.38,902.24 L874.82,904.02 L867.11,905.55 L859.25,906.83 L851.27,907.85 L843.15,908.62 L834.92,909.12 L826.57,909.35 L818.13,909.33 L809.58,909.03 L800.95,908.47 L792.24,907.64 L783.46,906.54 L774.61,905.17 L765.71,903.53 L756.76,901.62 L747.77,899.43 L738.74,896.98 L729.70,894.26 L720.64,891.27 L711.57,888.02 L702.50,884.49 L693.44,880.71 L684.39,876.66 L675.38,872.35 L666.39,867.79 L657.44,862.97 L648.55,857.89 L639.71,852.57 L630.93,847.00 L622.22,841.19 L613.60,835.15 L605.06,828.86 L596.61,822.35 L588.26,815.61 L580.03,808.65 L571.90,801.47 L563.90,794.08 L556.03,786.49 L548.29,778.69 L540.70,770.70 L533.25,762.52 L525.96,754.15 L518.82,745.61 L511.86,736.90 L505.06,728.02 L498.44,718.98 L492.01,709.79 L485.76,700.46 L479.70,690.99 L473.84,681.39 L468.19,671.67 L462.74,661.83 L457.50,651.88 L452.47,641.83 L447.66,631.69 L443.07,621.47 L438.71,611.17 L434.57,600.79 L430.67,590.36 L427.00,579.88 L423.56,569.35 L420.36,558.79 L417.40,548.20 L414.68,537.59 L412.21,526.96 L409.97,516.34 L407.99,505.72 L406.25,495.12 L404.75,484.54 L403.50,473.99 L402.50,463.48 L401.74,453.02 L401.23,442.61 L400.97,432.27 L400.94,422.01 L401.16,411.82 L401.63,401.73 L402.33,391.73 L403.27,381.84 L404.45,372.06 L405.86,362.41 L407.50,352.88 L409.37,343.49 L411.47,334.25 L413.79,325.16 L416.32,316.23 L419.08,307.47 L422.04,298.88 L425.21,290.48 L428.59,282.26 L432.16,274.24 L435.93,266.41 L439.89,258.80 L444.03,251.40 L448.35,244.22 L452.85,237.27 L457.51,230.55 L462.34,224.07 L467.32,217.83 L472.46,211.84 L477.74,206.10 L483.17,200.62 L488.72,195.40 L494.40,190.44 L500.20,185.76 L506.11,181.35 L512.13,177.22 L518.25,173.37 L524.47,169.81 L530.76,166.53 L537.14,163.54 L543.58,160.85 L550.09,158.45 L556.66,156.34 L563.27,154.54 L569.93,153.03 L576.62,151.83 L583.34,150.93 L590.07,150.33 L596.82,150.03 L603.57,150.04 L610.31,150.35 L617.05,150.97 L623.76,151.89 L630.45,153.11 L637.10,154.63 L643.71,156.45 L650.28,158.57 L656.78,160.99 L663.23,163.70 L669.60,166.71 L675.89,170.00 L682.10,173.58 L688.21,177.45 L694.22,181.59 L700.13,186.02 L705.92,190.72 L711.60,195.69 L717.15,200.92 L722.56,206.42 L727.83,212.17 L732.96,218.18 L737.94,224.43 L742.76,230.93 L747.41,237.66 L751.90,244.63 L756.21,251.82 L760.34,259.23 L764.29,266.85 L768.05,274.69 L771.61,282.72 L774.97,290.95 L778.13,299.36 L781.09,307.96 L783.83,316.73 L786.35,325.67 L788.66,334.77 L790.74,344.02 L792.60,353.42 L794.23,362.95 L795.62,372.61 L796.79,382.40 L797.72,392.29 L798.41,402.30 L798.85,412.40 L799.06,422.59 L799.03,432.86 L798.75,443.20 L798.22,453.61 L797.45,464.07 L796.43,474.58 L795.17,485.14 L793.66,495.72 L791.91,506.32 L789.91,516.94 L787.66,527.57 L785.17,538.19 L782.44,548.80 L779.47,559.39 L776.25,569.95 L772.80,580.48 L769.12,590.96 L765.20,601.38 L761.05,611.75 L756.67,622.05 L752.07,632.27 L747.25,642.40 L742.21,652.45 L736.96,662.39 L731.50,672.22 L725.83,681.94 L719.96,691.53 L713.89,700.99 L707.63,710.32 L701.19,719.50 L694.56,728.53 L687.75,737.40 L680.78,746.10 L673.63,754.63 L666.33,762.99 L658.88,771.16 L651.27,779.14 L643.53,786.92 L635.65,794.51 L627.64,801.88 L619.51,809.05 L611.27,816.00 L602.91,822.72 L594.46,829.22 L585.92,835.49 L577.28,841.53 L568.58,847.33 L559.79,852.88 L550.95,858.19 L542.05,863.25 L533.10,868.05 L524.11,872.60 L515.09,876.90 L506.05,880.93 L496.99,884.70 L487.92,888.21 L478.85,891.45 L469.79,894.42 L460.74,897.13 L451.72,899.56 L442.73,901.73 L433.79,903.63 L424.89,905.25 L416.04,906.61 L407.26,907.69 L398.56,908.51 L389.93,909.06 L381.39,909.34 L372.95,909.35 L364.61,909.10 L356.39,908.58 L348.28,907.80 L340.30,906.77 L332.45,905.47 L324.75,903.93 L317.19,902.13 L309.80,900.08 L302.56,897.79 L295.49,895.26 L288.60,892.49 L281.90,889.48 L275.38,886.25 L269.06,882.79 L262.95,879.11 L257.04,875.22 L251.34,871.11 L245.87,866.80 L240.62,862.29 L235.60,857.58 L230.82,852.69 L226.28,847.61 L221.99,842.35 L217.94,836.92 L214.15,831.33 L210.62,825.57 L207.35,819.67 L204.35,813.61 L201.62,807.42 L199.16,801.10 L196.97,794.65 L195.07,788.09 L193.45,781.41 L192.11,774.63 L191.06,767.75 L190.29,760.78 L189.81,753.73 L189.63,746.61 L189.74,739.42 L190.14,732.17 L190.83,724.87 L191.82,717.53 L193.10,710.15 L194.68,702.74 L196.55,695.31 L198.71,687.87 L201.16,680.43 L203.91,672.98 L206.95,665.55 L210.27,658.14 L213.88,650.75 L217.78,643.39 L221.95,636.08 L226.41,628.82 L231.14,621.61 L236.15,614.46 L241.42,607.39 L246.97,600.39 L252.78,593.48 L258.84,586.66 L265.16,579.93 L271.73,573.32 L278.55,566.82 L285.61,560.43 L292.91,554.17 L300.43,548.05 L308.19,542.06 L316.16,536.21 L324.35,530.52 L332.74,524.98 L341.34,519.60 L350.13,514.39 L359.11,509.35 L368.28,504.48 L377.62,499.80 L387.13,495.31 L396.80,491.00 L406.63,486.90 L416.60,482.99 L426.71,479.28 L436.96,475.78 L447.33,472.49 L457.81,469.42 L468.41,466.56 L479.10,463.92 L489.89,461.51 L500.76,459.32 L511.71,457.35 L522.72,455.62 L533.80,454.12 L544.92,452.84 L556.08,451.80 L567.28,451.00 L578.51,450.43 L589.75,450.10 L601.00,450.00 L612.25,450.14 L623.49,450.52 L634.71,451.13 L645.90,451.97 L657.06,453.05 L668.18,454.37 L679.24,455.91 L690.24,457.69 L701.18,459.69 L712.03,461.92 L722.80,464.38 L733.48,467.05 L744.06,469.95 L754.52,473.06 L764.87,476.39 L775.09,479.92 L785.18,483.67 L795.13,487.61 L804.93,491.75 L814.57,496.09 L824.05,500.62 L833.36,505.33 L842.49,510.23 L851.44,515.30 L860.20,520.54 L868.76,525.95 L877.12,531.52 L885.27,537.24 L893.21,543.11 L900.92,549.12 L908.40,555.27 L915.66,561.56 L922.68,567.96 L929.45,574.49 L935.98,581.12 L942.25,587.86 L948.28,594.70 L954.04,601.63 L959.53,608.64 L964.76,615.73 L969.72,622.88 L974.40,630.10 L978.81,637.38 L982.94,644.70 L986.78,652.06 L990.34,659.45 L993.61,666.87 L996.60,674.30 L999.29,681.75 L1001.70,689.19 L1003.81,696.63 L1005.62,704.06 L1007.15,711.46 L1008.38,718.83 L1009.31,726.17 L1009.95,733.46 L1010.30,740.70 L1010.36,747.88 L1010.12,754.99 L1009.59,762.02 L1008.78,768.98 L1007.67,775.84 L1006.29,782.60 L1004.61,789.26 L1002.66,795.81 L1000.43,802.23 L997.92,808.53 L995.14,814.70 L992.09,820.73 L988.77,826.61 L985.19,832.33 L981.36,837.90 L977.27,843.30 L972.93,848.52 L968.35,853.57 L963.52,858.43 L958.46,863.10 L953.17,867.58 L947.66,871.86 L941.93,875.92 L935.98,879.78 L929.83,883.42 L923.47,886.84 L916.92,890.03 L910.18,893.00 L903.26,895.72 L896.17,898.21 L888.90,900.46 L881.47,902.46 L873.89,904.22 L866.16,905.72 L858.29,906.97 L850.29,907.96 L842.16,908.69 L833.91,909.16 L825.56,909.36 L817.10,909.31 L808.54,908.98 L799.90,908.38 L791.18,907.52 L782.39,906.39 L773.54,904.98 L764.63,903.31 L755.67,901.37 L746.68,899.15 L737.65,896.67 L728.60,893.91 L719.54,890.89 L710.47,887.60 L701.40,884.05 L692.34,880.23 L683.30,876.15 L674.29,871.81 L665.31,867.22 L656.37,862.37 L647.47,857.26 L638.64,851.91 L629.87,846.31 L621.18,840.47 L612.56,834.40 L604.03,828.09 L595.59,821.55 L587.26,814.78 L579.04,807.79 L570.93,800.59 L562.94,793.18 L555.09,785.56 L547.37,777.74 L539.79,769.72 L532.36,761.52 L525.09,753.13 L517.97,744.57 L511.03,735.83 L504.25,726.93 L497.66,717.88 L491.24,708.67 L485.02,699.32 L478.98,689.84 L473.15,680.22 L467.52,670.48 L462.09,660.63 L456.88,650.67 L451.87,640.61 L447.09,630.46 L442.53,620.22 L438.20,609.91 L434.09,599.54 L430.21,589.10 L426.57,578.61 L423.16,568.08 L419.99,557.51 L417.06,546.91 L414.37,536.30 L411.92,525.68 L409.72,515.05 L407.76,504.44 L406.05,493.84 L404.59,483.26 L403.37,472.71 L402.39,462.21 L401.67,451.76 L401.19,441.36 L400.95,431.03 L400.96,420.77 L401.21,410.60 L401.70,400.51 L402.43,390.53 L403.40,380.65 L404.61,370.89 L406.05,361.25 L407.72,351.74 L409.61,342.37 L411.74,333.14 L414.08,324.07 L416.64,315.16 L419.42,306.42 L422.41,297.86 L425.61,289.47 L429.01,281.28 L432.61,273.28 L436.40,265.48 L440.38,257.90 L444.54,250.52 L448.88,243.37 L453.40,236.45 L458.09,229.76 L462.93,223.30 L467.94,217.09 L473.09,211.13 L478.39,205.42 L483.83,199.97 L489.40,194.78 L495.10,189.86 L500.91,185.21 L506.84,180.84 L512.87,176.74 L519.00,172.93 L525.22,169.39 L531.53,166.15 L537.91,163.20 L544.37,160.54 L550.88,158.18 L557.46,156.11 L564.08,154.34 L570.74,152.87 L577.43,151.70 L584.15,150.84 L590.89,150.28 L597.63,150.02 L604.38,150.06 L611.13,150.41 L617.86,151.07 L624.57,152.02 L631.26,153.28 L637.90,154.84 L644.51,156.69 L651.07,158.85 L657.57,161.30 L664.00,164.05 L670.36,167.09 L676.64,170.42 L682.84,174.03 L688.94,177.93 L694.94,182.11 L700.84,186.57 L706.62,191.30 L712.28,196.30 L717.81,201.57 L723.20,207.10 L728.46,212.88 L733.57,218.92 L738.53,225.20 L743.33,231.73 L747.97,238.49 L752.43,245.48 L756.72,252.70 L760.83,260.14 L764.76,267.79 L768.49,275.65 L772.03,283.70 L775.37,291.96 L778.50,300.40 L781.43,309.01 L784.14,317.81 L786.64,326.77 L788.92,335.88 L790.98,345.15 L792.81,354.56 L794.41,364.11 L795.78,373.79 L796.91,383.59 L797.81,393.50 L798.47,403.51 L798.89,413.62 L799.07,423.82 L799.01,434.10 L798.70,444.46 L798.14,454.87 L797.34,465.34 L796.30,475.86 L795.00,486.41 L793.46,497.00 L791.68,507.61 L789.65,518.23 L787.37,528.85 L784.85,539.47 L782.09,550.08 L779.09,560.67 L775.85,571.22 L772.37,581.75 L768.66,592.22 L764.71,602.64 L760.53,613.00 L756.13,623.29 L751.50,633.50 L746.65,643.62 L741.59,653.65 L736.31,663.58 L730.82,673.40 L725.13,683.10 L719.24,692.68 L713.14,702.13 L706.86,711.44 L700.39,720.60 L693.74,729.61 L686.92,738.46 L679.92,747.14 L672.76,755.65 L665.44,763.99 L657.96,772.13 L650.34,780.09 L642.58,787.85 L634.69,795.41 L626.66,802.76 L618.52,809.90 L610.26,816.82 L601.90,823.52 L593.43,830.00 L584.88,836.24 L576.24,842.24 L567.52,848.01 L558.73,853.53 L549.88,858.81 L540.97,863.84 L532.02,868.62 L523.02,873.14 L514.00,877.40 L504.95,881.40 L495.89,885.14 L486.82,888.61 L477.75,891.82 L468.69,894.76 L459.65,897.44 L450.63,899.84 L441.65,901.97 L432.71,903.84 L423.81,905.43 L414.98,906.75 L406.21,907.81 L397.51,908.59 L388.89,909.10 L380.37,909.35 L371.94,909.33 L363.61,909.05 L355.40,908.50 L347.31,907.69 L339.34,906.62 L331.51,905.30 L323.83,903.72 L316.29,901.89 L308.91,899.82 L301.70,897.49 L294.65,894.93 L287.78,892.13 L281.10,889.10 L274.61,885.84 L268.31,882.36 L262.22,878.65 L256.34,874.73 L250.67,870.60 L245.22,866.27 L240.00,861.73 L235.01,857.00 L230.26,852.08 L225.75,846.98 L221.48,841.70 L217.47,836.25 L213.71,830.64 L210.21,824.87 L206.97,818.94 L204.00,812.87 L201.30,806.67 L198.88,800.33 L196.73,793.86 L194.86,787.28 L193.27,780.59 L191.97,773.80 L190.95,766.91 L190.22,759.93 L189.78,752.87 L189.63,745.74 L189.77,738.54 L190.21,731.29 L190.94,723.98 L191.96,716.64 L193.28,709.25 L194.89,701.84 L196.79,694.41 L198.99,686.97 L201.48,679.52 L204.26,672.08 L207.33,664.65 L210.69,657.24 L214.34,649.86 L218.27,642.51 L222.48,635.20 L226.97,627.94 L231.73,620.74 L236.77,613.60 L242.08,606.54 L247.66,599.55 L253.50,592.65 L259.59,585.84 L265.94,579.13 L272.55,572.53 L279.39,566.04 L286.48,559.67 L293.81,553.42 L301.36,547.31 L309.14,541.34 L317.14,535.51 L325.35,529.84 L333.77,524.32 L342.39,518.96 L351.21,513.77 L360.21,508.75 L369.40,503.91 L378.76,499.25 L388.29,494.78 L397.98,490.50 L407.83,486.41 L417.82,482.53 L427.95,478.85 L438.21,475.37 L448.59,472.11 L459.09,469.06 L469.70,466.23 L480.40,463.62 L491.20,461.23 L502.08,459.07 L513.04,457.13 L524.06,455.43 L535.14,453.95 L546.27,452.71 L557.44,451.69 L568.64,450.92 L579.87,450.38 L591.11,450.07 L602.36,450.01 L613.61,450.17 L624.84,450.58 L636.06,451.22 L647.25,452.09 L658.41,453.20 L669.52,454.54 L680.57,456.11 L691.57,457.92 L702.49,459.95 L713.34,462.21 L724.10,464.69 L734.77,467.39 L745.33,470.32 L755.78,473.45 L766.11,476.81 L776.32,480.37 L786.39,484.13 L796.32,488.10 L806.10,492.27 L815.73,496.63 L825.19,501.18 L834.48,505.92 L843.59,510.83 L852.51,515.93 L861.25,521.19 L869.79,526.61 L878.12,532.20 L886.24,537.94 L894.15,543.83 L901.84,549.86 L909.30,556.03 L916.52,562.32 L923.51,568.75 L930.25,575.28 L936.75,581.93 L943.00,588.68 L948.99,595.53 L954.71,602.47 L960.18,609.49 L965.38,616.59 L970.30,623.75 L974.95,630.98 L979.32,638.26 L983.42,645.59 L987.23,652.95 L990.75,660.35 L993.99,667.77 L996.94,675.20 L999.60,682.65 L1001.97,690.09 L1004.04,697.53 L1005.82,704.95 L1007.31,712.35 L1008.51,719.72 L1009.41,727.05 L1010.01,734.34 L1010.33,741.57 L1010.35,748.74 L1010.07,755.84 L1009.51,762.87 L1008.66,769.81 L1007.52,776.66 L1006.10,783.41 L1004.39,790.06 L1002.40,796.59 L1000.14,803.00 L997.60,809.29 L994.78,815.44 L991.70,821.45 L988.35,827.31 L984.74,833.01 L980.88,838.56 L976.76,843.94 L972.39,849.14 L967.77,854.17 L962.92,859.01 L957.83,863.66 L952.52,868.11 L946.98,872.36 L941.22,876.40 L935.25,880.23 L929.07,883.85 L922.69,887.24 L916.12,890.40 L909.36,893.34 L902.41,896.04 L895.30,898.50 L888.01,900.72 L880.57,902.69 L872.97,904.41 L865.22,905.89 L857.33,907.10 L849.31,908.06 L841.17,908.76 L832.91,909.20 L824.54,909.37 L816.07,909.28 L807.50,908.92 L798.85,908.29 L790.12,907.40 L781.32,906.23 L772.46,904.80 L763.55,903.09 L754.59,901.11 L745.59,898.87 L736.56,896.35 L727.51,893.56 L718.44,890.51 L709.37,887.19 L700.30,883.60 L691.25,879.75 L682.21,875.64 L673.20,871.27 L664.22,866.64 L655.29,861.76 L646.40,856.63 L637.58,851.25 L628.82,845.62 L620.13,839.75 L611.52,833.65 L603.00,827.31 L594.58,820.74 L586.26,813.95 L578.05,806.93 L569.96,799.70 L561.99,792.26 L554.15,784.62 L546.44,776.78 L538.88,768.74 L531.47,760.51 L524.22,752.10 L517.12,743.52 L510.20,734.76 L503.44,725.85 L496.87,716.77 L490.48,707.55 L484.28,698.18 L478.27,688.68 L472.46,679.05 L466.85,669.30 L461.45,659.43 L456.26,649.46 L451.28,639.39 L446.53,629.23 L441.99,618.98 L437.69,608.66 L433.61,598.28 L429.76,587.83 L426.14,577.34 L422.76,566.80 L419.62,556.23 L416.72,545.63 L414.06,535.02 L411.64,524.39 L409.47,513.77 L407.54,503.15 L405.86,492.56 L404.43,481.98 L403.24,471.44 L402.29,460.94 L401.60,450.49 L401.14,440.10 L400.94,429.78 L400.97,419.53 L401.25,409.37 L401.78,399.30 L402.54,389.33 L403.53,379.46 L404.77,369.71 L406.24,360.09 L407.93,350.60 L409.86,341.24 L412.01,332.04 L414.38,322.99 L416.97,314.10 L419.77,305.38 L422.79,296.83 L426.01,288.47 L429.43,280.30 L433.05,272.32 L436.87,264.55 L440.87,256.99 L445.06,249.65 L449.42,242.52 L453.96,235.63 L458.66,228.96 L463.53,222.54 L468.55,216.36 L473.73,210.43 L479.04,204.75 L484.50,199.33 L490.08,194.17 L495.79,189.29 L501.62,184.67 L507.56,180.33 L513.61,176.26 L519.75,172.48 L525.98,168.99 L532.30,165.78 L538.69,162.86 L545.15,160.24 L551.68,157.91 L558.25,155.88 L564.88,154.15 L571.55,152.71 L578.24,151.58 L584.96,150.75 L591.70,150.23 L598.45,150.01 L605.20,150.09 L611.94,150.48 L618.67,151.16 L625.38,152.16 L632.06,153.45 L638.71,155.05 L645.31,156.94 L651.86,159.13 L658.35,161.62 L664.77,164.40 L671.13,167.48 L677.40,170.84 L683.58,174.49 L689.67,178.43 L695.66,182.64 L701.54,187.13 L707.31,191.89 L712.95,196.93 L718.47,202.23 L723.85,207.79 L729.09,213.60 L734.18,219.67 L739.12,225.98 L743.90,232.53 L748.51,239.32 L752.96,246.34 L757.23,253.59 L761.32,261.05 L765.22,268.73 L768.93,276.61 L772.44,284.69 L775.76,292.97 L778.87,301.43 L781.77,310.07 L784.46,318.88 L786.93,327.86 L789.18,337.00 L791.21,346.28 L793.01,355.71 L794.59,365.28 L795.93,374.97 L797.03,384.78 L797.90,394.70 L798.54,404.73 L798.93,414.85 L799.08,425.06 L798.98,435.35 L798.64,445.71 L798.06,456.14 L797.23,466.61 L796.15,477.13 L794.83,487.69 L793.26,498.28 L791.45,508.89 L789.39,519.51 L787.08,530.14 L784.53,540.76 L781.74,551.36 L778.71,561.95 L775.44,572.50 L771.93,583.02 L768.19,593.48 L764.22,603.90 L760.01,614.25 L755.58,624.53 L750.93,634.73 L746.05,644.84 L740.96,654.86 L735.66,664.78 L730.14,674.58 L724.43,684.27 L718.51,693.83 L712.39,703.26 L706.09,712.55 L699.60,721.70 L692.93,730.69 L686.08,739.52 L679.06,748.18 L671.88,756.67 L664.54,764.98 L657.05,773.11 L649.41,781.04 L641.63,788.78 L633.72,796.31 L625.68,803.64 L617.53,810.75 L609.25,817.65 L600.88,824.32 L592.40,830.76 L583.84,836.98 L575.18,842.95 L566.46,848.69 L557.66,854.19 L548.80,859.43 L539.89,864.43 L530.93,869.18 L521.93,873.67 L512.91,877.90 L503.86,881.87 L494.79,885.57 L485.73,889.02 L476.66,892.19 L467.60,895.10 L458.56,897.74 L449.55,900.11 L440.57,902.21 L431.63,904.05 L422.74,905.61 L413.91,906.90 L405.15,907.92 L396.46,908.67 L387.86,909.15 L379.34,909.36 L370.92,909.31 L362.61,908.99 L354.41,908.42 L346.34,907.57 L338.39,906.48 L330.58,905.12 L322.91,903.51 L315.39,901.65 L308.03,899.55 L300.83,897.20 L293.81,894.61 L286.97,891.78 L280.31,888.72 L273.84,885.43 L267.57,881.92 L261.50,878.19 L255.64,874.24 L250.00,870.09 L244.58,865.73 L239.39,861.17 L234.43,856.41 L229.70,851.47 L225.22,846.35 L220.99,841.05 L217.00,835.58 L213.27,829.95 L209.81,824.16 L206.60,818.22 L203.66,812.13 L201.00,805.91 L198.60,799.55 L196.49,793.07 L194.65,786.48 L193.10,779.78 L191.83,772.97 L190.84,766.07 L190.15,759.08 L189.74,752.01 L189.63,744.87 L189.81,737.67 L190.28,730.41 L191.04,723.10 L192.10,715.74 L193.46,708.36 L195.10,700.94 L197.04,693.51 L199.28,686.07 L201.80,678.62 L204.62,671.18 L207.72,663.76 L211.12,656.35 L214.80,648.97 L218.76,641.62 L223.00,634.32 L227.53,627.07 L232.33,619.87 L237.40,612.74 L242.74,605.69 L248.35,598.71 L254.22,591.82 L260.35,585.02 L266.73,578.32 L273.36,571.73 L280.24,565.26 L287.36,558.91 L294.71,552.68 L302.29,546.58 L310.10,540.63 L318.12,534.82 L326.36,529.16 L334.80,523.66 L343.45,518.32 L352.29,513.15 L361.32,508.15 L370.52,503.33 L379.91,498.70 L389.46,494.25 L399.17,489.99 L409.03,485.93 L419.04,482.07 L429.18,478.42 L439.46,474.97 L449.86,471.73 L460.37,468.71 L470.99,465.90 L481.70,463.32 L492.51,460.96 L503.40,458.82 L514.37,456.91 L525.40,455.23 L536.48,453.79 L547.62,452.57 L558.79,451.59 L570.00,450.84 L581.23,450.33 L592.47,450.05 L603.72,450.01 L614.97,450.21 L626.20,450.64 L637.42,451.31 L648.60,452.21 L659.75,453.35 L670.86,454.72 L681.91,456.32 L692.89,458.15 L703.81,460.21 L714.65,462.50 L725.40,465.00 L736.05,467.73 L746.60,470.68 L757.04,473.85 L767.35,477.23 L777.55,480.81 L787.60,484.60 L797.51,488.60 L807.28,492.79 L816.88,497.17 L826.32,501.74 L835.59,506.50 L844.68,511.44 L853.58,516.55 L862.29,521.84 L870.81,527.28 L879.11,532.89 L887.21,538.65 L895.09,544.55 L902.75,550.60 L910.18,556.78 L917.38,563.10 L924.34,569.53 L931.05,576.08 L937.52,582.74 L943.74,589.51 L949.69,596.37 L955.39,603.31 L960.82,610.35 L965.99,617.45 L970.88,624.62 L975.50,631.86 L979.83,639.14 L983.89,646.48 L987.67,653.85 L991.16,661.25 L994.36,668.67 L997.28,676.11 L999.90,683.55 L1002.23,690.99 L1004.27,698.43 L1006.02,705.85 L1007.47,713.25 L1008.63,720.61 L1009.50,727.94 L1010.07,735.22 L1010.34,742.44 L1010.33,749.61 L1010.02,756.70 L1009.42,763.71 L1008.54,770.64 L1007.36,777.48 L1005.91,784.22 L1004.17,790.85 L1002.14,797.37 L999.84,803.77 L997.27,810.04 L994.42,816.17 L991.31,822.16 L987.93,828.01 L984.29,833.69 L980.39,839.22 L976.24,844.58 L971.84,849.76 L967.20,854.76 L962.32,859.58 L957.20,864.21 L951.86,868.63 L946.29,872.86 L940.51,876.88 L934.51,880.68 L928.31,884.27 L921.91,887.63 L915.31,890.77 L908.53,893.68 L901.56,896.35 L894.42,898.78 L887.12,900.97 L879.65,902.91 L872.04,904.60 L864.27,906.05 L856.37,907.23 L848.33,908.16 L840.18,908.83 L831.90,909.23 L823.52,909.37 L815.04,909.25 L806.46,908.86 L797.80,908.20 L789.06,907.27 L780.25,906.07 L771.39,904.60 L762.46,902.86 L753.50,900.85 L744.49,898.57 L735.46,896.03 L726.41,893.21 L717.34,890.12 L708.27,886.77 L699.21,883.15 L690.15,879.27 L681.12,875.13 L672.11,870.72 L663.14,866.07 L654.21,861.15 L645.33,855.99 L636.51,850.58 L627.76,844.92 L619.08,839.03 L610.49,832.89 L601.98,826.53 L593.57,819.93 L585.26,813.11 L577.06,806.07 L568.99,798.81 L561.03,791.35 L553.21,783.68 L545.52,775.81 L537.98,767.75 L530.59,759.50 L523.35,751.07 L516.28,742.47 L509.37,733.69 L502.64,724.76 L496.09,715.66 L489.72,706.42 L483.54,697.04 L477.55,687.52 L471.77,677.87 L466.18,668.11 L460.81,658.23 L455.65,648.24 L450.70,638.16 L445.97,627.99 L441.46,617.74 L437.18,607.41 L433.13,597.02 L429.31,586.56 L425.72,576.06 L422.37,565.52 L419.26,554.95 L416.39,544.35 L413.75,533.73 L411.37,523.11 L409.22,512.49 L407.33,501.87 L405.67,491.27 L404.27,480.70 L403.11,470.17 L402.20,459.68 L401.53,449.23 L401.11,438.85 L400.93,428.54 L401.00,418.30 L401.30,408.15 L401.85,398.09 L402.64,388.13 L403.67,378.28 L404.93,368.54 L406.43,358.93 L408.15,349.46 L410.11,340.12 L412.28,330.93 L414.68,321.90 L417.30,313.03 L420.13,304.33 L423.17,295.81 L426.41,287.47 L429.86,279.32 L433.50,271.37 L437.34,263.63 L441.37,256.09 L445.58,248.77 L449.96,241.68 L454.52,234.81 L459.24,228.17 L464.13,221.78 L469.17,215.63 L474.36,209.73 L479.70,204.08 L485.17,198.69 L490.77,193.57 L496.49,188.71 L502.33,184.13 L508.29,179.82 L514.34,175.79 L520.50,172.04 L526.74,168.58 L533.07,165.41 L539.47,162.53 L545.94,159.94 L552.47,157.65 L559.05,155.65 L565.68,153.96 L572.35,152.56 L579.05,151.47 L585.78,150.68 L592.52,150.19 L599.27,150.00 L606.02,150.12 L612.76,150.54 L619.49,151.27 L626.19,152.30 L632.87,153.63 L639.51,155.26 L646.10,157.19 L652.65,159.42 L659.13,161.94 L665.55,164.76 L671.89,167.87 L678.15,171.27 L684.33,174.95 L690.40,178.92 L696.38,183.17 L702.25,187.69 L708.00,192.49 L713.63,197.55 L719.13,202.89 L724.49,208.48 L729.71,214.32 L734.79,220.42 L739.71,226.76 L744.47,233.34 L749.06,240.16 L753.49,247.21 L757.73,254.48 L761.80,261.97 L765.68,269.67 L769.36,277.58 L772.85,285.68 L776.15,293.98 L779.23,302.46 L782.11,311.13 L784.77,319.96 L787.21,328.96 L789.44,338.11 L791.44,347.42 L793.22,356.86 L794.76,366.44 L796.07,376.15 L797.15,385.98 L797.99,395.91 L798.60,405.95 L798.96,416.08 L799.08,426.30 L798.95,436.60 L798.58,446.97 L797.97,457.40 L797.11,467.88 L796.00,478.41 L794.65,488.97 L793.05,499.57 L791.21,510.18 L789.12,520.80 L786.79,531.42 L784.21,542.04 L781.39,552.64 L778.33,563.22 L775.03,573.77 L771.49,584.28 L767.72,594.75 L763.72,605.15 L759.49,615.50 L755.03,625.77 L750.35,635.96 L745.45,646.06 L740.33,656.07 L735.00,665.97 L729.46,675.76 L723.72,685.43 L717.78,694.98 L711.64,704.39 L705.31,713.67 L698.80,722.79 L692.11,731.76 L685.24,740.57 L678.20,749.22 L671.00,757.69 L663.64,765.97 L656.13,774.08 L648.48,781.99 L640.68,789.70 L632.76,797.21 L624.70,804.51 L616.53,811.60 L608.25,818.47 L599.86,825.11 L591.37,831.53 L582.79,837.71 L574.13,843.66 L565.40,849.37 L556.59,854.83 L547.73,860.05 L538.81,865.02 L529.84,869.73 L520.84,874.19 L511.81,878.39 L502.76,882.33 L493.70,886.00 L484.63,889.41 L475.56,892.56 L466.50,895.44 L457.47,898.04 L448.46,900.38 L439.48,902.45 L430.55,904.25 L421.67,905.78 L412.85,907.03 L404.09,908.02 L395.42,908.74 L386.82,909.19 L378.32,909.37 L369.91,909.29 L361.61,908.94 L353.43,908.33 L345.37,907.46 L337.44,906.33 L329.64,904.94 L321.99,903.30 L314.49,901.41 L307.15,899.28 L299.98,896.90 L292.97,894.28 L286.15,891.42 L279.51,888.33 L273.07,885.02 L266.82,881.48 L260.78,877.72 L254.95,873.75 L249.33,869.57 L243.94,865.19 L238.77,860.60 L233.84,855.83 L229.15,850.86 L224.69,845.72 L220.49,840.40 L216.54,834.91 L212.84,829.26 L209.40,823.45 L206.23,817.49 L203.33,811.38 L200.69,805.14 L198.33,798.77 L196.25,792.28 L194.45,785.67 L192.93,778.96 L191.69,772.14 L190.74,765.23 L190.08,758.23 L189.71,751.15 L189.64,744.01 L189.85,736.79 L190.36,729.53 L191.16,722.21 L192.25,714.85 L193.64,707.46 L195.32,700.05 L197.30,692.61 L199.57,685.17 L202.13,677.72 L204.98,670.28 L208.12,662.86 L211.55,655.45 L215.26,648.08 L219.26,640.74 L223.54,633.44 L228.09,626.19 L232.93,619.01 L238.03,611.88 L243.41,604.84 L249.05,597.87 L254.95,590.99 L261.11,584.20 L267.52,577.52 L274.18,570.95 L281.09,564.48 L288.23,558.14 L295.61,551.93 L303.22,545.86 L311.06,539.92 L319.11,534.13 L327.37,528.49" fill="none" stroke="#dde8f0" stroke-width="0.5" stroke-linecap="round" stroke-linejoin="round" opacity="0.5" />
</svg>