<svg xmlns="http://www.w3.org/2000/svg" width="1200" height="1200" viewBox="0 0 1200 1200">
  <rect width="1200" height="1200" fill="#faf9f6" />
  <path d="M1080.00,600.00 L1078.15,577.28 L1072.63,555.05 L1063.54,533.79 L1051.04,513.96 L1035.35,496.00 L1016.77,480.31 L995.61,467.25 L972.25,457.13 L947.12,450.21 L920.66,446.70 L893.34,446.73 L865.64,450.37 L838.06,457.64 L811.09,468.47 L785.19,482.75 L760.83,500.28 L738.44,520.82 L718.39,544.08 L701.04,569.69 L686.68,597.27 L675.55,626.39 L667.83,656.58 L663.64,687.38 L663.02,718.29 L665.97,748.82 L672.39,778.48 L682.16,806.81 L695.06,833.36 L710.82,857.71 L729.12,879.50 L749.61,898.38 L771.88,914.10 L795.48,926.42 L819.95,935.19 L844.81,940.32 L869.57,941.78 L893.74,939.61 L916.85,933.91 L938.42,924.85 L958.03,912.65 L975.28,897.61 L989.81,880.06 L1001.31,860.37 L1009.54,838.97 L1014.28,816.31 L1015.41,792.85 L1012.87,769.09 L1006.64,745.52 L996.80,722.61 L983.47,700.85 L966.85,680.68 L947.18,662.53 L924.77,646.78 L899.97,633.77 L873.18,623.80 L844.84,617.08 L815.40,613.80 L785.35,614.07 L755.16,617.93 L725.34,625.35 L696.37,636.26 L668.71,650.50 L642.81,667.85 L619.08,688.04 L597.88,710.75 L579.55,735.62 L564.36,762.22 L552.50,790.12 L544.15,818.85 L539.38,847.92 L538.22,876.85 L540.62,905.14 L546.48,932.31 L555.61,957.92 L567.79,981.51 L582.72,1002.71 L600.07,1021.14 L619.46,1036.52 L640.45,1048.59 L662.59,1057.16 L685.43,1062.10 L708.46,1063.34 L731.20,1060.90 L753.16,1054.84 L773.87,1045.29 L792.89,1032.45 L809.79,1016.58 L824.20,997.99 L835.77,977.02 L844.23,954.09 L849.35,929.63 L850.96,904.09 L848.96,877.96 L843.30,851.73 L834.03,825.88 L821.22,800.90 L805.05,777.25 L785.73,755.38 L763.53,735.69 L738.79,718.54 L711.88,704.26 L683.21,693.10 L653.24,685.27 L622.43,680.93 L591.26,680.14 L560.23,682.93 L529.83,689.24 L500.53,698.95 L472.79,711.89 L447.05,727.82 L423.69,746.44 L403.07,767.40 L385.48,790.32 L371.17,814.76 L360.33,840.29 L353.08,866.41 L349.47,892.65 L349.50,918.51 L353.09,943.50 L360.11,967.16 L370.35,989.04 L383.55,1008.73 L399.40,1025.84 L417.53,1040.04 L437.55,1051.06 L459.03,1058.68 L481.48,1062.72 L504.45,1063.10 L527.43,1059.78 L549.93,1052.80 L571.49,1042.25 L591.63,1028.30 L609.93,1011.17 L625.97,991.15 L639.40,968.56 L649.90,943.79 L657.22,917.25 L661.16,889.39 L661.57,860.68 L658.39,831.61 L651.60,802.67 L641.28,774.35 L627.53,747.12 L610.54,721.44 L590.57,697.73 L567.91,676.39 L542.92,657.75 L515.98,642.12 L487.52,629.73 L458.02,620.76 L427.93,615.32 L397.76,613.48 L367.99,615.21 L339.11,620.43 L311.58,629.00 L285.86,640.71 L262.35,655.29 L241.44,672.43 L223.44,691.76 L208.64,712.88 L197.24,735.34 L189.42,758.68 L185.25,782.42 L184.77,806.07 L187.94,829.14 L194.66,851.15 L204.74,871.64 L217.98,890.18 L234.07,906.37 L252.69,919.86 L273.46,930.33 L295.94,937.53 L319.70,941.27 L344.26,941.42 L369.14,937.90 L393.84,930.72 L417.89,919.94 L440.79,905.70 L462.12,888.17 L481.43,867.62 L498.35,844.35 L512.54,818.72 L523.71,791.12 L531.63,761.99 L536.12,731.78 L537.08,700.98 L534.45,670.07 L528.27,639.55 L518.62,609.90 L505.66,581.59 L489.59,555.07 L470.68,530.73 L449.27,508.95 L425.73,490.07 L400.45,474.33 L373.90,461.97 L346.53,453.12 L318.82,447.88 L291.27,446.27 L264.37,448.24 L238.60,453.68 L214.41,462.42 L192.24,474.22 L172.48,488.80 L155.48,505.81 L141.55,524.87 L130.94,545.56 L123.83,567.42 L120.36,589.99 L120.58,612.76 L124.50,635.27 L132.04,657.01 L143.06,677.53 L157.38,696.36 L174.73,713.10 L194.80,727.36 L217.24,738.81 L241.64,747.16 L267.58,752.19 L294.58,753.73 L322.17,751.68 L349.86,746.00 L377.16,736.72 L403.59,723.94 L428.68,707.81 L451.99,688.56 L473.11,666.46 L491.69,641.83 L507.39,615.07 L519.97,586.57 L529.21,556.79 L534.96,526.20 L537.15,495.28 L535.76,464.52 L530.85,434.42 L522.53,405.45 L510.98,378.07 L496.44,352.70 L479.21,329.74 L459.63,309.54 L438.10,292.40 L415.03,278.57 L390.88,268.22 L366.13,261.48 L341.27,258.41 L316.78,258.99 L293.14,263.16 L270.84,270.77 L250.32,281.62 L231.98,295.45 L216.22,311.94 L203.35,330.74 L193.66,351.44 L187.37,373.61 L184.63,396.77 L185.56,420.46 L190.17,444.17 L198.43,467.43 L210.25,489.76 L225.45,510.68 L243.82,529.76 L265.07,546.61 L288.86,560.87 L314.82,572.21 L342.54,580.38 L371.55,585.19 L401.40,586.49 L431.59,584.21 L461.63,578.35 L491.03,568.95 L519.33,556.16 L546.05,540.15 L570.78,521.17 L593.14,499.52 L612.76,475.55 L629.37,449.66 L642.71,422.27 L652.62,393.85 L658.97,364.87 L661.71,335.82 L660.86,307.19 L656.51,279.46 L648.79,253.11 L637.92,228.58 L624.16,206.29 L607.83,186.60 L589.29,169.84 L568.95,156.29 L547.25,146.17 L524.66,139.62 L501.66,136.75 L478.73,137.57 L456.37,142.06 L435.05,150.09 L415.23,161.51 L397.35,176.09 L381.80,193.53 L368.94,213.50 L359.08,235.61 L352.47,259.46 L349.31,284.59 L349.71,310.52 L353.76,336.76 L361.45,362.84 L372.72,388.26 L387.44,412.55 L405.41,435.25 L426.38,455.95 L450.05,474.26 L476.05,489.84 L504.00,502.40 L533.45,511.71 L563.96,517.60 L595.03,519.95 L626.18,518.74 L656.92,513.96 L686.76,505.73 L715.24,494.18 L741.91,479.53 L766.36,462.06 L788.22,442.08 L807.18,419.97 L822.96,396.14 L835.34,371.03 L844.18,345.11 L849.39,318.86 L850.96,292.78 L848.92,267.35 L843.38,243.04 L834.53,220.33 L822.60,199.63 L807.87,181.34 L790.70,165.83 L771.45,153.37 L750.56,144.24 L728.48,138.61 L705.68,136.61 L682.64,138.31 L659.87,143.69 L637.84,152.69 L617.02,165.17 L597.86,180.93 L580.78,199.72 L566.16,221.22 L554.34,245.08 L545.59,270.90 L540.15,298.23 L538.17,326.63 L539.77,355.60 L544.97,384.65 L553.75,413.31 L566.02,441.07 L581.61,467.49 L600.30,492.12 L621.82,514.54 L645.83,534.41 L671.97,551.40 L699.81,565.24 L728.91,575.73 L758.81,582.73 L789.00,586.15 L819.01,585.99 L848.34,582.29 L876.52,575.17 L903.08,564.81 L927.61,551.45 L949.71,535.39 L969.03,516.98 L985.27,496.59 L998.18,474.67 L1007.59,451.66 L1013.37,428.03 L1015.47,404.28 L1013.90,380.90 L1008.72,358.36 L1000.09,337.15 L988.21,317.70 L973.33,300.43 L955.78,285.71 L935.91,273.88 L914.13,265.22 L890.87,259.94 L866.60,258.20 L841.80,260.10 L816.96,265.68 L792.57,274.88 L769.11,287.63 L747.03,303.74 L726.79,322.99 L708.77,345.11 L693.34,369.75 L680.81,396.53 L671.44,425.05 L665.42,454.84 L662.90,485.44 L663.95,516.36 L668.58,547.11 L676.72,577.20 L688.25,606.16 L702.99,633.52 L720.68,658.87 L741.03,681.81 L763.69,702.01 L788.25,719.16 L814.30,733.03 L841.37,743.43 L868.99,750.26 L896.67,753.47 L923.91,753.06 L950.24,749.13 L975.18,741.81 L998.29,731.32 L1019.16,717.93 L1037.41,701.94 L1052.72,683.73 L1064.82,663.70 L1073.49,642.30 L1078.57,619.99 L1079.97,597.24 L1077.67,574.56 L1071.72,552.42 L1062.20,531.31 L1049.30,511.68 L1033.25,493.97 L1014.34,478.58 L992.89,465.86 L969.30,456.12 L943.98,449.60 L917.39,446.51 L889.99,446.97 L862.29,451.06 L834.76,458.76 L807.89,470.02 L782.16,484.70 L758.01,502.61 L735.88,523.50 L716.14,547.06 L699.14,572.93 L685.16,600.72 L674.43,629.99 L667.13,660.29 L663.37,691.12 L663.19,722.01 L666.56,752.46 L673.40,781.99 L683.56,810.12 L696.82,836.43 L712.90,860.49 L731.50,881.94 L752.22,900.46 L774.67,915.77 L798.40,927.67 L822.95,936.01 L847.82,940.70 L872.54,941.71 L896.61,939.11 L919.55,932.99 L940.91,923.53 L960.25,910.98 L977.19,895.61 L991.37,877.78 L1002.49,857.86 L1010.30,836.29 L1014.61,813.50 L1015.30,789.99 L1012.31,766.22 L1005.64,742.70 L995.37,719.91 L981.63,698.32 L964.63,678.37 L944.61,660.49 L921.89,645.06 L896.83,632.40 L869.83,622.81 L841.33,616.50 L811.79,613.64 L781.69,614.35 L751.53,618.64 L721.78,626.49 L692.94,637.81 L665.47,652.43 L639.81,670.14 L616.37,690.66 L595.51,713.66 L577.54,738.75 L562.74,765.54 L551.31,793.56 L543.38,822.36 L539.05,851.44 L538.33,880.31 L541.15,908.49 L547.41,935.50 L556.93,960.89 L569.46,984.21 L584.70,1005.09 L602.32,1023.17 L621.92,1038.16 L643.07,1049.82 L665.33,1057.95 L688.21,1062.44 L711.23,1063.24 L733.91,1060.36 L755.74,1053.87 L776.27,1043.91 L795.06,1030.69 L811.68,1014.47 L825.76,995.57 L836.97,974.35 L845.04,951.20 L849.74,926.58 L850.91,900.95 L848.47,874.78 L842.37,848.57 L832.66,822.80 L819.44,797.96 L802.88,774.51 L783.19,752.88 L760.67,733.47 L735.64,716.66 L708.50,702.74 L679.65,691.97 L649.55,684.56 L618.66,680.64 L587.49,680.29 L556.51,683.51 L526.21,690.24 L497.08,700.35 L469.56,713.67 L444.09,729.94 L421.05,748.86 L400.77,770.08 L383.57,793.20 L369.67,817.80 L359.26,843.43 L352.45,869.59 L349.28,895.81 L349.75,921.59 L353.76,946.44 L361.18,969.91 L371.79,991.55 L385.33,1010.94 L401.48,1027.71 L419.86,1041.55 L440.08,1052.17 L461.70,1059.36 L484.24,1062.96 L507.24,1062.90 L530.18,1059.13 L552.60,1051.71 L574.01,1040.74 L593.95,1026.39 L611.99,1008.89 L627.74,988.54 L640.83,965.67 L650.96,940.66 L657.88,913.94 L661.39,885.95 L661.38,857.18 L657.76,828.10 L650.54,799.21 L639.79,770.99 L625.64,743.92 L608.28,718.46 L587.97,695.02 L565.00,673.98 L539.75,655.70 L512.61,640.44 L484.00,628.46 L454.40,619.91 L424.28,614.91 L394.13,613.50 L364.44,615.66 L335.70,621.29 L308.37,630.25 L282.89,642.33 L259.68,657.24 L239.10,674.66 L221.47,694.23 L207.07,715.53 L196.10,738.13 L188.72,761.54 L185.00,785.30 L184.96,808.90 L188.57,831.87 L195.70,853.72 L206.18,874.00 L219.78,892.27 L236.20,908.16 L255.10,921.29 L276.09,931.38 L298.76,938.17 L322.64,941.48 L347.27,941.19 L372.15,937.23 L396.80,929.61 L420.73,918.40 L443.47,903.74 L464.57,885.84 L483.61,864.95 L500.22,841.37 L514.06,815.48 L524.85,787.67 L532.36,758.38 L536.43,728.08 L536.95,697.23 L533.89,666.35 L527.29,635.91 L517.23,606.40 L503.87,578.28 L487.44,552.00 L468.22,527.95 L446.53,506.51 L422.75,487.99 L397.30,472.65 L370.62,460.71 L343.18,452.29 L315.47,447.49 L287.98,446.32 L261.19,448.72 L235.58,454.57 L211.61,463.69 L189.71,475.85 L170.27,490.74 L153.62,508.02 L140.08,527.30 L129.89,548.15 L123.21,570.12 L120.19,592.74 L120.86,615.51 L125.22,637.95 L133.19,659.57 L144.62,679.90 L159.32,698.51 L177.02,714.96 L197.40,728.90 L220.10,739.99 L244.71,747.95 L270.80,752.56 L297.90,753.67 L325.53,751.18 L353.20,745.07 L380.42,735.36 L406.70,722.16 L431.60,705.64 L454.67,686.03 L475.50,663.60 L493.74,638.70 L509.09,611.70 L521.27,583.03 L530.09,553.12 L535.42,522.47 L537.17,491.54 L535.36,460.84 L530.02,430.85 L521.30,402.04 L509.38,374.88 L494.50,349.79 L476.96,327.14 L457.13,307.30 L435.38,290.55 L412.15,277.13 L387.91,267.21 L363.12,260.91 L338.27,258.28 L313.86,259.31 L290.37,263.90 L268.26,271.91 L247.98,283.14 L229.93,297.31 L214.50,314.10 L202.00,333.15 L192.71,354.05 L186.84,376.36 L184.55,399.62 L185.92,423.33 L190.98,447.02 L199.68,470.19 L211.91,492.37 L227.51,513.09 L246.24,531.93 L267.82,548.48 L291.90,562.40 L318.09,573.37 L345.99,581.15 L375.13,585.53 L405.04,586.40 L435.24,583.69 L465.23,577.40 L494.52,567.58 L522.65,554.39 L549.16,538.00 L573.62,518.68 L595.66,496.73 L614.94,472.51 L631.16,446.41 L644.09,418.88 L653.57,390.36 L659.49,361.35 L661.80,332.32 L660.52,303.77 L655.75,276.19 L647.64,250.04 L636.40,225.76 L622.31,203.76 L605.69,184.41 L586.91,168.03 L566.39,154.88 L544.56,145.18 L521.89,139.08 L498.87,136.65 L475.98,137.92 L453.72,142.84 L432.56,151.30 L412.96,163.11 L395.34,178.05 L380.10,195.81 L367.59,216.07 L358.11,238.42 L351.90,262.44 L349.16,287.69 L350.01,313.68 L354.50,339.94 L362.63,365.96 L374.32,391.27 L389.44,415.39 L407.79,437.87 L429.11,458.30 L453.07,476.29 L479.34,491.52 L507.49,503.70 L537.10,512.61 L567.70,518.07 L598.81,520.00 L629.93,518.35 L660.59,513.15 L690.29,504.50 L718.57,492.57 L744.99,477.56 L769.15,459.77 L790.68,439.51 L809.26,417.17 L824.64,393.16 L836.60,367.93 L845.01,341.94 L849.78,315.69 L850.90,289.66 L848.43,264.34 L842.49,240.20 L833.25,217.71 L820.96,197.28 L805.92,179.31 L788.47,164.15 L769.00,152.09 L747.94,143.37 L725.75,138.17 L702.89,136.62 L679.87,138.76 L657.15,144.59 L635.24,154.01 L614.60,166.90 L595.67,183.05 L578.88,202.18 L564.58,223.99 L553.11,248.11 L544.75,274.13 L539.72,301.62 L538.17,330.11 L540.21,359.12 L545.85,388.15 L555.06,416.72 L567.73,444.35 L583.71,470.57 L602.76,494.95 L624.60,517.09 L648.89,536.62 L675.26,553.24 L703.28,566.69 L732.50,576.77 L762.45,583.34 L792.65,586.32 L822.60,585.73 L851.82,581.60 L879.83,574.08 L906.17,563.35 L930.42,549.65 L952.20,533.28 L971.16,514.61 L987.01,494.01 L999.51,471.93 L1008.49,448.82 L1013.82,425.15 L1015.47,401.42 L1013.46,378.12 L1007.86,355.72 L998.82,334.69 L986.56,315.49 L971.34,298.51 L953.49,284.12 L933.37,272.66 L911.38,264.40 L887.98,259.54 L863.62,258.23 L838.79,260.58 L813.98,266.60 L789.67,276.24 L766.35,289.40 L744.48,305.91 L724.48,325.52 L706.76,347.96 L691.66,372.88 L679.50,399.90 L670.53,428.59 L664.93,458.51 L662.84,489.18 L664.32,520.10 L669.38,550.80 L677.94,580.78 L689.87,609.56 L704.97,636.70 L723.01,661.78 L743.66,684.41 L766.56,704.25 L791.33,721.01 L817.53,734.47 L844.70,744.45 L872.35,750.84 L900.00,753.61 L927.16,752.77 L953.34,748.42 L978.08,740.71 L1000.94,729.85 L1021.51,716.12 L1039.43,699.85 L1054.36,681.39 L1066.06,661.18 L1074.30,639.64 L1078.94,617.25 L1079.89,594.48 L1077.15,571.84 L1070.75,549.80 L1060.82,528.85 L1047.53,509.43 L1031.11,491.98 L1011.87,476.89 L990.14,464.52 L966.32,455.15 L940.82,449.04 L914.11,446.38 L886.65,447.28 L858.94,451.80 L831.46,459.94 L804.70,471.62 L779.14,486.70 L755.22,504.99 L733.36,526.21 L713.93,550.07 L697.28,576.20 L683.68,604.19 L673.36,633.61 L666.49,664.00 L663.16,694.87 L663.41,725.73 L667.21,756.09 L674.46,785.47 L685.00,813.41 L698.62,839.47 L715.03,863.23 L733.90,884.34 L754.85,902.49 L777.48,917.40 L801.34,928.87 L825.95,936.77 L850.83,941.01 L875.49,941.59 L899.45,938.55 L922.23,932.02 L943.36,922.17 L962.44,909.26 L979.06,893.58 L992.88,875.47 L1003.61,855.33 L1011.01,833.59 L1014.89,810.69 L1015.14,787.11 L1011.70,763.35 L1004.59,739.90 L993.89,717.22 L979.75,695.81 L962.36,676.09 L941.99,658.49 L918.97,643.37 L893.66,631.07 L866.45,621.86 L837.80,615.97 L808.17,613.54 L778.04,614.67 L747.90,619.40 L718.24,627.68 L689.54,639.41 L662.27,654.42 L636.85,672.48 L613.70,693.32 L593.17,716.59 L575.58,741.91 L561.17,768.87 L550.16,797.02 L542.67,825.87 L538.77,854.95 L538.48,883.77 L541.73,911.83 L548.40,938.67 L558.29,963.83 L571.16,986.87 L586.71,1007.43 L604.59,1025.16 L624.40,1039.75 L645.72,1050.99 L668.07,1058.69 L691.00,1062.74 L714.01,1063.09 L736.60,1059.76 L758.30,1052.84 L778.65,1042.48 L797.19,1028.88 L813.52,1012.32 L827.27,993.12 L838.12,971.64 L845.79,948.30 L850.07,923.53 L850.81,897.80 L847.92,871.60 L841.39,845.42 L831.25,819.74 L817.61,795.04 L800.65,771.78 L780.61,750.40 L757.76,731.29 L732.46,714.81 L705.09,701.26 L676.06,690.89 L645.84,683.90 L614.90,680.41 L583.72,680.49 L552.80,684.14 L522.62,691.28 L493.66,701.80 L466.37,715.48 L441.17,732.09 L418.44,751.31 L398.53,772.78 L381.71,796.11 L368.23,820.86 L358.24,846.57 L351.87,872.77 L349.15,898.96 L350.05,924.65 L354.48,949.37 L362.30,972.64 L373.28,994.02 L387.15,1013.12 L403.59,1029.55 L422.22,1043.01 L442.63,1053.22 L464.39,1059.99 L487.01,1063.15 L510.02,1062.64 L532.93,1058.42 L555.26,1050.57 L576.51,1039.18 L596.25,1024.43 L614.03,1006.58 L629.47,985.90 L642.22,962.75 L651.97,937.51 L658.49,910.61 L661.58,882.50 L661.13,853.66 L657.08,824.58 L649.43,795.75 L638.26,767.65 L623.71,740.75 L605.97,715.51 L585.32,692.34 L562.06,671.62 L536.56,653.68 L509.21,638.81 L480.46,627.24 L450.77,619.11 L420.62,614.55 L390.50,613.57 L360.90,616.16 L332.30,622.20 L305.18,631.55 L279.95,643.99 L257.04,659.22 L236.80,676.92 L219.56,696.73 L205.56,718.21 L195.02,740.92 L188.07,764.41 L184.80,788.17 L185.21,811.72 L189.25,834.58 L196.79,856.26 L207.67,876.32 L221.62,894.33 L238.36,909.90 L257.54,922.68 L278.75,932.38 L301.59,938.76 L325.59,941.64 L350.27,940.90 L375.15,936.50 L399.74,928.44 L423.55,916.81 L446.11,901.75 L466.99,883.47 L485.76,862.23 L502.05,838.35 L515.53,812.21 L525.94,784.20 L533.04,754.76 L536.68,724.36 L536.77,693.49 L533.28,662.63 L526.25,632.28 L515.78,602.91 L502.04,575.00 L485.26,548.96 L465.72,525.21 L443.76,504.11 L419.75,485.96 L394.13,471.02 L367.33,459.50 L339.83,451.52 L312.12,447.16 L284.69,446.42 L258.02,449.24 L232.59,455.50 L208.85,465.01 L187.22,477.51 L168.10,492.71 L151.82,510.25 L138.67,529.75 L128.89,550.76 L122.65,572.84 L120.07,595.50 L121.19,618.25 L125.99,640.62 L134.39,662.11 L146.23,682.25 L161.31,700.62 L179.35,716.79 L200.03,730.40 L222.98,741.12 L247.80,748.69 L274.03,752.89 L301.22,753.56 L328.88,750.64 L356.52,744.08 L383.66,733.95 L409.80,720.34 L434.50,703.43 L457.31,683.46 L477.85,660.72 L495.76,635.54 L510.73,608.31 L522.52,579.47 L530.92,549.45 L535.82,518.73 L537.14,487.80 L534.90,457.16 L529.15,427.29 L520.02,398.66 L507.73,371.73 L492.51,346.91 L474.68,324.59 L454.59,305.10 L432.64,288.74 L409.27,275.74 L384.93,266.25 L360.11,260.40 L335.29,258.22 L310.96,259.68 L287.61,264.69 L265.70,273.11 L245.67,284.70 L227.92,299.21 L212.83,316.29 L200.71,335.59 L191.82,356.69 L186.37,379.14 L184.52,402.47 L186.34,426.21 L191.84,449.86 L200.97,472.94 L213.62,494.96 L229.62,515.48 L248.71,534.06 L270.60,550.31 L294.96,563.89 L321.39,574.49 L349.46,581.86 L378.72,585.83 L408.69,586.27 L438.89,583.12 L468.82,576.39 L498.00,566.16 L525.95,552.57 L552.23,535.82 L576.43,516.16 L598.15,493.92 L617.07,469.44 L632.90,443.15 L645.43,415.47 L654.48,386.87 L659.96,357.82 L661.83,328.83 L660.13,300.38 L654.94,272.94 L646.44,247.00 L634.84,222.97 L620.43,201.27 L603.53,182.26 L584.51,166.26 L563.81,153.52 L541.85,144.25 L519.11,138.59 L496.08,136.61 L473.25,138.33 L451.09,143.68 L430.10,152.55 L410.71,164.76 L393.36,180.05 L378.43,198.14 L366.27,218.67 L357.18,241.24 L351.39,265.44 L349.07,290.80 L350.36,316.86 L355.29,343.11 L363.86,369.07 L375.97,394.26 L391.50,418.20 L410.22,440.46 L431.87,460.61 L456.14,478.29 L482.65,493.16 L511.00,504.96 L540.76,513.45 L571.44,518.49 L602.58,519.99 L633.68,517.90 L664.24,512.28 L693.79,503.23 L721.87,490.91 L748.04,475.55 L771.90,457.44 L793.09,436.91 L811.30,414.35 L826.27,390.16 L837.81,364.82 L845.78,338.77 L850.11,312.52 L850.79,286.55 L847.89,261.35 L841.54,237.39 L831.92,215.12 L819.28,194.97 L803.93,177.32 L786.21,162.52 L766.53,150.85 L745.31,142.55 L723.01,137.79 L700.11,136.68 L677.09,139.27 L654.45,145.54 L632.67,155.39 L612.21,168.69 L593.52,185.21 L577.01,204.68 L563.03,226.79 L551.93,251.17 L543.96,277.39 L539.35,305.02 L538.23,333.60 L540.70,362.64 L546.77,391.64 L556.41,420.12 L569.49,447.61 L585.86,473.63 L605.26,497.76 L627.41,519.60 L651.98,538.80 L678.57,555.04 L706.76,568.09 L736.09,577.75 L766.10,583.89 L796.30,586.44 L826.19,585.41 L855.28,580.87 L883.11,572.95 L909.22,561.84 L933.20,547.80 L954.65,531.14 L973.25,512.21 L988.70,491.41 L1000.79,469.18 L1009.33,445.98 L1014.22,422.28 L1015.42,398.57 L1012.97,375.35 L1006.94,353.09 L997.51,332.27 L984.87,313.31 L969.32,296.62 L951.17,282.58 L930.80,271.49 L908.62,263.62 L885.07,259.19 L860.63,258.32 L835.78,261.11 L811.00,267.57 L786.79,277.65 L763.62,291.22 L741.95,308.12 L722.21,328.09 L704.78,350.85 L690.03,376.05 L678.24,403.29 L669.67,432.16 L664.49,462.19 L662.83,492.91 L664.74,523.84 L670.23,554.47 L679.20,584.33 L691.53,612.94 L707.01,639.85 L725.37,664.66 L746.31,686.96 L769.47,706.45 L794.44,722.82 L820.78,735.87 L848.03,745.42 L875.70,751.37 L903.32,753.70 L930.39,752.43 L956.42,747.66 L980.96,739.56 L1003.56,728.34 L1023.83,714.28 L1041.40,697.72 L1055.96,679.03 L1067.24,658.63 L1075.05,636.97 L1079.25,614.50 L1079.76,591.73 L1076.57,569.13 L1069.73,547.20 L1059.38,526.41 L1045.70,507.21 L1028.93,490.02 L1009.37,475.25 L987.36,463.22 L963.31,454.24 L937.64,448.53 L910.82,446.29 L883.30,447.63 L855.59,452.59 L828.18,461.16 L801.54,473.26 L776.15,488.75 L752.46,507.40 L730.87,528.97 L711.77,553.12 L695.47,579.49 L682.26,607.68 L672.35,637.25 L665.90,667.71 L663.00,698.61 L663.68,729.44 L667.90,759.71 L675.56,788.94 L686.49,816.67 L700.46,842.47 L717.19,865.93 L736.33,886.70 L757.51,904.47 L780.31,918.97 L804.29,930.02 L828.96,937.48 L853.84,941.28 L878.44,941.41 L902.28,937.94 L924.88,931.00 L945.79,920.77 L964.59,907.51 L980.89,891.51 L994.35,873.14 L1004.69,852.78 L1011.67,830.87 L1015.11,807.86 L1014.92,784.24 L1011.03,760.49 L1003.49,737.10 L992.36,714.56 L977.81,693.32 L960.05,673.84 L939.34,656.52 L916.02,641.73 L890.46,629.79 L863.05,620.97 L834.26,615.49 L804.54,613.49 L774.38,615.05 L744.27,620.21 L714.70,628.92 L686.15,641.05 L659.08,656.45 L633.92,674.86 L611.07,696.01 L590.88,719.55 L573.66,745.10 L559.66,772.22 L549.06,800.48 L542.00,829.39 L538.55,858.46 L538.69,887.21 L542.36,915.16 L549.43,941.81 L559.69,966.73 L572.91,989.50 L588.76,1009.73 L606.89,1027.09 L626.91,1041.30 L648.38,1052.11 L670.83,1059.37 L693.79,1062.98 L716.77,1062.88 L739.28,1059.11 L760.85,1051.77 L781.00,1041.00 L799.29,1027.03 L815.33,1010.13 L828.74,990.63 L839.22,968.91 L846.49,945.37 L850.35,920.46 L850.65,894.65 L847.33,868.42 L840.35,842.27 L829.78,816.69 L815.73,792.14 L798.39,769.09 L777.99,747.96 L754.83,729.15 L729.25,713.01 L701.66,699.83 L672.46,689.86 L642.13,683.29 L611.13,680.23 L579.95,680.74 L549.10,684.82 L519.04,692.38 L490.26,703.29 L463.20,717.34 L438.28,734.28 L415.87,753.79 L396.32,775.51 L379.90,799.04 L366.83,823.93 L357.28,849.73 L351.35,875.95 L349.06,902.10 L350.40,927.70 L355.25,952.27 L363.46,975.33 L374.81,996.46 L389.01,1015.25 L405.73,1031.34 L424.60,1044.42 L445.20,1054.23 L467.09,1060.56 L489.78,1063.29 L512.81,1062.32 L535.68,1057.67 L557.89,1049.37 L578.99,1037.57 L598.51,1022.43 L616.03,1004.22 L631.16,983.22 L643.56,959.80 L652.94,934.34 L659.05,907.26 L661.72,879.04 L660.83,850.15 L656.34,821.07 L648.26,792.30 L636.67,764.32 L621.72,737.60 L603.63,712.59 L582.64,689.69 L559.09,669.30 L533.34,651.72 L505.80,637.23 L476.91,626.07 L447.14,618.37 L416.97,614.24 L386.88,613.70 L357.38,616.71 L328.94,623.16 L302.02,632.90 L277.05,645.69 L254.45,661.24 L234.55,679.22 L217.69,699.24 L204.10,720.90 L193.98,743.73 L187.48,767.28 L184.65,791.04 L185.50,814.53 L189.98,837.27 L197.94,858.79 L209.20,878.62 L223.51,896.35 L240.56,911.60 L260.00,924.02 L281.44,933.33 L304.44,939.30 L328.55,941.74 L353.28,940.57 L378.15,935.72 L402.67,927.22 L426.36,915.16 L448.74,899.70 L469.38,881.05 L487.87,859.47 L503.83,835.30 L516.96,808.91 L526.97,780.70 L533.66,751.12 L536.88,720.64 L536.54,689.75 L532.62,658.92 L525.16,628.67 L514.29,599.45 L500.17,571.74 L483.04,545.96 L463.18,522.51 L440.95,501.75 L416.73,483.98 L390.94,469.45 L364.03,458.34 L336.48,450.80 L308.78,446.88 L281.41,446.57 L254.87,449.82 L229.61,456.48 L206.11,466.36 L184.77,479.21 L165.97,494.71 L150.05,512.52 L137.30,532.22 L127.94,553.38 L122.15,575.56 L120.01,598.25 L121.58,620.99 L126.82,643.27 L135.64,664.62 L147.89,684.58 L163.34,702.70 L181.71,718.58 L202.69,731.85 L225.89,742.21 L250.90,749.38 L277.28,753.16 L304.55,753.40 L332.24,750.04 L359.84,743.05 L386.88,732.48 L412.87,718.46 L437.36,701.17 L459.93,680.85 L480.16,657.79 L497.73,632.35 L512.33,604.90 L523.72,575.89 L531.70,545.76 L536.17,514.99 L537.06,484.07 L534.38,453.50 L528.22,423.75 L518.70,395.30 L506.04,368.60 L490.48,344.07 L472.36,322.07 L452.02,302.95 L429.88,286.99 L406.36,274.40 L381.94,265.35 L357.09,259.94 L332.31,258.20 L308.07,260.10 L284.87,265.53 L263.17,274.34 L243.39,286.31 L225.95,301.14 L211.20,318.52 L199.45,338.06 L190.97,359.34 L185.96,381.92 L184.54,405.33 L186.81,429.09 L192.75,452.69 L202.32,475.67 L215.39,497.53 L231.77,517.84 L251.21,536.16 L273.43,552.10 L298.06,565.33 L324.70,575.55 L352.94,582.52 L382.31,586.07 L412.34,586.08 L442.53,582.49 L472.40,575.34 L501.45,564.69 L529.23,550.71 L555.28,533.59 L579.19,513.60 L600.59,491.07 L619.15,466.35 L634.60,439.87 L646.71,412.05 L655.34,383.37 L660.38,354.30 L661.82,325.35 L659.68,296.99 L654.09,269.72 L645.20,243.98 L633.24,220.21 L618.51,198.82 L601.33,180.16 L582.09,164.54 L561.21,152.21 L539.13,143.37 L516.33,138.15 L493.30,136.62 L470.52,138.78 L448.48,144.57 L427.66,153.86 L408.49,166.45 L391.42,182.10 L376.81,200.50 L365.01,221.30 L356.30,244.09 L350.92,268.46 L349.04,293.93 L350.76,320.03 L356.14,346.27 L365.14,372.17 L377.67,397.23 L393.60,420.99 L412.69,443.01 L434.67,462.89 L459.23,480.24 L485.99,494.76 L514.54,506.16 L544.43,514.25 L575.20,518.87 L606.35,519.93 L637.41,517.41 L667.88,511.37 L697.28,501.91 L725.15,489.21 L751.06,473.50 L774.61,455.08 L795.46,434.28 L813.29,411.50 L827.85,387.15 L838.96,361.69 L846.49,335.60 L850.38,309.35 L850.63,283.45 L847.30,258.37 L840.55,234.59 L830.55,212.56 L817.56,192.70 L801.90,175.38 L783.93,160.94 L764.04,149.66 L742.66,141.78 L720.26,137.46 L697.32,136.80 L674.32,139.83 L651.76,146.54 L630.12,156.82 L609.85,170.52 L591.40,187.41 L575.17,207.23 L561.53,229.63 L550.80,254.25 L543.22,280.67 L539.02,308.44 L538.34,337.10 L541.24,366.16 L547.75,395.13 L557.81,423.51 L571.30,450.84 L588.05,476.66 L607.80,500.53 L630.27,522.07 L655.10,540.92 L681.90,556.80 L710.25,569.44 L739.70,578.68 L769.75,584.39 L799.94,586.51 L829.76,585.05 L858.72,580.09 L886.37,571.77 L912.24,560.29 L935.93,545.92 L957.06,528.96 L975.29,509.78 L990.35,488.79 L1002.01,466.42 L1010.11,443.13 L1014.56,419.40 L1015.32,395.73 L1012.43,372.60 L1005.98,350.49 L996.14,329.86 L983.14,311.16 L967.25,294.77 L948.81,281.07 L928.20,270.36 L905.83,262.90 L882.15,258.89 L857.63,258.47 L832.76,261.70 L808.03,268.60 L783.92,279.11 L760.91,293.10 L739.45,310.38 L719.97,330.70 L702.85,353.78 L688.44,379.24 L677.03,406.71 L668.86,435.74 L664.10,465.88 L662.87,496.65 L665.22,527.57 L671.13,558.14 L680.52,587.87 L693.24,616.30 L709.08,642.98 L727.78,667.49 L749.01,689.48 L772.40,708.60 L797.56,724.58 L824.03,737.21 L851.36,746.33 L879.06,751.85 L906.63,753.74 L933.60,752.04 L959.48,746.86 L983.80,738.36 L1006.14,726.78 L1026.10,712.40 L1043.33,695.57 L1057.50,676.65 L1068.37,656.07 L1075.75,634.28 L1079.51,611.76 L1079.57,588.98 L1075.93,566.43 L1068.67,544.61 L1057.90,523.99 L1043.83,505.01 L1026.70,488.10 L1006.83,473.64 L984.55,461.97 L960.29,453.37 L934.45,448.08 L907.51,446.26 L879.95,448.04 L852.25,453.44 L824.90,462.44 L798.39,474.96 L773.19,490.84 L749.73,509.86 L728.42,531.76 L709.64,556.20 L693.70,582.82 L680.88,611.20 L671.38,640.89 L665.35,671.44 L662.89,702.35 L664.00,733.14 L668.65,763.31 L676.71,792.38 L688.02,819.90 L702.34,845.44 L719.38,868.59 L738.79,889.02 L760.19,906.40 L783.16,920.50 L807.24,931.12 L831.96,938.13 L856.84,941.49 L881.37,941.18 L905.09,937.28 L927.51,929.93 L948.18,919.32 L966.70,905.71 L982.67,889.41 L995.77,870.77 L1005.72,850.20 L1012.28,828.13 L1015.28,805.03 L1014.64,781.36 L1010.31,757.63 L1002.33,734.32 L990.78,711.91 L975.83,690.86 L957.69,671.62 L936.65,654.59 L913.04,640.13 L887.23,628.55 L859.64,620.13 L830.70,615.06 L800.91,613.48 L770.73,615.49 L740.66,621.08 L711.19,630.20 L682.79,642.75 L655.93,658.52 L631.03,677.28 L608.48,698.74 L588.64,722.54 L571.79,748.30 L558.19,775.59 L548.02,803.95 L541.39,832.91 L538.37,861.97 L538.95,890.65 L543.04,918.46 L550.50,944.93 L561.14,969.61 L574.69,992.09 L590.84,1011.99 L609.22,1028.99 L629.44,1042.79 L651.05,1053.18 L673.59,1060.01 L696.58,1063.16 L719.53,1062.62 L741.95,1058.41 L763.37,1050.64 L783.32,1039.48 L801.36,1025.14 L817.10,1007.90 L830.17,988.11 L840.27,966.15 L847.14,942.42 L850.58,917.37 L850.45,891.49 L846.68,865.25 L839.26,839.14 L828.26,813.65 L813.81,789.26 L796.08,766.42 L775.33,745.56 L751.85,727.05 L726.01,711.25 L698.20,698.45 L668.84,688.88 L638.40,682.73 L607.36,680.10 L576.19,681.04 L545.41,685.55 L515.48,693.52 L486.88,704.83 L460.06,719.24 L435.43,736.51 L413.35,756.31 L394.16,778.27 L378.14,801.98 L365.49,827.01 L356.37,852.89 L350.88,879.12 L349.03,905.24 L350.80,930.74 L356.07,955.15 L364.68,978.00 L376.38,998.87 L390.91,1017.35 L407.91,1033.09 L427.01,1045.79 L447.79,1055.18 L469.80,1061.09 L492.56,1063.37 L515.59,1061.96 L538.41,1056.85 L560.51,1048.13 L581.44,1035.91 L600.74,1020.39 L617.99,1001.82 L632.81,980.51 L644.86,956.82 L653.85,931.14 L659.56,903.90 L661.80,875.57 L660.48,846.63 L655.55,817.56 L647.04,788.86 L635.04,761.01 L619.70,734.47 L601.23,709.70 L579.92,687.09 L556.08,667.01 L530.10,649.80 L502.37,635.70 L473.35,624.95 L443.50,617.68 L413.31,613.98 L383.27,613.87 L353.87,617.31 L325.59,624.17 L298.88,634.29 L274.18,647.43 L251.89,663.29 L232.35,681.54 L215.86,701.79 L202.68,723.61 L193.00,746.55 L186.94,770.15 L184.56,793.91 L185.86,817.33 L190.76,839.95 L199.13,861.28 L210.77,880.88 L225.43,898.33 L242.79,913.26 L262.50,925.32 L284.15,934.24 L307.31,939.78 L331.52,941.80 L356.29,940.17 L381.15,934.88 L405.59,925.95 L429.14,913.47 L451.34,897.61 L471.74,878.59 L489.94,856.68 L505.58,832.22 L518.34,805.58 L527.96,777.19 L534.24,747.47 L537.03,716.92 L536.25,686.00 L531.90,655.22 L524.03,625.07 L512.75,596.01 L498.25,568.51 L480.77,542.99 L460.61,519.85 L438.12,499.44 L413.69,482.04 L387.74,467.92 L360.72,457.24 L333.13,450.13 L305.44,446.65 L278.15,446.78 L251.73,450.45 L226.67,457.51 L203.40,467.77 L182.35,480.95 L163.89,496.75 L148.34,514.81 L135.99,534.71 L127.05,556.02 L121.69,578.28 L120.00,601.01 L122.02,623.72 L127.70,645.92 L136.95,667.12 L149.59,686.88 L165.41,704.75 L184.12,720.33 L205.39,733.27 L228.83,743.25 L254.03,750.02 L280.54,753.38 L307.89,753.19 L335.59,749.38 L363.15,741.96 L390.09,730.97 L415.92,716.54 L440.20,698.87 L462.50,678.20 L482.44,654.83 L499.66,629.12 L513.88,601.47 L524.87,572.29 L532.43,542.06 L536.47,511.25 L536.93,480.35 L533.82,449.85 L527.24,420.23 L517.33,391.97 L504.30,365.51 L488.42,341.27 L470.01,319.60 L449.43,300.85 L427.10,285.28 L403.45,273.11 L378.95,264.50 L354.08,259.53 L329.34,258.24 L305.20,260.57 L282.16,266.42 L260.66,275.63 L241.15,287.96 L224.01,303.12 L209.61,320.78 L198.25,340.55 L190.18,362.01 L185.59,384.72 L184.62,408.20 L187.33,431.96 L193.72,455.52 L203.72,478.38 L217.20,500.08 L233.96,520.17 L253.76,538.22 L276.29,553.86 L301.18,566.74 L328.04,576.57 L356.44,583.14 L385.92,586.26 L415.99,585.84 L446.17,581.82 L475.97,574.24 L504.89,563.18 L532.48,548.80 L558.29,531.32 L581.92,511.00 L602.99,488.18 L621.19,463.23 L636.24,436.56 L647.94,408.62 L656.14,379.86 L660.74,350.79 L661.75,321.88 L659.19,293.63 L653.18,266.51 L643.91,240.99 L631.60,217.49 L616.55,196.41 L599.11,178.11 L579.64,162.87 L558.59,150.95 L536.40,142.54 L513.55,137.77 L490.52,136.69 L467.81,139.29 L445.89,145.51 L425.24,155.21 L406.31,168.19 L389.51,184.19 L375.22,202.90 L363.78,223.96 L355.47,246.97 L350.50,271.49 L349.05,297.06 L351.22,323.21 L357.03,349.43 L366.47,375.25 L379.42,400.18 L395.74,423.76 L415.20,445.54 L437.52,465.13 L462.36,482.16 L489.36,496.31 L518.09,507.32 L548.11,514.99 L578.95,519.18 L610.13,519.81 L641.14,516.87 L671.50,510.40 L700.74,500.54 L728.40,487.46 L754.04,471.41 L777.28,452.68 L797.78,431.62 L815.23,408.63 L829.38,384.12 L840.07,358.56 L847.16,332.42 L850.60,306.19 L850.41,280.36 L846.67,255.42 L839.50,231.83 L829.13,210.03 L815.80,190.46 L799.84,173.47 L781.62,159.40 L761.52,148.53 L739.99,141.07 L717.50,137.18 L694.53,136.97 L671.56,140.45 L649.08,147.60 L627.58,158.30 L607.51,172.40 L589.31,189.66 L573.38,209.81 L560.07,232.50 L549.71,257.36 L542.53,283.96 L538.75,311.87 L538.49,340.60 L541.84,369.68 L548.78,398.60 L559.26,426.88 L573.16,454.05 L590.28,479.66 L610.38,503.27 L633.15,524.50 L658.24,543.01 L685.26,558.50 L713.77,570.75 L743.31,579.56 L773.41,584.84 L803.58,586.52 L833.32,584.63 L862.15,579.26 L889.60,570.55 L915.23,558.70 L938.63,544.00 L959.43,526.75 L977.29,507.33 L991.94,486.15 L1003.18,463.64 L1010.85,440.27 L1014.85,416.52 L1015.16,392.89 L1011.83,369.86 L1004.97,347.91 L994.73,327.49 L981.37,309.05 L965.15,292.97 L946.43,279.61 L925.58,269.28 L903.03,262.23 L879.22,258.65 L854.64,258.66 L829.76,262.34 L805.07,269.68 L781.07,280.62 L758.22,295.02 L736.98,312.68 L717.77,333.36 L700.96,356.74 L686.89,382.47 L675.86,410.14 L668.10,439.33 L663.76,469.58 L662.96,500.40 L665.75,531.30 L672.08,561.79 L681.88,591.39 L694.99,619.63 L711.20,646.06 L730.22,670.29 L751.73,691.95 L775.36,710.70 L800.70,726.29 L827.30,738.50 L854.70,747.19 L882.41,752.27 L909.94,753.72 L936.80,751.59 L962.51,746.00 L986.62,737.12 L1008.69,725.19 L1028.34,710.49 L1045.21,693.38 L1058.99,674.24 L1069.46,653.49 L1076.40,631.59 L1079.71,609.00 L1079.32,586.23 L1075.24,563.75 L1067.55,542.05 L1056.37,521.60 L1041.91,502.85 L1024.44,486.21 L1004.25,472.07 L981.72,460.76 L957.23,452.55 L931.24,447.67 L904.20,446.29 L876.60,448.50 L848.91,454.34 L821.64,463.77 L795.26,476.71 L770.25,492.98 L747.03,512.36 L726.01,534.59 L707.55,559.31 L691.98,586.16 L679.55,614.73 L670.46,644.55 L664.87,675.17 L662.83,706.09 L664.38,736.83 L669.45,766.89 L677.91,795.80 L689.60,823.11 L704.27,848.38 L721.61,871.22 L741.28,891.29 L762.90,908.28 L786.02,921.97 L810.21,932.16 L834.97,938.74 L859.83,941.64 L884.30,940.90 L907.88,936.57 L930.11,928.82 L950.55,917.83 L968.77,903.87 L984.42,887.27 L997.15,868.38 L1006.69,847.60 L1012.83,825.38 L1015.40,802.18 L1014.32,778.49 L1009.54,754.78 L1001.12,731.55 L989.15,709.28 L973.80,688.43 L955.30,669.44 L933.93,652.70 L910.03,638.57 L883.98,627.36 L856.20,619.33 L827.14,614.68 L797.27,613.54 L767.07,615.97 L737.05,622.00 L707.68,631.54 L679.45,644.49 L652.80,660.63 L628.17,679.74 L605.93,701.50 L586.43,725.56 L569.97,751.53 L556.78,778.97 L547.03,807.43 L540.84,836.43 L538.25,865.47 L539.26,894.07 L543.76,921.74 L551.62,948.02 L562.63,972.46 L576.51,994.64 L592.95,1014.21 L611.58,1030.83 L631.99,1044.23 L653.73,1054.20 L676.35,1060.58 L699.37,1063.29 L722.28,1062.30 L744.61,1057.66 L765.87,1049.47 L785.61,1037.90 L803.39,1023.20 L818.83,1005.64 L831.56,985.56 L841.28,963.36 L847.74,939.45 L850.75,914.28 L850.18,888.32 L845.97,862.07 L838.12,836.01 L826.69,810.63 L811.83,786.41 L793.72,763.79 L772.62,743.19 L748.85,724.99 L722.75,709.54 L694.72,697.12 L665.21,687.96 L634.67,682.22 L603.58,680.02 L572.44,681.40 L541.73,686.33 L511.94,694.72 L483.54,706.41 L456.96,721.19 L432.61,738.78 L410.87,758.86 L392.05,781.05 L376.42,804.95 L364.19,830.11 L355.51,856.05 L350.46,882.30 L349.06,908.37 L351.26,933.76 L356.94,958.00 L365.93,980.64 L378.00,1001.24 L392.84,1019.41 L410.12,1034.79 L429.45,1047.10 L450.40,1056.09 L472.52,1061.56 L495.34,1063.39 L518.38,1061.53 L541.13,1055.99 L563.12,1046.83 L583.87,1034.20 L602.95,1018.30 L619.92,999.38 L634.42,977.77 L646.12,953.81 L654.72,927.92 L660.01,900.52 L661.83,872.10 L660.08,843.11 L654.71,814.06 L645.77,785.44 L633.36,757.72 L617.63,731.38 L598.80,706.84 L577.16,684.52 L553.05,664.77 L526.83,647.92 L498.92,634.22 L469.77,623.88 L439.86,617.04 L409.66,613.78 L379.67,614.10 L350.38,617.96 L322.27,625.23 L295.78,635.72 L271.35,649.21 L249.37,665.38 L230.18,683.89 L214.09,704.35 L201.32,726.33 L192.07,749.38 L186.46,773.02 L184.52,796.77 L186.26,820.12 L191.59,842.61 L200.37,863.76 L212.39,883.12 L227.39,900.28 L245.06,914.87 L265.02,926.57 L286.88,935.09 L310.19,940.22 L334.49,941.79 L359.31,939.73 L384.14,933.99 L408.50,924.62 L431.91,911.73 L453.91,895.47 L474.06,876.08 L491.97,853.85 L507.28,829.11 L519.68,802.23 L528.90,773.65 L534.77,743.81 L537.13,713.19 L535.92,682.26 L531.14,651.53 L522.84,621.48 L511.16,592.59 L496.29,565.31 L478.47,540.06 L458.01,517.23 L435.26,497.17 L410.62,480.16 L384.51,466.44 L357.41,456.19 L329.77,449.52 L302.11,446.47 L274.89,447.04 L248.62,451.13 L223.75,458.59 L200.73,469.21 L179.97,482.73 L161.84,498.83 L146.67,517.12 L134.72,537.22 L126.21,558.67 L121.29,581.02 L120.05,603.77 L122.51,626.44 L128.63,648.54 L138.30,669.60 L151.34,689.15 L167.53,706.76 L186.57,722.04 L208.12,734.64 L231.79,744.24 L257.18,750.61 L283.82,753.54 L311.23,752.92 L338.94,748.68 L366.46,740.81 L393.28,729.40 L418.95,714.57 L443.02,696.52 L465.05,675.51 L484.67,651.84 L501.55,625.87 L515.39,598.01 L525.97,568.68 L533.11,538.35 L536.71,507.50 L536.74,476.63 L533.21,446.21 L526.22,416.73 L515.92,388.67 L502.53,362.45 L486.32,338.50 L467.63,317.17 L446.81,298.79 L424.30,283.63 L400.52,271.88 L375.95,263.70 L351.07,259.18 L326.38,258.33 L302.35,261.09 L279.47,267.36 L258.19,276.96 L238.94,289.65 L222.12,305.13 L208.07,323.06 L197.09,343.06 L189.44,364.70 L185.28,387.53 L184.75,411.07 L187.91,434.83 L194.74,458.33 L205.16,481.08 L219.05,502.61 L236.20,522.47 L256.35,540.25 L279.18,555.57 L304.33,568.09 L331.41,577.55 L359.96,583.70 L389.54,586.40 L419.65,585.54 L449.81,581.09 L479.52,573.08 L508.31,561.61 L535.71,546.84 L561.28,529.00 L584.61,508.37 L605.35,485.27 L623.18,460.09 L637.84,433.24 L649.12,405.17 L656.89,376.35 L661.06,347.27 L661.62,318.42 L658.64,290.28 L652.23,263.33 L642.58,238.03 L629.92,214.81 L614.56,194.05 L596.85,176.09 L577.17,161.25 L555.96,149.75 L533.66,141.77 L510.76,137.44 L487.75,136.81 L465.10,139.85 L443.32,146.50 L422.85,156.61 L404.16,169.97 L387.64,186.31 L373.68,205.33 L362.60,226.65 L354.68,249.86 L350.14,274.54 L349.12,300.21 L351.73,326.39 L357.98,352.59 L367.85,378.33 L381.22,403.11 L397.93,426.50 L417.75,448.03 L440.39,467.33 L465.52,484.03 L492.75,497.81 L521.67,508.43 L551.81,515.69 L582.72,519.45 L613.90,519.64 L644.86,516.27 L675.11,509.39 L704.18,499.12 L731.61,485.67 L756.99,469.28 L779.92,450.25 L800.06,428.94 L817.12,405.73 L830.86,381.08 L841.12,355.42 L847.77,329.24 L850.77,303.04 L850.15,277.29 L845.98,252.48 L838.41,229.09 L827.67,207.54 L814.01,188.26 L797.75,171.61 L779.27,157.91 L758.98,147.44 L737.32,140.41 L714.74,136.96 L691.74,137.19 L668.81,141.12 L646.42,148.71 L625.07,159.83 L605.20,174.32 L587.26,191.95 L571.62,212.42 L558.66,235.40 L548.66,260.49 L541.89,287.28 L538.53,315.31 L538.71,344.11 L542.49,373.19 L549.86,402.07 L560.77,430.24 L575.06,457.24 L592.56,482.63 L613.00,505.97 L636.07,526.89 L661.42,545.05 L688.64,560.16 L717.30,572.00 L746.93,580.39 L777.07,585.23 L807.21,586.48 L836.86,584.17 L865.55,578.38 L892.81,569.27 L918.19,557.07 L941.29,542.04 L961.75,524.51 L979.24,504.86 L993.49,483.49 L1004.30,460.85 L1011.53,437.41 L1015.08,413.65 L1014.95,390.06 L1011.19,367.14 L1003.90,345.34 L993.28,325.15 L979.55,306.97 L963.01,291.20 L944.01,278.19 L922.93,268.25 L900.20,261.61 L876.28,258.45 L851.63,258.91 L826.75,263.04 L802.12,270.82 L778.24,282.18 L755.56,296.98 L734.54,315.03 L715.60,336.05 L699.10,359.73 L685.39,385.72 L674.75,413.60 L667.39,442.95 L663.47,473.29 L663.11,504.14 L666.33,535.02 L673.09,565.42 L683.30,594.88 L696.80,622.93 L713.35,649.12 L732.69,673.06 L754.48,694.38 L778.34,712.76 L803.86,727.95 L830.59,739.74 L858.05,748.00 L885.76,752.64 L913.23,753.65 L939.98,751.10 L965.52,745.10 L989.41,735.83 L1011.21,723.55 L1030.53,708.54 L1047.04,691.16 L1060.44,671.81 L1070.49,650.89 L1077.00,628.88 L1079.86,606.25 L1079.02,583.48 L1074.50,561.07 L1066.38,539.50 L1054.79,519.23 L1039.96,500.72 L1022.13,484.36 L1001.64,470.55 L978.85,459.59 L954.16,451.78 L928.02,447.31 L900.88,446.36 L873.24,449.01 L845.58,455.29 L818.39,465.15 L792.16,478.50 L767.33,495.16 L744.36,514.91 L723.63,537.45 L705.51,562.46 L690.30,589.54 L678.27,618.28 L669.60,648.22 L664.43,678.90 L662.83,709.83 L664.81,740.51 L670.29,770.46 L679.16,799.20 L691.22,826.28 L706.23,851.27 L723.87,873.80 L743.80,893.51 L765.62,910.12 L788.90,923.39 L813.18,933.15 L837.99,939.28 L862.82,941.75 L887.21,940.56 L910.65,935.81 L932.69,927.65 L952.88,916.29 L970.81,902.00 L986.12,885.10 L998.48,865.95 L1007.62,844.98 L1013.33,822.62 L1015.47,799.33 L1013.93,775.61 L1008.71,751.93 L999.85,728.80 L987.47,706.68 L971.72,686.03 L952.86,667.28 L931.16,650.84 L906.98,637.05 L880.70,626.21 L852.74,618.59 L823.56,614.35 L793.62,613.64 L763.42,616.51 L733.45,622.97 L704.20,632.93 L676.13,646.27 L649.71,662.79 L625.34,682.24 L603.42,704.30 L584.28,728.61 L568.20,754.78 L555.41,782.37 L546.09,810.92 L540.33,839.95 L538.18,868.96 L539.62,897.47 L544.54,925.00 L552.79,951.08 L564.16,975.27 L578.37,997.16 L595.10,1016.38 L613.96,1032.63 L634.56,1045.62 L656.43,1055.17 L679.13,1061.11 L702.15,1063.37 L725.02,1061.93 L747.24,1056.85 L768.35,1048.25 L787.87,1036.29 L805.39,1021.22 L820.52,1003.34 L832.90,982.98 L842.24,960.55 L848.29,936.46 L850.88,911.17 L849.87,885.15 L845.22,858.90 L836.93,832.90 L825.08,807.63 L809.81,783.58 L791.32,761.18 L769.88,740.85 L745.81,722.97 L719.45,707.87 L691.22,695.83 L661.56,687.08 L630.93,681.77 L599.81,680.00 L568.69,681.81 L538.07,687.16 L508.42,695.96 L480.22,708.04 L453.89,723.17 L429.84,741.08 L408.43,761.44 L389.99,783.86 L374.76,807.94 L362.95,833.21 L354.71,859.22 L350.10,885.47 L349.13,911.48 L351.76,936.76 L357.86,960.83 L367.23,983.25 L379.65,1003.57 L394.81,1021.42 L412.36,1036.45 L431.90,1048.37 L453.02,1056.94 L475.26,1061.97 L498.13,1063.36 L521.15,1061.06 L543.84,1055.07 L565.70,1045.49 L586.28,1032.45 L605.12,1016.17 L621.82,996.90 L635.99,974.98 L647.33,950.77 L655.54,924.67 L660.42,897.13 L661.81,868.61 L659.62,839.59 L653.82,810.57 L644.45,782.03 L631.63,754.45 L615.51,728.30 L596.33,704.01 L574.37,681.98 L549.98,662.57 L523.53,646.09 L495.45,632.79 L466.18,622.87 L436.21,616.46 L406.01,613.63 L376.08,614.38 L346.91,618.66 L318.97,626.33 L292.71,637.20 L268.55,651.03 L246.89,667.50 L228.07,686.27 L212.36,706.94 L200.02,729.08 L191.20,752.22 L186.02,775.90 L184.54,799.62 L186.71,822.90 L192.47,845.25 L201.65,866.20 L214.05,885.32 L229.39,902.19 L247.36,916.45 L267.57,927.77 L289.63,935.89 L313.09,940.60 L337.48,941.74 L362.32,939.23 L387.12,933.05 L411.39,923.25 L434.65,909.94 L456.45,893.29 L476.36,873.54 L493.97,850.98 L508.94,825.96 L520.97,798.86 L529.80,770.10 L535.24,740.14 L537.17,709.45 L535.53,678.53 L530.32,647.85 L521.60,617.92 L509.53,589.20 L494.28,562.14 L476.13,537.16 L455.37,514.65 L432.37,494.94 L407.53,478.32 L381.28,465.01 L354.08,455.19 L326.42,448.96 L298.78,446.35 L271.66,447.35 L245.53,451.85 L220.86,459.71 L198.09,470.70 L177.63,484.55 L159.84,500.93 L145.05,519.47 L133.50,539.75 L125.42,561.34 L120.94,583.76 L120.15,606.53 L123.06,629.16 L129.62,651.16 L139.70,672.05 L153.14,691.39 L169.69,708.74 L189.05,723.72 L210.87,735.96 L234.78,745.19 L260.34,751.15 L287.10,753.66 L314.58,752.60 L342.29,747.92 L369.75,739.62 L396.46,727.78 L421.96,712.55 L445.80,694.13 L467.56,672.78 L486.87,648.81 L503.39,622.59 L516.85,594.53 L527.02,565.06 L533.74,534.64 L536.91,503.76 L536.50,472.91 L532.54,442.58 L525.14,413.25 L514.46,385.39 L500.71,359.43 L484.19,335.77 L465.21,314.79 L444.17,296.78 L421.48,282.02 L397.58,270.70 L372.95,262.96 L348.06,258.88 L323.42,258.47 L299.51,261.67 L276.80,268.35 L255.74,278.34 L236.77,291.38 L220.27,307.18 L206.57,325.38 L195.99,345.60 L188.74,367.41 L185.02,390.35 L184.94,413.94 L188.54,437.70 L195.81,461.13 L206.66,483.76 L220.96,505.11 L238.49,524.74 L258.97,542.24 L282.11,557.24 L307.52,569.40 L334.79,578.47 L363.50,584.22 L393.16,586.49 L423.30,585.19 L453.44,580.31 L483.06,571.87 L511.71,560.00 L538.91,544.84 L564.23,526.65 L587.27,505.70 L607.67,482.33 L625.13,456.92 L639.39,429.90 L650.25,401.71 L657.58,372.84 L661.32,343.76 L661.45,314.96 L658.05,286.94 L651.23,260.17 L641.20,235.10 L628.20,212.16 L612.54,191.72 L594.57,174.13 L574.68,159.67 L553.31,148.59 L530.92,141.05 L507.98,137.17 L484.98,136.98 L462.41,140.47 L440.76,147.55 L420.49,158.06 L402.03,171.79 L385.81,188.48 L372.18,207.79 L361.47,229.36 L353.95,252.78 L349.82,277.60 L349.24,303.35 L352.29,329.56 L358.99,355.74 L369.29,381.38 L383.07,406.03 L400.17,429.21 L420.35,450.50 L443.31,469.50 L468.71,485.85 L496.17,499.27 L525.26,509.49 L555.52,516.33 L586.48,519.66 L617.66,519.43 L648.56,515.62 L678.70,508.32 L707.59,497.66 L734.80,483.84 L759.90,467.11 L782.51,447.78 L802.29,426.22 L818.96,402.82 L832.29,378.02 L842.12,352.27 L848.33,326.06 L850.89,299.89 L849.83,274.23 L845.24,249.57 L837.28,226.37 L826.16,205.08 L812.17,186.10 L795.63,169.79 L776.91,156.47 L756.42,146.40 L734.62,139.80 L711.97,136.79 L688.95,137.47 L666.06,141.85 L643.77,149.87 L622.58,161.41 L602.92,176.29 L585.23,194.28 L569.91,215.08 L557.29,238.33 L547.67,263.65 L541.30,290.62 L538.36,318.77 L538.97,347.63 L543.19,376.71 L551.00,405.52 L562.32,433.58 L577.02,460.41 L594.88,485.57 L615.66,508.64 L639.02,529.24 L664.62,547.04 L692.04,561.77 L720.84,573.20 L750.56,581.17 L780.72,585.57 L810.83,586.39 L840.39,583.65 L868.93,577.45 L895.99,567.96 L921.12,555.40 L943.92,540.04 L964.03,522.24 L981.14,502.35 L994.98,480.81 L1005.37,458.04 L1012.15,434.54 L1015.26,410.78 L1014.69,387.24 L1010.49,364.43 L1002.79,342.81 L991.78,322.83 L977.69,304.92 L960.84,289.47 L941.56,276.82 L920.26,267.27 L897.36,261.04 L873.33,258.32 L848.62,259.21 L823.75,263.78 L799.18,272.00 L775.42,283.79 L752.92,299.00 L732.13,317.42 L713.46,338.78 L697.29,362.76 L683.94,389.00 L673.68,417.08 L666.73,446.57 L663.24,477.00 L663.31,507.88 L666.96,538.73 L674.14,569.05 L684.76,598.36 L698.64,626.20 L715.55,652.14 L735.21,675.78 L757.27,696.76 L781.35,714.77 L807.04,729.56 L833.88,740.93 L861.40,748.75 L889.11,752.95 L916.52,753.53 L943.14,750.55 L968.51,744.14 L992.16,734.50 L1013.68,721.87 L1032.69,706.56 L1048.84,688.92 L1061.84,669.35 L1071.46,648.28 L1077.54,626.17 L1079.96,603.49 L1078.67,580.74 L1073.71,558.41 L1065.16,536.97 L1053.16,516.89 L1037.95,498.61 L1019.79,482.55 L999.00,469.06 L975.95,458.48 L951.07,451.05 L924.78,447.01 L897.56,446.49 L869.89,449.58 L842.26,456.29 L815.16,466.59 L789.07,480.34 L764.45,497.39 L741.72,517.49 L721.29,540.35 L703.51,565.63 L688.67,592.94 L677.04,621.85 L668.78,651.91 L664.05,682.64 L662.88,713.57 L665.29,744.18 L671.19,774.01 L680.46,802.57 L692.89,829.42 L708.23,854.14 L726.17,876.34 L746.35,895.69 L768.37,911.91 L791.80,924.76 L816.17,934.08 L841.00,939.78 L865.81,941.80 L890.10,940.18 L913.40,935.00 L935.23,926.44 L955.17,914.71 L972.81,900.09 L987.78,882.89 L999.76,863.51 L1008.50,842.34 L1013.78,819.84 L1015.48,796.48 L1013.50,772.73 L1007.83,749.10 L998.54,726.06 L985.73,704.09 L969.60,683.65 L950.38,665.16 L928.36,649.02 L903.91,635.58 L877.40,625.12 L849.27,617.89 L819.96,614.08 L789.97,613.80 L759.77,617.10 L729.87,623.99 L700.73,634.37 L672.84,648.11 L646.64,665.00 L622.56,684.78 L600.95,707.13 L582.16,731.69 L566.47,758.05 L554.10,785.78 L545.20,814.42 L539.88,843.47 L538.17,872.45 L540.03,900.87 L545.36,928.24 L554.01,954.12 L565.74,978.05 L580.27,999.63 L597.28,1018.51 L616.37,1034.38 L637.14,1046.97 L659.15,1056.08 L681.91,1061.58 L704.94,1063.39 L727.75,1061.51 L749.87,1056.00 L770.80,1046.97 L790.11,1034.62 L807.36,1019.20 L822.17,1001.00 L834.20,980.37 L843.15,957.71 L848.79,933.45 L850.95,908.05 L849.50,881.98 L844.40,855.73 L835.68,829.79 L823.41,804.65 L807.74,780.77 L788.88,758.60 L767.10,738.55 L742.73,720.99 L716.13,706.25 L687.70,694.59 L657.90,686.25 L627.18,681.36 L596.03,680.03 L564.95,682.27 L534.42,688.05 L504.92,697.25 L476.92,709.71 L450.85,725.20 L427.10,743.42 L406.04,764.05 L387.97,786.70 L373.14,810.94 L361.76,836.33 L353.95,862.39 L349.79,888.64 L349.26,914.59 L352.32,939.75 L358.82,963.64 L368.58,985.82 L381.35,1005.87 L396.81,1023.40 L414.62,1038.07 L434.38,1049.59 L455.66,1057.74 L478.00,1062.34 L500.92,1063.28 L523.93,1060.53 L546.54,1054.10 L568.27,1044.09 L588.66,1030.65 L607.26,1013.99 L623.67,994.39 L637.52,972.17 L648.49,947.71 L656.31,921.41 L660.78,893.72 L661.74,865.11 L659.11,836.07 L652.88,807.08 L643.08,778.63 L629.85,751.20 L613.34,725.26 L593.81,701.22 L571.54,679.49 L546.88,660.42 L520.21,644.31 L491.96,631.41 L462.59,621.90 L432.56,615.92 L402.37,613.53 L372.50,614.71 L343.45,619.41 L315.69,627.48 L289.67,638.72 L265.79,652.89 L244.46,669.66 L226.00,688.68 L210.69,709.55 L198.76,731.83 L190.38,755.07 L185.65,778.78 L184.61,802.47 L187.22,825.66 L193.40,847.87 L202.99,868.62 L215.76,887.49 L231.44,904.06 L249.69,917.98 L270.15,928.93 L292.40,936.65 L316.00,940.93 L340.47,941.63 L365.33,938.68 L390.09,932.06 L414.27,921.82 L437.38,908.09 L458.97,891.06 L478.62,870.95 L495.93,848.08 L510.56,822.78 L522.21,795.46 L530.64,766.53 L535.66,736.46 L537.16,705.71 L535.09,674.79 L529.45,644.18 L520.32,614.37 L507.85,585.82 L492.24,559.00 L473.75,534.30 L452.70,512.11 L429.46,492.76 L404.42,476.53 L378.03,463.63 L350.75,454.24 L323.07,448.45 L295.46,446.28 L268.43,447.71 L242.46,452.63 L218.00,460.88 L195.49,472.23 L175.33,486.40 L157.89,503.07 L143.47,521.84 L132.34,542.31 L124.68,564.02 L120.65,586.50 L120.31,609.28 L123.66,631.86 L130.65,653.75 L141.15,674.48 L154.98,693.60 L171.88,710.69 L191.56,725.35 L213.66,737.25 L237.80,746.09 L263.53,751.64 L290.40,753.72 L317.93,752.23 L345.64,747.10 L373.03,738.37 L399.62,726.12 L424.94,710.49 L448.55,691.70 L470.03,670.01 L489.02,645.75 L505.19,619.29 L518.26,591.03 L528.02,561.42 L534.31,530.92 L537.05,500.02 L536.21,469.20 L531.83,438.97 L524.02,409.79 L512.95,382.14 L498.85,356.44 L482.01,333.09 L462.77,312.44 L441.51,294.82 L418.64,280.46 L394.63,269.57 L369.94,262.27 L345.06,258.64 L320.48,258.67 L296.69,262.29 L274.15,269.39 L253.33,279.76 L234.63,293.15 L218.45,309.26 L205.12,327.73 L194.93,348.17 L188.10,370.13 L184.82,393.18 L185.18,416.81 L189.22,440.56 L196.93,463.92 L208.21,486.42 L222.91,507.58 L240.81,526.98 L261.64,544.19 L285.07,558.87 L310.72,570.67 L338.20,579.34 L367.04,584.68 L396.79,586.52 L426.96,584.79 L457.06,579.47 L486.59,570.62 L515.08,558.33 L542.08,542.80 L567.14,524.25 L589.88,502.99 L609.95,479.35 L627.03,453.73 L640.89,426.54 L651.33,398.25 L658.23,369.32 L661.52,340.25 L661.22,311.52 L657.40,283.63 L650.19,257.04 L639.78,232.21 L626.44,209.54 L610.48,189.43 L592.25,172.21 L572.16,158.15 L550.65,147.49 L528.16,140.39 L505.19,136.95 L482.22,137.21 L459.74,141.14 L438.23,148.64 L418.15,159.55 L399.95,173.66 L384.02,190.68 L370.73,210.29 L360.39,232.10 L353.27,255.72 L349.56,280.67 L349.42,306.51 L352.91,332.74 L360.04,358.88 L370.77,384.43 L384.97,408.92 L402.45,431.89 L422.98,452.92 L446.26,471.62 L471.93,487.64 L499.61,500.68 L528.86,510.50 L559.24,516.92 L590.26,519.83 L621.43,519.15 L652.26,514.92 L682.27,507.21 L710.98,496.15 L737.96,481.96 L762.77,464.90 L785.06,445.29 L804.48,423.48 L820.75,399.88 L833.67,374.94 L843.06,349.11 L848.83,322.89 L850.95,296.75 L849.46,271.18 L844.45,246.67 L836.10,223.69 L824.62,202.65 L810.30,183.97 L793.47,168.01 L774.51,155.07 L753.85,145.41 L731.92,139.24 L709.20,136.68 L686.17,137.81 L663.32,142.63 L641.14,151.08 L620.11,163.04 L600.67,178.31 L583.25,196.66 L568.23,217.77 L555.96,241.29 L546.72,266.84 L540.76,293.97 L538.25,322.23 L539.29,351.14 L543.94,380.22 L552.18,408.96 L563.92,436.90 L579.01,463.55 L597.25,488.48 L618.35,511.27 L642.01,531.55 L667.85,548.99 L695.46,563.33 L724.39,574.35 L754.20,581.89 L784.38,585.86 L814.44,586.24 L843.91,583.08 L872.30,576.47 L899.14,566.60 L924.00,553.68 L946.50,538.01 L966.26,519.93 L982.99,499.83 L996.43,478.11 L1006.38,455.23 L1012.73,431.67 L1015.39,407.91 L1014.37,384.44 L1009.74,361.74 L1001.63,340.29 L990.23,320.55 L975.79,302.92 L958.63,287.79 L939.09,275.50 L917.57,266.33 L894.51,260.52 L870.36,258.23 L845.61,259.57 L820.75,264.58 L796.26,273.24 L772.62,285.45 L750.31,301.06 L729.75,319.85 L711.37,341.55 L695.52,365.82 L682.53,392.31 L672.66,420.59 L666.12,450.21 L663.06,480.72 L663.56,511.63 L667.64,542.43 L675.25,572.66 L686.27,601.82 L700.53,629.45 L717.79,655.13 L737.75,678.47 L760.08,699.10 L784.38,716.74 L810.23,731.12 L837.18,742.07 L864.75,749.45 L892.45,753.21 L919.79,753.36 L946.29,749.96 L971.47,743.15 L994.89,733.13 L1016.12,720.15 L1034.80,704.54 L1050.58,686.65 L1063.19,666.87 L1072.39,645.65 L1078.03,623.44 L1080.00,600.73 L1078.27,578.01 L1072.86,555.75 L1063.88,534.46 L1051.49,514.57 L1035.91,496.55 L1017.41,480.77 L996.32,467.62 L973.03,457.40 L947.95,450.38 L921.52,446.76 L894.22,446.67 L866.53,450.20 L838.94,457.35 L811.94,468.07 L786.00,482.24 L761.59,499.67 L739.12,520.12 L719.00,543.29 L701.55,568.83 L687.09,596.36 L675.86,625.43 L668.02,655.60 L663.71,686.38 L662.98,717.30 L665.82,747.84 L672.13,777.54 L681.80,805.92 L694.59,832.53 L710.27,856.97 L728.50,878.84 L748.93,897.82 L771.14,913.64 L794.70,926.08 L819.16,934.97 L844.01,940.22 L868.78,941.79 L892.98,939.74 L916.13,934.15 L937.76,925.19 L957.44,913.09 L974.77,898.14 L989.39,880.66 L1000.99,861.03 L1009.32,839.68 L1014.18,817.05 L1015.43,793.62 L1013.01,769.86 L1006.90,746.27 L997.17,723.33 L983.96,701.53 L967.43,681.30 L947.86,663.08 L925.53,647.25 L900.80,634.15 L874.07,624.07 L845.77,617.24 L816.36,613.85 L786.32,614.01 L756.13,617.75 L726.29,625.06 L697.28,635.86 L669.57,649.99 L643.61,667.24 L619.80,687.35 L598.52,709.99 L580.09,734.79 L564.79,761.34 L552.83,789.21 L544.36,817.92 L539.48,846.99 L538.20,875.93 L540.49,904.24 L546.24,931.46 L555.27,957.12 L567.35,980.79 L582.20,1002.07 L599.48,1020.60 L618.80,1036.08 L639.75,1048.26 L661.87,1056.94 L684.69,1062.00 L707.72,1063.36 L730.48,1061.04 L752.47,1055.09 L773.23,1045.65 L792.31,1032.92 L809.29,1017.14 L823.78,998.62 L835.45,977.73 L844.01,954.86 L849.24,930.43 L850.96,904.92 L849.08,878.80 L843.54,852.57 L834.38,826.70 L821.69,801.68 L805.62,777.99 L786.40,756.05 L764.29,736.29 L739.62,719.05 L712.78,704.67 L684.16,693.41 L654.22,685.47 L623.42,681.01 L592.26,680.11 L561.22,682.78 L530.79,688.98 L501.45,698.59 L473.66,711.43 L447.84,727.26 L424.40,745.80 L403.69,766.69 L386.00,789.55 L371.58,813.96 L360.63,839.46 L353.26,865.57 L349.53,891.81 L349.44,917.69 L352.92,942.72 L359.83,966.43 L369.97,988.37 L383.08,1008.13 L398.85,1025.33 L416.92,1039.63 L436.89,1050.76 L458.32,1058.49 L480.75,1062.65 L503.70,1063.15 L526.69,1059.95 L549.22,1053.08 L570.82,1042.64 L591.01,1028.80 L609.37,1011.77 L625.49,991.83 L639.01,969.32 L649.61,944.61 L657.04,918.12 L661.08,890.30 L661.61,861.61 L658.55,832.55 L651.88,803.60 L641.66,775.25 L628.02,747.98 L611.14,722.24 L591.26,698.46 L568.68,677.04 L543.75,658.31 L516.87,642.57 L488.46,630.07 L458.98,620.99 L428.90,615.44 L398.73,613.48 L368.94,615.10 L340.02,620.21 L312.44,628.67 L286.65,640.29 L263.07,654.78 L242.07,671.85 L223.97,691.11 L209.06,712.18 L197.55,734.60 L189.61,757.92 L185.33,781.66 L184.73,805.31 L187.78,828.41 L194.39,850.46 L204.37,871.01 L217.51,889.62 L233.51,905.89 L252.06,919.47 L272.76,930.04 L295.20,937.35 L318.92,941.21 L343.47,941.47 L368.34,938.07 L393.06,931.01 L417.13,920.34 L440.08,906.21 L461.46,888.78 L480.84,868.33 L497.85,845.14 L512.13,819.58 L523.40,792.04 L531.43,762.94 L536.03,732.76 L537.10,701.97 L534.59,671.06 L528.53,640.52 L518.98,610.84 L506.12,582.48 L490.15,555.89 L471.33,531.47 L450.00,509.61 L426.51,490.63 L401.29,474.79 L374.77,462.31 L347.41,453.35 L319.71,447.99 L292.15,446.26 L265.22,448.12 L239.41,453.45 L215.16,462.09 L192.92,473.80 L173.07,488.29 L155.98,505.23 L141.95,524.23 L131.22,544.87 L124.00,566.71 L120.41,589.25 L120.52,612.03 L124.32,634.55 L131.74,656.33 L142.65,676.89 L156.87,695.79 L174.12,712.60 L194.12,726.94 L216.48,738.48 L240.83,746.94 L266.72,752.08 L293.70,753.73 L321.28,751.80 L348.98,746.24 L376.30,737.08 L402.76,724.40 L427.90,708.38 L451.27,689.22 L472.47,667.21 L491.13,642.66 L506.94,615.96 L519.62,587.51 L528.96,557.77 L534.83,527.19 L537.14,496.27 L535.86,465.51 L531.06,435.37 L522.85,406.36 L511.40,378.92 L496.96,353.48 L479.81,330.44 L460.30,310.15 L438.82,292.90 L415.79,278.96 L391.67,268.49 L366.93,261.64 L342.06,258.45 L317.55,258.92 L293.89,262.97 L271.54,270.47 L250.95,281.22 L232.54,294.96 L216.68,311.37 L203.72,330.11 L193.92,350.75 L187.52,372.87 L184.67,396.02 L185.47,419.69 L189.96,443.42 L198.11,466.70 L209.82,489.06 L224.91,510.03 L243.18,529.18 L264.34,546.11 L288.06,560.45 L313.96,571.89 L341.62,580.17 L370.60,585.09 L400.43,586.50 L430.62,584.34 L460.67,578.59 L490.10,569.31 L518.44,556.62 L545.22,540.71 L570.02,521.82 L592.46,500.25 L612.18,476.35 L628.88,450.51 L642.33,423.17 L652.35,394.77 L658.82,365.80 L661.68,336.75 L660.95,308.10 L656.70,280.34 L649.09,253.94 L638.32,229.34 L624.64,206.97 L608.39,187.19 L589.91,170.33 L569.63,156.68 L547.97,146.44 L525.40,139.78 L502.40,136.78 L479.46,137.49 L457.07,141.86 L435.71,149.78 L415.84,161.10 L397.89,175.57 L382.26,192.92 L369.31,212.82 L359.35,234.87 L352.63,258.67 L349.35,283.76 L349.64,309.67 L353.58,335.92 L361.15,362.01 L372.31,387.46 L386.91,411.79 L404.78,434.55 L425.66,455.32 L449.25,473.71 L475.18,489.38 L503.07,502.04 L532.49,511.46 L562.97,517.46 L594.03,519.93 L625.18,518.83 L655.94,514.17 L685.82,506.04 L714.35,494.60 L741.08,480.05 L765.61,462.66 L787.56,442.76 L806.62,420.71 L822.50,396.93 L835.00,371.85 L843.95,345.95 L849.28,319.71 L850.96,293.61 L849.04,268.15 L843.62,243.80 L834.87,221.03 L823.03,200.26 L808.39,181.89 L791.28,166.28 L772.10,153.72 L751.25,144.48 L729.20,138.73 L706.42,136.62 L683.38,138.19 L660.59,143.46 L638.53,152.34 L617.66,164.71 L598.44,180.37 L581.29,199.07 L566.59,220.49 L554.67,244.28 L545.82,270.04 L540.27,297.34 L538.18,325.70 L539.66,354.66 L544.75,383.72 L553.42,412.40 L565.57,440.20 L581.06,466.67 L599.65,491.36 L621.09,513.86 L645.03,533.81 L671.10,550.90 L698.90,564.85 L727.96,575.45 L757.84,582.56 L788.03,586.10 L818.05,586.05 L847.41,582.46 L875.63,575.45 L902.26,565.19 L926.86,551.93 L949.04,535.95 L968.45,517.60 L984.79,497.28 L997.82,475.39 L1007.35,452.41 L1013.24,428.80 L1015.46,405.04 L1014.00,381.64 L1008.94,359.07 L1000.42,337.81 L988.64,318.29 L973.85,300.95 L956.38,286.14 L936.58,274.22 L914.85,265.45 L891.63,260.05 L867.39,258.20 L842.60,259.98 L817.76,265.44 L793.34,274.53 L769.84,287.16 L747.72,303.17 L727.40,322.33 L709.31,344.35 L693.79,368.92 L681.16,395.64 L671.69,424.11 L665.56,453.87 L662.93,484.45 L663.86,515.37 L668.37,546.13 L676.40,576.25 L687.83,605.25 L702.46,632.67 L720.07,658.09 L740.34,681.12 L762.92,701.40 L787.44,718.66 L813.45,732.63 L840.49,743.15 L868.10,750.10 L895.78,753.42 L923.05,753.13 L949.41,749.31 L974.40,742.10 L997.58,731.71 L1018.53,718.40 L1036.87,702.49 L1052.28,684.35 L1064.49,664.37 L1073.26,643.01 L1078.46,620.71 L1079.99,597.98 L1077.81,575.28 L1071.96,553.12 L1062.56,531.97 L1049.77,512.29 L1033.82,494.51 L1014.99,479.04 L993.62,466.22 L970.09,456.38 L944.82,449.76 L918.26,446.56 L890.88,446.90 L863.18,450.87 L835.63,458.46 L808.74,469.60 L782.96,484.18 L758.76,501.99 L736.56,522.78 L716.74,546.26 L699.64,572.07 L685.56,599.80 L674.72,629.03 L667.31,659.30 L663.44,690.13 L663.14,721.02 L666.40,751.49 L673.13,781.06 L683.18,809.24 L696.34,835.61 L712.34,859.75 L730.86,881.29 L751.53,899.91 L773.93,915.33 L797.63,927.35 L822.15,935.80 L847.02,940.60 L871.75,941.74 L895.85,939.24 L918.83,933.24 L940.25,923.89 L959.67,911.43 L976.69,896.15 L990.96,878.39 L1002.18,858.53 L1010.10,837.00 L1014.53,814.25 L1015.34,790.75 L1012.46,766.99 L1005.92,743.45 L995.76,720.63 L982.13,698.99 L965.22,678.98 L945.29,661.03 L922.66,645.51 L897.67,632.76 L870.72,623.06 L842.27,616.65 L812.75,613.68 L782.66,614.27 L752.49,618.44 L722.73,626.18 L693.85,637.39 L666.33,651.91 L640.61,669.53 L617.09,689.96 L596.14,712.88 L578.07,737.92 L563.16,764.65 L551.62,792.65 L543.58,821.43 L539.13,850.50 L538.29,879.39 L541.01,907.60 L547.16,934.66 L556.57,960.10 L569.01,983.50 L584.17,1004.46 L601.72,1022.64 L621.26,1037.73 L642.37,1049.50 L664.60,1057.75 L687.47,1062.36 L710.50,1063.28 L733.19,1060.51 L755.06,1054.13 L775.64,1044.28 L794.48,1031.16 L811.18,1015.04 L825.35,996.22 L836.66,975.06 L844.83,951.97 L849.64,927.39 L850.93,901.78 L848.60,875.63 L842.62,849.41 L833.03,823.62 L819.92,798.74 L803.46,775.23 L783.87,753.54 L761.43,734.06 L736.48,717.15 L709.40,703.13 L680.60,692.26 L650.53,684.74 L619.66,680.71 L588.49,680.24 L557.50,683.35 L527.17,689.97 L498.00,699.97 L470.42,713.19 L444.87,729.37 L421.75,748.21 L401.38,769.36 L384.07,792.43 L370.07,817.00 L359.54,842.59 L352.61,868.75 L349.33,894.97 L349.68,920.77 L353.58,945.66 L360.89,969.18 L371.40,990.88 L384.85,1010.35 L400.92,1027.22 L419.24,1041.15 L439.41,1051.88 L460.99,1059.18 L483.51,1062.90 L506.49,1062.96 L529.45,1059.31 L551.89,1052.00 L573.34,1041.14 L593.34,1026.90 L611.45,1009.50 L627.27,989.24 L640.45,966.44 L650.68,941.49 L657.71,914.82 L661.34,886.87 L661.43,858.11 L657.93,829.03 L650.83,800.13 L640.19,771.88 L626.15,744.77 L608.89,719.25 L588.66,695.74 L565.78,674.62 L540.60,656.24 L513.50,640.88 L484.94,628.79 L455.36,620.13 L425.25,615.01 L395.09,613.49 L365.38,615.53 L336.60,621.06 L309.22,629.92 L283.68,641.89 L260.39,656.72 L239.72,674.07 L221.99,693.57 L207.48,714.83 L196.40,737.38 L188.90,760.78 L185.06,784.53 L184.91,808.15 L188.40,831.14 L195.42,853.04 L205.80,873.37 L219.30,891.72 L235.63,907.69 L254.46,920.91 L275.39,931.10 L298.01,938.01 L321.86,941.43 L346.47,941.25 L371.35,937.41 L396.01,929.91 L419.97,918.81 L442.76,904.27 L463.92,886.46 L483.03,865.66 L499.73,842.17 L513.66,816.34 L524.55,788.59 L532.17,759.34 L536.35,729.06 L536.99,698.23 L534.05,667.34 L527.55,636.88 L517.60,607.33 L504.35,579.16 L488.02,552.81 L468.88,528.69 L447.26,507.16 L423.55,488.54 L398.14,473.09 L371.49,461.04 L344.07,452.51 L316.36,447.59 L288.85,446.30 L262.03,448.58 L236.38,454.33 L212.35,463.35 L190.38,475.41 L170.85,490.22 L154.11,507.43 L140.47,526.65 L130.16,547.46 L123.37,569.41 L120.23,592.01 L120.78,614.78 L125.02,637.24 L132.88,658.89 L144.20,679.27 L158.80,697.94 L176.40,714.47 L196.70,728.49 L219.33,739.68 L243.89,747.74 L269.94,752.47 L297.02,753.69 L324.64,751.32 L352.31,745.32 L379.55,735.73 L405.88,722.64 L430.83,706.23 L453.96,686.71 L474.87,664.37 L493.20,639.54 L508.64,612.60 L520.93,583.97 L529.86,554.10 L535.30,523.46 L537.17,492.53 L535.47,461.82 L530.25,431.80 L521.63,402.95 L509.81,375.72 L495.02,350.56 L477.56,327.83 L457.80,307.89 L436.10,291.04 L412.92,277.50 L388.70,267.47 L363.92,261.06 L339.07,258.31 L314.63,259.22 L291.10,263.70 L268.94,271.61 L248.60,282.73 L230.48,296.81 L214.95,313.52 L202.36,332.51 L192.96,353.36 L186.98,375.63 L184.57,398.86 L185.82,422.57 L190.76,446.27 L199.34,469.46 L211.47,491.68 L226.96,512.45 L245.59,531.36 L267.08,547.99 L291.09,562.00 L317.22,573.07 L345.07,580.95 L374.18,585.45 L404.07,586.43 L434.27,583.83 L464.27,577.65 L493.60,567.95 L521.77,554.86 L548.33,538.58 L572.87,519.35 L594.99,497.48 L614.36,473.32 L630.69,447.28 L643.73,419.78 L653.32,391.29 L659.36,362.28 L661.78,333.25 L660.62,304.68 L655.96,277.06 L647.95,250.86 L636.81,226.51 L622.81,204.43 L606.26,184.99 L587.55,168.50 L567.07,155.25 L545.28,145.44 L522.63,139.22 L499.61,136.67 L476.71,137.83 L454.42,142.63 L433.22,150.97 L413.56,162.68 L395.87,177.52 L380.55,195.20 L367.94,215.38 L358.36,237.67 L352.05,261.65 L349.20,286.86 L349.93,312.84 L354.30,339.09 L362.31,365.13 L373.89,390.47 L388.91,414.63 L407.15,437.17 L428.38,457.68 L452.27,475.76 L478.46,491.08 L506.56,503.36 L536.13,512.37 L566.70,517.95 L597.80,519.99 L628.94,518.45 L659.61,513.37 L689.35,504.83 L717.69,493.00 L744.17,478.09 L768.41,460.38 L790.03,440.20 L808.71,417.92 L824.19,393.96 L836.27,368.76 L844.79,342.79 L849.68,316.53 L850.92,290.49 L848.56,265.14 L842.73,240.96 L833.60,218.40 L821.40,197.90 L806.44,179.85 L789.06,164.59 L769.65,152.43 L748.64,143.59 L726.48,138.28 L703.63,136.61 L680.60,138.63 L657.87,144.34 L635.93,153.66 L615.24,166.44 L596.25,182.48 L579.38,201.52 L565.00,223.25 L553.43,247.30 L544.97,273.27 L539.83,300.72 L538.17,329.18 L540.08,358.18 L545.61,387.22 L554.70,415.82 L567.27,443.48 L583.15,469.76 L602.10,494.20 L623.86,516.42 L648.08,536.04 L674.38,552.76 L702.35,566.31 L731.54,576.50 L761.48,583.18 L791.68,586.28 L821.65,585.80 L850.90,581.79 L878.95,574.37 L905.35,563.74 L929.68,550.13 L951.54,533.85 L970.60,515.24 L986.55,494.70 L999.16,472.66 L1008.25,449.57 L1013.71,425.92 L1015.48,402.18 L1013.58,378.86 L1008.09,356.42 L999.17,335.34 L987.00,316.07 L971.88,299.01 L954.10,284.54 L934.04,272.98 L912.11,264.61 L888.75,259.64 L864.41,258.22 L839.59,260.45 L814.77,266.35 L790.44,275.87 L767.08,288.92 L745.15,305.32 L725.09,324.85 L707.29,347.20 L692.10,372.04 L679.84,399.00 L670.76,427.65 L665.05,457.53 L662.85,488.18 L664.22,519.11 L669.16,549.82 L677.61,579.83 L689.43,608.66 L704.44,635.86 L722.38,661.01 L742.95,683.72 L765.80,703.66 L790.51,720.52 L816.67,734.09 L843.81,744.19 L871.46,750.70 L899.11,753.58 L926.30,752.85 L952.52,748.61 L977.31,741.01 L1000.24,730.25 L1020.89,716.61 L1038.90,700.41 L1053.93,682.02 L1065.73,661.85 L1074.09,640.35 L1078.84,617.98 L1079.92,595.22 L1077.29,572.56 L1071.01,550.50 L1061.19,529.50 L1048.00,510.03 L1031.68,492.51 L1012.53,477.34 L990.88,464.87 L967.11,455.40 L941.66,449.19 L914.98,446.41 L887.54,447.19 L859.83,451.60 L832.34,459.62 L805.55,471.19 L779.94,486.16 L755.96,504.35 L734.03,525.49 L714.52,549.27 L697.77,575.33 L684.07,603.27 L673.64,632.65 L666.65,663.01 L663.21,693.87 L663.34,724.74 L667.03,755.13 L674.17,784.55 L684.61,812.54 L698.13,838.66 L714.46,862.51 L733.26,883.71 L754.15,901.95 L776.74,916.97 L800.56,928.56 L825.15,936.57 L850.03,940.93 L874.71,941.63 L898.70,938.70 L921.52,932.28 L942.71,922.54 L961.86,909.72 L978.57,894.12 L992.49,876.09 L1003.32,856.01 L1010.82,834.31 L1014.82,811.44 L1015.19,787.88 L1011.87,764.12 L1004.88,740.64 L994.29,717.94 L980.25,696.47 L962.97,676.69 L942.69,659.02 L919.75,643.82 L894.50,631.42 L867.35,622.11 L838.74,616.10 L809.13,613.56 L779.01,614.58 L748.86,619.19 L719.18,627.36 L690.44,638.98 L663.12,653.89 L637.64,671.86 L614.41,692.61 L593.79,715.81 L576.10,741.07 L561.59,767.98 L550.46,796.10 L542.85,824.94 L538.84,854.02 L538.43,882.85 L541.57,910.95 L548.13,937.83 L557.92,963.05 L570.70,986.17 L586.18,1006.81 L603.99,1024.63 L623.74,1039.34 L645.01,1050.68 L667.34,1058.50 L690.26,1062.67 L713.27,1063.14 L735.89,1059.93 L757.62,1053.12 L778.02,1042.86 L796.63,1029.37 L813.03,1012.90 L826.87,993.77 L837.82,972.36 L845.59,949.07 L849.99,924.34 L850.84,898.64 L848.07,872.45 L841.65,846.25 L831.63,820.55 L818.10,795.81 L801.25,772.51 L781.30,751.06 L758.54,731.87 L733.31,715.30 L706.00,701.65 L677.02,691.17 L646.83,684.07 L615.90,680.47 L584.72,680.43 L553.78,683.96 L523.57,691.00 L494.57,701.41 L467.21,715.00 L441.94,731.51 L419.13,750.65 L399.12,772.06 L382.20,795.33 L368.61,820.05 L358.51,845.74 L352.02,871.92 L349.18,898.12 L349.96,923.84 L354.29,948.59 L362.00,971.91 L372.88,993.37 L386.66,1012.54 L403.02,1029.07 L421.59,1042.63 L441.95,1052.95 L463.67,1059.82 L486.27,1063.11 L509.28,1062.71 L532.20,1058.62 L554.55,1050.87 L575.85,1039.60 L595.64,1024.96 L613.49,1007.20 L629.01,986.61 L641.85,963.53 L651.71,938.35 L658.33,911.50 L661.54,883.42 L661.20,854.60 L657.26,825.52 L649.73,796.67 L638.67,768.53 L624.22,741.59 L606.59,716.29 L586.03,693.05 L562.85,672.24 L537.41,654.21 L510.12,639.24 L481.41,627.56 L451.74,619.32 L421.59,614.64 L391.46,613.55 L361.84,616.02 L333.20,621.96 L306.02,631.20 L280.73,643.54 L257.74,658.69 L237.41,676.32 L220.06,696.06 L205.96,717.50 L195.30,740.18 L188.24,763.64 L184.84,787.41 L185.14,810.97 L189.06,833.86 L196.50,855.59 L207.27,875.71 L221.13,893.79 L237.78,909.44 L256.88,922.31 L278.04,932.12 L300.84,938.61 L324.80,941.60 L349.47,940.98 L374.35,936.70 L398.96,928.75 L422.80,917.24 L445.41,902.28 L466.35,884.10 L485.19,862.95 L501.57,839.16 L515.15,813.08 L525.65,785.12 L532.86,755.72 L536.62,725.35 L536.82,694.49 L533.45,663.62 L526.53,633.24 L516.17,603.84 L502.53,575.87 L485.84,549.77 L466.39,525.94 L444.50,504.74 L420.55,486.49 L394.97,471.45 L368.21,459.81 L340.72,451.72 L313.01,447.24 L285.56,446.39 L258.86,449.10 L233.38,455.25 L209.58,464.65 L187.88,477.06 L168.67,492.18 L152.29,509.66 L139.04,529.09 L129.15,550.07 L122.80,572.11 L120.10,594.76 L121.10,617.53 L125.78,639.91 L134.07,661.43 L145.80,681.63 L160.77,700.06 L178.72,716.31 L199.32,730.00 L222.21,740.82 L246.97,748.49 L273.17,752.80 L300.34,753.60 L327.99,750.79 L355.64,744.35 L382.80,734.33 L408.98,720.83 L433.73,704.02 L456.61,684.15 L477.23,661.49 L495.23,636.38 L510.30,609.22 L522.19,580.41 L530.71,550.43 L535.72,519.72 L537.16,488.80 L535.02,458.14 L529.38,428.23 L520.37,399.56 L508.17,372.56 L493.04,347.67 L475.29,325.26 L455.26,305.68 L433.37,289.22 L410.04,276.10 L385.72,266.50 L360.91,260.53 L336.08,258.23 L311.73,259.57 L288.34,264.48 L266.38,272.78 L246.28,284.28 L228.45,298.70 L213.27,315.71 L201.05,334.94 L192.05,355.99 L186.49,378.40 L184.52,401.71 L186.22,425.45 L191.60,449.11 L200.62,472.21 L213.16,494.28 L229.05,514.85 L248.05,533.50 L269.86,549.83 L294.14,563.50 L320.51,574.19 L348.53,581.68 L377.76,585.76 L407.72,586.31 L437.92,583.28 L467.87,576.66 L497.08,566.55 L525.08,553.06 L551.42,536.40 L575.68,516.83 L597.49,494.67 L616.50,470.26 L632.44,444.02 L645.08,416.38 L654.25,387.80 L659.84,358.76 L661.83,329.76 L660.24,301.28 L655.16,273.81 L646.77,247.80 L635.26,223.71 L620.93,201.93 L604.11,182.83 L585.16,166.72 L564.50,153.88 L542.57,144.49 L519.85,138.71 L496.82,136.62 L473.97,138.21 L451.79,143.45 L430.75,152.22 L411.30,164.32 L393.88,179.52 L378.87,197.52 L366.62,217.97 L357.42,240.49 L351.52,264.64 L349.09,289.97 L350.26,316.01 L355.08,342.27 L363.53,368.24 L375.53,393.46 L390.95,417.45 L409.57,439.77 L431.13,460.00 L455.32,477.76 L481.77,492.73 L510.07,504.63 L539.78,513.23 L570.45,518.39 L601.58,520.00 L632.68,518.03 L663.27,512.52 L692.86,503.57 L721.00,491.35 L747.23,476.09 L771.17,458.06 L792.45,437.60 L810.76,415.10 L825.84,390.96 L837.49,365.65 L845.58,339.62 L850.02,313.36 L850.82,287.37 L848.04,262.14 L841.80,238.13 L832.28,215.80 L819.73,195.58 L804.46,177.85 L786.82,162.95 L767.19,151.18 L746.01,142.76 L723.74,137.89 L700.85,136.66 L677.83,139.13 L655.17,145.28 L633.35,155.02 L612.84,168.21 L594.09,184.63 L577.50,204.02 L563.44,226.05 L552.24,250.35 L544.17,276.52 L539.44,304.12 L538.21,332.67 L540.56,361.70 L546.52,390.71 L556.04,419.22 L569.02,446.74 L585.28,472.82 L604.59,497.02 L626.66,518.94 L651.16,538.22 L677.68,554.57 L705.83,567.72 L735.14,577.49 L765.13,583.75 L795.33,586.42 L825.23,585.50 L854.36,581.07 L882.24,573.25 L908.41,562.25 L932.46,548.30 L954.00,531.71 L972.70,512.85 L988.26,492.11 L1000.45,469.91 L1009.11,446.73 L1014.12,423.04 L1015.44,399.33 L1013.10,376.08 L1007.19,353.79 L997.86,332.91 L985.33,313.88 L969.86,297.12 L951.79,282.98 L931.48,271.80 L909.35,263.82 L885.84,259.27 L861.42,258.29 L836.58,260.97 L811.79,267.31 L787.55,277.27 L764.34,290.73 L742.62,307.53 L722.81,327.40 L705.30,350.08 L690.46,375.20 L678.57,402.39 L669.89,431.21 L664.60,461.21 L662.83,491.92 L664.63,522.85 L670.00,553.50 L678.86,583.39 L691.08,612.04 L706.46,639.02 L724.74,663.89 L745.60,686.29 L768.70,705.87 L793.61,722.35 L819.91,735.50 L847.14,745.16 L874.81,751.24 L902.44,753.68 L929.53,752.53 L955.60,747.87 L980.20,739.87 L1002.87,728.74 L1023.22,714.78 L1040.88,698.29 L1055.54,679.66 L1066.93,659.31 L1074.86,637.68 L1079.17,615.23 L1079.80,592.46 L1076.73,569.85 L1070.01,547.89 L1059.77,527.05 L1046.19,507.79 L1029.51,490.54 L1010.03,475.68 L988.10,463.56 L964.11,454.47 L938.49,448.66 L911.69,446.31 L884.19,447.53 L856.48,452.37 L829.05,460.83 L802.38,472.82 L776.94,488.20 L753.19,506.76 L731.53,528.23 L712.34,552.31 L695.95,578.62 L682.63,606.75 L672.61,636.28 L666.05,666.73 L663.03,697.61 L663.60,728.45 L667.71,758.75 L675.26,788.02 L686.09,815.81 L699.97,841.67 L716.61,865.22 L735.68,886.08 L756.80,903.94 L779.56,918.56 L803.50,929.72 L828.16,937.30 L853.04,941.21 L877.66,941.46 L901.53,938.11 L924.18,931.27 L945.15,921.15 L964.02,907.98 L980.40,892.06 L993.97,873.76 L1004.41,853.46 L1011.50,831.59 L1015.06,808.61 L1014.98,785.01 L1011.22,761.25 L1003.78,737.84 L992.77,715.26 L978.33,693.98 L960.67,674.44 L940.05,657.04 L916.81,642.16 L891.31,630.13 L863.96,621.20 L835.20,615.61 L805.51,613.49 L775.35,614.95 L745.23,619.99 L715.64,628.58 L687.05,640.61 L659.93,655.90 L634.70,674.23 L611.77,695.29 L591.49,718.76 L574.17,744.25 L560.06,771.33 L549.35,799.56 L542.17,828.45 L538.60,857.53 L538.63,886.30 L542.19,914.27 L549.15,940.98 L559.32,965.96 L572.44,988.81 L588.21,1009.13 L606.28,1026.58 L626.24,1040.89 L647.67,1051.82 L670.09,1059.20 L693.05,1062.92 L716.04,1062.94 L738.57,1059.29 L760.17,1052.06 L780.37,1041.40 L798.74,1027.53 L814.85,1010.72 L828.36,991.30 L838.93,969.63 L846.31,946.15 L850.28,921.27 L850.70,895.49 L847.49,869.27 L840.63,843.11 L830.18,817.50 L816.24,792.91 L799.00,769.80 L778.69,748.61 L755.61,729.72 L730.11,713.49 L702.57,700.21 L673.42,690.13 L643.12,683.45 L612.13,680.27 L580.95,680.67 L550.08,684.63 L519.99,692.08 L491.16,702.89 L464.04,716.84 L439.04,733.70 L416.55,753.13 L396.90,774.78 L380.38,798.26 L367.20,823.11 L357.53,848.89 L351.48,875.10 L349.08,901.27 L350.30,926.89 L355.04,951.50 L363.15,974.62 L374.40,995.82 L388.51,1014.69 L405.16,1030.87 L423.97,1044.05 L444.52,1053.97 L466.37,1060.42 L489.05,1063.26 L512.07,1062.41 L534.95,1057.87 L557.19,1049.69 L578.33,1038.00 L597.91,1022.97 L615.50,1004.85 L630.71,983.94 L643.21,960.59 L652.68,935.18 L658.90,908.16 L661.69,879.96 L660.92,851.08 L656.54,822.00 L648.58,793.21 L637.10,765.20 L622.26,738.44 L604.25,713.36 L583.36,690.39 L559.88,669.91 L534.20,652.24 L506.71,637.65 L477.86,626.37 L448.11,618.56 L417.94,614.31 L387.84,613.66 L358.31,616.56 L329.83,622.90 L302.85,632.54 L277.82,645.23 L255.13,660.70 L235.15,678.60 L218.18,698.57 L204.48,720.18 L194.25,742.99 L187.63,766.51 L184.68,790.28 L185.42,813.79 L189.78,836.56 L197.63,858.12 L208.79,878.01 L223.00,895.82 L239.97,911.15 L259.34,923.67 L280.72,933.08 L303.68,939.16 L327.76,941.72 L352.48,940.66 L377.36,935.93 L401.89,927.55 L425.61,915.61 L448.04,900.25 L468.75,881.69 L487.31,860.21 L503.36,836.12 L516.59,809.79 L526.70,781.63 L533.50,752.09 L536.83,721.63 L536.61,690.74 L532.80,659.91 L525.46,629.63 L514.69,600.37 L500.67,572.60 L483.63,546.75 L463.86,523.23 L441.70,502.37 L417.54,484.50 L391.79,469.86 L364.91,458.65 L337.37,450.99 L309.67,446.95 L282.28,446.53 L255.70,449.66 L230.40,456.22 L206.83,466.00 L185.42,478.75 L166.53,494.18 L150.52,511.91 L137.66,531.56 L128.19,552.69 L122.27,574.83 L120.02,597.52 L121.47,620.26 L126.60,642.57 L135.31,663.96 L147.44,683.96 L162.79,702.15 L181.08,718.11 L201.98,731.47 L225.11,741.92 L250.07,749.20 L276.42,753.09 L303.67,753.45 L331.35,750.20 L358.96,743.33 L386.02,732.88 L412.06,718.97 L436.60,701.78 L459.23,681.55 L479.55,658.57 L497.21,633.20 L511.91,605.81 L523.40,576.84 L531.50,546.74 L536.08,515.98 L537.09,485.06 L534.53,454.47 L528.47,424.69 L519.06,396.19 L506.49,369.43 L491.03,344.82 L472.98,322.74 L452.71,303.52 L430.61,287.45 L407.14,274.75 L382.74,265.58 L357.89,260.06 L333.10,258.20 L308.84,259.98 L285.60,265.30 L263.84,274.01 L243.99,285.88 L226.47,300.63 L211.63,317.93 L199.78,337.40 L191.19,358.63 L186.06,381.18 L184.53,404.57 L186.68,428.32 L192.50,451.94 L201.95,474.94 L214.91,496.85 L231.19,517.22 L250.54,535.60 L272.67,551.63 L297.23,564.95 L323.82,575.27 L352.01,582.35 L381.36,586.01 L411.37,586.13 L441.56,582.67 L471.45,575.62 L500.54,565.09 L528.36,551.21 L554.47,534.18 L578.46,514.28 L599.95,491.83 L618.60,467.18 L634.15,440.74 L646.37,412.96 L655.11,384.30 L660.27,355.24 L661.82,326.27 L659.81,297.89 L654.32,270.57 L645.53,244.78 L633.67,220.94 L619.02,199.47 L601.92,180.72 L582.74,164.99 L561.90,152.55 L539.86,143.60 L517.07,138.26 L494.04,136.61 L471.25,138.66 L449.18,144.33 L428.30,153.51 L409.08,166.00 L391.93,181.55 L377.24,199.87 L365.34,220.59 L356.53,243.33 L351.04,267.65 L349.04,293.10 L350.65,319.19 L355.91,345.43 L364.79,371.34 L377.22,396.44 L393.03,420.25 L412.03,442.34 L433.93,462.29 L458.41,479.73 L485.10,494.34 L513.60,505.85 L543.45,514.04 L574.20,518.77 L605.35,519.95 L636.42,517.55 L666.91,511.62 L696.35,502.26 L724.28,489.66 L750.26,474.05 L773.89,455.71 L794.83,434.98 L812.76,412.26 L827.44,387.95 L838.66,362.52 L846.31,336.44 L850.31,310.19 L850.68,284.27 L847.47,259.16 L840.81,235.33 L830.92,213.24 L818.02,193.30 L802.45,175.89 L784.54,161.35 L764.70,149.97 L743.37,141.98 L720.99,137.54 L698.06,136.76 L675.06,139.68 L652.48,146.27 L630.79,156.44 L610.47,170.03 L591.96,186.82 L575.66,206.55 L561.93,228.87 L551.09,253.43 L543.42,279.79 L539.10,307.53 L538.30,336.17 L541.09,365.22 L547.48,394.20 L557.43,422.61 L570.82,449.98 L587.46,475.85 L607.12,499.80 L629.50,521.42 L654.26,540.36 L681.01,556.34 L709.32,569.09 L738.74,578.44 L768.78,584.26 L798.97,586.49 L828.81,585.15 L857.81,580.30 L885.50,572.09 L911.44,560.71 L935.21,546.42 L956.42,529.54 L974.75,510.43 L989.92,489.49 L1001.69,467.15 L1009.91,443.89 L1014.48,420.17 L1015.35,396.48 L1012.58,373.33 L1006.24,351.18 L996.51,330.50 L983.61,311.73 L967.81,295.26 L949.44,281.47 L928.89,270.66 L906.57,263.09 L882.93,258.96 L858.43,258.42 L833.56,261.54 L808.82,268.32 L784.68,278.71 L761.63,292.59 L740.11,309.77 L720.56,330.01 L703.36,352.99 L688.86,378.39 L677.35,405.80" fill="none" stroke="#2196f3" stroke-width="0.5" stroke-linecap="round" stroke-linejoin="round" opacity="0.6" />
</svg>